G04*
G04 #@! TF.GenerationSoftware,Altium Limited,Altium Designer,21.1.1 (26)*
G04*
G04 Layer_Color=128*
%FSLAX25Y25*%
%MOIN*%
G70*
G04*
G04 #@! TF.SameCoordinates,D2CF5B13-6A79-4D9C-8E4E-AA6CB0D1C9A8*
G04*
G04*
G04 #@! TF.FilePolarity,Positive*
G04*
G01*
G75*
%ADD24R,0.02756X0.05118*%
%ADD27R,0.03800X0.03100*%
%ADD29R,0.03100X0.03800*%
%ADD39R,0.05118X0.02756*%
%ADD184R,0.04331X0.02362*%
%ADD185R,0.03543X0.06299*%
%ADD186R,0.06299X0.03543*%
%ADD187R,0.04646X0.02284*%
D24*
X314232Y9016D02*
D03*
X306752D02*
D03*
X289961Y58780D02*
D03*
X297441D02*
D03*
X310413Y94902D02*
D03*
X302933D02*
D03*
D27*
X323543Y14980D02*
D03*
X329843D02*
D03*
X296890Y69016D02*
D03*
X290590D02*
D03*
X296319Y51496D02*
D03*
X290019D02*
D03*
X346752Y48898D02*
D03*
X340452D02*
D03*
X335591D02*
D03*
X329291D02*
D03*
X296851Y73622D02*
D03*
X290551D02*
D03*
X309843Y89370D02*
D03*
X303543D02*
D03*
D29*
X318366Y21044D02*
D03*
Y14744D02*
D03*
X313642Y21044D02*
D03*
Y14744D02*
D03*
X318307Y3287D02*
D03*
Y9587D02*
D03*
X338976Y3307D02*
D03*
Y9607D02*
D03*
X329867Y85040D02*
D03*
Y78740D02*
D03*
X335039D02*
D03*
Y85040D02*
D03*
X340158D02*
D03*
Y78740D02*
D03*
X340059Y55866D02*
D03*
Y62166D02*
D03*
X335216Y62087D02*
D03*
Y55787D02*
D03*
X335206Y67346D02*
D03*
Y73646D02*
D03*
X340058Y73708D02*
D03*
Y67408D02*
D03*
X292382Y84646D02*
D03*
Y78346D02*
D03*
X297028Y84626D02*
D03*
Y78326D02*
D03*
D39*
X307539Y21693D02*
D03*
Y14213D02*
D03*
X307874Y29331D02*
D03*
Y36811D02*
D03*
X314173Y29331D02*
D03*
Y36811D02*
D03*
X320472Y29331D02*
D03*
Y36811D02*
D03*
D184*
X333858Y3110D02*
D03*
Y10590D02*
D03*
X323622D02*
D03*
Y6850D02*
D03*
Y3110D02*
D03*
D185*
X323406Y21142D02*
D03*
X334823D02*
D03*
D186*
X346995Y68402D02*
D03*
Y56985D02*
D03*
X347005Y73624D02*
D03*
Y85042D02*
D03*
D187*
X324409Y83661D02*
D03*
Y78661D02*
D03*
Y73661D02*
D03*
Y68661D02*
D03*
Y63661D02*
D03*
Y58661D02*
D03*
Y53661D02*
D03*
X303465Y83661D02*
D03*
Y78661D02*
D03*
Y73661D02*
D03*
Y68661D02*
D03*
Y63661D02*
D03*
Y58661D02*
D03*
Y53661D02*
D03*
M02*
