G04*
G04 #@! TF.GenerationSoftware,Altium Limited,Altium Designer,21.1.1 (26)*
G04*
G04 Layer_Color=8388736*
%FSLAX25Y25*%
%MOIN*%
G70*
G04*
G04 #@! TF.SameCoordinates,D2CF5B13-6A79-4D9C-8E4E-AA6CB0D1C9A8*
G04*
G04*
G04 #@! TF.FilePolarity,Negative*
G04*
G01*
G75*
%ADD12C,0.00125*%
%ADD60R,0.04528X0.02559*%
%ADD61R,0.03150X0.05512*%
%ADD62R,0.08268X0.04724*%
%ADD63R,0.02362X0.06299*%
%ADD64R,0.04194X0.03494*%
%ADD65R,0.04724X0.03543*%
%ADD66R,0.03494X0.04194*%
%ADD67R,0.05118X0.06693*%
%ADD68R,0.13386X0.06693*%
G04:AMPARAMS|DCode=69|XSize=34.94mil|YSize=41.94mil|CornerRadius=0mil|HoleSize=0mil|Usage=FLASHONLY|Rotation=135.000|XOffset=0mil|YOffset=0mil|HoleType=Round|Shape=Rectangle|*
%AMROTATEDRECTD69*
4,1,4,0.02718,0.00248,-0.00248,-0.02718,-0.02718,-0.00248,0.00248,0.02718,0.02718,0.00248,0.0*
%
%ADD69ROTATEDRECTD69*%

G04:AMPARAMS|DCode=70|XSize=34.94mil|YSize=41.94mil|CornerRadius=0mil|HoleSize=0mil|Usage=FLASHONLY|Rotation=45.000|XOffset=0mil|YOffset=0mil|HoleType=Round|Shape=Rectangle|*
%AMROTATEDRECTD70*
4,1,4,0.00248,-0.02718,-0.02718,0.00248,-0.00248,0.02718,0.02718,-0.00248,0.00248,-0.02718,0.0*
%
%ADD70ROTATEDRECTD70*%

G04:AMPARAMS|DCode=71|XSize=66.93mil|YSize=53.15mil|CornerRadius=0mil|HoleSize=0mil|Usage=FLASHONLY|Rotation=315.000|XOffset=0mil|YOffset=0mil|HoleType=Round|Shape=Rectangle|*
%AMROTATEDRECTD71*
4,1,4,-0.04245,0.00487,-0.00487,0.04245,0.04245,-0.00487,0.00487,-0.04245,-0.04245,0.00487,0.0*
%
%ADD71ROTATEDRECTD71*%

%ADD72R,0.01575X0.05118*%
%ADD73R,0.05118X0.01575*%
%ADD74R,0.02756X0.05748*%
%ADD75R,0.02559X0.04528*%
%ADD76R,0.05512X0.03150*%
%ADD77R,0.02362X0.04331*%
%ADD78R,0.10630X0.14961*%
%ADD79R,0.01968X0.05709*%
%ADD80R,0.08661X0.06693*%
%ADD81R,0.07874X0.07480*%
%ADD82R,0.13002X0.17333*%
%ADD83R,0.15364X0.24420*%
%ADD84R,0.03150X0.06299*%
%ADD85R,0.04331X0.03543*%
%ADD86R,0.05630X0.05630*%
%ADD87R,0.03937X0.08268*%
%ADD88R,0.08268X0.03937*%
%ADD89R,0.17333X0.13002*%
%ADD90R,0.24420X0.15364*%
%ADD91R,0.05512X0.13780*%
%ADD92R,0.06299X0.02362*%
%ADD93R,0.09252X0.08740*%
%ADD94R,0.12205X0.08268*%
%ADD95R,0.06693X0.06693*%
%ADD96R,0.06496X0.05118*%
%ADD97R,0.06112X0.04734*%
%ADD98O,0.07087X0.05118*%
%ADD99C,0.06010*%
%ADD100C,0.04331*%
%ADD101C,0.08268*%
%ADD102C,0.08278*%
%ADD103O,0.15758X0.07884*%
%ADD104O,0.07884X0.15758*%
%ADD105O,0.14183X0.07097*%
%ADD106C,0.00394*%
%ADD107C,0.01575*%
%ADD108C,0.10236*%
%ADD109C,0.12205*%
%ADD110O,0.07097X0.14183*%
D12*
X235801Y205647D02*
X236175D01*
X235551Y205398D02*
X236175D01*
X235676Y205523D02*
X236175D01*
D60*
X252244Y241024D02*
D03*
X263268D02*
D03*
X205512Y241041D02*
D03*
X194488D02*
D03*
D61*
X146260Y131102D02*
D03*
X153740D02*
D03*
Y146063D02*
D03*
X146260D02*
D03*
X153720Y124980D02*
D03*
X146240D02*
D03*
X32087Y9833D02*
D03*
X39567D02*
D03*
X32087Y3819D02*
D03*
X39567D02*
D03*
X319596Y87126D02*
D03*
X327076D02*
D03*
X32087Y16535D02*
D03*
X39567D02*
D03*
X95617Y122937D02*
D03*
X103097D02*
D03*
X199035Y173130D02*
D03*
X206516D02*
D03*
X199055Y179252D02*
D03*
X206535D02*
D03*
X146260Y139114D02*
D03*
X153740D02*
D03*
D62*
X244094Y182362D02*
D03*
Y192362D02*
D03*
Y202362D02*
D03*
Y212362D02*
D03*
Y222362D02*
D03*
D63*
X199055Y144961D02*
D03*
X204055D02*
D03*
X209055D02*
D03*
X214055D02*
D03*
Y166614D02*
D03*
X209055D02*
D03*
X204055D02*
D03*
X199055D02*
D03*
X251700Y73627D02*
D03*
X246700D02*
D03*
X241700D02*
D03*
X236700D02*
D03*
Y51973D02*
D03*
X241700D02*
D03*
X246700D02*
D03*
X251700D02*
D03*
D64*
X326182Y58268D02*
D03*
X319882D02*
D03*
X319508Y77185D02*
D03*
X325807D02*
D03*
X153130Y119705D02*
D03*
X146830D02*
D03*
X190787Y102992D02*
D03*
X197087D02*
D03*
X190750Y107884D02*
D03*
X197050D02*
D03*
Y113100D02*
D03*
X190750D02*
D03*
X64488Y9154D02*
D03*
X70788D02*
D03*
X137874Y108346D02*
D03*
X131574D02*
D03*
X240158Y232387D02*
D03*
X233858D02*
D03*
X223084D02*
D03*
X216784D02*
D03*
X137835Y102087D02*
D03*
X131535D02*
D03*
X131574Y97000D02*
D03*
X137874D02*
D03*
Y92000D02*
D03*
X131574D02*
D03*
D65*
X319311Y66929D02*
D03*
X326752Y70669D02*
D03*
Y63189D02*
D03*
X239330Y244618D02*
D03*
Y237137D02*
D03*
X246771Y240877D02*
D03*
X47067Y112992D02*
D03*
X54508Y116732D02*
D03*
Y109252D02*
D03*
X210836Y240877D02*
D03*
X218277Y244618D02*
D03*
Y237137D02*
D03*
X58445Y9252D02*
D03*
Y16732D02*
D03*
X51004Y12992D02*
D03*
D66*
X110630Y27166D02*
D03*
Y20866D02*
D03*
X177402Y132402D02*
D03*
Y126102D02*
D03*
X173031Y132402D02*
D03*
Y126102D02*
D03*
X168602Y132402D02*
D03*
Y126102D02*
D03*
X164193D02*
D03*
Y132402D02*
D03*
X236811Y45453D02*
D03*
Y39153D02*
D03*
X241713Y45453D02*
D03*
Y39153D02*
D03*
X76555Y15808D02*
D03*
Y9507D02*
D03*
X45276Y16142D02*
D03*
Y9842D02*
D03*
X233597Y244366D02*
D03*
Y238066D02*
D03*
X223376D02*
D03*
Y244366D02*
D03*
X143799Y85650D02*
D03*
Y79350D02*
D03*
X60236Y116142D02*
D03*
Y109842D02*
D03*
D67*
X136024Y154528D02*
D03*
X154134D02*
D03*
X145079D02*
D03*
D68*
Y179724D02*
D03*
D69*
X176673Y73627D02*
D03*
X181127Y69173D02*
D03*
X211406Y77156D02*
D03*
X206951Y72701D02*
D03*
D70*
X179973Y76727D02*
D03*
X184427Y72273D02*
D03*
X193605Y76355D02*
D03*
X189151Y80810D02*
D03*
D71*
X191079Y85828D02*
D03*
X201379Y75528D02*
D03*
X197203Y91953D02*
D03*
X207504Y81652D02*
D03*
D72*
X176575Y81299D02*
D03*
X174606D02*
D03*
X172638Y81299D02*
D03*
X170669D02*
D03*
X168701Y81299D02*
D03*
X166732D02*
D03*
X164764D02*
D03*
X162795D02*
D03*
X160827Y81299D02*
D03*
X158858Y81299D02*
D03*
X156890D02*
D03*
X154921D02*
D03*
Y114764D02*
D03*
X156890D02*
D03*
X158858D02*
D03*
X160827Y114764D02*
D03*
X162795Y114764D02*
D03*
X164764D02*
D03*
X166732D02*
D03*
X168701D02*
D03*
X170669Y114764D02*
D03*
X172638D02*
D03*
X174606Y114764D02*
D03*
X176575D02*
D03*
D73*
X149016Y87205D02*
D03*
Y89173D02*
D03*
Y91142D02*
D03*
Y93110D02*
D03*
X149016Y95079D02*
D03*
Y97047D02*
D03*
Y99016D02*
D03*
X149016Y100984D02*
D03*
Y102953D02*
D03*
Y104921D02*
D03*
Y106890D02*
D03*
Y108858D02*
D03*
X182480D02*
D03*
Y106890D02*
D03*
Y104921D02*
D03*
X182480Y102953D02*
D03*
X182480Y100984D02*
D03*
Y99016D02*
D03*
Y97047D02*
D03*
Y95079D02*
D03*
X182480Y93110D02*
D03*
Y91142D02*
D03*
X182480Y89173D02*
D03*
Y87205D02*
D03*
D74*
X207028Y28642D02*
D03*
X203287D02*
D03*
X199547D02*
D03*
Y37894D02*
D03*
X203287D02*
D03*
X207028D02*
D03*
D75*
X213130Y38780D02*
D03*
Y27756D02*
D03*
X84252Y192126D02*
D03*
Y203150D02*
D03*
D76*
X219823Y39370D02*
D03*
Y31890D02*
D03*
X258169Y45768D02*
D03*
Y38287D02*
D03*
X251800Y45740D02*
D03*
Y38260D02*
D03*
X257900Y17609D02*
D03*
Y10128D02*
D03*
X251207Y17609D02*
D03*
Y10128D02*
D03*
X244514Y17609D02*
D03*
Y10128D02*
D03*
X42047Y135256D02*
D03*
Y142736D02*
D03*
X78642Y136909D02*
D03*
Y144390D02*
D03*
X72342D02*
D03*
Y136909D02*
D03*
X128248Y176594D02*
D03*
Y169114D02*
D03*
X121988Y176555D02*
D03*
Y169075D02*
D03*
D77*
X251496Y79961D02*
D03*
X247165D02*
D03*
D78*
X247152Y99137D02*
D03*
X247448Y166263D02*
D03*
D79*
X207421Y17913D02*
D03*
X204862D02*
D03*
X202303D02*
D03*
X199744D02*
D03*
X197185D02*
D03*
D80*
X190098Y17431D02*
D03*
X214508D02*
D03*
D81*
X187343Y6693D02*
D03*
X217264D02*
D03*
D82*
X151165Y58014D02*
D03*
D83*
X173999Y22778D02*
D03*
X123212D02*
D03*
D84*
X86811Y13189D02*
D03*
X98622D02*
D03*
X104528D02*
D03*
D85*
X110039Y10236D02*
D03*
X81299D02*
D03*
X110039Y2362D02*
D03*
X81299D02*
D03*
D86*
X71161Y61555D02*
D03*
Y54331D02*
D03*
Y47106D02*
D03*
X63937Y61555D02*
D03*
Y54331D02*
D03*
Y47106D02*
D03*
X56713Y61555D02*
D03*
Y54331D02*
D03*
Y47106D02*
D03*
D87*
X34409Y91732D02*
D03*
X39409D02*
D03*
X44409D02*
D03*
X49409D02*
D03*
X54409D02*
D03*
X59409D02*
D03*
X64410D02*
D03*
X69410D02*
D03*
X74410D02*
D03*
X79409D02*
D03*
X84409D02*
D03*
X89410D02*
D03*
X94410D02*
D03*
X99410D02*
D03*
Y24803D02*
D03*
X94410D02*
D03*
X89410D02*
D03*
X84409D02*
D03*
X79409D02*
D03*
X74410D02*
D03*
X69410D02*
D03*
X64410D02*
D03*
X59409D02*
D03*
X54409D02*
D03*
X49409D02*
D03*
X44409D02*
D03*
X39409D02*
D03*
X34409D02*
D03*
D88*
X103347Y80768D02*
D03*
Y75768D02*
D03*
Y70768D02*
D03*
Y65768D02*
D03*
Y60768D02*
D03*
Y55768D02*
D03*
Y50768D02*
D03*
Y45768D02*
D03*
Y40768D02*
D03*
Y35768D02*
D03*
D89*
X63189Y181693D02*
D03*
D90*
X27953Y158858D02*
D03*
Y209646D02*
D03*
D91*
X96260Y111417D02*
D03*
X104528D02*
D03*
D92*
X87992Y129606D02*
D03*
Y134606D02*
D03*
Y139606D02*
D03*
Y144606D02*
D03*
X109646D02*
D03*
Y139606D02*
D03*
Y134606D02*
D03*
Y129606D02*
D03*
D93*
X70138Y112205D02*
D03*
X87343D02*
D03*
D94*
X88169Y161575D02*
D03*
X111791D02*
D03*
D95*
X84252Y211024D02*
D03*
X98425D02*
D03*
D96*
X142126Y190532D02*
D03*
X107480D02*
D03*
Y211043D02*
D03*
D97*
X142126D02*
D03*
D98*
X270892Y39459D02*
D03*
Y33554D02*
D03*
Y27648D02*
D03*
Y21743D02*
D03*
Y15837D02*
D03*
Y9932D02*
D03*
X295276Y7283D02*
D03*
Y13189D02*
D03*
Y19094D02*
D03*
Y25000D02*
D03*
Y30906D02*
D03*
Y36811D02*
D03*
D99*
X358484Y36161D02*
D03*
Y129724D02*
D03*
X293091Y128898D02*
D03*
X173721Y365295D02*
D03*
X56968Y137224D02*
D03*
X232480Y14370D02*
D03*
D100*
X316063Y117264D02*
D03*
X330236D02*
D03*
Y103091D02*
D03*
X247152Y146184D02*
D03*
X247349Y116361D02*
D03*
D101*
X34646Y240551D02*
D03*
X14961D02*
D03*
X34646Y283465D02*
D03*
X14961D02*
D03*
X170079Y351181D02*
D03*
X51968D02*
D03*
X72492Y313158D02*
D03*
X151232D02*
D03*
X131547Y234418D02*
D03*
X92177D02*
D03*
X20728Y111476D02*
D03*
Y131161D02*
D03*
D102*
X148606Y7817D02*
D03*
X12992Y184252D02*
D03*
D103*
X148606Y25534D02*
D03*
X43307Y165354D02*
D03*
D104*
X167503Y38132D02*
D03*
X30709Y184252D02*
D03*
D105*
X144275Y50337D02*
D03*
D106*
X89764Y6299D02*
D03*
X101575D02*
D03*
D107*
X71161Y57943D02*
D03*
Y50718D02*
D03*
X67549Y61555D02*
D03*
Y54331D02*
D03*
Y47106D02*
D03*
X63937Y57943D02*
D03*
Y50718D02*
D03*
X60325Y61555D02*
D03*
Y54331D02*
D03*
Y47106D02*
D03*
X56713Y57943D02*
D03*
Y50718D02*
D03*
D108*
X237362Y323189D02*
D03*
X267362Y313189D02*
D03*
Y253189D02*
D03*
X237362Y293189D02*
D03*
Y253189D02*
D03*
X189724Y323463D02*
D03*
X219724Y313463D02*
D03*
Y253463D02*
D03*
X189724Y293463D02*
D03*
Y253463D02*
D03*
D109*
X242362Y351181D02*
D03*
X262362D02*
D03*
X194724D02*
D03*
X214724D02*
D03*
X25197Y331339D02*
D03*
Y351339D02*
D03*
D110*
X55512Y188583D02*
D03*
M02*
