G04*
G04 #@! TF.GenerationSoftware,Altium Limited,Altium Designer,21.1.1 (26)*
G04*
G04 Layer_Color=2752767*
%FSLAX25Y25*%
%MOIN*%
G70*
G04*
G04 #@! TF.SameCoordinates,D2CF5B13-6A79-4D9C-8E4E-AA6CB0D1C9A8*
G04*
G04*
G04 #@! TF.FilePolarity,Positive*
G04*
G01*
G75*
%ADD197C,0.00200*%
%ADD198C,0.00267*%
%ADD199C,0.00133*%
D197*
X270092Y38659D02*
Y40259D01*
X271692D01*
Y38659D01*
X270092D01*
Y32754D02*
Y34354D01*
X271692D01*
Y32754D01*
X270092D01*
Y26848D02*
Y28448D01*
X271692D01*
Y26848D01*
X270092D01*
Y20943D02*
Y22543D01*
X271692D01*
Y20943D01*
X270092D01*
Y15037D02*
Y16637D01*
X271692D01*
Y15037D01*
X270092D01*
Y9132D02*
Y10732D01*
X271692D01*
Y9132D01*
X270092D01*
X294476Y6483D02*
Y8083D01*
X296076D01*
Y6483D01*
X294476D01*
Y12389D02*
Y13989D01*
X296076D01*
Y12389D01*
X294476D01*
Y18294D02*
Y19895D01*
X296076D01*
Y18294D01*
X294476D01*
Y24200D02*
Y25800D01*
X296076D01*
Y24200D01*
X294476D01*
Y30106D02*
Y31705D01*
X296076D01*
Y30106D01*
X294476D01*
Y36011D02*
Y37611D01*
X296076D01*
Y36011D01*
X294476D01*
X316063Y116464D02*
X315263Y118064D01*
X316863D01*
X316063Y116464D01*
X330236D02*
X329436Y118064D01*
X331036D01*
X330236Y116464D01*
Y102290D02*
X329436Y103891D01*
X331036D01*
X330236Y102290D01*
X34646Y239751D02*
X35046Y240151D01*
X35446D01*
X35046Y240551D01*
X35446Y240951D01*
X35046D01*
X34646Y241351D01*
X34246Y240951D01*
X33846D01*
X34246Y240551D01*
X33846Y240151D01*
X34246D01*
X34646Y239751D01*
X14961D02*
X15361Y240151D01*
X15761D01*
X15361Y240551D01*
X15761Y240951D01*
X15361D01*
X14961Y241351D01*
X14561Y240951D01*
X14161D01*
X14561Y240551D01*
X14161Y240151D01*
X14561D01*
X14961Y239751D01*
X34646Y282665D02*
X35046Y283065D01*
X35446D01*
X35046Y283465D01*
X35446Y283865D01*
X35046D01*
X34646Y284265D01*
X34246Y283865D01*
X33846D01*
X34246Y283465D01*
X33846Y283065D01*
X34246D01*
X34646Y282665D01*
X14961D02*
X15361Y283065D01*
X15761D01*
X15361Y283465D01*
X15761Y283865D01*
X15361D01*
X14961Y284265D01*
X14561Y283865D01*
X14161D01*
X14561Y283465D01*
X14161Y283065D01*
X14561D01*
X14961Y282665D01*
X246352Y145384D02*
X246752Y146184D01*
X246352Y146984D01*
X247152Y146584D01*
X247952Y146984D01*
X247552Y146184D01*
X247952Y145384D01*
X247152Y145784D01*
X246352Y145384D01*
X246949Y115961D02*
Y115561D01*
X247749D01*
Y115961D01*
X248149D01*
Y116761D01*
X247749D01*
Y117161D01*
X246949D01*
Y116761D01*
X246549D01*
Y115961D01*
X246949D01*
X147806Y7017D02*
X148206D01*
X148606Y7417D01*
X149006Y7017D01*
X149406D01*
Y7417D01*
X149006Y7817D01*
X149406Y8217D01*
Y8617D01*
X149006D01*
X148606Y8217D01*
X148206Y8617D01*
X147806D01*
Y8217D01*
X148206Y7817D01*
X147806Y7417D01*
Y7017D01*
Y25534D02*
X148606Y26334D01*
X149406Y25534D01*
X148606Y24734D01*
X147806Y25534D01*
X166703Y37332D02*
Y38932D01*
X168303D01*
Y37332D01*
X166703D01*
X167103Y37732D02*
Y38532D01*
X167903D01*
Y37732D01*
X167103D01*
X89764Y5499D02*
X88964Y7099D01*
X90564D01*
X89764Y5499D01*
Y5899D02*
X89364Y6699D01*
X90164D01*
X89764Y5899D01*
X101575Y5499D02*
X100775Y7099D01*
X102375D01*
X101575Y5499D01*
Y5899D02*
X101175Y6699D01*
X101975D01*
X101575Y5899D01*
X71161Y57143D02*
X71561Y57543D01*
X71961D01*
X71561Y57943D01*
X71961Y58343D01*
X71561D01*
X71161Y58743D01*
X70761Y58343D01*
X70361D01*
X70761Y57943D01*
X70361Y57543D01*
X70761D01*
X71161Y57143D01*
Y57543D02*
X71361Y57743D01*
X71561D01*
X71361Y57943D01*
X71561Y58143D01*
X71361D01*
X71161Y58343D01*
X70961Y58143D01*
X70761D01*
X70961Y57943D01*
X70761Y57743D01*
X70961D01*
X71161Y57543D01*
Y49918D02*
X71561Y50318D01*
X71961D01*
X71561Y50718D01*
X71961Y51118D01*
X71561D01*
X71161Y51518D01*
X70761Y51118D01*
X70361D01*
X70761Y50718D01*
X70361Y50318D01*
X70761D01*
X71161Y49918D01*
Y50318D02*
X71361Y50519D01*
X71561D01*
X71361Y50718D01*
X71561Y50919D01*
X71361D01*
X71161Y51118D01*
X70961Y50919D01*
X70761D01*
X70961Y50718D01*
X70761Y50519D01*
X70961D01*
X71161Y50318D01*
X67549Y60755D02*
X67949Y61155D01*
X68349D01*
X67949Y61555D01*
X68349Y61955D01*
X67949D01*
X67549Y62355D01*
X67149Y61955D01*
X66749D01*
X67149Y61555D01*
X66749Y61155D01*
X67149D01*
X67549Y60755D01*
Y61155D02*
X67749Y61355D01*
X67949D01*
X67749Y61555D01*
X67949Y61755D01*
X67749D01*
X67549Y61955D01*
X67349Y61755D01*
X67149D01*
X67349Y61555D01*
X67149Y61355D01*
X67349D01*
X67549Y61155D01*
Y53531D02*
X67949Y53931D01*
X68349D01*
X67949Y54331D01*
X68349Y54731D01*
X67949D01*
X67549Y55131D01*
X67149Y54731D01*
X66749D01*
X67149Y54331D01*
X66749Y53931D01*
X67149D01*
X67549Y53531D01*
Y53931D02*
X67749Y54131D01*
X67949D01*
X67749Y54331D01*
X67949Y54531D01*
X67749D01*
X67549Y54731D01*
X67349Y54531D01*
X67149D01*
X67349Y54331D01*
X67149Y54131D01*
X67349D01*
X67549Y53931D01*
Y46306D02*
X67949Y46706D01*
X68349D01*
X67949Y47106D01*
X68349Y47506D01*
X67949D01*
X67549Y47906D01*
X67149Y47506D01*
X66749D01*
X67149Y47106D01*
X66749Y46706D01*
X67149D01*
X67549Y46306D01*
Y46706D02*
X67749Y46906D01*
X67949D01*
X67749Y47106D01*
X67949Y47306D01*
X67749D01*
X67549Y47506D01*
X67349Y47306D01*
X67149D01*
X67349Y47106D01*
X67149Y46906D01*
X67349D01*
X67549Y46706D01*
X63937Y57143D02*
X64337Y57543D01*
X64737D01*
X64337Y57943D01*
X64737Y58343D01*
X64337D01*
X63937Y58743D01*
X63537Y58343D01*
X63137D01*
X63537Y57943D01*
X63137Y57543D01*
X63537D01*
X63937Y57143D01*
Y57543D02*
X64137Y57743D01*
X64337D01*
X64137Y57943D01*
X64337Y58143D01*
X64137D01*
X63937Y58343D01*
X63737Y58143D01*
X63537D01*
X63737Y57943D01*
X63537Y57743D01*
X63737D01*
X63937Y57543D01*
Y49918D02*
X64337Y50318D01*
X64737D01*
X64337Y50718D01*
X64737Y51118D01*
X64337D01*
X63937Y51518D01*
X63537Y51118D01*
X63137D01*
X63537Y50718D01*
X63137Y50318D01*
X63537D01*
X63937Y49918D01*
Y50318D02*
X64137Y50519D01*
X64337D01*
X64137Y50718D01*
X64337Y50919D01*
X64137D01*
X63937Y51118D01*
X63737Y50919D01*
X63537D01*
X63737Y50718D01*
X63537Y50519D01*
X63737D01*
X63937Y50318D01*
X60325Y60755D02*
X60725Y61155D01*
X61125D01*
X60725Y61555D01*
X61125Y61955D01*
X60725D01*
X60325Y62355D01*
X59925Y61955D01*
X59525D01*
X59925Y61555D01*
X59525Y61155D01*
X59925D01*
X60325Y60755D01*
Y61155D02*
X60525Y61355D01*
X60725D01*
X60525Y61555D01*
X60725Y61755D01*
X60525D01*
X60325Y61955D01*
X60125Y61755D01*
X59925D01*
X60125Y61555D01*
X59925Y61355D01*
X60125D01*
X60325Y61155D01*
Y53531D02*
X60725Y53931D01*
X61125D01*
X60725Y54331D01*
X61125Y54731D01*
X60725D01*
X60325Y55131D01*
X59925Y54731D01*
X59525D01*
X59925Y54331D01*
X59525Y53931D01*
X59925D01*
X60325Y53531D01*
Y53931D02*
X60525Y54131D01*
X60725D01*
X60525Y54331D01*
X60725Y54531D01*
X60525D01*
X60325Y54731D01*
X60125Y54531D01*
X59925D01*
X60125Y54331D01*
X59925Y54131D01*
X60125D01*
X60325Y53931D01*
Y46306D02*
X60725Y46706D01*
X61125D01*
X60725Y47106D01*
X61125Y47506D01*
X60725D01*
X60325Y47906D01*
X59925Y47506D01*
X59525D01*
X59925Y47106D01*
X59525Y46706D01*
X59925D01*
X60325Y46306D01*
Y46706D02*
X60525Y46906D01*
X60725D01*
X60525Y47106D01*
X60725Y47306D01*
X60525D01*
X60325Y47506D01*
X60125Y47306D01*
X59925D01*
X60125Y47106D01*
X59925Y46906D01*
X60125D01*
X60325Y46706D01*
X56713Y57143D02*
X57113Y57543D01*
X57513D01*
X57113Y57943D01*
X57513Y58343D01*
X57113D01*
X56713Y58743D01*
X56313Y58343D01*
X55913D01*
X56313Y57943D01*
X55913Y57543D01*
X56313D01*
X56713Y57143D01*
Y57543D02*
X56913Y57743D01*
X57113D01*
X56913Y57943D01*
X57113Y58143D01*
X56913D01*
X56713Y58343D01*
X56513Y58143D01*
X56313D01*
X56513Y57943D01*
X56313Y57743D01*
X56513D01*
X56713Y57543D01*
Y49918D02*
X57113Y50318D01*
X57513D01*
X57113Y50718D01*
X57513Y51118D01*
X57113D01*
X56713Y51518D01*
X56313Y51118D01*
X55913D01*
X56313Y50718D01*
X55913Y50318D01*
X56313D01*
X56713Y49918D01*
Y50318D02*
X56913Y50519D01*
X57113D01*
X56913Y50718D01*
X57113Y50919D01*
X56913D01*
X56713Y51118D01*
X56513Y50919D01*
X56313D01*
X56513Y50718D01*
X56313Y50519D01*
X56513D01*
X56713Y50318D01*
X236562Y322389D02*
X236962Y323189D01*
X236562Y323989D01*
X237362Y323589D01*
X238162Y323989D01*
X237762Y323189D01*
X238162Y322389D01*
X237362Y322789D01*
X236562Y322389D01*
X236962Y322789D02*
X237162Y323189D01*
X236962Y323589D01*
X237362Y323389D01*
X237762Y323589D01*
X237562Y323189D01*
X237762Y322789D01*
X237362Y322989D01*
X236962Y322789D01*
X266562Y312389D02*
X266962Y313189D01*
X266562Y313989D01*
X267362Y313589D01*
X268162Y313989D01*
X267762Y313189D01*
X268162Y312389D01*
X267362Y312789D01*
X266562Y312389D01*
X266962Y312789D02*
X267162Y313189D01*
X266962Y313589D01*
X267362Y313389D01*
X267762Y313589D01*
X267562Y313189D01*
X267762Y312789D01*
X267362Y312989D01*
X266962Y312789D01*
X266562Y252389D02*
X266962Y253189D01*
X266562Y253989D01*
X267362Y253589D01*
X268162Y253989D01*
X267762Y253189D01*
X268162Y252389D01*
X267362Y252789D01*
X266562Y252389D01*
X266962Y252789D02*
X267162Y253189D01*
X266962Y253589D01*
X267362Y253389D01*
X267762Y253589D01*
X267562Y253189D01*
X267762Y252789D01*
X267362Y252989D01*
X266962Y252789D01*
X236562Y292389D02*
X236962Y293189D01*
X236562Y293989D01*
X237362Y293589D01*
X238162Y293989D01*
X237762Y293189D01*
X238162Y292389D01*
X237362Y292789D01*
X236562Y292389D01*
X236962Y292789D02*
X237162Y293189D01*
X236962Y293589D01*
X237362Y293389D01*
X237762Y293589D01*
X237562Y293189D01*
X237762Y292789D01*
X237362Y292989D01*
X236962Y292789D01*
X236562Y252389D02*
X236962Y253189D01*
X236562Y253989D01*
X237362Y253589D01*
X238162Y253989D01*
X237762Y253189D01*
X238162Y252389D01*
X237362Y252789D01*
X236562Y252389D01*
X236962Y252789D02*
X237162Y253189D01*
X236962Y253589D01*
X237362Y253389D01*
X237762Y253589D01*
X237562Y253189D01*
X237762Y252789D01*
X237362Y252989D01*
X236962Y252789D01*
X188924Y322663D02*
X189324Y323463D01*
X188924Y324263D01*
X189724Y323863D01*
X190524Y324263D01*
X190124Y323463D01*
X190524Y322663D01*
X189724Y323063D01*
X188924Y322663D01*
X189324Y323063D02*
X189524Y323463D01*
X189324Y323863D01*
X189724Y323663D01*
X190124Y323863D01*
X189924Y323463D01*
X190124Y323063D01*
X189724Y323263D01*
X189324Y323063D01*
X218924Y312663D02*
X219324Y313463D01*
X218924Y314263D01*
X219724Y313863D01*
X220524Y314263D01*
X220124Y313463D01*
X220524Y312663D01*
X219724Y313063D01*
X218924Y312663D01*
X219324Y313063D02*
X219524Y313463D01*
X219324Y313863D01*
X219724Y313663D01*
X220124Y313863D01*
X219924Y313463D01*
X220124Y313063D01*
X219724Y313263D01*
X219324Y313063D01*
X218924Y252663D02*
X219324Y253463D01*
X218924Y254263D01*
X219724Y253863D01*
X220524Y254263D01*
X220124Y253463D01*
X220524Y252663D01*
X219724Y253063D01*
X218924Y252663D01*
X219324Y253063D02*
X219524Y253463D01*
X219324Y253863D01*
X219724Y253663D01*
X220124Y253863D01*
X219924Y253463D01*
X220124Y253063D01*
X219724Y253263D01*
X219324Y253063D01*
X188924Y292663D02*
X189324Y293463D01*
X188924Y294263D01*
X189724Y293863D01*
X190524Y294263D01*
X190124Y293463D01*
X190524Y292663D01*
X189724Y293063D01*
X188924Y292663D01*
X189324Y293063D02*
X189524Y293463D01*
X189324Y293863D01*
X189724Y293663D01*
X190124Y293863D01*
X189924Y293463D01*
X190124Y293063D01*
X189724Y293263D01*
X189324Y293063D01*
X188924Y252663D02*
X189324Y253463D01*
X188924Y254263D01*
X189724Y253863D01*
X190524Y254263D01*
X190124Y253463D01*
X190524Y252663D01*
X189724Y253063D01*
X188924Y252663D01*
X189324Y253063D02*
X189524Y253463D01*
X189324Y253863D01*
X189724Y253663D01*
X190124Y253863D01*
X189924Y253463D01*
X190124Y253063D01*
X189724Y253263D01*
X189324Y253063D01*
X241962Y350781D02*
Y350381D01*
X242762D01*
Y350781D01*
X243162D01*
Y351581D01*
X242762D01*
Y351981D01*
X241962D01*
Y351581D01*
X241562D01*
Y350781D01*
X241962D01*
X242162Y350981D02*
Y350781D01*
X242562D01*
Y350981D01*
X242762D01*
Y351381D01*
X242562D01*
Y351581D01*
X242162D01*
Y351381D01*
X241962D01*
Y350981D01*
X242162D01*
X261962Y350781D02*
Y350381D01*
X262762D01*
Y350781D01*
X263162D01*
Y351581D01*
X262762D01*
Y351981D01*
X261962D01*
Y351581D01*
X261562D01*
Y350781D01*
X261962D01*
X262162Y350981D02*
Y350781D01*
X262562D01*
Y350981D01*
X262762D01*
Y351381D01*
X262562D01*
Y351581D01*
X262162D01*
Y351381D01*
X261962D01*
Y350981D01*
X262162D01*
X194324Y350781D02*
Y350381D01*
X195124D01*
Y350781D01*
X195524D01*
Y351581D01*
X195124D01*
Y351981D01*
X194324D01*
Y351581D01*
X193924D01*
Y350781D01*
X194324D01*
X194524Y350981D02*
Y350781D01*
X194924D01*
Y350981D01*
X195124D01*
Y351381D01*
X194924D01*
Y351581D01*
X194524D01*
Y351381D01*
X194324D01*
Y350981D01*
X194524D01*
X214324Y350781D02*
Y350381D01*
X215124D01*
Y350781D01*
X215524D01*
Y351581D01*
X215124D01*
Y351981D01*
X214324D01*
Y351581D01*
X213924D01*
Y350781D01*
X214324D01*
X214524Y350981D02*
Y350781D01*
X214924D01*
Y350981D01*
X215124D01*
Y351381D01*
X214924D01*
Y351581D01*
X214524D01*
Y351381D01*
X214324D01*
Y350981D01*
X214524D01*
X24797Y330939D02*
Y330539D01*
X25597D01*
Y330939D01*
X25997D01*
Y331739D01*
X25597D01*
Y332139D01*
X24797D01*
Y331739D01*
X24397D01*
Y330939D01*
X24797D01*
X24997Y331139D02*
Y330939D01*
X25397D01*
Y331139D01*
X25597D01*
Y331539D01*
X25397D01*
Y331739D01*
X24997D01*
Y331539D01*
X24797D01*
Y331139D01*
X24997D01*
X24797Y350939D02*
Y350539D01*
X25597D01*
Y350939D01*
X25997D01*
Y351739D01*
X25597D01*
Y352139D01*
X24797D01*
Y351739D01*
X24397D01*
Y350939D01*
X24797D01*
X24997Y351139D02*
Y350939D01*
X25397D01*
Y351139D01*
X25597D01*
Y351539D01*
X25397D01*
Y351739D01*
X24997D01*
Y351539D01*
X24797D01*
Y351139D01*
X24997D01*
X169279Y350381D02*
X169679D01*
X170079Y350781D01*
X170479Y350381D01*
X170879D01*
Y350781D01*
X170479Y351181D01*
X170879Y351581D01*
Y351981D01*
X170479D01*
X170079Y351581D01*
X169679Y351981D01*
X169279D01*
Y351581D01*
X169679Y351181D01*
X169279Y350781D01*
Y350381D01*
X169679Y350781D02*
X169879D01*
X170079Y350981D01*
X170279Y350781D01*
X170479D01*
Y350981D01*
X170279Y351181D01*
X170479Y351381D01*
Y351581D01*
X170279D01*
X170079Y351381D01*
X169879Y351581D01*
X169679D01*
Y351381D01*
X169879Y351181D01*
X169679Y350981D01*
Y350781D01*
X51169Y350381D02*
X51569D01*
X51968Y350781D01*
X52368Y350381D01*
X52768D01*
Y350781D01*
X52368Y351181D01*
X52768Y351581D01*
Y351981D01*
X52368D01*
X51968Y351581D01*
X51569Y351981D01*
X51169D01*
Y351581D01*
X51569Y351181D01*
X51169Y350781D01*
Y350381D01*
X51569Y350781D02*
X51768D01*
X51968Y350981D01*
X52169Y350781D01*
X52368D01*
Y350981D01*
X52169Y351181D01*
X52368Y351381D01*
Y351581D01*
X52169D01*
X51968Y351381D01*
X51768Y351581D01*
X51569D01*
Y351381D01*
X51768Y351181D01*
X51569Y350981D01*
Y350781D01*
X72492Y312358D02*
X72892Y312758D01*
X73292D01*
X72892Y313158D01*
X73292Y313558D01*
X72892D01*
X72492Y313958D01*
X72092Y313558D01*
X71692D01*
X72092Y313158D01*
X71692Y312758D01*
X72092D01*
X72492Y312358D01*
X151232D02*
X151632Y312758D01*
X152032D01*
X151632Y313158D01*
X152032Y313558D01*
X151632D01*
X151232Y313958D01*
X150832Y313558D01*
X150432D01*
X150832Y313158D01*
X150432Y312758D01*
X150832D01*
X151232Y312358D01*
X131547Y233618D02*
X131947Y234018D01*
X132347D01*
X131947Y234418D01*
X132347Y234818D01*
X131947D01*
X131547Y235218D01*
X131147Y234818D01*
X130747D01*
X131147Y234418D01*
X130747Y234018D01*
X131147D01*
X131547Y233618D01*
X92177D02*
X92577Y234018D01*
X92977D01*
X92577Y234418D01*
X92977Y234818D01*
X92577D01*
X92177Y235218D01*
X91777Y234818D01*
X91377D01*
X91777Y234418D01*
X91377Y234018D01*
X91777D01*
X92177Y233618D01*
X12192Y183452D02*
X12592D01*
X12992Y183852D01*
X13392Y183452D01*
X13792D01*
Y183852D01*
X13392Y184252D01*
X13792Y184652D01*
Y185052D01*
X13392D01*
X12992Y184652D01*
X12592Y185052D01*
X12192D01*
Y184652D01*
X12592Y184252D01*
X12192Y183852D01*
Y183452D01*
X29909Y184252D02*
X30709Y185052D01*
X31509Y184252D01*
X30709Y183452D01*
X29909Y184252D01*
X42507Y164554D02*
Y166154D01*
X44107D01*
Y164554D01*
X42507D01*
X42907Y164954D02*
Y165754D01*
X43707D01*
Y164954D01*
X42907D01*
X20728Y111476D02*
Y112809D01*
X21395Y113476D01*
X22061Y112809D01*
Y111476D01*
Y112476D01*
X20728D01*
Y131161D02*
Y132494D01*
X21395Y133161D01*
X22061Y132494D01*
Y131161D01*
Y132161D01*
X20728D01*
X244500Y7999D02*
Y6000D01*
X245500D01*
X245833Y6333D01*
Y6667D01*
X245500Y7000D01*
X244500D01*
X245500D01*
X245833Y7333D01*
Y7666D01*
X245500Y7999D01*
X244500D01*
X251100D02*
Y6000D01*
X252100D01*
X252433Y6333D01*
Y6667D01*
X252100Y7000D01*
X251100D01*
X252100D01*
X252433Y7333D01*
Y7666D01*
X252100Y7999D01*
X251100D01*
X257700D02*
Y6000D01*
X258700D01*
X259033Y6333D01*
Y6667D01*
X258700Y7000D01*
X257700D01*
X258700D01*
X259033Y7333D01*
Y7666D01*
X258700Y7999D01*
X257700D01*
X214108Y174265D02*
X213775Y174598D01*
X213109D01*
X212776Y174265D01*
Y172932D01*
X213109Y172598D01*
X213775D01*
X214108Y172932D01*
X188333Y100670D02*
X188000Y101003D01*
X187333D01*
X187000Y100670D01*
Y99337D01*
X187333Y99004D01*
X188000D01*
X188333Y99337D01*
X195526Y133930D02*
X195193Y134263D01*
X194526D01*
X194193Y133930D01*
Y132597D01*
X194526Y132264D01*
X195193D01*
X195526Y132597D01*
X222238Y97808D02*
X221905Y98141D01*
X221239D01*
X220905Y97808D01*
Y96475D01*
X221239Y96142D01*
X221905D01*
X222238Y96475D01*
X173479Y180505D02*
X173145Y180838D01*
X172479D01*
X172146Y180505D01*
Y179172D01*
X172479Y178839D01*
X173145D01*
X173479Y179172D01*
X178272Y148771D02*
X177938Y149104D01*
X177272D01*
X176939Y148771D01*
Y147438D01*
X177272Y147105D01*
X177938D01*
X178272Y147438D01*
X170463Y74732D02*
X170130Y75065D01*
X169463D01*
X169130Y74732D01*
Y73399D01*
X169463Y73066D01*
X170130D01*
X170463Y73399D01*
X159876Y127532D02*
X159543Y127866D01*
X158877D01*
X158543Y127532D01*
Y126199D01*
X158877Y125866D01*
X159543D01*
X159876Y126199D01*
X162092Y122645D02*
X161759Y122978D01*
X161092D01*
X160759Y122645D01*
Y121312D01*
X161092Y120978D01*
X161759D01*
X162092Y121312D01*
X186988Y107905D02*
Y105905D01*
X187987D01*
X188321Y106239D01*
Y106572D01*
X187987Y106905D01*
X186988D01*
X187987D01*
X188321Y107238D01*
Y107572D01*
X187987Y107905D01*
X186988D01*
X203263Y44327D02*
Y42327D01*
X204263D01*
X204596Y42661D01*
Y43994D01*
X204263Y44327D01*
X203263D01*
X165591Y74657D02*
Y72658D01*
X166590D01*
X166923Y72991D01*
Y74324D01*
X166590Y74657D01*
X165591D01*
X204697Y26380D02*
X204364Y26713D01*
X203697D01*
X203364Y26380D01*
Y25047D01*
X203697Y24714D01*
X204364D01*
X204697Y25047D01*
X171460Y92613D02*
Y90614D01*
X172460D01*
X172793Y90947D01*
Y91280D01*
X172460Y91613D01*
X171460D01*
X172460D01*
X172793Y91946D01*
Y92280D01*
X172460Y92613D01*
X171460D01*
X72205Y17504D02*
Y15505D01*
X73204D01*
X73538Y15838D01*
Y16171D01*
X73204Y16504D01*
X72205D01*
X73204D01*
X73538Y16838D01*
Y17171D01*
X73204Y17504D01*
X72205D01*
X160709Y64618D02*
Y62618D01*
X161708D01*
X162042Y62951D01*
Y63285D01*
X161708Y63618D01*
X160709D01*
X161708D01*
X162042Y63951D01*
Y64284D01*
X161708Y64618D01*
X160709D01*
X141319Y65602D02*
Y63602D01*
X142319D01*
X142652Y63936D01*
Y64269D01*
X142319Y64602D01*
X141319D01*
X142319D01*
X142652Y64935D01*
Y65268D01*
X142319Y65602D01*
X141319D01*
Y61606D02*
Y59606D01*
X142319D01*
X142652Y59939D01*
Y60273D01*
X142319Y60606D01*
X141319D01*
X142319D01*
X142652Y60939D01*
Y61272D01*
X142319Y61606D01*
X141319D01*
X156929Y73889D02*
Y71890D01*
X157929D01*
X158262Y72223D01*
Y72556D01*
X157929Y72889D01*
X156929D01*
X157929D01*
X158262Y73223D01*
Y73556D01*
X157929Y73889D01*
X156929D01*
X147658Y76153D02*
Y74154D01*
X148657D01*
X148990Y74487D01*
Y74820D01*
X148657Y75153D01*
X147658D01*
X148657D01*
X148990Y75486D01*
Y75820D01*
X148657Y76153D01*
X147658D01*
X207028Y210976D02*
Y208976D01*
X208027D01*
X208361Y209310D01*
Y209643D01*
X208027Y209976D01*
X207028D01*
X208027D01*
X208361Y210309D01*
Y210643D01*
X208027Y210976D01*
X207028D01*
X200335D02*
Y208976D01*
X201334D01*
X201668Y209310D01*
Y209643D01*
X201334Y209976D01*
X200335D01*
X201334D01*
X201668Y210309D01*
Y210643D01*
X201334Y210976D01*
X200335D01*
X303504Y47585D02*
Y45585D01*
X304504D01*
X304837Y45919D01*
Y46252D01*
X304504Y46585D01*
X303504D01*
X304504D01*
X304837Y46918D01*
Y47251D01*
X304504Y47585D01*
X303504D01*
X318563Y27373D02*
Y25374D01*
X319563D01*
X319896Y25707D01*
Y26041D01*
X319563Y26374D01*
X318563D01*
X319563D01*
X319896Y26707D01*
Y27040D01*
X319563Y27373D01*
X318563D01*
X308780Y27590D02*
Y25591D01*
X309779D01*
X310112Y25924D01*
Y26257D01*
X309779Y26590D01*
X308780D01*
X309779D01*
X310112Y26923D01*
Y27257D01*
X309779Y27590D01*
X308780D01*
X309567Y5700D02*
Y3701D01*
X310567D01*
X310900Y4034D01*
Y4367D01*
X310567Y4701D01*
X309567D01*
X310567D01*
X310900Y5034D01*
Y5367D01*
X310567Y5700D01*
X309567D01*
X261451Y227316D02*
X261118Y227649D01*
X260451D01*
X260118Y227316D01*
Y225983D01*
X260451Y225650D01*
X261118D01*
X261451Y225983D01*
X173839Y110740D02*
Y108740D01*
X174838D01*
X175171Y109073D01*
Y109407D01*
X174838Y109740D01*
X173839D01*
X174838D01*
X175171Y110073D01*
Y110406D01*
X174838Y110740D01*
X173839D01*
X199823Y70976D02*
Y68976D01*
X200822D01*
X201156Y69310D01*
Y69643D01*
X200822Y69976D01*
X199823D01*
X200822D01*
X201156Y70309D01*
Y70643D01*
X200822Y70976D01*
X199823D01*
X213032Y85425D02*
Y83425D01*
X214031D01*
X214364Y83758D01*
Y84092D01*
X214031Y84425D01*
X213032D01*
X214031D01*
X214364Y84758D01*
Y85091D01*
X214031Y85425D01*
X213032D01*
X44331Y155188D02*
Y153189D01*
X45330D01*
X45664Y153522D01*
Y153855D01*
X45330Y154189D01*
X44331D01*
X45330D01*
X45664Y154522D01*
Y154855D01*
X45330Y155188D01*
X44331D01*
X48150Y137196D02*
Y135197D01*
X49149D01*
X49483Y135530D01*
Y135863D01*
X49149Y136196D01*
X48150D01*
X49149D01*
X49483Y136530D01*
Y136863D01*
X49149Y137196D01*
X48150D01*
X77579Y163712D02*
Y161713D01*
X78578D01*
X78912Y162046D01*
Y162379D01*
X78578Y162712D01*
X77579D01*
X78578D01*
X78912Y163046D01*
Y163379D01*
X78578Y163712D01*
X77579D01*
X95925Y192629D02*
Y190630D01*
X96925D01*
X97258Y190963D01*
Y191296D01*
X96925Y191630D01*
X95925D01*
X96925D01*
X97258Y191963D01*
Y192296D01*
X96925Y192629D01*
X95925D01*
X114567Y192354D02*
Y190354D01*
X115567D01*
X115900Y190688D01*
Y191021D01*
X115567Y191354D01*
X114567D01*
X115567D01*
X115900Y191687D01*
Y192020D01*
X115567Y192354D01*
X114567D01*
X88346Y173062D02*
Y171063D01*
X89346D01*
X89679Y171396D01*
Y171729D01*
X89346Y172063D01*
X88346D01*
X89346D01*
X89679Y172396D01*
Y172729D01*
X89346Y173062D01*
X88346D01*
X127854Y182806D02*
Y180807D01*
X128854D01*
X129187Y181140D01*
Y181474D01*
X128854Y181807D01*
X127854D01*
X128854D01*
X129187Y182140D01*
Y182473D01*
X128854Y182806D01*
X127854D01*
X122106Y182590D02*
Y180591D01*
X123106D01*
X123439Y180924D01*
Y181257D01*
X123106Y181590D01*
X122106D01*
X123106D01*
X123439Y181923D01*
Y182257D01*
X123106Y182590D01*
X122106D01*
X133976Y178299D02*
Y176299D01*
X134976D01*
X135309Y176632D01*
Y176966D01*
X134976Y177299D01*
X133976D01*
X134976D01*
X135309Y177632D01*
Y177965D01*
X134976Y178299D01*
X133976D01*
X122028Y164342D02*
Y162343D01*
X123027D01*
X123361Y162676D01*
Y163009D01*
X123027Y163342D01*
X122028D01*
X123027D01*
X123361Y163675D01*
Y164009D01*
X123027Y164342D01*
X122028D01*
X65807Y146527D02*
Y144528D01*
X66807D01*
X67140Y144861D01*
Y145194D01*
X66807Y145527D01*
X65807D01*
X66807D01*
X67140Y145861D01*
Y146194D01*
X66807Y146527D01*
X65807D01*
X119193Y64696D02*
Y62697D01*
X120193D01*
X120526Y63030D01*
Y63363D01*
X120193Y63696D01*
X119193D01*
X120193D01*
X120526Y64030D01*
Y64363D01*
X120193Y64696D01*
X119193D01*
X124843D02*
Y62697D01*
X125842D01*
X126175Y63030D01*
Y63363D01*
X125842Y63696D01*
X124843D01*
X125842D01*
X126175Y64030D01*
Y64363D01*
X125842Y64696D01*
X124843D01*
X138498Y86961D02*
X138165Y87295D01*
X137499D01*
X137165Y86961D01*
Y85628D01*
X137499Y85295D01*
X138165D01*
X138498Y85628D01*
X118799Y81625D02*
Y79626D01*
X119799D01*
X120132Y79959D01*
Y80292D01*
X119799Y80626D01*
X118799D01*
X119799D01*
X120132Y80959D01*
Y81292D01*
X119799Y81625D01*
X118799D01*
X118661Y87295D02*
Y85295D01*
X119661D01*
X119994Y85628D01*
Y85962D01*
X119661Y86295D01*
X118661D01*
X119661D01*
X119994Y86628D01*
Y86961D01*
X119661Y87295D01*
X118661D01*
X109862Y100149D02*
Y98150D01*
X110862D01*
X111195Y98483D01*
Y98816D01*
X110862Y99149D01*
X109862D01*
X110862D01*
X111195Y99483D01*
Y99816D01*
X110862Y100149D01*
X109862D01*
X183642Y65503D02*
Y63504D01*
X184641D01*
X184975Y63837D01*
Y64170D01*
X184641Y64504D01*
X183642D01*
X184641D01*
X184975Y64837D01*
Y65170D01*
X184641Y65503D01*
X183642D01*
X175807Y96547D02*
Y94547D01*
X176807D01*
X177140Y94880D01*
Y95214D01*
X176807Y95547D01*
X175807D01*
X176807D01*
X177140Y95880D01*
Y96213D01*
X176807Y96547D01*
X175807D01*
X175768Y101389D02*
Y99390D01*
X176767D01*
X177101Y99723D01*
Y100056D01*
X176767Y100389D01*
X175768D01*
X176767D01*
X177101Y100723D01*
Y101056D01*
X176767Y101389D01*
X175768D01*
X154331Y111389D02*
Y109390D01*
X155330D01*
X155664Y109723D01*
Y110056D01*
X155330Y110389D01*
X154331D01*
X155330D01*
X155664Y110723D01*
Y111056D01*
X155330Y111389D01*
X154331D01*
X170098Y106743D02*
Y104744D01*
X171098D01*
X171431Y105077D01*
Y105411D01*
X171098Y105744D01*
X170098D01*
X171098D01*
X171431Y106077D01*
Y106410D01*
X171098Y106743D01*
X170098D01*
X166732Y101389D02*
Y99390D01*
X167732D01*
X168065Y99723D01*
Y100056D01*
X167732Y100389D01*
X166732D01*
X167732D01*
X168065Y100723D01*
Y101056D01*
X167732Y101389D01*
X166732D01*
X257874Y35503D02*
Y33504D01*
X258874D01*
X259207Y33837D01*
Y34170D01*
X258874Y34504D01*
X257874D01*
X258874D01*
X259207Y34837D01*
Y35170D01*
X258874Y35503D01*
X257874D01*
X251673D02*
Y33504D01*
X252673D01*
X253006Y33837D01*
Y34170D01*
X252673Y34504D01*
X251673D01*
X252673D01*
X253006Y34837D01*
Y35170D01*
X252673Y35503D01*
X251673D01*
X187697Y71114D02*
Y69114D01*
X188697D01*
X189030Y69447D01*
Y69781D01*
X188697Y70114D01*
X187697D01*
X188697D01*
X189030Y70447D01*
Y70780D01*
X188697Y71114D01*
X187697D01*
X138524Y81271D02*
Y79272D01*
X139523D01*
X139857Y79605D01*
Y79938D01*
X139523Y80271D01*
X138524D01*
X139523D01*
X139857Y80604D01*
Y80938D01*
X139523Y81271D01*
X138524D01*
X140689Y147846D02*
Y145846D01*
X141689D01*
X142022Y146180D01*
Y146513D01*
X141689Y146846D01*
X140689D01*
X141689D01*
X142022Y147179D01*
Y147513D01*
X141689Y147846D01*
X140689D01*
Y140838D02*
Y138839D01*
X141689D01*
X142022Y139172D01*
Y139505D01*
X141689Y139838D01*
X140689D01*
X141689D01*
X142022Y140172D01*
Y140505D01*
X141689Y140838D01*
X140689D01*
Y132708D02*
Y130709D01*
X141689D01*
X142022Y131042D01*
Y131375D01*
X141689Y131708D01*
X140689D01*
X141689D01*
X142022Y132042D01*
Y132375D01*
X141689Y132708D01*
X140689D01*
Y126783D02*
Y124784D01*
X141689D01*
X142022Y125117D01*
Y125450D01*
X141689Y125783D01*
X140689D01*
X141689D01*
X142022Y126116D01*
Y126450D01*
X141689Y126783D01*
X140689D01*
Y121468D02*
Y119468D01*
X141689D01*
X142022Y119802D01*
Y120135D01*
X141689Y120468D01*
X140689D01*
X141689D01*
X142022Y120801D01*
Y121135D01*
X141689Y121468D01*
X140689D01*
X210669Y177452D02*
Y175453D01*
X211669D01*
X212002Y175786D01*
Y176119D01*
X211669Y176452D01*
X210669D01*
X211669D01*
X212002Y176786D01*
Y177119D01*
X211669Y177452D01*
X210669D01*
Y181251D02*
Y179252D01*
X211669D01*
X212002Y179585D01*
Y179918D01*
X211669Y180252D01*
X210669D01*
X211669D01*
X212002Y180585D01*
Y180918D01*
X211669Y181251D01*
X210669D01*
X206437Y186960D02*
Y184961D01*
X207437D01*
X207770Y185294D01*
Y185627D01*
X207437Y185960D01*
X206437D01*
X207437D01*
X207770Y186293D01*
Y186627D01*
X207437Y186960D01*
X206437D01*
X188268Y171192D02*
Y169193D01*
X189267D01*
X189601Y169526D01*
Y169859D01*
X189267Y170193D01*
X188268D01*
X189267D01*
X189601Y170526D01*
Y170859D01*
X189267Y171192D01*
X188268D01*
X177646Y171197D02*
Y169198D01*
X178646D01*
X178979Y169531D01*
Y169864D01*
X178646Y170198D01*
X177646D01*
X178646D01*
X178979Y170531D01*
Y170864D01*
X178646Y171197D01*
X177646D01*
X228720Y252547D02*
X227921Y254147D01*
X229521D01*
X228720Y252547D01*
X158760Y157846D02*
Y155847D01*
X159759D01*
X160093Y156180D01*
Y156513D01*
X159759Y156846D01*
X158760D01*
X159759D01*
X160093Y157179D01*
Y157513D01*
X159759Y157846D01*
X158760D01*
X153986Y152157D02*
Y150157D01*
X154986D01*
X155319Y150491D01*
Y150824D01*
X154986Y151157D01*
X153986D01*
X154986D01*
X155319Y151490D01*
Y151824D01*
X154986Y152157D01*
X153986D01*
X162972Y154460D02*
Y152461D01*
X163972D01*
X164305Y152794D01*
Y153127D01*
X163972Y153460D01*
X162972D01*
X163972D01*
X164305Y153794D01*
Y154127D01*
X163972Y154460D01*
X162972D01*
X158760D02*
Y152461D01*
X159759D01*
X160093Y152794D01*
Y153127D01*
X159759Y153460D01*
X158760D01*
X159759D01*
X160093Y153794D01*
Y154127D01*
X159759Y154460D01*
X158760D01*
X162972Y157846D02*
Y155847D01*
X163972D01*
X164305Y156180D01*
Y156513D01*
X163972Y156846D01*
X162972D01*
X163972D01*
X164305Y157179D01*
Y157513D01*
X163972Y157846D01*
X162972D01*
X167630Y180369D02*
X167297Y180702D01*
X166630D01*
X166297Y180369D01*
Y179036D01*
X166630Y178703D01*
X167297D01*
X167630Y179036D01*
X176713Y145090D02*
Y143091D01*
X177712D01*
X178045Y143424D01*
Y143757D01*
X177712Y144090D01*
X176713D01*
X177712D01*
X178045Y144423D01*
Y144757D01*
X177712Y145090D01*
X176713D01*
X200335Y186960D02*
Y184961D01*
X201334D01*
X201668Y185294D01*
Y185627D01*
X201334Y185960D01*
X200335D01*
X201334D01*
X201668Y186293D01*
Y186627D01*
X201334Y186960D01*
X200335D01*
X245827Y41153D02*
Y39154D01*
X246827D01*
X247160Y39487D01*
Y39820D01*
X246827Y40153D01*
X245827D01*
X246827D01*
X247160Y40486D01*
Y40820D01*
X246827Y41153D01*
X245827D01*
X218789Y45863D02*
X217989Y47463D01*
X219589D01*
X218789Y45863D01*
X214364Y62181D02*
X214031Y62514D01*
X213365D01*
X213032Y62181D01*
Y60848D01*
X213365Y60514D01*
X214031D01*
X214364Y60848D01*
X24646Y27393D02*
Y25394D01*
X25645D01*
X25979Y25727D01*
Y26060D01*
X25645Y26393D01*
X24646D01*
X25645D01*
X25979Y26727D01*
Y27060D01*
X25645Y27393D01*
X24646D01*
X24473Y20316D02*
Y18316D01*
X25473D01*
X25806Y18650D01*
Y18983D01*
X25473Y19316D01*
X24473D01*
X25473D01*
X25806Y19649D01*
Y19982D01*
X25473Y20316D01*
X24473D01*
Y13993D02*
Y11993D01*
X25473D01*
X25806Y12326D01*
Y12660D01*
X25473Y12993D01*
X24473D01*
X25473D01*
X25806Y13326D01*
Y13659D01*
X25473Y13993D01*
X24473D01*
Y6173D02*
Y4173D01*
X25473D01*
X25806Y4507D01*
Y4840D01*
X25473Y5173D01*
X24473D01*
X25473D01*
X25806Y5506D01*
Y5839D01*
X25473Y6173D01*
X24473D01*
X64646Y18692D02*
Y16693D01*
X65645D01*
X65979Y17026D01*
Y17359D01*
X65645Y17693D01*
X64646D01*
X65645D01*
X65979Y18026D01*
Y18359D01*
X65645Y18692D01*
X64646D01*
X80335Y134421D02*
Y132421D01*
X81334D01*
X81668Y132755D01*
Y133088D01*
X81334Y133421D01*
X80335D01*
X81334D01*
X81668Y133754D01*
Y134087D01*
X81334Y134421D01*
X80335D01*
X76398D02*
Y132421D01*
X77397D01*
X77731Y132755D01*
Y133088D01*
X77397Y133421D01*
X76398D01*
X77397D01*
X77731Y133754D01*
Y134087D01*
X77397Y134421D01*
X76398D01*
X68465D02*
Y132421D01*
X69464D01*
X69797Y132755D01*
Y133088D01*
X69464Y133421D01*
X68465D01*
X69464D01*
X69797Y133754D01*
Y134087D01*
X69464Y134421D01*
X68465D01*
X72402D02*
Y132421D01*
X73401D01*
X73734Y132755D01*
Y133088D01*
X73401Y133421D01*
X72402D01*
X73401D01*
X73734Y133754D01*
Y134087D01*
X73401Y134421D01*
X72402D01*
X54862Y121818D02*
X54062Y123418D01*
X55662D01*
X54862Y121818D01*
X66535Y175228D02*
Y173228D01*
X67535D01*
X67868Y173562D01*
Y173895D01*
X67535Y174228D01*
X66535D01*
X67535D01*
X67868Y174561D01*
Y174894D01*
X67535Y175228D01*
X66535D01*
X70768Y125149D02*
Y123150D01*
X71767D01*
X72101Y123483D01*
Y123816D01*
X71767Y124149D01*
X70768D01*
X71767D01*
X72101Y124483D01*
Y124816D01*
X71767Y125149D01*
X70768D01*
X269094Y85486D02*
Y83487D01*
X270094D01*
X270427Y83820D01*
Y84153D01*
X270094Y84487D01*
X269094D01*
X270094D01*
X270427Y84820D01*
Y85153D01*
X270094Y85486D01*
X269094D01*
X261043Y86153D02*
Y84153D01*
X262043D01*
X262376Y84487D01*
Y84820D01*
X262043Y85153D01*
X261043D01*
X262043D01*
X262376Y85486D01*
Y85820D01*
X262043Y86153D01*
X261043D01*
X152475Y77079D02*
X152141Y77413D01*
X151475D01*
X151142Y77079D01*
Y75747D01*
X151475Y75413D01*
X152141D01*
X152475Y75747D01*
X156890Y77413D02*
Y75413D01*
X157889D01*
X158223Y75747D01*
Y76080D01*
X157889Y76413D01*
X156890D01*
X157889D01*
X158223Y76746D01*
Y77079D01*
X157889Y77413D01*
X156890D01*
X163223Y74796D02*
X162889Y75129D01*
X162223D01*
X161890Y74796D01*
Y73463D01*
X162223Y73130D01*
X162889D01*
X163223Y73463D01*
X185768Y80129D02*
Y78130D01*
X186767D01*
X187101Y78463D01*
Y78796D01*
X186767Y79130D01*
X185768D01*
X186767D01*
X187101Y79463D01*
Y79796D01*
X186767Y80129D01*
X185768D01*
X218498Y97572D02*
X218165Y97905D01*
X217499D01*
X217165Y97572D01*
Y96239D01*
X217499Y95906D01*
X218165D01*
X218498Y96239D01*
X171555Y96547D02*
Y94547D01*
X172555D01*
X172888Y94880D01*
Y95214D01*
X172555Y95547D01*
X171555D01*
X172555D01*
X172888Y95880D01*
Y96213D01*
X172555Y96547D01*
X171555D01*
X161575Y94795D02*
Y92795D01*
X162575D01*
X162908Y93129D01*
Y93462D01*
X162575Y93795D01*
X161575D01*
X162575D01*
X162908Y94128D01*
Y94461D01*
X162575Y94795D01*
X161575D01*
X194193Y127476D02*
Y125476D01*
X195193D01*
X195526Y125810D01*
Y126143D01*
X195193Y126476D01*
X194193D01*
X195193D01*
X195526Y126809D01*
Y127143D01*
X195193Y127476D01*
X194193D01*
X195526Y130505D02*
X195193Y130838D01*
X194526D01*
X194193Y130505D01*
Y129172D01*
X194526Y128839D01*
X195193D01*
X195526Y129172D01*
X144246Y91784D02*
X143913Y92118D01*
X143247D01*
X142913Y91784D01*
Y90451D01*
X143247Y90118D01*
X143913D01*
X144246Y90451D01*
X49646Y5897D02*
Y3898D01*
X50645D01*
X50979Y4231D01*
Y4564D01*
X50645Y4897D01*
X49646D01*
X50645D01*
X50979Y5231D01*
Y5564D01*
X50645Y5897D01*
X49646D01*
X45551D02*
Y3898D01*
X46551D01*
X46884Y4231D01*
Y4564D01*
X46551Y4897D01*
X45551D01*
X46551D01*
X46884Y5231D01*
Y5564D01*
X46551Y5897D01*
X45551D01*
Y8456D02*
Y6457D01*
X46551D01*
X46884Y6790D01*
Y7123D01*
X46551Y7456D01*
X45551D01*
X46551D01*
X46884Y7790D01*
Y8123D01*
X46551Y8456D01*
X45551D01*
X115306Y39957D02*
X114973Y40290D01*
X114306D01*
X113973Y39957D01*
Y38624D01*
X114306Y38291D01*
X114973D01*
X115306Y38624D01*
X54772Y104873D02*
Y102874D01*
X55771D01*
X56104Y103207D01*
Y103541D01*
X55771Y103874D01*
X54772D01*
X55771D01*
X56104Y104207D01*
Y104540D01*
X55771Y104873D01*
X54772D01*
X54843Y100917D02*
Y98917D01*
X55842D01*
X56175Y99251D01*
Y99584D01*
X55842Y99917D01*
X54843D01*
X55842D01*
X56175Y100250D01*
Y100584D01*
X55842Y100917D01*
X54843D01*
X58661Y200031D02*
Y198031D01*
X59661D01*
X59994Y198365D01*
Y198698D01*
X59661Y199031D01*
X58661D01*
X59661D01*
X59994Y199364D01*
Y199698D01*
X59661Y200031D01*
X58661D01*
X62598D02*
Y198031D01*
X63598D01*
X63931Y198365D01*
Y198698D01*
X63598Y199031D01*
X62598D01*
X63598D01*
X63931Y199364D01*
Y199698D01*
X63598Y200031D01*
X62598D01*
X66535D02*
Y198031D01*
X67535D01*
X67868Y198365D01*
Y198698D01*
X67535Y199031D01*
X66535D01*
X67535D01*
X67868Y199364D01*
Y199698D01*
X67535Y200031D01*
X66535D01*
X58661Y175228D02*
Y173228D01*
X59661D01*
X59994Y173562D01*
Y173895D01*
X59661Y174228D01*
X58661D01*
X59661D01*
X59994Y174561D01*
Y174894D01*
X59661Y175228D01*
X58661D01*
X62598D02*
Y173228D01*
X63598D01*
X63931Y173562D01*
Y173895D01*
X63598Y174228D01*
X62598D01*
X63598D01*
X63931Y174561D01*
Y174894D01*
X63598Y175228D01*
X62598D01*
X190787Y101300D02*
Y99301D01*
X191787D01*
X192120Y99634D01*
Y99967D01*
X191787Y100301D01*
X190787D01*
X191787D01*
X192120Y100634D01*
Y100967D01*
X191787Y101300D01*
X190787D01*
X114173Y109480D02*
Y107480D01*
X115173D01*
X115506Y107814D01*
Y108147D01*
X115173Y108480D01*
X114173D01*
X115173D01*
X115506Y108813D01*
Y109146D01*
X115173Y109480D01*
X114173D01*
X211628Y96863D02*
X211295Y97196D01*
X210629D01*
X210295Y96863D01*
Y95530D01*
X210629Y95197D01*
X211295D01*
X211628Y95530D01*
X134370Y116507D02*
Y114508D01*
X135370D01*
X135703Y114841D01*
Y115174D01*
X135370Y115507D01*
X134370D01*
X135370D01*
X135703Y115841D01*
Y116174D01*
X135370Y116507D01*
X134370D01*
X214364Y58818D02*
X214031Y59152D01*
X213365D01*
X213032Y58818D01*
Y57485D01*
X213365Y57152D01*
X214031D01*
X214364Y57485D01*
X126038Y97847D02*
X125704Y98180D01*
X125038D01*
X124705Y97847D01*
Y96514D01*
X125038Y96181D01*
X125704D01*
X126038Y96514D01*
Y94485D02*
X125704Y94818D01*
X125038D01*
X124705Y94485D01*
Y93152D01*
X125038Y92819D01*
X125704D01*
X126038Y93152D01*
X246745Y47839D02*
X246411Y48173D01*
X245745D01*
X245412Y47839D01*
Y46507D01*
X245745Y46173D01*
X246411D01*
X246745Y46507D01*
X232461Y48397D02*
Y46398D01*
X233460D01*
X233793Y46731D01*
Y47064D01*
X233460Y47397D01*
X232461D01*
X233460D01*
X233793Y47730D01*
Y48064D01*
X233460Y48397D01*
X232461D01*
X257800Y54999D02*
Y53000D01*
X258800D01*
X259133Y53333D01*
Y53666D01*
X258800Y54000D01*
X257800D01*
X258800D01*
X259133Y54333D01*
Y54666D01*
X258800Y54999D01*
X257800D01*
Y50999D02*
Y49000D01*
X258800D01*
X259133Y49333D01*
Y49666D01*
X258800Y50000D01*
X257800D01*
X258800D01*
X259133Y50333D01*
Y50666D01*
X258800Y50999D01*
X257800D01*
X232461Y41025D02*
Y39026D01*
X233460D01*
X233793Y39359D01*
Y39692D01*
X233460Y40025D01*
X232461D01*
X233460D01*
X233793Y40359D01*
Y40692D01*
X233460Y41025D01*
X232461D01*
X119685Y113417D02*
Y111417D01*
X120685D01*
X121018Y111750D01*
Y112084D01*
X120685Y112417D01*
X119685D01*
X120685D01*
X121018Y112750D01*
Y113083D01*
X120685Y113417D01*
X119685D01*
X114173Y117354D02*
Y115354D01*
X115173D01*
X115506Y115688D01*
Y116021D01*
X115173Y116354D01*
X114173D01*
X115173D01*
X115506Y116687D01*
Y117020D01*
X115173Y117354D01*
X114173D01*
D198*
X359284Y36161D02*
G03*
X359284Y36161I-800J0D01*
G01*
Y129724D02*
G03*
X359284Y129724I-800J0D01*
G01*
X293891Y128898D02*
G03*
X293891Y128898I-800J0D01*
G01*
X174521Y365295D02*
G03*
X174521Y365295I-800J0D01*
G01*
X57768Y137224D02*
G03*
X57768Y137224I-800J0D01*
G01*
X233280Y14370D02*
G03*
X233280Y14370I-800J0D01*
G01*
X145075Y50337D02*
G03*
X145075Y50337I-800J0D01*
G01*
X56312Y188583D02*
G03*
X56312Y188583I-800J0D01*
G01*
D199*
X144675Y50337D02*
G03*
X144675Y50337I-400J0D01*
G01*
X55912Y188583D02*
G03*
X55912Y188583I-400J0D01*
G01*
M02*
