M48
;Layer_Color=9474304
;FILE_FORMAT=2:5
INCH,LZ
;TYPE=PLATED
T1F00S00C0.00787
T2F00S00C0.01181
T3F00S00C0.01378
T4F00S00C0.01968
T5F00S00C0.03150
T6F00S00C0.03425
T7F00S00C0.03543
T8F00S00C0.03937
T10F00S00C0.04213
T11F00S00C0.04331
T13F00S00C0.05118
T14F00S00C0.05512
T15F00S00C0.06890
;TYPE=NON_PLATED
T16F00S00C0.07874
T17F00S00C0.08268
%
T01
X0060325Y0047106
X0067549
Y0054331
X0063937Y0050718
X0071161
Y0057943
X0067549Y0061555
X0063937Y0057943
X0060325Y0061555
X0056713Y0057943
X0060325Y0054331
X0056713Y0050718
T02
X0203263Y0042327
X0165591Y0072658
T03
X0024473Y0004173
Y0011993
X0045551Y0006457
Y0003898
X0049646
X02445Y0006
X02511
X02577
X0309567Y0003701
X030878Y0025591
X0318563Y0025374
X0303504Y0045585
X02578Y0049
Y0053
X0245412Y0046173
X0245827Y0039154
X0251673Y0033504
X0257874
X0232461Y0039026
Y0046398
X0213032Y0057152
Y0060514
X0199823Y0068976
X0187697Y0069114
X0183642Y0063504
X0185768Y007813
X0187Y0099004
X0190787Y0099301
X0186988Y0105905
X0175768Y009939
X0175807Y0094547
X0210295Y0095197
X0217165Y0095906
X0220905Y0096142
X0213032Y0083425
X0261043Y0084153
X0269094Y0083487
X0194193Y0125476
X0194193Y0128839
X0194193Y0132264
X0176713Y0143091
X0176939Y0147105
X0203364Y0024714
X0160709Y0062618
X016189Y007313
X0156929Y007189
X015689Y0075413
X0151142
X0147658Y0074154
X0138524Y0079272
X0137165Y0085295
X0142913Y0090118
X0124705Y0092819
Y0096181
X0109862Y009815
X0114173Y010748
Y0115354
X0119685Y0111417
X013437Y0114508
X0140689Y0119468
Y0124784
Y0130709
Y0138839
Y0145846
X0153986Y0150157
X015876Y0152461
Y0155847
X0162972
Y0152461
X0158543Y0125866
X0160759Y0120978
X0154331Y010939
X0173839Y010874
X0170098Y0104744
X0166732Y009939
X0171555Y0094547
X017146Y0090614
X0161575Y0092795
X016913Y0073066
X0141319Y0063602
Y0059606
X0124843Y0062697
X0119193
X0118799Y0079626
X0118661Y0085295
X0113973Y0038291
X0072205Y0015505
X0064646Y0016693
X0024473Y0018316
X0024646Y0025394
X0054843Y0098917
X0054772Y0102874
X0070768Y012315
X0072402Y0132421
X0068465
X0076398
X0080335
X0065807Y0144528
X004815Y0135197
X0044331Y0153189
X0077579Y0161713
X0122028Y0162343
X0122106Y0180591
X0127854Y0180807
X0133976Y0176299
X0114567Y0190354
X0095925Y019063
X0088346Y0171063
X0066535Y0173228
X0062598
X0058661
Y0198031
X0062598
X0066535
X0166297Y0178703
X0172146Y0178839
X0177646Y0169198
X0188268Y0169193
X0200335Y0184961
X0206437
X0210669Y0179252
Y0175453
X0212776Y0172598
X0207028Y0208976
X0200335
X0260118Y022565
T04
X0218789Y0046663
X0316063Y0117264
X0330236
Y0103091
X0054862Y0122618
X022872Y0253346
T05
X0020728Y0111476
Y0131161
T06
X0270892Y0009932
X0295276Y0007283
Y0013189
Y0019094
Y0025
Y0030906
Y0036811
X0270892Y0039459
Y0033554
Y0027648
Y0021743
Y0015837
T07
X0089764Y0006299
X0101575
T08
X0014961Y0240551
Y0283465
X0034646
Y0240551
X0092177Y0234418
X0131547
X0151232Y0313158
X0072492
T10
X0247152Y0146184
T11
X0051968Y0351181
X0170079
T13
X0189724Y0253463
X0219724
X0237362Y0253189
X0267362
Y0313189
X0237362Y0323189
X0219724Y0313463
X0237362Y0293189
X0189724Y0293463
Y0323463
T14
X0247349Y0116361
T15
X0194724Y0351181
X0214724
X0242362
X0262362
X0025197Y0351339
Y0331339
T16
X0358484Y0036161
Y0129724
X0293091Y0128898
X023248Y001437
X0056968Y0137224
X0173721Y0365295
T17
X0148606Y0007817
X0012992Y0184252
M30
