G04*
G04 #@! TF.GenerationSoftware,Altium Limited,Altium Designer,21.1.1 (26)*
G04*
G04 Layer_Color=128*
%FSLAX25Y25*%
%MOIN*%
G70*
G04*
G04 #@! TF.SameCoordinates,D2CF5B13-6A79-4D9C-8E4E-AA6CB0D1C9A8*
G04*
G04*
G04 #@! TF.FilePolarity,Positive*
G04*
G01*
G75*
%ADD197C,0.00200*%
D197*
X269179Y39459D02*
X272604D01*
X270892Y37747D02*
Y41172D01*
X269179Y33554D02*
X272604D01*
X270892Y31841D02*
Y35266D01*
X269179Y27648D02*
X272604D01*
X270892Y25936D02*
Y29361D01*
X269179Y21743D02*
X272604D01*
X270892Y20030D02*
Y23455D01*
X269179Y15837D02*
X272604D01*
X270892Y14124D02*
Y17550D01*
X269179Y9932D02*
X272604D01*
X270892Y8219D02*
Y11644D01*
X293563Y7283D02*
X296988D01*
X295276Y5571D02*
Y8996D01*
X354547Y36161D02*
X362421D01*
X358484Y32224D02*
Y40098D01*
X354547Y129724D02*
X362421D01*
X358484Y125787D02*
Y133661D01*
X289154Y128898D02*
X297028D01*
X293091Y124961D02*
Y132835D01*
X169783Y365295D02*
X177657D01*
X173721Y361358D02*
Y369232D01*
X53031Y137224D02*
X60905D01*
X56968Y133287D02*
Y141161D01*
X228543Y14370D02*
X236417D01*
X232480Y10433D02*
Y18307D01*
X293563Y13189D02*
X296988D01*
X295276Y11476D02*
Y14902D01*
X293563Y19094D02*
X296988D01*
X295276Y17382D02*
Y20807D01*
X293563Y25000D02*
X296988D01*
X295276Y23287D02*
Y26713D01*
X293563Y30906D02*
X296988D01*
X295276Y29193D02*
Y32618D01*
X293563Y36811D02*
X296988D01*
X295276Y35098D02*
Y38524D01*
X315079Y117264D02*
X317047D01*
X316063Y116279D02*
Y118248D01*
X329252Y117264D02*
X331221D01*
X330236Y116279D02*
Y118248D01*
X329252Y103091D02*
X331221D01*
X330236Y102106D02*
Y104075D01*
X32677Y240551D02*
X36614D01*
X34646Y238583D02*
Y242520D01*
X12992Y240551D02*
X16929D01*
X14961Y238583D02*
Y242520D01*
X32677Y283465D02*
X36614D01*
X34646Y281496D02*
Y285433D01*
X12992Y283465D02*
X16929D01*
X14961Y281496D02*
Y285433D01*
X245046Y146184D02*
X249259D01*
X247152Y144078D02*
Y148291D01*
X244593Y116361D02*
X250105D01*
X247349Y113605D02*
Y119117D01*
X144472Y7817D02*
X152740D01*
X148606Y3683D02*
Y11951D01*
X146637Y25534D02*
X150574D01*
X148606Y23565D02*
Y27502D01*
X165141Y38132D02*
X169866D01*
X167503Y35770D02*
Y40494D01*
X141913Y50337D02*
X146637D01*
X144275Y47975D02*
Y52699D01*
X87992Y6299D02*
X91535D01*
X89764Y4528D02*
Y8071D01*
X99803Y6299D02*
X103347D01*
X101575Y4528D02*
Y8071D01*
X70768Y57943D02*
X71555D01*
X71161Y57549D02*
Y58337D01*
X70768Y50718D02*
X71555D01*
X71161Y50325D02*
Y51112D01*
X67155Y61555D02*
X67943D01*
X67549Y61161D02*
Y61949D01*
X67155Y54331D02*
X67943D01*
X67549Y53937D02*
Y54724D01*
X67155Y47106D02*
X67943D01*
X67549Y46713D02*
Y47500D01*
X63543Y57943D02*
X64331D01*
X63937Y57549D02*
Y58337D01*
X63543Y50718D02*
X64331D01*
X63937Y50325D02*
Y51112D01*
X59931Y61555D02*
X60719D01*
X60325Y61161D02*
Y61949D01*
X59931Y54331D02*
X60719D01*
X60325Y53937D02*
Y54724D01*
X59931Y47106D02*
X60719D01*
X60325Y46713D02*
Y47500D01*
X56319Y57943D02*
X57106D01*
X56713Y57549D02*
Y58337D01*
X56319Y50718D02*
X57106D01*
X56713Y50325D02*
Y51112D01*
X234803Y323189D02*
X239921D01*
X237362Y320630D02*
Y325748D01*
X264803Y313189D02*
X269921D01*
X267362Y310630D02*
Y315748D01*
X264803Y253189D02*
X269921D01*
X267362Y250630D02*
Y255748D01*
X234803Y293189D02*
X239921D01*
X237362Y290630D02*
Y295748D01*
X234803Y253189D02*
X239921D01*
X237362Y250630D02*
Y255748D01*
X187165Y323463D02*
X192283D01*
X189724Y320904D02*
Y326022D01*
X217165Y313463D02*
X222283D01*
X219724Y310904D02*
Y316022D01*
X217165Y253463D02*
X222283D01*
X219724Y250904D02*
Y256022D01*
X187165Y293463D02*
X192283D01*
X189724Y290904D02*
Y296022D01*
X187165Y253463D02*
X192283D01*
X189724Y250904D02*
Y256022D01*
X238917Y351181D02*
X245807D01*
X242362Y347736D02*
Y354626D01*
X258917Y351181D02*
X265807D01*
X262362Y347736D02*
Y354626D01*
X191279Y351181D02*
X198169D01*
X194724Y347736D02*
Y354626D01*
X211280Y351181D02*
X218169D01*
X214724Y347736D02*
Y354626D01*
X21752Y331339D02*
X28642D01*
X25197Y327894D02*
Y334784D01*
X21752Y351339D02*
X28642D01*
X25197Y347894D02*
Y354784D01*
X167913Y351181D02*
X172244D01*
X170079Y349016D02*
Y353346D01*
X49803Y351181D02*
X54134D01*
X51968Y349016D02*
Y353346D01*
X70524Y313158D02*
X74461D01*
X72492Y311190D02*
Y315127D01*
X149264Y313158D02*
X153201D01*
X151232Y311190D02*
Y315127D01*
X129579Y234418D02*
X133516D01*
X131547Y232450D02*
Y236387D01*
X90209Y234418D02*
X94146D01*
X92177Y232450D02*
Y236387D01*
X8858Y184252D02*
X17126D01*
X12992Y180118D02*
Y188386D01*
X28740Y184252D02*
X32677D01*
X30709Y182283D02*
Y186221D01*
X40945Y165354D02*
X45669D01*
X43307Y162992D02*
Y167717D01*
X53150Y188583D02*
X57874D01*
X55512Y186221D02*
Y190945D01*
X19154Y111476D02*
X22303D01*
X20728Y109902D02*
Y113051D01*
X19154Y131161D02*
X22303D01*
X20728Y129587D02*
Y132736D01*
X243811Y6000D02*
X245189D01*
X244500Y5311D02*
Y6689D01*
X250411Y6000D02*
X251789D01*
X251100Y5311D02*
Y6689D01*
X257011Y6000D02*
X258389D01*
X257700Y5311D02*
Y6689D01*
X212087Y172598D02*
X213465D01*
X212776Y171909D02*
Y173287D01*
X186311Y99004D02*
X187689D01*
X187000Y98315D02*
Y99693D01*
X193504Y132264D02*
X194882D01*
X194193Y131575D02*
Y132953D01*
X220216Y96142D02*
X221595D01*
X220905Y95453D02*
Y96831D01*
X171457Y178839D02*
X172835D01*
X172146Y178150D02*
Y179528D01*
X176250Y147105D02*
X177628D01*
X176939Y146416D02*
Y147794D01*
X168441Y73066D02*
X169819D01*
X169130Y72377D02*
Y73755D01*
X157854Y125866D02*
X159232D01*
X158543Y125177D02*
Y126555D01*
X160070Y120978D02*
X161448D01*
X160759Y120290D02*
Y121668D01*
X186299Y105905D02*
X187677D01*
X186988Y105217D02*
Y106595D01*
X202673Y42327D02*
X203854D01*
X203263Y41737D02*
Y42918D01*
X165000Y72658D02*
X166181D01*
X165591Y72067D02*
Y73248D01*
X202675Y24714D02*
X204053D01*
X203364Y24025D02*
Y25403D01*
X170771Y90614D02*
X172149D01*
X171460Y89925D02*
Y91303D01*
X71516Y15505D02*
X72894D01*
X72205Y14816D02*
Y16194D01*
X160020Y62618D02*
X161398D01*
X160709Y61929D02*
Y63307D01*
X140630Y63602D02*
X142008D01*
X141319Y62913D02*
Y64291D01*
X140630Y59606D02*
X142008D01*
X141319Y58917D02*
Y60295D01*
X156240Y71890D02*
X157618D01*
X156929Y71201D02*
Y72579D01*
X146968Y74154D02*
X148346D01*
X147658Y73465D02*
Y74843D01*
X206339Y208976D02*
X207716D01*
X207028Y208287D02*
Y209665D01*
X199646Y208976D02*
X201024D01*
X200335Y208287D02*
Y209665D01*
X302815Y45585D02*
X304193D01*
X303504Y44896D02*
Y46274D01*
X317874Y25374D02*
X319252D01*
X318563Y24685D02*
Y26063D01*
X308091Y25591D02*
X309469D01*
X308780Y24902D02*
Y26280D01*
X308878Y3701D02*
X310256D01*
X309567Y3012D02*
Y4390D01*
X259429Y225650D02*
X260807D01*
X260118Y224961D02*
Y226339D01*
X173150Y108740D02*
X174528D01*
X173839Y108051D02*
Y109429D01*
X199134Y68976D02*
X200512D01*
X199823Y68287D02*
Y69665D01*
X212343Y83425D02*
X213720D01*
X213032Y82736D02*
Y84114D01*
X43642Y153189D02*
X45020D01*
X44331Y152500D02*
Y153878D01*
X47461Y135197D02*
X48839D01*
X48150Y134508D02*
Y135886D01*
X76890Y161713D02*
X78268D01*
X77579Y161024D02*
Y162402D01*
X95236Y190630D02*
X96614D01*
X95925Y189941D02*
Y191319D01*
X113878Y190354D02*
X115256D01*
X114567Y189665D02*
Y191043D01*
X87657Y171063D02*
X89035D01*
X88346Y170374D02*
Y171752D01*
X127165Y180807D02*
X128543D01*
X127854Y180118D02*
Y181496D01*
X121417Y180591D02*
X122795D01*
X122106Y179902D02*
Y181280D01*
X133287Y176299D02*
X134665D01*
X133976Y175610D02*
Y176988D01*
X121339Y162343D02*
X122716D01*
X122028Y161653D02*
Y163031D01*
X65118Y144528D02*
X66496D01*
X65807Y143839D02*
Y145217D01*
X118504Y62697D02*
X119882D01*
X119193Y62008D02*
Y63386D01*
X124153Y62697D02*
X125531D01*
X124843Y62008D02*
Y63386D01*
X136476Y85295D02*
X137854D01*
X137165Y84606D02*
Y85984D01*
X118110Y79626D02*
X119488D01*
X118799Y78937D02*
Y80315D01*
X117973Y85295D02*
X119350D01*
X118661Y84606D02*
Y85984D01*
X109173Y98150D02*
X110551D01*
X109862Y97461D02*
Y98839D01*
X182953Y63504D02*
X184331D01*
X183642Y62815D02*
Y64193D01*
X175118Y94547D02*
X176496D01*
X175807Y93858D02*
Y95236D01*
X175079Y99390D02*
X176457D01*
X175768Y98701D02*
Y100079D01*
X153642Y109390D02*
X155020D01*
X154331Y108701D02*
Y110079D01*
X169410Y104744D02*
X170787D01*
X170098Y104055D02*
Y105433D01*
X166043Y99390D02*
X167421D01*
X166732Y98701D02*
Y100079D01*
X257185Y33504D02*
X258563D01*
X257874Y32815D02*
Y34193D01*
X250984Y33504D02*
X252362D01*
X251673Y32815D02*
Y34193D01*
X187008Y69114D02*
X188386D01*
X187697Y68425D02*
Y69803D01*
X137835Y79272D02*
X139213D01*
X138524Y78583D02*
Y79961D01*
X140000Y145846D02*
X141378D01*
X140689Y145158D02*
Y146535D01*
X140000Y138839D02*
X141378D01*
X140689Y138150D02*
Y139527D01*
X140000Y130709D02*
X141378D01*
X140689Y130020D02*
Y131398D01*
X140000Y124784D02*
X141378D01*
X140689Y124094D02*
Y125472D01*
X140000Y119468D02*
X141378D01*
X140689Y118780D02*
Y120158D01*
X209980Y175453D02*
X211358D01*
X210669Y174764D02*
Y176142D01*
X209980Y179252D02*
X211358D01*
X210669Y178563D02*
Y179941D01*
X205748Y184961D02*
X207126D01*
X206437Y184272D02*
Y185650D01*
X187579Y169193D02*
X188957D01*
X188268Y168504D02*
Y169882D01*
X176957Y169198D02*
X178335D01*
X177646Y168509D02*
Y169887D01*
X227736Y253346D02*
X229705D01*
X228720Y252362D02*
Y254331D01*
X158071Y155847D02*
X159449D01*
X158760Y155157D02*
Y156535D01*
X153297Y150157D02*
X154675D01*
X153986Y149469D02*
Y150847D01*
X162284Y152461D02*
X163661D01*
X162972Y151772D02*
Y153150D01*
X158071Y152461D02*
X159449D01*
X158760Y151772D02*
Y153150D01*
X162284Y155847D02*
X163661D01*
X162972Y155157D02*
Y156535D01*
X165608Y178703D02*
X166986D01*
X166297Y178014D02*
Y179392D01*
X176024Y143091D02*
X177402D01*
X176713Y142402D02*
Y143780D01*
X199646Y184961D02*
X201024D01*
X200335Y184272D02*
Y185650D01*
X245138Y39154D02*
X246516D01*
X245827Y38465D02*
Y39843D01*
X217805Y46663D02*
X219774D01*
X218789Y45679D02*
Y47648D01*
X212343Y60514D02*
X213720D01*
X213032Y59825D02*
Y61203D01*
X23957Y25394D02*
X25335D01*
X24646Y24705D02*
Y26083D01*
X23784Y18316D02*
X25162D01*
X24473Y17627D02*
Y19005D01*
X23784Y11993D02*
X25162D01*
X24473Y11304D02*
Y12682D01*
X23784Y4173D02*
X25162D01*
X24473Y3484D02*
Y4862D01*
X63957Y16693D02*
X65335D01*
X64646Y16004D02*
Y17382D01*
X79646Y132421D02*
X81024D01*
X80335Y131732D02*
Y133110D01*
X75709Y132421D02*
X77087D01*
X76398Y131732D02*
Y133110D01*
X67776Y132421D02*
X69153D01*
X68465Y131732D02*
Y133110D01*
X71713Y132421D02*
X73090D01*
X72402Y131732D02*
Y133110D01*
X53878Y122618D02*
X55847D01*
X54862Y121634D02*
Y123602D01*
X65847Y173228D02*
X67224D01*
X66535Y172539D02*
Y173917D01*
X70079Y123150D02*
X71457D01*
X70768Y122461D02*
Y123839D01*
X268406Y83487D02*
X269783D01*
X269094Y82798D02*
Y84176D01*
X260354Y84153D02*
X261732D01*
X261043Y83465D02*
Y84842D01*
X150453Y75413D02*
X151831D01*
X151142Y74724D02*
Y76102D01*
X156201Y75413D02*
X157579D01*
X156890Y74724D02*
Y76102D01*
X161201Y73130D02*
X162579D01*
X161890Y72441D02*
Y73819D01*
X185079Y78130D02*
X186457D01*
X185768Y77441D02*
Y78819D01*
X216476Y95906D02*
X217854D01*
X217165Y95217D02*
Y96595D01*
X170866Y94547D02*
X172244D01*
X171555Y93858D02*
Y95236D01*
X160886Y92795D02*
X162264D01*
X161575Y92106D02*
Y93484D01*
X193504Y125476D02*
X194882D01*
X194193Y124787D02*
Y126165D01*
X193504Y128839D02*
X194882D01*
X194193Y128150D02*
Y129528D01*
X142224Y90118D02*
X143602D01*
X142913Y89429D02*
Y90807D01*
X48957Y3898D02*
X50335D01*
X49646Y3209D02*
Y4587D01*
X44862Y3898D02*
X46240D01*
X45551Y3209D02*
Y4587D01*
X44862Y6457D02*
X46240D01*
X45551Y5768D02*
Y7146D01*
X113284Y38291D02*
X114662D01*
X113973Y37602D02*
Y38980D01*
X54083Y102874D02*
X55460D01*
X54772Y102185D02*
Y103563D01*
X54154Y98917D02*
X55532D01*
X54843Y98228D02*
Y99606D01*
X57973Y198031D02*
X59350D01*
X58661Y197343D02*
Y198721D01*
X61910Y198031D02*
X63287D01*
X62598Y197343D02*
Y198721D01*
X65847Y198031D02*
X67224D01*
X66535Y197343D02*
Y198721D01*
X57973Y173228D02*
X59350D01*
X58661Y172539D02*
Y173917D01*
X61910Y173228D02*
X63287D01*
X62598Y172539D02*
Y173917D01*
X190098Y99301D02*
X191476D01*
X190787Y98612D02*
Y99990D01*
X113484Y107480D02*
X114862D01*
X114173Y106791D02*
Y108169D01*
X209606Y95197D02*
X210984D01*
X210295Y94508D02*
Y95886D01*
X133681Y114508D02*
X135059D01*
X134370Y113819D02*
Y115197D01*
X212343Y57152D02*
X213720D01*
X213032Y56463D02*
Y57841D01*
X124016Y96181D02*
X125394D01*
X124705Y95492D02*
Y96870D01*
X124016Y92819D02*
X125394D01*
X124705Y92130D02*
Y93508D01*
X244723Y46173D02*
X246101D01*
X245412Y45484D02*
Y46862D01*
X231772Y46398D02*
X233150D01*
X232461Y45709D02*
Y47087D01*
X257111Y53000D02*
X258489D01*
X257800Y52311D02*
Y53689D01*
X257111Y49000D02*
X258489D01*
X257800Y48311D02*
Y49689D01*
X231772Y39026D02*
X233150D01*
X232461Y38337D02*
Y39715D01*
X118996Y111417D02*
X120374D01*
X119685Y110728D02*
Y112106D01*
X113484Y115354D02*
X114862D01*
X114173Y114665D02*
Y116043D01*
M02*
