G04*
G04 #@! TF.GenerationSoftware,Altium Limited,Altium Designer,21.1.1 (26)*
G04*
G04 Layer_Color=32768*
%FSLAX25Y25*%
%MOIN*%
G70*
G04*
G04 #@! TF.SameCoordinates,D2CF5B13-6A79-4D9C-8E4E-AA6CB0D1C9A8*
G04*
G04*
G04 #@! TF.FilePolarity,Positive*
G04*
G01*
G75*
%ADD18C,0.01181*%
%ADD196C,0.03937*%
D18*
X281000Y43250D02*
Y43750D01*
Y45500D02*
Y46000D01*
Y47750D02*
Y48250D01*
Y45500D02*
Y46000D01*
Y79000D02*
Y79500D01*
Y81250D02*
Y81750D01*
Y79000D02*
Y79500D01*
Y76750D02*
Y77250D01*
Y109750D02*
Y110250D01*
Y112000D02*
Y112500D01*
Y114250D02*
Y114750D01*
Y112000D02*
Y112500D01*
D196*
X8400Y21850D02*
Y95950D01*
X0Y21800D02*
Y95900D01*
X3450D01*
Y21800D02*
Y95900D01*
Y21800D02*
X6200D01*
Y95900D01*
X4331D02*
X6200D01*
X-1700Y21800D02*
X11200D01*
Y95900D01*
X-2000D02*
X11200D01*
X-1900Y-2000D02*
X281000Y-2000D01*
X-2000Y380854D02*
X-2000Y-2300D01*
X-1900Y381200D02*
X280454Y381200D01*
X280983Y381100D02*
X280983Y137192D01*
X281000Y-2000D02*
Y10500D01*
Y39000D01*
Y-2000D02*
X368000D01*
Y139000D01*
X281000D02*
X368000D01*
X281000Y65500D02*
Y73000D01*
Y53000D02*
Y65500D01*
Y86000D02*
Y98500D01*
Y106000D01*
Y131000D02*
Y139000D01*
Y118500D02*
Y131000D01*
M02*
