G04*
G04 #@! TF.GenerationSoftware,Altium Limited,Altium Designer,21.1.1 (26)*
G04*
G04 Layer_Color=32896*
%FSLAX25Y25*%
%MOIN*%
G70*
G04*
G04 #@! TF.SameCoordinates,D2CF5B13-6A79-4D9C-8E4E-AA6CB0D1C9A8*
G04*
G04*
G04 #@! TF.FilePolarity,Positive*
G04*
G01*
G75*
%ADD10C,0.00787*%
%ADD13C,0.00984*%
%ADD14C,0.00394*%
%ADD20C,0.00591*%
%ADD21C,0.01000*%
G36*
X294882Y58780D02*
X292520Y61142D01*
Y56417D01*
X294882Y58780D01*
D02*
G37*
D10*
X301000Y106000D02*
G03*
X301000Y106000I-8000J0D01*
G01*
X311153Y85984D02*
G03*
X316721Y85984I2784J0D01*
G01*
X321024Y50945D02*
Y85984D01*
X306850Y50945D02*
X321024D01*
X306850D02*
Y85984D01*
X311153D01*
X316721D02*
X321024D01*
D13*
X286614Y787D02*
X301181D01*
Y43307D01*
X286614D02*
X301181D01*
X286614Y787D02*
Y43307D01*
D14*
X311476Y6654D02*
Y11378D01*
X309508Y6654D02*
Y11378D01*
X305177Y18937D02*
X309902D01*
X305177Y16969D02*
X309902D01*
X316398Y12382D02*
X320335D01*
X316398D02*
Y23405D01*
X320335D01*
Y12382D02*
Y23405D01*
X311673Y12382D02*
X315610D01*
X311673D02*
Y23405D01*
X315610D01*
Y12382D02*
Y23405D01*
X320276Y925D02*
Y11949D01*
X316339D02*
X320276D01*
X316339Y925D02*
Y11949D01*
Y925D02*
X320276D01*
X326378Y1339D02*
X331102D01*
Y12362D01*
X326378D02*
X331102D01*
X326378Y1339D02*
Y12362D01*
X326161Y17992D02*
X332067D01*
X326161Y24291D02*
X332067D01*
X332205Y13012D02*
Y16949D01*
X321181Y13012D02*
X332205D01*
X321181D02*
Y16949D01*
X332205D01*
X337008Y11969D02*
X340945D01*
Y945D02*
Y11969D01*
X337008Y945D02*
X340945D01*
X337008D02*
Y11969D01*
X288228Y67047D02*
Y70984D01*
X299252D01*
Y67047D02*
Y70984D01*
X288228Y67047D02*
X299252D01*
X287657Y49528D02*
Y53465D01*
X298681D01*
Y49528D02*
Y53465D01*
X287657Y49528D02*
X298681D01*
X327898Y76378D02*
Y87402D01*
Y76378D02*
X331835D01*
Y87402D01*
X327898D02*
X331835D01*
X333071D02*
X337008D01*
Y76378D02*
Y87402D01*
X333071Y76378D02*
X337008D01*
X333071D02*
Y87402D01*
X338189Y76378D02*
X342126D01*
X338189D02*
Y87402D01*
X342126D01*
Y76378D02*
Y87402D01*
X342028Y53504D02*
Y64528D01*
X338091D02*
X342028D01*
X338091Y53504D02*
Y64528D01*
Y53504D02*
X342028D01*
X333248Y53425D02*
X337185D01*
X333248D02*
Y64449D01*
X337185D01*
Y53425D02*
Y64449D01*
X337175Y64984D02*
Y76007D01*
X333238D02*
X337175D01*
X333238Y64984D02*
Y76007D01*
Y64984D02*
X337175D01*
X338090Y65046D02*
X342027D01*
X338090D02*
Y76070D01*
X342027D01*
Y65046D02*
Y76070D01*
X343846Y63875D02*
X350145D01*
X343846Y61513D02*
X350145D01*
X343855Y78152D02*
X350154D01*
X343855Y80514D02*
X350154D01*
X338090Y46929D02*
Y50866D01*
X349114D01*
Y46929D02*
Y50866D01*
X338090Y46929D02*
X349114D01*
X326929Y50866D02*
X337953D01*
X326929Y46929D02*
Y50866D01*
Y46929D02*
X337953D01*
Y50866D01*
X305512Y32087D02*
X310236D01*
X305512Y34055D02*
X310236D01*
X311811Y32087D02*
X316535D01*
X311811Y34055D02*
X316535D01*
X318110Y32087D02*
X322835D01*
X318110Y34055D02*
X322835D01*
X294882Y56811D02*
Y60748D01*
X288189Y71653D02*
Y75590D01*
X299213D01*
Y71653D02*
Y75590D01*
X288189Y71653D02*
X299213D01*
X290413Y75984D02*
Y87008D01*
Y75984D02*
X294350D01*
Y87008D01*
X290413D02*
X294350D01*
X295059Y75965D02*
X298996D01*
X295059D02*
Y86988D01*
X298996D01*
Y75965D02*
Y86988D01*
X301181Y91339D02*
X312205D01*
X301181Y87402D02*
Y91339D01*
Y87402D02*
X312205D01*
Y91339D01*
X307658Y92539D02*
Y97264D01*
X305689Y92539D02*
Y97264D01*
D20*
X299665Y43937D02*
Y47086D01*
X298616Y46036D01*
X297566Y47086D01*
Y43937D01*
X296517D02*
Y46036D01*
X295467Y47086D01*
X294418Y46036D01*
Y43937D01*
Y45511D01*
X296517D01*
X293368Y47086D02*
X292319D01*
X292843D01*
Y43937D01*
X293368D01*
X292319D01*
X290744D02*
Y47086D01*
X288645Y43937D01*
Y47086D01*
X305492Y1877D02*
Y827D01*
Y1352D01*
X302868D01*
X302343Y827D01*
Y302D01*
X302868Y-222D01*
Y2926D02*
X302343Y3451D01*
Y4501D01*
X302868Y5025D01*
X304967D01*
X305492Y4501D01*
Y3451D01*
X304967Y2926D01*
X304442D01*
X303917Y3451D01*
Y5025D01*
X320025Y82066D02*
Y79443D01*
X319501Y78918D01*
X318451D01*
X317926Y79443D01*
Y82066D01*
X316877Y79443D02*
X316352Y78918D01*
X315302D01*
X314778Y79443D01*
Y81542D01*
X315302Y82066D01*
X316352D01*
X316877Y81542D01*
Y81017D01*
X316352Y80492D01*
X314778D01*
X327166Y9474D02*
X329790D01*
X330314Y8949D01*
Y7900D01*
X329790Y7375D01*
X327166D01*
X327691Y6326D02*
X327166Y5801D01*
Y4751D01*
X327691Y4227D01*
X328215D01*
X328740Y4751D01*
X329265Y4227D01*
X329790D01*
X330314Y4751D01*
Y5801D01*
X329790Y6326D01*
X329265D01*
X328740Y5801D01*
X328215Y6326D01*
X327691D01*
X328740Y5801D02*
Y4751D01*
X346488Y19784D02*
Y22933D01*
X344914D01*
X344389Y22408D01*
Y21358D01*
X344914Y20833D01*
X346488D01*
X345439D02*
X344389Y19784D01*
X343340Y22933D02*
X341241D01*
X342290D01*
Y19784D01*
X340191D02*
X339142D01*
X339666D01*
Y22933D01*
X340191Y22408D01*
X295276Y87751D02*
X298425D01*
Y89325D01*
X297900Y89850D01*
X296850D01*
X296326Y89325D01*
Y87751D01*
Y88800D02*
X295276Y89850D01*
X297900Y90899D02*
X298425Y91424D01*
Y92474D01*
X297900Y92998D01*
X297375D01*
X296850Y92474D01*
Y91949D01*
Y92474D01*
X296326Y92998D01*
X295801D01*
X295276Y92474D01*
Y91424D01*
X295801Y90899D01*
X298425Y96147D02*
Y94048D01*
X296850D01*
X297375Y95097D01*
Y95622D01*
X296850Y96147D01*
X295801D01*
X295276Y95622D01*
Y94573D01*
X295801Y94048D01*
X283209Y46176D02*
X286358D01*
Y47750D01*
X285833Y48275D01*
X284784D01*
X284259Y47750D01*
Y46176D01*
Y47225D02*
X283209Y48275D01*
X285833Y49325D02*
X286358Y49849D01*
Y50899D01*
X285833Y51424D01*
X285308D01*
X284784Y50899D01*
Y50374D01*
Y50899D01*
X284259Y51424D01*
X283734D01*
X283209Y50899D01*
Y49849D01*
X283734Y49325D01*
X283209Y54047D02*
X286358D01*
X284784Y52473D01*
Y54572D01*
X284449Y72062D02*
X287598D01*
Y73636D01*
X287073Y74161D01*
X286024D01*
X285499Y73636D01*
Y72062D01*
Y73111D02*
X284449Y74161D01*
X287073Y75210D02*
X287598Y75735D01*
Y76785D01*
X287073Y77309D01*
X286548D01*
X286024Y76785D01*
Y76260D01*
Y76785D01*
X285499Y77309D01*
X284974D01*
X284449Y76785D01*
Y75735D01*
X284974Y75210D01*
X287073Y78359D02*
X287598Y78884D01*
Y79933D01*
X287073Y80458D01*
X286548D01*
X286024Y79933D01*
Y79408D01*
Y79933D01*
X285499Y80458D01*
X284974D01*
X284449Y79933D01*
Y78884D01*
X284974Y78359D01*
X297702Y62815D02*
Y65964D01*
X296128D01*
X295603Y65439D01*
Y64390D01*
X296128Y63865D01*
X297702D01*
X296653D02*
X295603Y62815D01*
X294553Y65439D02*
X294029Y65964D01*
X292979D01*
X292454Y65439D01*
Y64915D01*
X292979Y64390D01*
X293504D01*
X292979D01*
X292454Y63865D01*
Y63340D01*
X292979Y62815D01*
X294029D01*
X294553Y63340D01*
X289306Y62815D02*
X291405D01*
X289306Y64915D01*
Y65439D01*
X289831Y65964D01*
X290880D01*
X291405Y65439D01*
X335138Y26970D02*
X338287D01*
Y28544D01*
X337762Y29069D01*
X336713D01*
X336188Y28544D01*
Y26970D01*
Y28019D02*
X335138Y29069D01*
X337762Y30118D02*
X338287Y30643D01*
Y31692D01*
X337762Y32217D01*
X337237D01*
X336713Y31692D01*
Y31168D01*
Y31692D01*
X336188Y32217D01*
X335663D01*
X335138Y31692D01*
Y30643D01*
X335663Y30118D01*
X335138Y33267D02*
Y34316D01*
Y33792D01*
X338287D01*
X337762Y33267D01*
X331162Y26970D02*
X334311D01*
Y28544D01*
X333786Y29069D01*
X332736D01*
X332211Y28544D01*
Y26970D01*
Y28019D02*
X331162Y29069D01*
X333786Y30118D02*
X334311Y30643D01*
Y31692D01*
X333786Y32217D01*
X333261D01*
X332736Y31692D01*
Y31168D01*
Y31692D01*
X332211Y32217D01*
X331687D01*
X331162Y31692D01*
Y30643D01*
X331687Y30118D01*
X333786Y33267D02*
X334311Y33792D01*
Y34841D01*
X333786Y35366D01*
X331687D01*
X331162Y34841D01*
Y33792D01*
X331687Y33267D01*
X333786D01*
X351772Y48144D02*
X354921D01*
Y49719D01*
X354396Y50244D01*
X353346D01*
X352822Y49719D01*
Y48144D01*
Y49194D02*
X351772Y50244D01*
Y53392D02*
Y51293D01*
X353871Y53392D01*
X354396D01*
X354921Y52867D01*
Y51818D01*
X354396Y51293D01*
X352297Y54442D02*
X351772Y54966D01*
Y56016D01*
X352297Y56541D01*
X354396D01*
X354921Y56016D01*
Y54966D01*
X354396Y54442D01*
X353871D01*
X353346Y54966D01*
Y56541D01*
X347599Y2908D02*
X350747D01*
Y4482D01*
X350223Y5007D01*
X349173D01*
X348649Y4482D01*
Y2908D01*
Y3958D02*
X347599Y5007D01*
Y8156D02*
Y6057D01*
X349698Y8156D01*
X350223D01*
X350747Y7631D01*
Y6582D01*
X350223Y6057D01*
Y9205D02*
X350747Y9730D01*
Y10780D01*
X350223Y11304D01*
X349698D01*
X349173Y10780D01*
X348649Y11304D01*
X348124D01*
X347599Y10780D01*
Y9730D01*
X348124Y9205D01*
X348649D01*
X349173Y9730D01*
X349698Y9205D01*
X350223D01*
X349173Y9730D02*
Y10780D01*
X333465Y88499D02*
X336614D01*
Y90073D01*
X336089Y90598D01*
X335039D01*
X334515Y90073D01*
Y88499D01*
Y89548D02*
X333465Y90598D01*
Y93746D02*
Y91647D01*
X335564Y93746D01*
X336089D01*
X336614Y93222D01*
Y92172D01*
X336089Y91647D01*
X336614Y94796D02*
Y96895D01*
X336089D01*
X333990Y94796D01*
X333465D01*
X338760Y88499D02*
X341909D01*
Y90073D01*
X341384Y90598D01*
X340335D01*
X339810Y90073D01*
Y88499D01*
Y89548D02*
X338760Y90598D01*
Y93746D02*
Y91647D01*
X340859Y93746D01*
X341384D01*
X341909Y93222D01*
Y92172D01*
X341384Y91647D01*
X341909Y96895D02*
X341384Y95845D01*
X340335Y94796D01*
X339285D01*
X338760Y95321D01*
Y96370D01*
X339285Y96895D01*
X339810D01*
X340335Y96370D01*
Y94796D01*
X351437Y69188D02*
X354586D01*
Y70762D01*
X354061Y71287D01*
X353012D01*
X352487Y70762D01*
Y69188D01*
Y70237D02*
X351437Y71287D01*
Y74435D02*
Y72336D01*
X353537Y74435D01*
X354061D01*
X354586Y73911D01*
Y72861D01*
X354061Y72336D01*
X354586Y77584D02*
Y75485D01*
X353012D01*
X353537Y76534D01*
Y77059D01*
X353012Y77584D01*
X351962D01*
X351437Y77059D01*
Y76010D01*
X351962Y75485D01*
X341659Y13642D02*
Y16791D01*
X340085D01*
X339560Y16266D01*
Y15217D01*
X340085Y14692D01*
X341659D01*
X340609D02*
X339560Y13642D01*
X336411D02*
X338510D01*
X336411Y15741D01*
Y16266D01*
X336936Y16791D01*
X337985D01*
X338510Y16266D01*
X333787Y13642D02*
Y16791D01*
X335362Y15217D01*
X333262D01*
X347367Y42540D02*
Y45689D01*
X345793D01*
X345268Y45164D01*
Y44114D01*
X345793Y43589D01*
X347367D01*
X346318D02*
X345268Y42540D01*
X342120D02*
X344219D01*
X342120Y44639D01*
Y45164D01*
X342645Y45689D01*
X343694D01*
X344219Y45164D01*
X341070D02*
X340546Y45689D01*
X339496D01*
X338971Y45164D01*
Y44639D01*
X339496Y44114D01*
X340021D01*
X339496D01*
X338971Y43589D01*
Y43065D01*
X339496Y42540D01*
X340546D01*
X341070Y43065D01*
X286515Y56353D02*
X283367D01*
Y57927D01*
X283891Y58452D01*
X285991D01*
X286515Y57927D01*
Y56353D01*
Y61600D02*
Y59501D01*
X284941D01*
X285466Y60551D01*
Y61076D01*
X284941Y61600D01*
X283891D01*
X283367Y61076D01*
Y60026D01*
X283891Y59501D01*
X321483Y41326D02*
X322007Y40801D01*
Y39752D01*
X321483Y39227D01*
X319384D01*
X318859Y39752D01*
Y40801D01*
X319384Y41326D01*
X318859Y43950D02*
X322007D01*
X320433Y42376D01*
Y44475D01*
X322007Y47623D02*
X321483Y46574D01*
X320433Y45524D01*
X319384D01*
X318859Y46049D01*
Y47099D01*
X319384Y47623D01*
X319908D01*
X320433Y47099D01*
Y45524D01*
X315439Y41326D02*
X315964Y40801D01*
Y39752D01*
X315439Y39227D01*
X313340D01*
X312815Y39752D01*
Y40801D01*
X313340Y41326D01*
X312815Y43950D02*
X315964D01*
X314390Y42376D01*
Y44475D01*
X315964Y47623D02*
Y45524D01*
X314390D01*
X314914Y46574D01*
Y47099D01*
X314390Y47623D01*
X313340D01*
X312815Y47099D01*
Y46049D01*
X313340Y45524D01*
X309120Y41326D02*
X309645Y40801D01*
Y39752D01*
X309120Y39227D01*
X307021D01*
X306497Y39752D01*
Y40801D01*
X307021Y41326D01*
X306497Y43950D02*
X309645D01*
X308071Y42376D01*
Y44475D01*
X306497Y47099D02*
X309645D01*
X308071Y45524D01*
Y47623D01*
X308949Y102565D02*
X309474Y103090D01*
X310524D01*
X311049Y102565D01*
Y100466D01*
X310524Y99941D01*
X309474D01*
X308949Y100466D01*
X306326Y99941D02*
Y103090D01*
X307900Y101516D01*
X305801D01*
X304751Y102565D02*
X304227Y103090D01*
X303177D01*
X302652Y102565D01*
Y102041D01*
X303177Y101516D01*
X303702D01*
X303177D01*
X302652Y100991D01*
Y100466D01*
X303177Y99941D01*
X304227D01*
X304751Y100466D01*
X319048Y90636D02*
X319573Y91161D01*
X320622D01*
X321147Y90636D01*
Y88537D01*
X320622Y88012D01*
X319573D01*
X319048Y88537D01*
X316424Y88012D02*
Y91161D01*
X317998Y89587D01*
X315899D01*
X312751Y88012D02*
X314850D01*
X312751Y90111D01*
Y90636D01*
X313276Y91161D01*
X314325D01*
X314850Y90636D01*
X293313Y89882D02*
X293838Y89358D01*
Y88308D01*
X293313Y87783D01*
X291214D01*
X290689Y88308D01*
Y89358D01*
X291214Y89882D01*
X290689Y92506D02*
X293838D01*
X292264Y90932D01*
Y93031D01*
X290689Y94081D02*
Y95130D01*
Y94605D01*
X293838D01*
X293313Y94081D01*
X344790Y4869D02*
X345315Y4345D01*
Y3295D01*
X344790Y2770D01*
X342691D01*
X342166Y3295D01*
Y4345D01*
X342691Y4869D01*
X342166Y7493D02*
X345315D01*
X343740Y5919D01*
Y8018D01*
X344790Y9068D02*
X345315Y9592D01*
Y10642D01*
X344790Y11167D01*
X342691D01*
X342166Y10642D01*
Y9592D01*
X342691Y9068D01*
X344790D01*
X329809Y29062D02*
X330334Y28538D01*
Y27488D01*
X329809Y26963D01*
X327710D01*
X327186Y27488D01*
Y28538D01*
X327710Y29062D01*
X329809Y30112D02*
X330334Y30637D01*
Y31686D01*
X329809Y32211D01*
X329285D01*
X328760Y31686D01*
Y31161D01*
Y31686D01*
X328235Y32211D01*
X327710D01*
X327186Y31686D01*
Y30637D01*
X327710Y30112D01*
Y33261D02*
X327186Y33785D01*
Y34835D01*
X327710Y35359D01*
X329809D01*
X330334Y34835D01*
Y33785D01*
X329809Y33261D01*
X329285D01*
X328760Y33785D01*
Y35359D01*
X331089Y56936D02*
X331614Y56412D01*
Y55362D01*
X331089Y54837D01*
X328990D01*
X328465Y55362D01*
Y56412D01*
X328990Y56936D01*
X331089Y57986D02*
X331614Y58511D01*
Y59560D01*
X331089Y60085D01*
X330564D01*
X330039Y59560D01*
Y59035D01*
Y59560D01*
X329515Y60085D01*
X328990D01*
X328465Y59560D01*
Y58511D01*
X328990Y57986D01*
X331089Y61134D02*
X331614Y61659D01*
Y62709D01*
X331089Y63234D01*
X330564D01*
X330039Y62709D01*
X329515Y63234D01*
X328990D01*
X328465Y62709D01*
Y61659D01*
X328990Y61134D01*
X329515D01*
X330039Y61659D01*
X330564Y61134D01*
X331089D01*
X330039Y61659D02*
Y62709D01*
X313182Y4829D02*
X313706Y5354D01*
X314756D01*
X315281Y4829D01*
Y2730D01*
X314756Y2205D01*
X313706D01*
X313182Y2730D01*
X312132Y4829D02*
X311607Y5354D01*
X310558D01*
X310033Y4829D01*
Y4304D01*
X310558Y3779D01*
X311083D01*
X310558D01*
X310033Y3255D01*
Y2730D01*
X310558Y2205D01*
X311607D01*
X312132Y2730D01*
X308984Y5354D02*
X306885D01*
Y4829D01*
X308984Y2730D01*
Y2205D01*
X330931Y90598D02*
X331456Y90073D01*
Y89024D01*
X330931Y88499D01*
X328832D01*
X328308Y89024D01*
Y90073D01*
X328832Y90598D01*
X330931Y91647D02*
X331456Y92172D01*
Y93222D01*
X330931Y93746D01*
X330407D01*
X329882Y93222D01*
Y92697D01*
Y93222D01*
X329357Y93746D01*
X328832D01*
X328308Y93222D01*
Y92172D01*
X328832Y91647D01*
X331456Y96895D02*
X330931Y95845D01*
X329882Y94796D01*
X328832D01*
X328308Y95321D01*
Y96370D01*
X328832Y96895D01*
X329357D01*
X329882Y96370D01*
Y94796D01*
X334619Y45223D02*
X335143Y45748D01*
X336193D01*
X336718Y45223D01*
Y43124D01*
X336193Y42599D01*
X335143D01*
X334619Y43124D01*
X333569Y45223D02*
X333045Y45748D01*
X331995D01*
X331470Y45223D01*
Y44698D01*
X331995Y44173D01*
X332520D01*
X331995D01*
X331470Y43648D01*
Y43124D01*
X331995Y42599D01*
X333045D01*
X333569Y43124D01*
X328322Y45748D02*
X330421D01*
Y44173D01*
X329371Y44698D01*
X328846D01*
X328322Y44173D01*
Y43124D01*
X328846Y42599D01*
X329896D01*
X330421Y43124D01*
X347801Y90460D02*
X348326Y89935D01*
Y88886D01*
X347801Y88361D01*
X345702D01*
X345178Y88886D01*
Y89935D01*
X345702Y90460D01*
X347801Y91509D02*
X348326Y92034D01*
Y93084D01*
X347801Y93609D01*
X347277D01*
X346752Y93084D01*
Y92559D01*
Y93084D01*
X346227Y93609D01*
X345702D01*
X345178Y93084D01*
Y92034D01*
X345702Y91509D01*
X345178Y96232D02*
X348326D01*
X346752Y94658D01*
Y96757D01*
X354317Y60795D02*
X354842Y60270D01*
Y59220D01*
X354317Y58696D01*
X352218D01*
X351693Y59220D01*
Y60270D01*
X352218Y60795D01*
X354317Y61844D02*
X354842Y62369D01*
Y63419D01*
X354317Y63943D01*
X353793D01*
X353268Y63419D01*
Y62894D01*
Y63419D01*
X352743Y63943D01*
X352218D01*
X351693Y63419D01*
Y62369D01*
X352218Y61844D01*
X354317Y64993D02*
X354842Y65517D01*
Y66567D01*
X354317Y67092D01*
X353793D01*
X353268Y66567D01*
Y66042D01*
Y66567D01*
X352743Y67092D01*
X352218D01*
X351693Y66567D01*
Y65517D01*
X352218Y64993D01*
X331128Y68610D02*
X331653Y68085D01*
Y67035D01*
X331128Y66510D01*
X329029D01*
X328504Y67035D01*
Y68085D01*
X329029Y68610D01*
X331128Y69659D02*
X331653Y70184D01*
Y71233D01*
X331128Y71758D01*
X330604D01*
X330079Y71233D01*
Y70709D01*
Y71233D01*
X329554Y71758D01*
X329029D01*
X328504Y71233D01*
Y70184D01*
X329029Y69659D01*
X328504Y74907D02*
Y72808D01*
X330604Y74907D01*
X331128D01*
X331653Y74382D01*
Y73333D01*
X331128Y72808D01*
D21*
X297500Y121498D02*
X293501D01*
X295501D01*
Y115500D01*
X291502D02*
Y121498D01*
X288503D01*
X287503Y120498D01*
Y118499D01*
X288503Y117499D01*
X291502D01*
M02*
