G04*
G04 #@! TF.GenerationSoftware,Altium Limited,Altium Designer,21.1.1 (26)*
G04*
G04 Layer_Color=16711935*
%FSLAX25Y25*%
%MOIN*%
G70*
G04*
G04 #@! TF.SameCoordinates,D2CF5B13-6A79-4D9C-8E4E-AA6CB0D1C9A8*
G04*
G04*
G04 #@! TF.FilePolarity,Negative*
G04*
G01*
G75*
%ADD61R,0.03150X0.05512*%
%ADD64R,0.04194X0.03494*%
%ADD66R,0.03494X0.04194*%
%ADD76R,0.05512X0.03150*%
%ADD98O,0.07087X0.05118*%
%ADD99C,0.06010*%
%ADD100C,0.04331*%
%ADD101C,0.08268*%
%ADD102C,0.08278*%
%ADD103O,0.15758X0.07884*%
%ADD104O,0.07884X0.15758*%
%ADD105O,0.14183X0.07097*%
%ADD106C,0.00394*%
%ADD107C,0.01575*%
%ADD108C,0.10236*%
%ADD109C,0.12205*%
%ADD110O,0.07097X0.14183*%
G04:AMPARAMS|DCode=190|XSize=91.82mil|YSize=86.82mil|CornerRadius=0mil|HoleSize=0mil|Usage=FLASHONLY|Rotation=135.000|XOffset=0mil|YOffset=0mil|HoleType=Round|Shape=Rectangle|*
%AMROTATEDRECTD190*
4,1,4,0.06316,-0.00177,0.00177,-0.06316,-0.06316,0.00177,-0.00177,0.06316,0.06316,-0.00177,0.0*
%
%ADD190ROTATEDRECTD190*%

%ADD191R,0.04724X0.02756*%
%ADD192R,0.03937X0.06693*%
%ADD193R,0.06693X0.03937*%
%ADD194R,0.05039X0.02677*%
%ADD195C,0.02372*%
D61*
X314232Y9016D02*
D03*
X306752D02*
D03*
X289961Y58780D02*
D03*
X297441D02*
D03*
X310413Y94902D02*
D03*
X302933D02*
D03*
D64*
X323543Y14980D02*
D03*
X329843D02*
D03*
X296890Y69016D02*
D03*
X290590D02*
D03*
X296319Y51496D02*
D03*
X290019D02*
D03*
X346752Y48898D02*
D03*
X340452D02*
D03*
X335591D02*
D03*
X329291D02*
D03*
X296851Y73622D02*
D03*
X290551D02*
D03*
X309843Y89370D02*
D03*
X303543D02*
D03*
D66*
X318366Y21044D02*
D03*
Y14744D02*
D03*
X313642Y21044D02*
D03*
Y14744D02*
D03*
X318307Y3287D02*
D03*
Y9587D02*
D03*
X338976Y3307D02*
D03*
Y9607D02*
D03*
X329867Y85040D02*
D03*
Y78740D02*
D03*
X335039D02*
D03*
Y85040D02*
D03*
X340158D02*
D03*
Y78740D02*
D03*
X340059Y55866D02*
D03*
Y62166D02*
D03*
X335216Y62087D02*
D03*
Y55787D02*
D03*
X335206Y67346D02*
D03*
Y73646D02*
D03*
X340058Y73708D02*
D03*
Y67408D02*
D03*
X292382Y84646D02*
D03*
Y78346D02*
D03*
X297028Y84626D02*
D03*
Y78326D02*
D03*
D76*
X307539Y21693D02*
D03*
Y14213D02*
D03*
X307874Y29331D02*
D03*
Y36811D02*
D03*
X314173Y29331D02*
D03*
Y36811D02*
D03*
X320472Y29331D02*
D03*
Y36811D02*
D03*
D98*
X270892Y39459D02*
D03*
Y33554D02*
D03*
Y27648D02*
D03*
Y21743D02*
D03*
Y15837D02*
D03*
Y9932D02*
D03*
X295276Y7283D02*
D03*
Y13189D02*
D03*
Y19094D02*
D03*
Y25000D02*
D03*
Y30906D02*
D03*
Y36811D02*
D03*
D99*
X358484Y36161D02*
D03*
Y129724D02*
D03*
X293091Y128898D02*
D03*
X173721Y365295D02*
D03*
X56968Y137224D02*
D03*
X232480Y14370D02*
D03*
D100*
X247152Y146184D02*
D03*
X247349Y116361D02*
D03*
D101*
X34646Y240551D02*
D03*
X14961D02*
D03*
X34646Y283465D02*
D03*
X14961D02*
D03*
X170079Y351181D02*
D03*
X51968D02*
D03*
X72492Y313158D02*
D03*
X151232D02*
D03*
X131547Y234418D02*
D03*
X92177D02*
D03*
X20728Y111476D02*
D03*
Y131161D02*
D03*
D102*
X148606Y7817D02*
D03*
X12992Y184252D02*
D03*
D103*
X148606Y25534D02*
D03*
X43307Y165354D02*
D03*
D104*
X167503Y38132D02*
D03*
X30709Y184252D02*
D03*
D105*
X144275Y50337D02*
D03*
D106*
X89764Y6299D02*
D03*
X101575D02*
D03*
D107*
X71161Y57943D02*
D03*
Y50718D02*
D03*
X67549Y61555D02*
D03*
Y54331D02*
D03*
Y47106D02*
D03*
X63937Y57943D02*
D03*
Y50718D02*
D03*
X60325Y61555D02*
D03*
Y54331D02*
D03*
Y47106D02*
D03*
X56713Y57943D02*
D03*
Y50718D02*
D03*
D108*
X237362Y323189D02*
D03*
X267362Y313189D02*
D03*
Y253189D02*
D03*
X237362Y293189D02*
D03*
Y253189D02*
D03*
X189724Y323463D02*
D03*
X219724Y313463D02*
D03*
Y253463D02*
D03*
X189724Y293463D02*
D03*
Y253463D02*
D03*
D109*
X242362Y351181D02*
D03*
X262362D02*
D03*
X194724D02*
D03*
X214724D02*
D03*
X25197Y331339D02*
D03*
Y351339D02*
D03*
D110*
X55512Y188583D02*
D03*
D190*
X292823Y105816D02*
D03*
D191*
X333858Y3110D02*
D03*
Y10590D02*
D03*
X323622D02*
D03*
Y6850D02*
D03*
Y3110D02*
D03*
D192*
X323406Y21142D02*
D03*
X334823D02*
D03*
D193*
X346995Y68402D02*
D03*
Y56985D02*
D03*
X347005Y73624D02*
D03*
Y85042D02*
D03*
D194*
X324409Y83661D02*
D03*
Y78661D02*
D03*
Y73661D02*
D03*
Y68661D02*
D03*
Y63661D02*
D03*
Y58661D02*
D03*
Y53661D02*
D03*
X303465Y83661D02*
D03*
Y78661D02*
D03*
Y73661D02*
D03*
Y68661D02*
D03*
Y63661D02*
D03*
Y58661D02*
D03*
Y53661D02*
D03*
D195*
X186988Y105905D02*
D03*
M02*
