G04*
G04 #@! TF.GenerationSoftware,Altium Limited,Altium Designer,21.1.1 (26)*
G04*
G04 Layer_Physical_Order=4*
G04 Layer_Color=16711680*
%FSLAX25Y25*%
%MOIN*%
G70*
G04*
G04 #@! TF.SameCoordinates,D2CF5B13-6A79-4D9C-8E4E-AA6CB0D1C9A8*
G04*
G04*
G04 #@! TF.FilePolarity,Positive*
G04*
G01*
G75*
%ADD21C,0.01000*%
%ADD24R,0.02756X0.05118*%
%ADD27R,0.03800X0.03100*%
%ADD29R,0.03100X0.03800*%
%ADD39R,0.05118X0.02756*%
%ADD101C,0.08268*%
%ADD111C,0.00800*%
%ADD112C,0.03000*%
%ADD113C,0.01470*%
%ADD114C,0.01100*%
%ADD116C,0.01500*%
%ADD117C,0.02000*%
%ADD118C,0.06000*%
%ADD121O,0.06693X0.04724*%
%ADD122C,0.06000*%
%ADD123C,0.03937*%
%ADD124C,0.07874*%
%ADD125O,0.15748X0.07874*%
%ADD126O,0.07874X0.15748*%
%ADD127O,0.14173X0.07087*%
%ADD128C,0.01181*%
%ADD129C,0.09843*%
%ADD130C,0.11811*%
%ADD131O,0.07087X0.14173*%
%ADD132C,0.02362*%
%ADD133C,0.01772*%
%ADD135C,0.05000*%
%ADD184R,0.04331X0.02362*%
%ADD185R,0.03543X0.06299*%
%ADD186R,0.06299X0.03543*%
%ADD187R,0.04646X0.02284*%
%ADD188C,0.02500*%
%ADD189R,0.05631X0.04941*%
G36*
X25945Y289252D02*
Y226634D01*
X31024Y221555D01*
X141909D01*
X185039Y264685D01*
X271681Y264598D01*
X278073Y258207D01*
X278073Y138583D01*
X278181Y138036D01*
X278484Y137583D01*
Y5166D01*
X273958Y640D01*
X23612D01*
X19429Y4823D01*
Y16827D01*
Y17303D01*
Y27189D01*
X19410Y27177D01*
Y41911D01*
X42146Y64648D01*
X47048D01*
X53013Y70416D01*
X73505D01*
X80611Y65435D01*
Y38979D01*
X78249Y37364D01*
X47916D01*
X31377Y20827D01*
X82835D01*
X93425Y31417D01*
X93426Y95236D01*
X85374Y103287D01*
X63248Y103287D01*
X46290Y120246D01*
Y143858D01*
X47993Y145561D01*
X84449D01*
X84449Y145561D01*
X84995Y145669D01*
X85458Y145979D01*
X126831Y187352D01*
X215806D01*
X222608Y180551D01*
Y146595D01*
X206279Y130266D01*
X195491D01*
X195286Y130766D01*
X195358Y130836D01*
X202126D01*
X202126Y130836D01*
X202672Y130945D01*
X203135Y131254D01*
X210065Y138184D01*
X210374Y138647D01*
X210483Y139193D01*
X210483Y139193D01*
Y147126D01*
X210483Y147126D01*
X210374Y147672D01*
X210065Y148135D01*
X210064Y148135D01*
X207017Y151183D01*
X207039Y151364D01*
X207190Y151683D01*
X208424D01*
X210743Y149365D01*
X211206Y149055D01*
X211752Y148947D01*
X211752Y148947D01*
X213430D01*
X213430Y148947D01*
X213976Y149055D01*
X214439Y149365D01*
X215025Y149950D01*
X215025Y149951D01*
X215335Y150414D01*
X215443Y150960D01*
Y171358D01*
X215443Y171358D01*
X215335Y171905D01*
X215025Y172368D01*
X215025Y172368D01*
X214284Y173108D01*
X214123Y173498D01*
X213676Y173945D01*
X213092Y174187D01*
X212459D01*
X211876Y173945D01*
X211428Y173498D01*
X211187Y172915D01*
Y172282D01*
X211428Y171698D01*
X211876Y171251D01*
X212265Y171090D01*
X212588Y170767D01*
Y152263D01*
X212088Y152056D01*
X210025Y154120D01*
X209562Y154429D01*
X209016Y154538D01*
X209016Y154538D01*
X179289D01*
X179145Y154566D01*
X179145Y154566D01*
X178316D01*
X178316Y154566D01*
X177770Y154458D01*
X177307Y154148D01*
X177307Y154148D01*
X175841Y152683D01*
X175532Y152219D01*
X175423Y151673D01*
X175423Y151673D01*
Y147598D01*
X175350Y147421D01*
Y146789D01*
X175592Y146205D01*
X176039Y145758D01*
X176623Y145516D01*
X177255D01*
X177839Y145758D01*
X178286Y146205D01*
X178528Y146789D01*
Y147421D01*
X178286Y148005D01*
X178278Y148013D01*
Y151082D01*
X178907Y151711D01*
X179029D01*
X179173Y151683D01*
X179173Y151683D01*
X181432D01*
X181583Y151364D01*
X181605Y151183D01*
X179959Y149537D01*
X179650Y149074D01*
X179541Y148528D01*
X179541Y148528D01*
Y145812D01*
X178247Y144518D01*
X177419D01*
X177029Y144679D01*
X176397D01*
X175812Y144438D01*
X175365Y143991D01*
X175124Y143407D01*
Y142774D01*
X175365Y142191D01*
X175812Y141744D01*
X176397Y141502D01*
X177029D01*
X177419Y141663D01*
X178839D01*
X178839Y141663D01*
X179385Y141772D01*
X179848Y142081D01*
X181978Y144211D01*
X182288Y144675D01*
X182396Y145221D01*
X182396Y145221D01*
Y147937D01*
X183249Y148789D01*
X205373D01*
X207628Y146535D01*
Y139784D01*
X201535Y133691D01*
X194899D01*
X194509Y133853D01*
X193877D01*
X193293Y133611D01*
X192846Y133164D01*
X192604Y132580D01*
Y131948D01*
X192846Y131364D01*
X193293Y130917D01*
X193522Y130822D01*
Y130281D01*
X193293Y130186D01*
X192846Y129739D01*
X192604Y129155D01*
Y128523D01*
X192846Y127938D01*
X193293Y127491D01*
X193446Y127428D01*
Y126887D01*
X193293Y126823D01*
X192846Y126376D01*
X192604Y125793D01*
Y125160D01*
X192846Y124576D01*
X193211Y124211D01*
X193122Y123826D01*
X193058Y123711D01*
X170886D01*
X170886Y123711D01*
X170340Y123602D01*
X169877Y123293D01*
X141904Y95320D01*
X141595Y94857D01*
X141486Y94311D01*
X141486Y94311D01*
Y90824D01*
X141324Y90434D01*
Y89802D01*
X141566Y89218D01*
X142013Y88771D01*
X142597Y88529D01*
X143229D01*
X143814Y88771D01*
X144261Y89218D01*
X144502Y89802D01*
Y90434D01*
X144341Y90824D01*
Y93720D01*
X171477Y120856D01*
X196180D01*
X208868Y108169D01*
Y95903D01*
X208706Y95513D01*
Y94881D01*
X208948Y94297D01*
X209395Y93850D01*
X209979Y93608D01*
X210611D01*
X211195Y93850D01*
X211642Y94297D01*
X211884Y94881D01*
Y95513D01*
X211723Y95903D01*
Y108760D01*
X211723Y108760D01*
X211614Y109306D01*
X211305Y109769D01*
X211305Y109769D01*
X197781Y123293D01*
X197398Y123549D01*
X197428Y123903D01*
X197481Y124049D01*
X210240D01*
X210240Y124049D01*
X210786Y124158D01*
X211249Y124467D01*
X230143Y143361D01*
X230143Y143361D01*
X230453Y143824D01*
X230561Y144370D01*
X230561Y144370D01*
Y182815D01*
X230453Y183361D01*
X230143Y183824D01*
X230143Y183824D01*
X219986Y193982D01*
X219523Y194291D01*
X218976Y194400D01*
X218976Y194400D01*
X123189D01*
X123189Y194400D01*
X122643Y194291D01*
X122180Y193982D01*
X80275Y152077D01*
X44724D01*
X44178Y151968D01*
X43715Y151659D01*
X43715Y151659D01*
X40073Y148017D01*
X39764Y147554D01*
X39655Y147008D01*
X39655Y147008D01*
Y127533D01*
X39193Y127342D01*
X5098Y161437D01*
X5098Y289508D01*
X10236Y294646D01*
X20551D01*
X25945Y289252D01*
D02*
G37*
G36*
X306693Y99843D02*
X306692Y81968D01*
X296398Y81968D01*
X295433Y82933D01*
Y99449D01*
X298307Y102323D01*
X304134Y102402D01*
X306693Y99843D01*
D02*
G37*
G36*
X295984Y40807D02*
X297008Y39783D01*
X314990D01*
X315701Y40494D01*
X317177Y40494D01*
X317887Y39783D01*
X322677D01*
X327273Y35187D01*
X326299Y34213D01*
X292224Y34213D01*
X290689Y35748D01*
Y38130D01*
X292342Y39783D01*
X293484D01*
X294508Y40807D01*
X295984Y40807D01*
D02*
G37*
G36*
X299429Y19833D02*
Y18356D01*
X297589Y16516D01*
X292067D01*
X290630Y17953D01*
Y20394D01*
X291850Y21614D01*
X297648D01*
X299429Y19833D01*
D02*
G37*
G36*
X364724Y136653D02*
X365630Y135748D01*
X365630Y2244D01*
X364311Y925D01*
X341226D01*
Y1624D01*
X343326D01*
X343970Y1752D01*
X344516Y2117D01*
X348040Y5641D01*
X348040Y5641D01*
X348405Y6187D01*
X348533Y6831D01*
X348533Y6831D01*
Y19705D01*
X348405Y20348D01*
X348040Y20894D01*
X348040Y20894D01*
X346168Y22767D01*
X345622Y23131D01*
X344978Y23259D01*
X337295D01*
Y24991D01*
X336505D01*
Y26614D01*
X336377Y27258D01*
X336012Y27804D01*
X325816Y38001D01*
X325270Y38365D01*
X325063Y38406D01*
X323182Y40288D01*
X323182Y40288D01*
X322950Y40443D01*
X322950Y40443D01*
X322677Y40497D01*
X318183D01*
X318121Y40559D01*
Y42341D01*
X317993Y42985D01*
X317628Y43530D01*
X313060Y48098D01*
Y77398D01*
X312932Y78042D01*
X312567Y78588D01*
X307406Y83749D01*
X307406Y86820D01*
X308843D01*
Y89370D01*
X309843D01*
Y90370D01*
X312743D01*
Y91343D01*
X312791D01*
Y93901D01*
X310413D01*
X308035D01*
Y92352D01*
X307906Y92298D01*
X307406Y92632D01*
X307407Y99843D01*
X307352Y100116D01*
X307198Y100347D01*
X304638Y102907D01*
X304634Y102909D01*
X304631Y102913D01*
X304518Y102987D01*
X304407Y103061D01*
X304402Y103062D01*
X304398Y103065D01*
X304265Y103089D01*
X304134Y103116D01*
X304129Y103115D01*
X304124Y103116D01*
X298297Y103036D01*
X298166Y103008D01*
X298034Y102982D01*
X298030Y102980D01*
X298025Y102978D01*
X297915Y102902D01*
X297802Y102828D01*
X294928Y99954D01*
X294774Y99722D01*
X294719Y99449D01*
Y87546D01*
X293132D01*
Y84646D01*
Y81746D01*
X294932D01*
Y81781D01*
X295432Y81925D01*
X295893Y81464D01*
X295949Y81426D01*
X295797Y80926D01*
X294778D01*
Y80926D01*
X294632Y80946D01*
Y80946D01*
X294286Y80946D01*
X290132D01*
Y76172D01*
X287651D01*
Y74372D01*
X290551D01*
X293451D01*
Y75746D01*
X294251D01*
Y71750D01*
X294251Y71372D01*
X294290Y70888D01*
Y66766D01*
X295208D01*
Y65197D01*
X295336Y64553D01*
X295701Y64007D01*
X297169Y62539D01*
X297143Y62342D01*
X296994Y62039D01*
X295363D01*
Y55520D01*
X299519D01*
Y56999D01*
X300442D01*
Y56820D01*
X306487D01*
Y60503D01*
X300442D01*
Y60363D01*
X299519D01*
Y61999D01*
X300442D01*
Y61820D01*
X306487D01*
Y65503D01*
X300442D01*
Y65363D01*
X299102D01*
X298572Y65893D01*
Y66639D01*
X298684Y66662D01*
X298840Y66766D01*
X299490D01*
Y67416D01*
X299594Y67572D01*
X299723Y68216D01*
X299594Y68860D01*
X299490Y69016D01*
X299490Y71266D01*
X299476Y71440D01*
X299872Y71940D01*
X300442D01*
Y71820D01*
X306487D01*
Y75503D01*
X300442D01*
Y75304D01*
X299451D01*
Y75872D01*
X299278D01*
Y76979D01*
X300442D01*
Y76820D01*
X306487D01*
Y79256D01*
X306949Y79448D01*
X309696Y76701D01*
Y47402D01*
X309824Y46758D01*
X310188Y46212D01*
X314756Y41644D01*
Y40559D01*
X314694Y40497D01*
X297304D01*
X296919Y40882D01*
Y41902D01*
X297509Y42492D01*
X297874Y43038D01*
X298002Y43681D01*
Y49246D01*
X298919D01*
Y53746D01*
X293719D01*
Y49246D01*
X294637D01*
Y44378D01*
X294047Y43788D01*
X293682Y43242D01*
X293554Y42598D01*
Y40862D01*
X293189Y40497D01*
X292342D01*
X292069Y40443D01*
X291838Y40288D01*
X290184Y38635D01*
X290030Y38403D01*
X289975Y38130D01*
Y35748D01*
X290030Y35475D01*
X290184Y35243D01*
X290184Y35243D01*
X291720Y33708D01*
X291951Y33553D01*
X292224Y33499D01*
X325559Y33499D01*
X333140Y25917D01*
Y24991D01*
X332351D01*
Y17530D01*
X330593D01*
Y15730D01*
X332743D01*
Y17292D01*
X337295D01*
Y19895D01*
X344281D01*
X345168Y19008D01*
Y7527D01*
X342630Y4989D01*
X341226D01*
Y5907D01*
X336726D01*
Y5490D01*
X336724Y4991D01*
X333375D01*
X333183Y5453D01*
X333700Y5970D01*
X334065Y6516D01*
X334193Y7159D01*
X334193Y7159D01*
Y8709D01*
X336426D01*
Y6707D01*
X338226D01*
Y9607D01*
Y12507D01*
X336426D01*
Y12472D01*
X332743D01*
Y14230D01*
X330593D01*
Y12430D01*
X330993D01*
Y10858D01*
X330956Y10803D01*
X330828Y10159D01*
Y7856D01*
X327764Y4793D01*
X326787D01*
Y6100D01*
X323622D01*
Y7600D01*
X326787D01*
Y9031D01*
X326487D01*
Y12323D01*
X326943Y12430D01*
X326970Y12430D01*
X329093D01*
Y14230D01*
X326943D01*
Y12712D01*
X326454Y12551D01*
X326143Y12793D01*
Y17230D01*
X325877Y17292D01*
Y24991D01*
X321244D01*
X321173D01*
X320394Y24213D01*
X307044D01*
X306861Y23771D01*
X304280D01*
Y23178D01*
X303602D01*
X303602Y23178D01*
X302959Y23050D01*
X302413Y22686D01*
X302413Y22686D01*
X300504Y20777D01*
X299494D01*
X298384Y21888D01*
X298388Y22521D01*
X298587Y22673D01*
X299109Y23355D01*
X299438Y24148D01*
X299550Y25000D01*
X299438Y25852D01*
X299109Y26645D01*
X298587Y27327D01*
X297905Y27850D01*
X297112Y28178D01*
X296260Y28290D01*
X294291D01*
X293440Y28178D01*
X292646Y27850D01*
X291965Y27327D01*
X291442Y26645D01*
X291113Y25852D01*
X291001Y25000D01*
X291113Y24148D01*
X291442Y23355D01*
X291847Y22827D01*
X291848Y22728D01*
X291720Y22371D01*
X291653Y22289D01*
X291577Y22274D01*
X291346Y22119D01*
X290125Y20898D01*
X289970Y20667D01*
X289916Y20394D01*
Y17953D01*
X289970Y17680D01*
X290125Y17448D01*
X291562Y16011D01*
X291684Y15930D01*
X291730Y15862D01*
X291817Y15523D01*
X291830Y15339D01*
X291442Y14834D01*
X291113Y14041D01*
X291001Y13189D01*
X291113Y12337D01*
X291442Y11544D01*
X291965Y10862D01*
X292384Y10541D01*
Y9932D01*
X291965Y9610D01*
X291442Y8929D01*
X291113Y8135D01*
X291001Y7283D01*
X291113Y6432D01*
X291442Y5638D01*
X291965Y4957D01*
X292646Y4434D01*
X293440Y4105D01*
X294291Y3993D01*
X296260D01*
X297112Y4105D01*
X297905Y4434D01*
X298587Y4957D01*
X299109Y5638D01*
X299438Y6432D01*
X299550Y7283D01*
X299438Y8135D01*
X299109Y8929D01*
X298587Y9610D01*
X298168Y9932D01*
Y10541D01*
X298587Y10862D01*
X299109Y11544D01*
X299438Y12337D01*
X299550Y13189D01*
X299438Y14041D01*
X299109Y14834D01*
X298587Y15516D01*
X298417Y15645D01*
X298384Y16301D01*
X299494Y17412D01*
X301201D01*
X301845Y17540D01*
X302390Y17905D01*
X303875Y19389D01*
X304280Y19615D01*
Y19615D01*
X304280Y19615D01*
X310798D01*
Y20011D01*
X311392D01*
Y18444D01*
X315892D01*
Y18444D01*
X316116D01*
Y18444D01*
X320434D01*
X320616Y18444D01*
X320934Y18075D01*
Y17712D01*
X320616Y17344D01*
X320455Y17344D01*
X316116D01*
Y17344D01*
X315892D01*
Y17344D01*
X311392D01*
Y16969D01*
X311098Y16591D01*
X310892Y16591D01*
X308289D01*
Y14213D01*
X307539D01*
Y13463D01*
X303980D01*
Y11835D01*
X304374D01*
Y9766D01*
X306752D01*
X309130D01*
Y11835D01*
X311098Y11835D01*
X311470Y12144D01*
X311598Y12144D01*
X312154D01*
Y5757D01*
X316057D01*
Y925D01*
X284626D01*
X283500Y2051D01*
X283500Y132992D01*
X287131Y136653D01*
X364724Y136653D01*
D02*
G37*
%LPC*%
G36*
X15711Y288375D02*
Y284214D01*
X19871D01*
X19561Y285370D01*
X18911Y286496D01*
X17992Y287415D01*
X16866Y288065D01*
X15711Y288375D01*
D02*
G37*
G36*
X14211Y288375D02*
X13055Y288065D01*
X11929Y287415D01*
X11010Y286496D01*
X10360Y285370D01*
X10050Y284214D01*
X14211D01*
Y288375D01*
D02*
G37*
G36*
Y282715D02*
X10050D01*
X10360Y281559D01*
X11010Y280433D01*
X11929Y279514D01*
X13055Y278864D01*
X14211Y278554D01*
Y282715D01*
D02*
G37*
G36*
X19871D02*
X15711D01*
Y278554D01*
X16866Y278864D01*
X17992Y279514D01*
X18911Y280433D01*
X19561Y281559D01*
X19871Y282715D01*
D02*
G37*
G36*
X220298Y259284D02*
X219151D01*
X218026Y259061D01*
X216967Y258622D01*
X216014Y257985D01*
X215203Y257174D01*
X214566Y256221D01*
X214127Y255161D01*
X213903Y254037D01*
Y252890D01*
X214127Y251765D01*
X214566Y250706D01*
X215203Y249752D01*
X216014Y248942D01*
X216967Y248305D01*
X218026Y247866D01*
X219151Y247642D01*
X220298D01*
X221422Y247866D01*
X222482Y248305D01*
X223435Y248942D01*
X224246Y249752D01*
X224883Y250706D01*
X225322Y251765D01*
X225546Y252890D01*
Y254037D01*
X225322Y255161D01*
X224883Y256221D01*
X224246Y257174D01*
X223435Y257985D01*
X222482Y258622D01*
X221422Y259061D01*
X220298Y259284D01*
D02*
G37*
G36*
X190298D02*
X189151D01*
X188026Y259061D01*
X186967Y258622D01*
X186014Y257985D01*
X185203Y257174D01*
X184566Y256221D01*
X184127Y255161D01*
X183903Y254037D01*
Y252890D01*
X184127Y251765D01*
X184566Y250706D01*
X185203Y249752D01*
X186014Y248942D01*
X186967Y248305D01*
X188026Y247866D01*
X189151Y247642D01*
X190298D01*
X191422Y247866D01*
X192482Y248305D01*
X193435Y248942D01*
X194246Y249752D01*
X194883Y250706D01*
X195322Y251765D01*
X195546Y252890D01*
Y254037D01*
X195322Y255161D01*
X194883Y256221D01*
X194246Y257174D01*
X193435Y257985D01*
X192482Y258622D01*
X191422Y259061D01*
X190298Y259284D01*
D02*
G37*
G36*
X267935Y259010D02*
X266789D01*
X265664Y258787D01*
X264605Y258348D01*
X263651Y257711D01*
X262841Y256900D01*
X262204Y255946D01*
X261765Y254887D01*
X261541Y253762D01*
Y252616D01*
X261765Y251491D01*
X262204Y250432D01*
X262841Y249478D01*
X263651Y248667D01*
X264605Y248030D01*
X265664Y247591D01*
X266789Y247368D01*
X267935D01*
X269060Y247591D01*
X270120Y248030D01*
X271073Y248667D01*
X271884Y249478D01*
X272521Y250432D01*
X272960Y251491D01*
X273183Y252616D01*
Y253762D01*
X272960Y254887D01*
X272521Y255946D01*
X271884Y256900D01*
X271073Y257711D01*
X270120Y258348D01*
X269060Y258787D01*
X267935Y259010D01*
D02*
G37*
G36*
X237935D02*
X236789D01*
X235664Y258787D01*
X234605Y258348D01*
X233651Y257711D01*
X232840Y256900D01*
X232204Y255946D01*
X231765Y254887D01*
X231541Y253762D01*
Y252616D01*
X231765Y251491D01*
X232204Y250432D01*
X232840Y249478D01*
X233651Y248667D01*
X234605Y248030D01*
X235664Y247591D01*
X236789Y247368D01*
X237935D01*
X239060Y247591D01*
X240120Y248030D01*
X241073Y248667D01*
X241884Y249478D01*
X242521Y250432D01*
X242960Y251491D01*
X243183Y252616D01*
Y253762D01*
X242960Y254887D01*
X242521Y255946D01*
X241884Y256900D01*
X241073Y257711D01*
X240120Y258348D01*
X239060Y258787D01*
X237935Y259010D01*
D02*
G37*
G36*
X15711Y245461D02*
Y241301D01*
X19871D01*
X19561Y242457D01*
X18911Y243583D01*
X17992Y244502D01*
X16866Y245152D01*
X15711Y245461D01*
D02*
G37*
G36*
X14211Y245461D02*
X13055Y245152D01*
X11929Y244502D01*
X11010Y243583D01*
X10360Y242457D01*
X10050Y241301D01*
X14211D01*
Y245461D01*
D02*
G37*
G36*
Y239801D02*
X10050D01*
X10360Y238646D01*
X11010Y237520D01*
X11929Y236601D01*
X13055Y235951D01*
X14211Y235641D01*
Y239801D01*
D02*
G37*
G36*
X19871D02*
X15711D01*
Y235641D01*
X16866Y235951D01*
X17992Y236601D01*
X18911Y237520D01*
X19561Y238646D01*
X19871Y239801D01*
D02*
G37*
G36*
X207778Y211027D02*
Y209726D01*
X209078D01*
X208877Y210212D01*
X208263Y210825D01*
X207778Y211027D01*
D02*
G37*
G36*
X206278D02*
X205792Y210825D01*
X205178Y210212D01*
X204977Y209726D01*
X206278D01*
Y211027D01*
D02*
G37*
G36*
X201085D02*
Y209726D01*
X202385D01*
X202184Y210212D01*
X201570Y210825D01*
X201085Y211027D01*
D02*
G37*
G36*
X199585D02*
X199099Y210825D01*
X198486Y210212D01*
X198284Y209726D01*
X199585D01*
Y211027D01*
D02*
G37*
G36*
X209078Y208226D02*
X207778D01*
Y206926D01*
X208263Y207127D01*
X208877Y207741D01*
X209078Y208226D01*
D02*
G37*
G36*
X206278D02*
X204977D01*
X205178Y207741D01*
X205792Y207127D01*
X206278Y206926D01*
Y208226D01*
D02*
G37*
G36*
X202385D02*
X201085D01*
Y206926D01*
X201570Y207127D01*
X202184Y207741D01*
X202385Y208226D01*
D02*
G37*
G36*
X199585D02*
X198284D01*
X198486Y207741D01*
X199099Y207127D01*
X199585Y206926D01*
Y208226D01*
D02*
G37*
G36*
X66852Y199620D02*
X66219D01*
X65635Y199379D01*
X65188Y198932D01*
X64947Y198348D01*
Y197715D01*
X65188Y197131D01*
X65635Y196684D01*
X66219Y196442D01*
X66852D01*
X67435Y196684D01*
X67883Y197131D01*
X68124Y197715D01*
Y198348D01*
X67883Y198932D01*
X67435Y199379D01*
X66852Y199620D01*
D02*
G37*
G36*
X62915D02*
X62282D01*
X61698Y199379D01*
X61251Y198932D01*
X61010Y198348D01*
Y197715D01*
X61251Y197131D01*
X61698Y196684D01*
X62282Y196442D01*
X62915D01*
X63499Y196684D01*
X63946Y197131D01*
X64187Y197715D01*
Y198348D01*
X63946Y198932D01*
X63499Y199379D01*
X62915Y199620D01*
D02*
G37*
G36*
X58978D02*
X58345D01*
X57761Y199379D01*
X57314Y198932D01*
X57073Y198348D01*
Y197715D01*
X57314Y197131D01*
X57761Y196684D01*
X58345Y196442D01*
X58978D01*
X59562Y196684D01*
X60009Y197131D01*
X60250Y197715D01*
Y198348D01*
X60009Y198932D01*
X59562Y199379D01*
X58978Y199620D01*
D02*
G37*
G36*
X96675Y192680D02*
Y191380D01*
X97975D01*
X97774Y191865D01*
X97161Y192479D01*
X96675Y192680D01*
D02*
G37*
G36*
X95175D02*
X94690Y192479D01*
X94076Y191865D01*
X93875Y191380D01*
X95175D01*
Y192680D01*
D02*
G37*
G36*
X115317Y192404D02*
Y191104D01*
X116617D01*
X116416Y191590D01*
X115802Y192203D01*
X115317Y192404D01*
D02*
G37*
G36*
X113817D02*
X113331Y192203D01*
X112718Y191590D01*
X112517Y191104D01*
X113817D01*
Y192404D01*
D02*
G37*
G36*
X97975Y189880D02*
X96675D01*
Y188580D01*
X97161Y188781D01*
X97774Y189394D01*
X97975Y189880D01*
D02*
G37*
G36*
X95175D02*
X93875D01*
X94076Y189394D01*
X94690Y188781D01*
X95175Y188580D01*
Y189880D01*
D02*
G37*
G36*
X116617Y189604D02*
X115317D01*
Y188304D01*
X115802Y188505D01*
X116416Y189119D01*
X116617Y189604D01*
D02*
G37*
G36*
X113817D02*
X112517D01*
X112718Y189119D01*
X113331Y188505D01*
X113817Y188304D01*
Y189604D01*
D02*
G37*
G36*
X31459Y193070D02*
Y185002D01*
X35688D01*
Y188189D01*
X35519Y189478D01*
X35021Y190679D01*
X34230Y191710D01*
X33198Y192501D01*
X31997Y192999D01*
X31459Y193070D01*
D02*
G37*
G36*
X29959Y193070D02*
X29420Y192999D01*
X28219Y192501D01*
X27187Y191710D01*
X26396Y190679D01*
X25899Y189478D01*
X25729Y188189D01*
Y185002D01*
X29959D01*
Y193070D01*
D02*
G37*
G36*
X200651Y186550D02*
X200019D01*
X199435Y186308D01*
X198988Y185861D01*
X198746Y185277D01*
Y184645D01*
X198988Y184061D01*
X199435Y183614D01*
X200019Y183372D01*
X200651D01*
X201235Y183614D01*
X201682Y184061D01*
X201924Y184645D01*
Y185277D01*
X201682Y185861D01*
X201235Y186308D01*
X200651Y186550D01*
D02*
G37*
G36*
X128604Y182857D02*
Y181557D01*
X129904D01*
X129703Y182043D01*
X129090Y182656D01*
X128604Y182857D01*
D02*
G37*
G36*
X127104D02*
X126619Y182656D01*
X126005Y182043D01*
X125804Y181557D01*
X127104D01*
Y182857D01*
D02*
G37*
G36*
X55512Y196608D02*
X54352Y196455D01*
X53271Y196007D01*
X52343Y195295D01*
X51631Y194367D01*
X51183Y193286D01*
X51030Y192126D01*
Y185039D01*
X51183Y183879D01*
X51631Y182799D01*
X52343Y181870D01*
X53271Y181158D01*
X54352Y180710D01*
X55512Y180558D01*
X56672Y180710D01*
X57753Y181158D01*
X58681Y181870D01*
X59393Y182799D01*
X59841Y183879D01*
X59993Y185039D01*
Y192126D01*
X59841Y193286D01*
X59393Y194367D01*
X58681Y195295D01*
X57753Y196007D01*
X56672Y196455D01*
X55512Y196608D01*
D02*
G37*
G36*
X13655Y189286D02*
X12329D01*
X11049Y188943D01*
X9901Y188280D01*
X8964Y187343D01*
X8301Y186195D01*
X7958Y184915D01*
Y183589D01*
X8301Y182309D01*
X8964Y181161D01*
X9901Y180224D01*
X11049Y179561D01*
X12329Y179218D01*
X13655D01*
X14935Y179561D01*
X16083Y180224D01*
X17020Y181161D01*
X17683Y182309D01*
X18026Y183589D01*
Y184915D01*
X17683Y186195D01*
X17020Y187343D01*
X16083Y188280D01*
X14935Y188943D01*
X13655Y189286D01*
D02*
G37*
G36*
X129904Y180057D02*
X128604D01*
Y178757D01*
X129090Y178958D01*
X129703Y179572D01*
X129904Y180057D01*
D02*
G37*
G36*
X127104D02*
X125804D01*
X126005Y179572D01*
X126619Y178958D01*
X127104Y178757D01*
Y180057D01*
D02*
G37*
G36*
X134726Y178349D02*
Y177049D01*
X136027D01*
X135825Y177535D01*
X135212Y178148D01*
X134726Y178349D01*
D02*
G37*
G36*
X133226D02*
X132741Y178148D01*
X132127Y177535D01*
X131926Y177049D01*
X133226D01*
Y178349D01*
D02*
G37*
G36*
X35688Y183502D02*
X31459D01*
Y175434D01*
X31997Y175505D01*
X33198Y176003D01*
X34230Y176794D01*
X35021Y177825D01*
X35519Y179026D01*
X35688Y180315D01*
Y183502D01*
D02*
G37*
G36*
X29959D02*
X25729D01*
Y180315D01*
X25899Y179026D01*
X26396Y177825D01*
X27187Y176794D01*
X28219Y176003D01*
X29420Y175505D01*
X29959Y175434D01*
Y183502D01*
D02*
G37*
G36*
X136027Y175549D02*
X134726D01*
Y174249D01*
X135212Y174450D01*
X135825Y175064D01*
X136027Y175549D01*
D02*
G37*
G36*
X133226D02*
X131926D01*
X132127Y175064D01*
X132741Y174450D01*
X133226Y174249D01*
Y175549D01*
D02*
G37*
G36*
X89096Y173113D02*
Y171813D01*
X90397D01*
X90196Y172299D01*
X89582Y172912D01*
X89096Y173113D01*
D02*
G37*
G36*
X87596D02*
X87111Y172912D01*
X86497Y172299D01*
X86296Y171813D01*
X87596D01*
Y173113D01*
D02*
G37*
G36*
X66852Y174817D02*
X66219D01*
X65635Y174575D01*
X65188Y174128D01*
X64947Y173544D01*
Y172912D01*
X65188Y172328D01*
X65635Y171881D01*
X66219Y171639D01*
X66852D01*
X67435Y171881D01*
X67883Y172328D01*
X68124Y172912D01*
Y173544D01*
X67883Y174128D01*
X67435Y174575D01*
X66852Y174817D01*
D02*
G37*
G36*
X62915D02*
X62282D01*
X61698Y174575D01*
X61251Y174128D01*
X61010Y173544D01*
Y172912D01*
X61251Y172328D01*
X61698Y171881D01*
X62282Y171639D01*
X62915D01*
X63499Y171881D01*
X63946Y172328D01*
X64187Y172912D01*
Y173544D01*
X63946Y174128D01*
X63499Y174575D01*
X62915Y174817D01*
D02*
G37*
G36*
X58978D02*
X58345D01*
X57761Y174575D01*
X57314Y174128D01*
X57073Y173544D01*
Y172912D01*
X57314Y172328D01*
X57761Y171881D01*
X58345Y171639D01*
X58978D01*
X59562Y171881D01*
X60009Y172328D01*
X60250Y172912D01*
Y173544D01*
X60009Y174128D01*
X59562Y174575D01*
X58978Y174817D01*
D02*
G37*
G36*
X178396Y171248D02*
Y169948D01*
X179696D01*
X179495Y170433D01*
X178882Y171047D01*
X178396Y171248D01*
D02*
G37*
G36*
X176896D02*
X176410Y171047D01*
X175797Y170433D01*
X175596Y169948D01*
X176896D01*
Y171248D01*
D02*
G37*
G36*
X189018Y171243D02*
Y169943D01*
X190318D01*
X190117Y170428D01*
X189503Y171042D01*
X189018Y171243D01*
D02*
G37*
G36*
X187518D02*
X187032Y171042D01*
X186419Y170428D01*
X186218Y169943D01*
X187518D01*
Y171243D01*
D02*
G37*
G36*
X90397Y170313D02*
X89096D01*
Y169013D01*
X89582Y169214D01*
X90196Y169827D01*
X90397Y170313D01*
D02*
G37*
G36*
X87596D02*
X86296D01*
X86497Y169827D01*
X87111Y169214D01*
X87596Y169013D01*
Y170313D01*
D02*
G37*
G36*
X179696Y168448D02*
X178396D01*
Y167148D01*
X178882Y167349D01*
X179495Y167963D01*
X179696Y168448D01*
D02*
G37*
G36*
X176896D02*
X175596D01*
X175797Y167963D01*
X176410Y167349D01*
X176896Y167148D01*
Y168448D01*
D02*
G37*
G36*
X190318Y168443D02*
X189018D01*
Y167143D01*
X189503Y167344D01*
X190117Y167957D01*
X190318Y168443D01*
D02*
G37*
G36*
X187518D02*
X186218D01*
X186419Y167957D01*
X187032Y167344D01*
X187518Y167143D01*
Y168443D01*
D02*
G37*
G36*
X47244Y170334D02*
X44307D01*
Y166354D01*
X52092D01*
X52054Y166643D01*
X51557Y167844D01*
X50765Y168876D01*
X49734Y169667D01*
X48533Y170164D01*
X47244Y170334D01*
D02*
G37*
G36*
X42307D02*
X39370D01*
X38081Y170164D01*
X36880Y169667D01*
X35849Y168876D01*
X35058Y167844D01*
X34560Y166643D01*
X34522Y166354D01*
X42307D01*
Y170334D01*
D02*
G37*
G36*
X122778Y164393D02*
Y163093D01*
X124078D01*
X123877Y163578D01*
X123263Y164192D01*
X122778Y164393D01*
D02*
G37*
G36*
X121278D02*
X120792Y164192D01*
X120178Y163578D01*
X119977Y163093D01*
X121278D01*
Y164393D01*
D02*
G37*
G36*
X78329Y163763D02*
Y162463D01*
X79629D01*
X79428Y162948D01*
X78814Y163562D01*
X78329Y163763D01*
D02*
G37*
G36*
X76829D02*
X76343Y163562D01*
X75730Y162948D01*
X75529Y162463D01*
X76829D01*
Y163763D01*
D02*
G37*
G36*
X52092Y164354D02*
X44307D01*
Y160375D01*
X47244D01*
X48533Y160544D01*
X49734Y161042D01*
X50765Y161833D01*
X51557Y162864D01*
X52054Y164066D01*
X52092Y164354D01*
D02*
G37*
G36*
X42307D02*
X34522D01*
X34560Y164066D01*
X35058Y162864D01*
X35849Y161833D01*
X36880Y161042D01*
X38081Y160544D01*
X39370Y160375D01*
X42307D01*
Y164354D01*
D02*
G37*
G36*
X124078Y161592D02*
X122778D01*
Y160292D01*
X123263Y160494D01*
X123877Y161107D01*
X124078Y161592D01*
D02*
G37*
G36*
X121278D02*
X119977D01*
X120178Y161107D01*
X120792Y160494D01*
X121278Y160292D01*
Y161592D01*
D02*
G37*
G36*
X79629Y160963D02*
X78329D01*
Y159662D01*
X78814Y159864D01*
X79428Y160477D01*
X79629Y160963D01*
D02*
G37*
G36*
X76829D02*
X75529D01*
X75730Y160477D01*
X76343Y159864D01*
X76829Y159662D01*
Y160963D01*
D02*
G37*
G36*
X166613Y180292D02*
X165981D01*
X165397Y180050D01*
X164950Y179603D01*
X164708Y179019D01*
Y178387D01*
X164819Y178120D01*
Y156848D01*
X164322Y156747D01*
X164319Y156747D01*
X163873Y157194D01*
X163288Y157435D01*
X162656D01*
X162072Y157194D01*
X161625Y156746D01*
X161383Y156163D01*
Y155530D01*
X161625Y154946D01*
X162072Y154499D01*
X162254Y154424D01*
Y153883D01*
X162072Y153808D01*
X161625Y153361D01*
X161383Y152777D01*
Y152145D01*
X161625Y151560D01*
X162072Y151114D01*
X162656Y150872D01*
X163288D01*
X163873Y151114D01*
X164319Y151560D01*
X164322Y151560D01*
X164819Y151460D01*
Y134232D01*
X157910Y127324D01*
X157643Y127213D01*
X157196Y126766D01*
X156954Y126182D01*
Y125550D01*
X157196Y124966D01*
X157643Y124519D01*
X158227Y124277D01*
X158859D01*
X159443Y124519D01*
X159890Y124966D01*
X160001Y125233D01*
X167343Y132575D01*
X167663Y133054D01*
X167776Y133620D01*
Y178120D01*
X167886Y178387D01*
Y179019D01*
X167644Y179603D01*
X167197Y180050D01*
X166613Y180292D01*
D02*
G37*
G36*
X159076Y157435D02*
X158444D01*
X157860Y157194D01*
X157413Y156746D01*
X157171Y156163D01*
Y155530D01*
X157413Y154946D01*
X157860Y154499D01*
X158041Y154424D01*
Y153883D01*
X157860Y153808D01*
X157413Y153361D01*
X157171Y152777D01*
Y152145D01*
X157413Y151560D01*
X157860Y151114D01*
X158444Y150872D01*
X159076D01*
X159660Y151114D01*
X160107Y151560D01*
X160349Y152145D01*
Y152777D01*
X160107Y153361D01*
X159660Y153808D01*
X159478Y153883D01*
Y154424D01*
X159660Y154499D01*
X160107Y154946D01*
X160349Y155530D01*
Y156163D01*
X160107Y156746D01*
X159660Y157194D01*
X159076Y157435D01*
D02*
G37*
G36*
X154302Y151746D02*
X153670D01*
X153086Y151505D01*
X152639Y151058D01*
X152397Y150474D01*
Y149841D01*
X152639Y149257D01*
X153086Y148810D01*
X153670Y148568D01*
X154302D01*
X154886Y148810D01*
X155333Y149257D01*
X155575Y149841D01*
Y150474D01*
X155333Y151058D01*
X154886Y151505D01*
X154302Y151746D01*
D02*
G37*
G36*
X141439Y147897D02*
Y146597D01*
X142739D01*
X142538Y147082D01*
X141925Y147696D01*
X141439Y147897D01*
D02*
G37*
G36*
X139939D02*
X139453Y147696D01*
X138840Y147082D01*
X138639Y146597D01*
X139939D01*
Y147897D01*
D02*
G37*
G36*
X142739Y145097D02*
X141439D01*
Y143796D01*
X141925Y143997D01*
X142538Y144611D01*
X142739Y145097D01*
D02*
G37*
G36*
X139939D02*
X138639D01*
X138840Y144611D01*
X139453Y143997D01*
X139939Y143796D01*
Y145097D01*
D02*
G37*
G36*
X247548Y149190D02*
X246757D01*
X245992Y148986D01*
X245306Y148590D01*
X244747Y148030D01*
X244351Y147345D01*
X244146Y146580D01*
Y145788D01*
X244351Y145024D01*
X244747Y144338D01*
X245306Y143779D01*
X245992Y143383D01*
X246757Y143178D01*
X247548D01*
X248313Y143383D01*
X248998Y143779D01*
X249558Y144338D01*
X249954Y145024D01*
X250159Y145788D01*
Y146580D01*
X249954Y147345D01*
X249558Y148030D01*
X248998Y148590D01*
X248313Y148986D01*
X247548Y149190D01*
D02*
G37*
G36*
X141439Y140889D02*
Y139589D01*
X142739D01*
X142538Y140074D01*
X141925Y140688D01*
X141439Y140889D01*
D02*
G37*
G36*
X139939D02*
X139453Y140688D01*
X138840Y140074D01*
X138639Y139589D01*
X139939D01*
Y140889D01*
D02*
G37*
G36*
X142739Y138089D02*
X141439D01*
Y136788D01*
X141925Y136989D01*
X142538Y137603D01*
X142739Y138089D01*
D02*
G37*
G36*
X139939D02*
X138639D01*
X138840Y137603D01*
X139453Y136989D01*
X139939Y136788D01*
Y138089D01*
D02*
G37*
G36*
X57605Y142061D02*
X56332D01*
X55102Y141732D01*
X53999Y141095D01*
X53098Y140194D01*
X52461Y139091D01*
X52131Y137861D01*
Y136588D01*
X52461Y135357D01*
X53098Y134254D01*
X53999Y133354D01*
X55102Y132717D01*
X56332Y132387D01*
X57605D01*
X58836Y132717D01*
X59939Y133354D01*
X60839Y134254D01*
X61476Y135357D01*
X61805Y136588D01*
Y137861D01*
X61476Y139091D01*
X60839Y140194D01*
X59939Y141095D01*
X58836Y141732D01*
X57605Y142061D01*
D02*
G37*
G36*
X141439Y132759D02*
Y131459D01*
X142739D01*
X142538Y131944D01*
X141925Y132558D01*
X141439Y132759D01*
D02*
G37*
G36*
X139939D02*
X139453Y132558D01*
X138840Y131944D01*
X138639Y131459D01*
X139939D01*
Y132759D01*
D02*
G37*
G36*
X80651Y134010D02*
X80019D01*
X79435Y133768D01*
X78988Y133321D01*
X78746Y132737D01*
Y132105D01*
X78988Y131521D01*
X79435Y131074D01*
X80019Y130832D01*
X80651D01*
X81235Y131074D01*
X81682Y131521D01*
X81924Y132105D01*
Y132737D01*
X81682Y133321D01*
X81235Y133768D01*
X80651Y134010D01*
D02*
G37*
G36*
X76714D02*
X76082D01*
X75498Y133768D01*
X75051Y133321D01*
X74809Y132737D01*
Y132105D01*
X75051Y131521D01*
X75498Y131074D01*
X76082Y130832D01*
X76714D01*
X77298Y131074D01*
X77745Y131521D01*
X77987Y132105D01*
Y132737D01*
X77745Y133321D01*
X77298Y133768D01*
X76714Y134010D01*
D02*
G37*
G36*
X72718D02*
X72085D01*
X71501Y133768D01*
X71055Y133321D01*
X70813Y132737D01*
Y132105D01*
X71055Y131521D01*
X71501Y131074D01*
X72085Y130832D01*
X72718D01*
X73302Y131074D01*
X73749Y131521D01*
X73990Y132105D01*
Y132737D01*
X73749Y133321D01*
X73302Y133768D01*
X72718Y134010D01*
D02*
G37*
G36*
X68781D02*
X68148D01*
X67564Y133768D01*
X67118Y133321D01*
X66876Y132737D01*
Y132105D01*
X67118Y131521D01*
X67564Y131074D01*
X68148Y130832D01*
X68781D01*
X69365Y131074D01*
X69812Y131521D01*
X70053Y132105D01*
Y132737D01*
X69812Y133321D01*
X69365Y133768D01*
X68781Y134010D01*
D02*
G37*
G36*
X142739Y129959D02*
X141439D01*
Y128658D01*
X141925Y128860D01*
X142538Y129473D01*
X142739Y129959D01*
D02*
G37*
G36*
X139939D02*
X138639D01*
X138840Y129473D01*
X139453Y128860D01*
X139939Y128658D01*
Y129959D01*
D02*
G37*
G36*
X141439Y126834D02*
Y125533D01*
X142739D01*
X142538Y126019D01*
X141925Y126632D01*
X141439Y126834D01*
D02*
G37*
G36*
X139939D02*
X139453Y126632D01*
X138840Y126019D01*
X138639Y125533D01*
X139939D01*
Y126834D01*
D02*
G37*
G36*
X142739Y124033D02*
X141439D01*
Y122733D01*
X141925Y122934D01*
X142538Y123548D01*
X142739Y124033D01*
D02*
G37*
G36*
X139939D02*
X138639D01*
X138840Y123548D01*
X139453Y122934D01*
X139939Y122733D01*
Y124033D01*
D02*
G37*
G36*
X141439Y121519D02*
Y120219D01*
X142739D01*
X142538Y120704D01*
X141925Y121318D01*
X141439Y121519D01*
D02*
G37*
G36*
X139939D02*
X139453Y121318D01*
X138840Y120704D01*
X138639Y120219D01*
X139939D01*
Y121519D01*
D02*
G37*
G36*
X193988Y119951D02*
X193988Y119951D01*
X173445D01*
X173445Y119951D01*
X172899Y119842D01*
X172435Y119533D01*
X172435Y119533D01*
X150132Y97230D01*
X149823Y96767D01*
X149714Y96220D01*
X149714Y96220D01*
Y76120D01*
X149553Y75730D01*
Y75097D01*
X149795Y74513D01*
X150242Y74066D01*
X150826Y73824D01*
X151458D01*
X152042Y74066D01*
X152489Y74513D01*
X152731Y75097D01*
Y75730D01*
X152569Y76120D01*
Y77062D01*
X153057Y77215D01*
X153069Y77215D01*
X155381Y74903D01*
X155543Y74513D01*
X155990Y74066D01*
X156574Y73824D01*
X157206D01*
X157790Y74066D01*
X158237Y74513D01*
X158479Y75097D01*
Y75730D01*
X158237Y76314D01*
X157790Y76761D01*
X157400Y76922D01*
X155503Y78819D01*
Y92776D01*
X167417Y104690D01*
X167917Y104483D01*
Y104310D01*
X168249Y103509D01*
X168863Y102895D01*
X169665Y102563D01*
X169919D01*
X170236Y102176D01*
X170230Y102146D01*
Y95469D01*
X170208Y95447D01*
X169966Y94863D01*
Y94231D01*
X170208Y93647D01*
X170655Y93200D01*
X171239Y92958D01*
X171871D01*
X172455Y93200D01*
X172902Y93647D01*
X173144Y94231D01*
Y94863D01*
X172902Y95447D01*
X172881Y95469D01*
Y101597D01*
X180864Y109580D01*
X189412D01*
X197493Y101498D01*
Y80650D01*
X197594Y80142D01*
X197882Y79712D01*
X200414Y77180D01*
X200207Y76680D01*
X187404D01*
X187197Y77180D01*
X195697Y85681D01*
X196062Y86226D01*
X196190Y86870D01*
X196190Y86870D01*
Y95580D01*
X196062Y96224D01*
X195697Y96770D01*
X191977Y100490D01*
X191431Y100855D01*
X190787Y100983D01*
X190144Y100855D01*
X189598Y100490D01*
X189233Y99945D01*
X189105Y99301D01*
X189233Y98657D01*
X189598Y98111D01*
X192825Y94884D01*
Y87567D01*
X184578Y79320D01*
X184213Y78774D01*
X184085Y78130D01*
X184213Y77486D01*
X184418Y77180D01*
X184151Y76680D01*
X183443D01*
X172785Y87337D01*
Y89692D01*
X172807Y89714D01*
X173049Y90298D01*
Y90930D01*
X172807Y91514D01*
X172360Y91961D01*
X171776Y92203D01*
X171144D01*
X170560Y91961D01*
X170113Y91514D01*
X169871Y90930D01*
Y90298D01*
X170113Y89714D01*
X170134Y89692D01*
Y86817D01*
X170069Y86758D01*
X169667Y86578D01*
X163164Y93081D01*
Y93111D01*
X162922Y93695D01*
X162475Y94142D01*
X161891Y94384D01*
X161259D01*
X160675Y94142D01*
X160228Y93695D01*
X159986Y93111D01*
Y92479D01*
X160228Y91895D01*
X160675Y91448D01*
X161259Y91206D01*
X161289D01*
X179090Y73405D01*
X178899Y72943D01*
X171339D01*
X170591Y73691D01*
X170477Y73966D01*
X170030Y74413D01*
X169446Y74655D01*
X168814D01*
X168230Y74413D01*
X167783Y73966D01*
X167541Y73382D01*
Y72750D01*
X167783Y72166D01*
X168230Y71719D01*
X168736Y71509D01*
X169739Y70506D01*
X169739Y70506D01*
X170202Y70197D01*
X170748Y70088D01*
X170748Y70088D01*
X215944D01*
X231033Y54999D01*
Y47104D01*
X230872Y46714D01*
Y46082D01*
X231114Y45498D01*
X231561Y45051D01*
X232145Y44809D01*
X232777D01*
X233361Y45051D01*
X233808Y45498D01*
X234050Y46082D01*
Y46714D01*
X233888Y47104D01*
Y55590D01*
X233779Y56137D01*
X233470Y56600D01*
X233470Y56600D01*
X217545Y72525D01*
X217082Y72834D01*
X216809Y72889D01*
X216644Y73431D01*
X223167Y79954D01*
X267087D01*
X267594Y80055D01*
X268024Y80342D01*
X269699Y82017D01*
X269995Y82140D01*
X270442Y82587D01*
X270684Y83171D01*
Y83803D01*
X270442Y84387D01*
X269995Y84834D01*
X269411Y85076D01*
X268778D01*
X268194Y84834D01*
X267747Y84387D01*
X267506Y83803D01*
Y83573D01*
X266538Y82605D01*
X262449D01*
X262242Y83105D01*
X262390Y83254D01*
X262632Y83837D01*
Y84470D01*
X262390Y85054D01*
X261943Y85501D01*
X261359Y85742D01*
X260727D01*
X260143Y85501D01*
X260122Y85479D01*
X221398D01*
X221360Y85472D01*
X221114Y85932D01*
X221691Y86509D01*
X270730D01*
X271982Y85258D01*
Y77754D01*
X265063Y70835D01*
X264775Y70405D01*
X264674Y69898D01*
Y24689D01*
X264775Y24182D01*
X265063Y23752D01*
X266670Y22144D01*
X266617Y21743D01*
X266729Y20891D01*
X267058Y20097D01*
X267581Y19416D01*
X267904Y19168D01*
Y18538D01*
X267510Y18235D01*
X266971Y17533D01*
X266890Y17337D01*
X274894D01*
X274813Y17533D01*
X274274Y18235D01*
X273880Y18538D01*
Y19168D01*
X274203Y19416D01*
X274726Y20097D01*
X275054Y20891D01*
X275167Y21743D01*
X275054Y22594D01*
X274726Y23388D01*
X274203Y24069D01*
X273784Y24391D01*
Y25000D01*
X274203Y25321D01*
X274726Y26003D01*
X275054Y26796D01*
X275167Y27648D01*
X275054Y28500D01*
X274726Y29293D01*
X274203Y29975D01*
X273784Y30296D01*
Y30906D01*
X274203Y31227D01*
X274726Y31908D01*
X275054Y32702D01*
X275167Y33554D01*
X275054Y34405D01*
X274726Y35199D01*
X274203Y35880D01*
X273784Y36202D01*
Y36811D01*
X274203Y37132D01*
X274726Y37814D01*
X275054Y38607D01*
X275167Y39459D01*
X275054Y40311D01*
X274726Y41104D01*
X274203Y41786D01*
X273521Y42309D01*
X272728Y42637D01*
X271876Y42750D01*
X269908D01*
X269056Y42637D01*
X268263Y42309D01*
X267826Y41973D01*
X267325Y42220D01*
Y69349D01*
X274244Y76267D01*
X274532Y76697D01*
X274633Y77205D01*
Y85807D01*
X274532Y86314D01*
X274244Y86744D01*
X272217Y88772D01*
X271787Y89059D01*
X271280Y89160D01*
X221807D01*
X221600Y89660D01*
X221915Y89975D01*
X222224Y90438D01*
X222333Y90984D01*
X222333Y90984D01*
Y95436D01*
X222495Y95826D01*
Y96458D01*
X222253Y97042D01*
X221806Y97489D01*
X221222Y97731D01*
X220589D01*
X220005Y97489D01*
X219558Y97042D01*
X219317Y96458D01*
Y95826D01*
X219478Y95436D01*
Y91575D01*
X218995Y91092D01*
X218534Y91339D01*
X218593Y91634D01*
X218593Y91634D01*
Y95199D01*
X218754Y95589D01*
Y96222D01*
X218512Y96806D01*
X218066Y97253D01*
X217481Y97495D01*
X216849D01*
X216265Y97253D01*
X215818Y96806D01*
X215576Y96222D01*
Y95589D01*
X215738Y95199D01*
Y92225D01*
X213582Y90069D01*
X210119D01*
X207947Y92241D01*
Y105992D01*
X207947Y105992D01*
X207839Y106538D01*
X207529Y107001D01*
X207529Y107001D01*
X194998Y119533D01*
X194534Y119842D01*
X193988Y119951D01*
D02*
G37*
G36*
X172462Y180428D02*
X171830D01*
X171246Y180186D01*
X170799Y179739D01*
X170557Y179155D01*
Y178523D01*
X170667Y178255D01*
Y132955D01*
X160164Y122452D01*
X159859Y122326D01*
X159412Y121879D01*
X159170Y121294D01*
Y120662D01*
X159412Y120078D01*
X159859Y119631D01*
X160443Y119389D01*
X161075D01*
X161659Y119631D01*
X162106Y120078D01*
X162201Y120307D01*
X173191Y131297D01*
X173512Y131777D01*
X173624Y132343D01*
Y178255D01*
X173735Y178523D01*
Y179155D01*
X173493Y179739D01*
X173046Y180186D01*
X172462Y180428D01*
D02*
G37*
G36*
X142739Y118719D02*
X141439D01*
Y117418D01*
X141925Y117620D01*
X142538Y118233D01*
X142739Y118719D01*
D02*
G37*
G36*
X139939D02*
X138639D01*
X138840Y118233D01*
X139453Y117620D01*
X139939Y117418D01*
Y118719D01*
D02*
G37*
G36*
X125728Y124832D02*
X70768D01*
X70124Y124704D01*
X69578Y124339D01*
X69213Y123793D01*
X69085Y123150D01*
X69213Y122506D01*
X69578Y121960D01*
X70124Y121595D01*
X70768Y121467D01*
X125031D01*
X133180Y113318D01*
X133726Y112954D01*
X134370Y112826D01*
X135014Y112954D01*
X135560Y113318D01*
X135924Y113864D01*
X136052Y114508D01*
X135924Y115152D01*
X135560Y115698D01*
X126918Y124339D01*
X126372Y124704D01*
X125728Y124832D01*
D02*
G37*
G36*
X247831Y120017D02*
X246868D01*
X245938Y119768D01*
X245104Y119287D01*
X244424Y118606D01*
X243942Y117772D01*
X243693Y116843D01*
Y115880D01*
X243942Y114950D01*
X244424Y114117D01*
X245104Y113436D01*
X245938Y112955D01*
X246868Y112706D01*
X247831D01*
X248760Y112955D01*
X249594Y113436D01*
X250275Y114117D01*
X250756Y114950D01*
X251005Y115880D01*
Y116843D01*
X250756Y117772D01*
X250275Y118606D01*
X249594Y119287D01*
X248760Y119768D01*
X247831Y120017D01*
D02*
G37*
G36*
X176518Y101440D02*
Y100140D01*
X177818D01*
X177617Y100625D01*
X177003Y101239D01*
X176518Y101440D01*
D02*
G37*
G36*
X175018D02*
X174532Y101239D01*
X173919Y100625D01*
X173718Y100140D01*
X175018D01*
Y101440D01*
D02*
G37*
G36*
X167482D02*
Y100140D01*
X168782D01*
X168581Y100625D01*
X167968Y101239D01*
X167482Y101440D01*
D02*
G37*
G36*
X165982D02*
X165497Y101239D01*
X164883Y100625D01*
X164682Y100140D01*
X165982D01*
Y101440D01*
D02*
G37*
G36*
X187304Y107494D02*
X186672D01*
X186088Y107253D01*
X185641Y106806D01*
X185399Y106222D01*
Y105589D01*
X185566Y105185D01*
Y99696D01*
X185411Y99320D01*
Y98688D01*
X185653Y98104D01*
X186100Y97657D01*
X186684Y97415D01*
X187316D01*
X187900Y97657D01*
X188347Y98104D01*
X188589Y98688D01*
Y99320D01*
X188421Y99725D01*
Y105214D01*
X188577Y105589D01*
Y106222D01*
X188335Y106806D01*
X187888Y107253D01*
X187304Y107494D01*
D02*
G37*
G36*
X177818Y98640D02*
X176518D01*
Y97340D01*
X177003Y97541D01*
X177617Y98154D01*
X177818Y98640D01*
D02*
G37*
G36*
X175018D02*
X173718D01*
X173919Y98154D01*
X174532Y97541D01*
X175018Y97340D01*
Y98640D01*
D02*
G37*
G36*
X168782D02*
X167482D01*
Y97340D01*
X167968Y97541D01*
X168581Y98154D01*
X168782Y98640D01*
D02*
G37*
G36*
X165982D02*
X164682D01*
X164883Y98154D01*
X165497Y97541D01*
X165982Y97340D01*
Y98640D01*
D02*
G37*
G36*
X124705Y97848D02*
X124463D01*
X123825Y97721D01*
X123347Y97402D01*
X115431D01*
X114793Y97275D01*
X114252Y96913D01*
X111135Y93796D01*
X110774Y93255D01*
X110647Y92617D01*
Y75068D01*
X110774Y74430D01*
X111135Y73889D01*
X116420Y68605D01*
X119680Y65344D01*
X120221Y64983D01*
X120859Y64856D01*
X161381D01*
X169817Y56420D01*
X170358Y56058D01*
X170995Y55932D01*
X211916D01*
X212394Y55612D01*
X213032Y55485D01*
X213669Y55612D01*
X214210Y55974D01*
X214571Y56514D01*
X214698Y57152D01*
X214571Y57790D01*
X214210Y58331D01*
X214052Y58489D01*
X213804Y58833D01*
X214052Y59178D01*
X214210Y59336D01*
X214571Y59877D01*
X214698Y60514D01*
X214571Y61152D01*
X214210Y61693D01*
X213669Y62054D01*
X213032Y62181D01*
X212394Y62054D01*
X211916Y61735D01*
X172709D01*
X169758Y64685D01*
X169950Y65147D01*
X213720D01*
X224340Y54527D01*
Y35453D01*
X224340Y35453D01*
X224449Y34907D01*
X224758Y34443D01*
X227750Y31451D01*
X227750Y31451D01*
X228214Y31142D01*
X228760Y31033D01*
X228760Y31033D01*
X232461D01*
X232461Y31033D01*
X233007Y31142D01*
X233470Y31451D01*
X246160Y44142D01*
X246160Y44142D01*
X246470Y44605D01*
X246564Y45078D01*
X246759Y45273D01*
X247001Y45857D01*
Y46489D01*
X246759Y47073D01*
X246312Y47520D01*
X245728Y47762D01*
X245096D01*
X244512Y47520D01*
X244065Y47073D01*
X243823Y46489D01*
Y46411D01*
X243724Y45913D01*
X243724Y45913D01*
Y45742D01*
X231869Y33888D01*
X229351D01*
X227195Y36044D01*
Y55118D01*
X227195Y55118D01*
X227086Y55664D01*
X226777Y56128D01*
X226777Y56128D01*
X215320Y67584D01*
X214857Y67894D01*
X214311Y68002D01*
X214311Y68002D01*
X168839D01*
X163479Y73363D01*
Y73446D01*
X163237Y74030D01*
X162790Y74477D01*
X162206Y74719D01*
X161731D01*
X161482Y74769D01*
X160935Y74660D01*
X160472Y74350D01*
X160163Y73887D01*
X160054Y73341D01*
X160163Y72795D01*
X160472Y72332D01*
X160520Y72284D01*
X160543Y72230D01*
X160990Y71783D01*
X161044Y71760D01*
X161683Y71121D01*
X161491Y70659D01*
X131163D01*
Y70842D01*
X131141Y70950D01*
X131057Y71591D01*
X130768Y72289D01*
X130307Y72889D01*
X129708Y73349D01*
X129010Y73638D01*
X128261Y73737D01*
X127512Y73638D01*
X126814Y73349D01*
X126214Y72889D01*
X125754Y72289D01*
X125465Y71591D01*
X125381Y70950D01*
X125359Y70842D01*
Y70659D01*
X122573D01*
X119482Y73750D01*
X116450Y76782D01*
Y90904D01*
X117145Y91598D01*
X123347D01*
X123825Y91279D01*
X124463Y91152D01*
X124705D01*
X125343Y91279D01*
X125883Y91640D01*
X126245Y92181D01*
X126372Y92819D01*
X126245Y93457D01*
X125883Y93998D01*
X125560Y94213D01*
Y94787D01*
X125883Y95002D01*
X126245Y95543D01*
X126372Y96181D01*
X126245Y96819D01*
X125883Y97360D01*
X125343Y97721D01*
X124705Y97848D01*
D02*
G37*
G36*
X137481Y86884D02*
X136849D01*
X136265Y86642D01*
X135818Y86195D01*
X135576Y85611D01*
Y84979D01*
X135818Y84395D01*
X136265Y83948D01*
X136849Y83706D01*
X137481D01*
X138066Y83948D01*
X138512Y84395D01*
X138754Y84979D01*
Y85611D01*
X138512Y86195D01*
X138066Y86642D01*
X137481Y86884D01*
D02*
G37*
G36*
X139274Y81322D02*
Y80022D01*
X140574D01*
X140373Y80507D01*
X139759Y81121D01*
X139274Y81322D01*
D02*
G37*
G36*
X137774D02*
X137288Y81121D01*
X136675Y80507D01*
X136474Y80022D01*
X137774D01*
Y81322D01*
D02*
G37*
G36*
X140574Y78522D02*
X139274D01*
Y77222D01*
X139759Y77423D01*
X140373Y78036D01*
X140574Y78522D01*
D02*
G37*
G36*
X137774D02*
X136474D01*
X136675Y78036D01*
X137288Y77423D01*
X137774Y77222D01*
Y78522D01*
D02*
G37*
G36*
X68299Y62966D02*
Y62305D01*
X68960D01*
X68898Y62456D01*
X68450Y62903D01*
X68299Y62966D01*
D02*
G37*
G36*
X66799Y62966D02*
X66648Y62903D01*
X66201Y62456D01*
X66138Y62305D01*
X66799D01*
Y62966D01*
D02*
G37*
G36*
X61075Y62966D02*
Y62305D01*
X61736D01*
X61673Y62456D01*
X61226Y62903D01*
X61075Y62966D01*
D02*
G37*
G36*
X59575Y62966D02*
X59424Y62903D01*
X58976Y62456D01*
X58914Y62305D01*
X59575D01*
Y62966D01*
D02*
G37*
G36*
X66799Y60805D02*
X66138D01*
X66201Y60654D01*
X66648Y60207D01*
X66799Y60144D01*
Y60805D01*
D02*
G37*
G36*
X59575Y60805D02*
X58914D01*
X58976Y60654D01*
X59424Y60207D01*
X59575Y60144D01*
Y60805D01*
D02*
G37*
G36*
X61736D02*
X61075D01*
Y60144D01*
X61226Y60207D01*
X61673Y60654D01*
X61736Y60805D01*
D02*
G37*
G36*
X68960Y60805D02*
X68299D01*
Y60144D01*
X68450Y60207D01*
X68898Y60654D01*
X68960Y60805D01*
D02*
G37*
G36*
X64687Y59354D02*
Y58693D01*
X65348D01*
X65285Y58844D01*
X64838Y59291D01*
X64687Y59354D01*
D02*
G37*
G36*
X63187Y59354D02*
X63036Y59291D01*
X62589Y58844D01*
X62526Y58693D01*
X63187D01*
Y59354D01*
D02*
G37*
G36*
X57463Y59354D02*
Y58693D01*
X58123D01*
X58061Y58844D01*
X57614Y59291D01*
X57463Y59354D01*
D02*
G37*
G36*
X55963Y59354D02*
X55812Y59291D01*
X55364Y58844D01*
X55302Y58693D01*
X55963D01*
Y59354D01*
D02*
G37*
G36*
X71912Y59354D02*
Y58693D01*
X72572D01*
X72510Y58844D01*
X72062Y59291D01*
X71912Y59354D01*
D02*
G37*
G36*
X70411Y59354D02*
X70261Y59291D01*
X69813Y58844D01*
X69750Y58693D01*
X70411D01*
Y59354D01*
D02*
G37*
G36*
X72572Y57193D02*
X71912D01*
Y56532D01*
X72062Y56595D01*
X72510Y57042D01*
X72572Y57193D01*
D02*
G37*
G36*
X63187Y57193D02*
X62526D01*
X62589Y57042D01*
X63036Y56595D01*
X63187Y56532D01*
Y57193D01*
D02*
G37*
G36*
X55963Y57193D02*
X55302D01*
X55364Y57042D01*
X55812Y56595D01*
X55963Y56532D01*
Y57193D01*
D02*
G37*
G36*
X58123D02*
X57463D01*
Y56532D01*
X57614Y56595D01*
X58061Y57042D01*
X58123Y57193D01*
D02*
G37*
G36*
X65348Y57193D02*
X64687D01*
Y56532D01*
X64838Y56595D01*
X65285Y57042D01*
X65348Y57193D01*
D02*
G37*
G36*
X70411Y57193D02*
X69750D01*
X69813Y57042D01*
X70261Y56595D01*
X70411Y56532D01*
Y57193D01*
D02*
G37*
G36*
X68299Y55742D02*
Y55081D01*
X68960D01*
X68898Y55232D01*
X68450Y55679D01*
X68299Y55742D01*
D02*
G37*
G36*
X66799Y55742D02*
X66648Y55679D01*
X66201Y55232D01*
X66138Y55081D01*
X66799D01*
Y55742D01*
D02*
G37*
G36*
X61075Y55742D02*
Y55081D01*
X61736D01*
X61673Y55232D01*
X61226Y55679D01*
X61075Y55742D01*
D02*
G37*
G36*
X59575Y55742D02*
X59424Y55679D01*
X58976Y55232D01*
X58914Y55081D01*
X59575D01*
Y55742D01*
D02*
G37*
G36*
X66799Y53581D02*
X66138D01*
X66201Y53430D01*
X66648Y52982D01*
X66799Y52920D01*
Y53581D01*
D02*
G37*
G36*
X59575Y53581D02*
X58914D01*
X58976Y53430D01*
X59424Y52982D01*
X59575Y52920D01*
Y53581D01*
D02*
G37*
G36*
X61736D02*
X61075D01*
Y52920D01*
X61226Y52982D01*
X61673Y53430D01*
X61736Y53581D01*
D02*
G37*
G36*
X68960Y53581D02*
X68299D01*
Y52920D01*
X68450Y52982D01*
X68898Y53430D01*
X68960Y53581D01*
D02*
G37*
G36*
X64687Y52130D02*
Y51469D01*
X65348D01*
X65285Y51619D01*
X64838Y52067D01*
X64687Y52130D01*
D02*
G37*
G36*
X63187Y52129D02*
X63036Y52067D01*
X62589Y51619D01*
X62526Y51469D01*
X63187D01*
Y52129D01*
D02*
G37*
G36*
X57463Y52129D02*
Y51468D01*
X58123D01*
X58061Y51619D01*
X57614Y52067D01*
X57463Y52129D01*
D02*
G37*
G36*
X55963D02*
X55812Y52067D01*
X55364Y51619D01*
X55302Y51468D01*
X55963D01*
Y52129D01*
D02*
G37*
G36*
X71912Y52129D02*
Y51468D01*
X72572D01*
X72510Y51619D01*
X72062Y52067D01*
X71912Y52129D01*
D02*
G37*
G36*
X70412Y52130D02*
X70261Y52067D01*
X69813Y51619D01*
X69750Y51468D01*
X70412D01*
Y52130D01*
D02*
G37*
G36*
X258116Y54589D02*
X257484D01*
X256900Y54347D01*
X256453Y53900D01*
X256211Y53316D01*
Y52684D01*
X256453Y52100D01*
X256900Y51653D01*
X257484Y51411D01*
X258116D01*
X258700Y51653D01*
X259147Y52100D01*
X259389Y52684D01*
Y53316D01*
X259147Y53900D01*
X258700Y54347D01*
X258116Y54589D01*
D02*
G37*
G36*
X72572Y49968D02*
X71912D01*
Y49308D01*
X72062Y49370D01*
X72510Y49817D01*
X72572Y49968D01*
D02*
G37*
G36*
X63187Y49969D02*
X62526D01*
X62589Y49817D01*
X63036Y49370D01*
X63187Y49308D01*
Y49969D01*
D02*
G37*
G36*
X58123Y49968D02*
X57463D01*
Y49308D01*
X57614Y49370D01*
X58061Y49817D01*
X58123Y49968D01*
D02*
G37*
G36*
X55963D02*
X55302D01*
X55364Y49817D01*
X55812Y49370D01*
X55963Y49308D01*
Y49968D01*
D02*
G37*
G36*
X65348Y49969D02*
X64687D01*
Y49308D01*
X64838Y49370D01*
X65285Y49817D01*
X65348Y49969D01*
D02*
G37*
G36*
X70412Y49968D02*
X69750D01*
X69813Y49817D01*
X70261Y49370D01*
X70412Y49308D01*
Y49968D01*
D02*
G37*
G36*
X68299Y48517D02*
Y47856D01*
X68960D01*
X68898Y48007D01*
X68450Y48455D01*
X68299Y48517D01*
D02*
G37*
G36*
X66799Y48517D02*
X66648Y48455D01*
X66201Y48007D01*
X66138Y47856D01*
X66799D01*
Y48517D01*
D02*
G37*
G36*
X61075Y48517D02*
Y47856D01*
X61736D01*
X61673Y48007D01*
X61226Y48455D01*
X61075Y48517D01*
D02*
G37*
G36*
X59575Y48517D02*
X59424Y48455D01*
X58976Y48007D01*
X58914Y47856D01*
X59575D01*
Y48517D01*
D02*
G37*
G36*
X258116Y50589D02*
X257484D01*
X256900Y50347D01*
X256453Y49900D01*
X256211Y49316D01*
Y48684D01*
X256453Y48100D01*
X256900Y47653D01*
X257484Y47411D01*
X258116D01*
X258700Y47653D01*
X259147Y48100D01*
X259389Y48684D01*
Y49316D01*
X259147Y49900D01*
X258700Y50347D01*
X258116Y50589D01*
D02*
G37*
G36*
X66799Y46356D02*
X66138D01*
X66201Y46205D01*
X66648Y45758D01*
X66799Y45695D01*
Y46356D01*
D02*
G37*
G36*
X59575Y46356D02*
X58914D01*
X58976Y46205D01*
X59424Y45758D01*
X59575Y45695D01*
Y46356D01*
D02*
G37*
G36*
X61736D02*
X61075D01*
Y45695D01*
X61226Y45758D01*
X61673Y46205D01*
X61736Y46356D01*
D02*
G37*
G36*
X68960Y46356D02*
X68299D01*
Y45695D01*
X68450Y45758D01*
X68898Y46205D01*
X68960Y46356D01*
D02*
G37*
G36*
X55294Y124787D02*
X54431D01*
X53634Y124457D01*
X53024Y123846D01*
X52694Y123049D01*
Y122187D01*
X53024Y121390D01*
X53634Y120780D01*
X54192Y120548D01*
X64693Y110047D01*
X65322Y109628D01*
X66063Y109480D01*
X99977D01*
X100270Y109274D01*
Y105315D01*
X100283Y105251D01*
X100283Y105185D01*
X100310Y105115D01*
X100325Y105042D01*
X100361Y104987D01*
X100386Y104926D01*
X101216Y103648D01*
Y54110D01*
X101333Y53223D01*
X101676Y52395D01*
X102221Y51685D01*
X105150Y48756D01*
X105860Y48211D01*
X106687Y47869D01*
X107575Y47752D01*
X135532D01*
X143269Y38384D01*
X143272Y38381D01*
X143274Y38377D01*
X143380Y38293D01*
X143484Y38208D01*
X143489Y38207D01*
X143492Y38204D01*
X143622Y38167D01*
X143751Y38128D01*
X143756Y38129D01*
X143760Y38127D01*
X143894Y38143D01*
X144028Y38156D01*
X144032Y38159D01*
X144037Y38159D01*
X144155Y38224D01*
X144273Y38288D01*
X144276Y38292D01*
X144280Y38294D01*
X153836Y46393D01*
X164208D01*
X164378Y45893D01*
X163982Y45590D01*
X163191Y44559D01*
X162693Y43358D01*
X162524Y42069D01*
Y39132D01*
X167503D01*
X172483D01*
Y42069D01*
X172313Y43358D01*
X171816Y44559D01*
X171025Y45590D01*
X170629Y45893D01*
X170799Y46393D01*
X180777D01*
X182863Y44307D01*
X183573Y43762D01*
X184400Y43420D01*
X185288Y43303D01*
X201176D01*
X201326Y43077D01*
X205200D01*
X205350Y43303D01*
X218266D01*
X218789Y43234D01*
X219677Y43351D01*
X220504Y43694D01*
X221214Y44238D01*
X221759Y44949D01*
X222102Y45776D01*
X222219Y46663D01*
X222102Y47551D01*
X221759Y48378D01*
X221214Y49088D01*
X221145Y49157D01*
X220435Y49702D01*
X219608Y50045D01*
X218721Y50162D01*
X186708D01*
X184622Y52248D01*
X183912Y52793D01*
X183085Y53135D01*
X182197Y53252D01*
X153303D01*
X145329Y58052D01*
X145244Y58083D01*
X145165Y58125D01*
X145114Y58130D01*
X145067Y58147D01*
X144977Y58143D01*
X144887Y58151D01*
X144839Y58136D01*
X144789Y58134D01*
X144707Y58095D01*
X144621Y58069D01*
X138222Y54610D01*
X108995D01*
X108075Y55531D01*
Y102415D01*
X108883Y103223D01*
X119685D01*
X119958Y103278D01*
X120190Y103432D01*
X121765Y105007D01*
X121919Y105239D01*
X121974Y105512D01*
Y116535D01*
X121954Y116634D01*
X121945Y116734D01*
X121927Y116770D01*
X121919Y116808D01*
X121863Y116892D01*
X121817Y116981D01*
X120242Y118950D01*
X120212Y118975D01*
X120190Y119009D01*
X120106Y119064D01*
X120029Y119129D01*
X119991Y119141D01*
X119958Y119163D01*
X119860Y119183D01*
X119764Y119213D01*
X119724Y119210D01*
X119685Y119218D01*
X102362D01*
X102089Y119163D01*
X101857Y119009D01*
X100677Y117828D01*
X100676Y117827D01*
X100676Y117827D01*
X100480Y117631D01*
X100325Y117399D01*
X100271Y117126D01*
X100270Y113519D01*
X99931Y113355D01*
X66865D01*
X56932Y123288D01*
X56701Y123846D01*
X56090Y124457D01*
X55294Y124787D01*
D02*
G37*
G36*
X204994Y41578D02*
X204013D01*
Y40597D01*
X204331Y40729D01*
X204862Y41259D01*
X204994Y41578D01*
D02*
G37*
G36*
X202513D02*
X201533D01*
X201664Y41259D01*
X202195Y40729D01*
X202513Y40597D01*
Y41578D01*
D02*
G37*
G36*
X246143Y40742D02*
X245511D01*
X244927Y40501D01*
X244480Y40054D01*
X244238Y39470D01*
Y38838D01*
X244480Y38254D01*
X244927Y37806D01*
X245511Y37565D01*
X246143D01*
X246727Y37806D01*
X247174Y38254D01*
X247416Y38838D01*
Y39470D01*
X247174Y40054D01*
X246727Y40501D01*
X246143Y40742D01*
D02*
G37*
G36*
X232777Y40615D02*
X232145D01*
X231561Y40373D01*
X231114Y39926D01*
X230872Y39342D01*
Y38710D01*
X231114Y38126D01*
X231561Y37679D01*
X232145Y37437D01*
X232777D01*
X233361Y37679D01*
X233808Y38126D01*
X234050Y38710D01*
Y39342D01*
X233808Y39926D01*
X233361Y40373D01*
X232777Y40615D01*
D02*
G37*
G36*
X166503Y37132D02*
X162524D01*
Y34195D01*
X162693Y32906D01*
X163191Y31705D01*
X163982Y30674D01*
X165014Y29882D01*
X166215Y29385D01*
X166503Y29347D01*
Y37132D01*
D02*
G37*
G36*
X172483D02*
X168503D01*
Y29347D01*
X168792Y29385D01*
X169993Y29882D01*
X171025Y30674D01*
X171816Y31705D01*
X172313Y32906D01*
X172483Y34195D01*
Y37132D01*
D02*
G37*
G36*
X27658Y31997D02*
X22661Y29077D01*
X27658D01*
X27658Y31997D01*
D02*
G37*
G36*
X25646Y27340D02*
Y26394D01*
X26592D01*
X26495Y26629D01*
X25881Y27243D01*
X25646Y27340D01*
D02*
G37*
G36*
X23646D02*
X23410Y27243D01*
X22797Y26629D01*
X22699Y26394D01*
X23646D01*
Y27340D01*
D02*
G37*
G36*
X152543Y30513D02*
X149356D01*
Y26284D01*
X157424D01*
X157353Y26822D01*
X156855Y28023D01*
X156064Y29055D01*
X155033Y29846D01*
X153832Y30343D01*
X152543Y30513D01*
D02*
G37*
G36*
X147856D02*
X144669D01*
X143380Y30343D01*
X142179Y29846D01*
X141148Y29055D01*
X140356Y28023D01*
X139859Y26822D01*
X139788Y26284D01*
X147856D01*
Y30513D01*
D02*
G37*
G36*
X26592Y24394D02*
X25646D01*
Y23447D01*
X25881Y23545D01*
X26495Y24158D01*
X26592Y24394D01*
D02*
G37*
G36*
X23646D02*
X22699D01*
X22797Y24158D01*
X23410Y23545D01*
X23646Y23447D01*
Y24394D01*
D02*
G37*
G36*
X203680Y26303D02*
X203048D01*
X202464Y26061D01*
X202017Y25614D01*
X201775Y25030D01*
Y24397D01*
X202017Y23813D01*
X202464Y23367D01*
X203048Y23125D01*
X203680D01*
X204264Y23367D01*
X204711Y23813D01*
X204953Y24397D01*
Y25030D01*
X204711Y25614D01*
X204264Y26061D01*
X203680Y26303D01*
D02*
G37*
G36*
X157424Y24784D02*
X149356D01*
Y20554D01*
X152543D01*
X153832Y20724D01*
X155033Y21221D01*
X156064Y22012D01*
X156855Y23044D01*
X157353Y24245D01*
X157424Y24784D01*
D02*
G37*
G36*
X147856D02*
X139788D01*
X139859Y24245D01*
X140356Y23044D01*
X141148Y22012D01*
X142179Y21221D01*
X143380Y20724D01*
X144669Y20554D01*
X147856D01*
Y24784D01*
D02*
G37*
G36*
X25473Y20263D02*
Y19316D01*
X26420D01*
X26322Y19552D01*
X25709Y20165D01*
X25473Y20263D01*
D02*
G37*
G36*
X23473D02*
X23238Y20165D01*
X22624Y19552D01*
X22527Y19316D01*
X23473D01*
Y20263D01*
D02*
G37*
G36*
X65396Y18743D02*
Y17443D01*
X66696D01*
X66495Y17928D01*
X65881Y18542D01*
X65396Y18743D01*
D02*
G37*
G36*
X63896D02*
X63410Y18542D01*
X62797Y17928D01*
X62595Y17443D01*
X63896D01*
Y18743D01*
D02*
G37*
G36*
X114289Y39880D02*
X113657D01*
X113073Y39638D01*
X112626Y39191D01*
X112465Y38800D01*
X90596Y16932D01*
X72911D01*
X72521Y17094D01*
X71889D01*
X71305Y16852D01*
X70858Y16405D01*
X70616Y15821D01*
Y15189D01*
X70858Y14605D01*
X71305Y14158D01*
X71889Y13916D01*
X72521D01*
X72911Y14077D01*
X91187D01*
X91188Y14077D01*
X91734Y14186D01*
X92197Y14495D01*
X114483Y36782D01*
X114873Y36943D01*
X115320Y37390D01*
X115562Y37974D01*
Y38607D01*
X115320Y39191D01*
X114873Y39638D01*
X114289Y39880D01*
D02*
G37*
G36*
X26420Y17316D02*
X25473D01*
Y16370D01*
X25709Y16467D01*
X26322Y17081D01*
X26420Y17316D01*
D02*
G37*
G36*
X23473D02*
X22527D01*
X22624Y17081D01*
X23238Y16467D01*
X23473Y16370D01*
Y17316D01*
D02*
G37*
G36*
X66696Y15943D02*
X65396D01*
Y14643D01*
X65881Y14844D01*
X66495Y15457D01*
X66696Y15943D01*
D02*
G37*
G36*
X63896D02*
X62595D01*
X62797Y15457D01*
X63410Y14844D01*
X63896Y14643D01*
Y15943D01*
D02*
G37*
G36*
X25473Y13940D02*
Y12993D01*
X26420D01*
X26322Y13229D01*
X25709Y13842D01*
X25473Y13940D01*
D02*
G37*
G36*
X23473D02*
X23238Y13842D01*
X22624Y13229D01*
X22527Y12993D01*
X23473D01*
Y13940D01*
D02*
G37*
G36*
X26420Y10993D02*
X25473D01*
Y10047D01*
X25709Y10144D01*
X26322Y10758D01*
X26420Y10993D01*
D02*
G37*
G36*
X23473D02*
X22527D01*
X22624Y10758D01*
X23238Y10144D01*
X23473Y10047D01*
Y10993D01*
D02*
G37*
G36*
X233117Y19207D02*
X231843D01*
X230613Y18878D01*
X229510Y18241D01*
X228610Y17340D01*
X227973Y16237D01*
X227643Y15007D01*
Y13733D01*
X227973Y12503D01*
X228610Y11400D01*
X229510Y10499D01*
X230613Y9863D01*
X231843Y9533D01*
X233117D01*
X234347Y9863D01*
X235450Y10499D01*
X236351Y11400D01*
X236988Y12503D01*
X237317Y13733D01*
Y15007D01*
X236988Y16237D01*
X236351Y17340D01*
X235450Y18241D01*
X234347Y18878D01*
X233117Y19207D01*
D02*
G37*
G36*
X274894Y14337D02*
X266890D01*
X266971Y14141D01*
X267510Y13439D01*
X267904Y13136D01*
Y12506D01*
X267581Y12258D01*
X267058Y11577D01*
X266729Y10783D01*
X266617Y9932D01*
X266729Y9080D01*
X267058Y8286D01*
X267581Y7605D01*
X268263Y7082D01*
X269056Y6753D01*
X269908Y6641D01*
X271876D01*
X272728Y6753D01*
X273521Y7082D01*
X274203Y7605D01*
X274726Y8286D01*
X275054Y9080D01*
X275167Y9932D01*
X275054Y10783D01*
X274726Y11577D01*
X274203Y12258D01*
X273880Y12506D01*
Y13136D01*
X274274Y13439D01*
X274813Y14141D01*
X274894Y14337D01*
D02*
G37*
G36*
X25473Y6120D02*
Y5173D01*
X26420D01*
X26322Y5409D01*
X25709Y6022D01*
X25473Y6120D01*
D02*
G37*
G36*
X23473D02*
X23238Y6022D01*
X22624Y5409D01*
X22527Y5173D01*
X23473D01*
Y6120D01*
D02*
G37*
G36*
X258016Y7589D02*
X257384D01*
X256800Y7347D01*
X256353Y6900D01*
X256111Y6316D01*
Y5684D01*
X256353Y5100D01*
X256800Y4653D01*
X257384Y4411D01*
X258016D01*
X258600Y4653D01*
X259047Y5100D01*
X259289Y5684D01*
Y6316D01*
X259047Y6900D01*
X258600Y7347D01*
X258016Y7589D01*
D02*
G37*
G36*
X251416D02*
X250784D01*
X250200Y7347D01*
X249753Y6900D01*
X249511Y6316D01*
Y5684D01*
X249753Y5100D01*
X250200Y4653D01*
X250784Y4411D01*
X251416D01*
X252000Y4653D01*
X252447Y5100D01*
X252689Y5684D01*
Y6316D01*
X252447Y6900D01*
X252000Y7347D01*
X251416Y7589D01*
D02*
G37*
G36*
X244816D02*
X244184D01*
X243600Y7347D01*
X243153Y6900D01*
X242911Y6316D01*
Y5684D01*
X243153Y5100D01*
X243600Y4653D01*
X244184Y4411D01*
X244816D01*
X245400Y4653D01*
X245847Y5100D01*
X246089Y5684D01*
Y6316D01*
X245847Y6900D01*
X245400Y7347D01*
X244816Y7589D01*
D02*
G37*
G36*
X101927Y8971D02*
X101223D01*
X100544Y8789D01*
X99934Y8437D01*
X99437Y7940D01*
X99085Y7330D01*
X98903Y6651D01*
Y5948D01*
X99085Y5268D01*
X99437Y4659D01*
X99934Y4161D01*
X100544Y3810D01*
X101223Y3628D01*
X101927D01*
X102606Y3810D01*
X103215Y4161D01*
X103713Y4659D01*
X104064Y5268D01*
X104246Y5948D01*
Y6651D01*
X104064Y7330D01*
X103713Y7940D01*
X103215Y8437D01*
X102606Y8789D01*
X101927Y8971D01*
D02*
G37*
G36*
X90115D02*
X89412D01*
X88733Y8789D01*
X88123Y8437D01*
X87626Y7940D01*
X87274Y7330D01*
X87092Y6651D01*
Y5948D01*
X87274Y5268D01*
X87626Y4659D01*
X88123Y4161D01*
X88733Y3810D01*
X89412Y3628D01*
X90115D01*
X90795Y3810D01*
X91404Y4161D01*
X91902Y4659D01*
X92253Y5268D01*
X92435Y5948D01*
Y6651D01*
X92253Y7330D01*
X91902Y7940D01*
X91404Y8437D01*
X90795Y8789D01*
X90115Y8971D01*
D02*
G37*
G36*
X149268Y12851D02*
X147943D01*
X146663Y12508D01*
X145515Y11845D01*
X144578Y10908D01*
X143915Y9760D01*
X143572Y8480D01*
Y7154D01*
X143915Y5874D01*
X144578Y4726D01*
X145515Y3789D01*
X146663Y3126D01*
X147943Y2783D01*
X149268D01*
X150549Y3126D01*
X151697Y3789D01*
X152634Y4726D01*
X153296Y5874D01*
X153640Y7154D01*
Y8480D01*
X153296Y9760D01*
X152634Y10908D01*
X151697Y11845D01*
X150549Y12508D01*
X149268Y12851D01*
D02*
G37*
G36*
X49962Y5487D02*
X49330D01*
X48746Y5245D01*
X48299Y4798D01*
X48057Y4214D01*
Y3582D01*
X48299Y2998D01*
X48746Y2551D01*
X49330Y2309D01*
X49962D01*
X50546Y2551D01*
X50993Y2998D01*
X51235Y3582D01*
Y4214D01*
X50993Y4798D01*
X50546Y5245D01*
X49962Y5487D01*
D02*
G37*
G36*
X45867Y8046D02*
X45235D01*
X44651Y7804D01*
X44204Y7357D01*
X43962Y6773D01*
Y6141D01*
X44204Y5557D01*
X44584Y5177D01*
X44204Y4798D01*
X43962Y4214D01*
Y3582D01*
X44204Y2998D01*
X44651Y2551D01*
X45235Y2309D01*
X45867D01*
X46451Y2551D01*
X46898Y2998D01*
X47140Y3582D01*
Y4214D01*
X46898Y4798D01*
X46519Y5177D01*
X46898Y5557D01*
X47140Y6141D01*
Y6773D01*
X46898Y7357D01*
X46451Y7804D01*
X45867Y8046D01*
D02*
G37*
G36*
X26420Y3173D02*
X25473D01*
Y2227D01*
X25709Y2324D01*
X26322Y2938D01*
X26420Y3173D01*
D02*
G37*
G36*
X23473D02*
X22527D01*
X22624Y2938D01*
X23238Y2324D01*
X23473Y2227D01*
Y3173D01*
D02*
G37*
%LPD*%
G36*
X201506Y102952D02*
Y88957D01*
X201506Y88957D01*
X201614Y88410D01*
X201924Y87947D01*
X204812Y85059D01*
X204812Y85059D01*
X205275Y84750D01*
X205821Y84641D01*
X205821Y84641D01*
X215367D01*
X215574Y84141D01*
X210376Y78944D01*
X202399D01*
X200144Y81199D01*
Y102047D01*
X200044Y102555D01*
X199756Y102984D01*
X190898Y111843D01*
X190468Y112130D01*
X189961Y112231D01*
X180315D01*
X179808Y112130D01*
X179378Y111843D01*
X176482Y108947D01*
X176020Y109138D01*
Y109174D01*
X175688Y109976D01*
X175074Y110589D01*
X174331Y110897D01*
X174111Y111383D01*
X176379Y113651D01*
X190806D01*
X201506Y102952D01*
D02*
G37*
G36*
X121260Y116535D02*
Y105512D01*
X119685Y103937D01*
X108588D01*
X104521Y99871D01*
X100984Y105315D01*
Y109646D01*
X98090Y111673D01*
X100984Y113071D01*
X100984Y117126D01*
X101181Y117323D01*
Y117323D01*
Y117323D01*
X102362Y118504D01*
X119685D01*
X121260Y116535D01*
D02*
G37*
G36*
X157126Y50118D02*
X143819Y38839D01*
X133549Y51274D01*
X144961Y57441D01*
X157126Y50118D01*
D02*
G37*
%LPC*%
G36*
X359121Y134561D02*
X357847D01*
X356617Y134232D01*
X355514Y133595D01*
X354614Y132694D01*
X353977Y131591D01*
X353647Y130361D01*
Y129088D01*
X353977Y127857D01*
X354614Y126754D01*
X355514Y125854D01*
X356617Y125217D01*
X357847Y124887D01*
X359121D01*
X360351Y125217D01*
X361454Y125854D01*
X362355Y126754D01*
X362992Y127857D01*
X363321Y129088D01*
Y130361D01*
X362992Y131591D01*
X362355Y132694D01*
X361454Y133595D01*
X360351Y134232D01*
X359121Y134561D01*
D02*
G37*
G36*
X293727Y133735D02*
X292454D01*
X291224Y133405D01*
X290121Y132768D01*
X289220Y131868D01*
X288583Y130765D01*
X288253Y129534D01*
Y128261D01*
X288583Y127031D01*
X289220Y125928D01*
X290121Y125027D01*
X291224Y124390D01*
X292454Y124061D01*
X293727D01*
X294958Y124390D01*
X296060Y125027D01*
X296961Y125928D01*
X297598Y127031D01*
X297928Y128261D01*
Y129534D01*
X297598Y130765D01*
X296961Y131868D01*
X296060Y132768D01*
X294958Y133405D01*
X293727Y133735D01*
D02*
G37*
G36*
X316813Y120136D02*
Y118014D01*
X318935D01*
X318829Y118410D01*
X318438Y119087D01*
X317886Y119639D01*
X317209Y120030D01*
X316813Y120136D01*
D02*
G37*
G36*
X315313D02*
X314917Y120030D01*
X314240Y119639D01*
X313688Y119087D01*
X313297Y118410D01*
X313191Y118014D01*
X315313D01*
Y120136D01*
D02*
G37*
G36*
X318935Y116514D02*
X316813D01*
Y114392D01*
X317209Y114498D01*
X317886Y114888D01*
X318438Y115441D01*
X318829Y116118D01*
X318935Y116514D01*
D02*
G37*
G36*
X315313D02*
X313191D01*
X313297Y116118D01*
X313688Y115441D01*
X314240Y114888D01*
X314917Y114498D01*
X315313Y114392D01*
Y116514D01*
D02*
G37*
G36*
X330614Y120132D02*
X329859D01*
X329129Y119937D01*
X328475Y119559D01*
X327941Y119025D01*
X327563Y118371D01*
X327368Y117641D01*
Y116886D01*
X327563Y116157D01*
X327941Y115503D01*
X328475Y114968D01*
X329129Y114591D01*
X329859Y114395D01*
X330614D01*
X330702Y114419D01*
X354873Y90248D01*
Y66583D01*
X352138Y63848D01*
X342663D01*
X342309Y64201D01*
X342309Y64766D01*
X342308Y65225D01*
X342341Y65404D01*
X342662Y65725D01*
X346001D01*
X346644Y65854D01*
X346760Y65931D01*
X350845D01*
Y70657D01*
X350854Y71153D01*
X350854Y71370D01*
Y76096D01*
X343155D01*
Y75328D01*
X342308D01*
Y76140D01*
X342407D01*
Y81340D01*
X337908D01*
Y80422D01*
X337289D01*
Y81340D01*
X332789D01*
Y80422D01*
X332117D01*
Y81340D01*
X327617D01*
Y80927D01*
X327432Y80503D01*
X321387Y80503D01*
X321289Y80963D01*
Y81360D01*
X321387Y81820D01*
X321789Y81820D01*
X327432D01*
Y82016D01*
X327617Y82440D01*
X332117D01*
Y83357D01*
X332789D01*
Y82440D01*
X337289D01*
Y87640D01*
X332789D01*
Y86722D01*
X332117D01*
Y87640D01*
X327617D01*
Y87076D01*
X327323D01*
X326679Y86948D01*
X326133Y86583D01*
X326133Y86583D01*
X325053Y85503D01*
X321387Y85503D01*
X321289Y85963D01*
Y91764D01*
X329770Y100246D01*
X329859Y100222D01*
X330614D01*
X331343Y100417D01*
X331997Y100795D01*
X332532Y101329D01*
X332909Y101983D01*
X333105Y102713D01*
Y103468D01*
X332909Y104198D01*
X332532Y104852D01*
X331997Y105386D01*
X331343Y105764D01*
X330614Y105959D01*
X329859D01*
X329129Y105764D01*
X328475Y105386D01*
X327941Y104852D01*
X327563Y104198D01*
X327368Y103468D01*
Y102713D01*
X327391Y102625D01*
X318417Y93650D01*
X318052Y93104D01*
X317924Y92461D01*
Y59540D01*
X318052Y58896D01*
X318417Y58350D01*
X319295Y57472D01*
X319841Y57107D01*
X320485Y56979D01*
X321387D01*
Y56820D01*
X327432D01*
X327609Y56393D01*
Y55803D01*
X325159D01*
Y53661D01*
Y51520D01*
X326382D01*
X326691Y51148D01*
Y46648D01*
X331891D01*
Y51148D01*
X330973D01*
Y57520D01*
X330973Y57520D01*
X330845Y58164D01*
X330481Y58710D01*
X329339Y59851D01*
X328793Y60216D01*
X328150Y60344D01*
X327432D01*
Y60503D01*
X321387D01*
X321289Y60963D01*
Y61360D01*
X321387Y61820D01*
X321789Y61820D01*
X327432D01*
Y61979D01*
X330051D01*
X331054Y60976D01*
X331600Y60611D01*
X332244Y60483D01*
X332966D01*
Y59487D01*
X337342D01*
X337467Y59487D01*
X337467Y59487D01*
X337809Y59566D01*
Y59566D01*
X342309D01*
Y60483D01*
X352835D01*
X353478Y60611D01*
X354024Y60976D01*
X357745Y64696D01*
X357745Y64696D01*
X358109Y65242D01*
X358237Y65886D01*
Y90945D01*
X358238Y90945D01*
X358109Y91589D01*
X357745Y92134D01*
X357745Y92134D01*
X333081Y116798D01*
X333105Y116886D01*
Y117641D01*
X332909Y118371D01*
X332532Y119025D01*
X331997Y119559D01*
X331343Y119937D01*
X330614Y120132D01*
D02*
G37*
G36*
X312791Y98461D02*
X311413D01*
Y95902D01*
X312791D01*
Y98461D01*
D02*
G37*
G36*
X309413D02*
X308035D01*
Y95902D01*
X309413D01*
Y98461D01*
D02*
G37*
G36*
X312743Y88370D02*
X310843D01*
Y86820D01*
X312743D01*
Y88370D01*
D02*
G37*
G36*
X291632Y87546D02*
X289832D01*
Y85396D01*
X291632D01*
Y87546D01*
D02*
G37*
G36*
X342407Y87640D02*
X337908D01*
Y82440D01*
X342407D01*
Y83357D01*
X343155D01*
Y82570D01*
X350854D01*
Y87513D01*
X343155D01*
Y86722D01*
X342407D01*
Y87640D01*
D02*
G37*
G36*
X291632Y83896D02*
X289832D01*
Y81746D01*
X291632D01*
Y83896D01*
D02*
G37*
G36*
X293451Y72872D02*
X290551D01*
X287651D01*
Y71072D01*
X287690D01*
Y69766D01*
X290590D01*
X293490D01*
Y71566D01*
X293451D01*
Y72872D01*
D02*
G37*
G36*
X306487Y70503D02*
X300442D01*
Y66820D01*
X306487D01*
Y70503D01*
D02*
G37*
G36*
X293490Y68266D02*
X291340D01*
Y66466D01*
X293490D01*
Y68266D01*
D02*
G37*
G36*
X289840D02*
X287690D01*
Y66466D01*
X289840D01*
Y68266D01*
D02*
G37*
G36*
X342609Y58766D02*
X340809D01*
Y56616D01*
X342609D01*
Y58766D01*
D02*
G37*
G36*
X334467Y58687D02*
X332666D01*
Y56537D01*
X334467D01*
Y58687D01*
D02*
G37*
G36*
X323659Y55803D02*
X321087D01*
Y54411D01*
X323659D01*
Y55803D01*
D02*
G37*
G36*
X342609Y55116D02*
X340809D01*
Y52966D01*
X342609D01*
Y55116D01*
D02*
G37*
G36*
X339309Y58766D02*
X337509D01*
Y58687D01*
X335967D01*
Y55787D01*
Y52887D01*
X337767D01*
Y52966D01*
X339309D01*
Y55866D01*
Y58766D01*
D02*
G37*
G36*
X334467Y55037D02*
X332666D01*
Y52887D01*
X334467D01*
Y55037D01*
D02*
G37*
G36*
X323659Y52911D02*
X321087D01*
Y51520D01*
X323659D01*
Y52911D01*
D02*
G37*
G36*
X334841Y51448D02*
X332691D01*
Y49648D01*
X334841D01*
Y51448D01*
D02*
G37*
G36*
X343352D02*
X341202D01*
Y49648D01*
X343352D01*
Y51448D01*
D02*
G37*
G36*
X292039Y62039D02*
X287883D01*
Y55520D01*
X288278D01*
Y53746D01*
X287419D01*
Y49246D01*
X292619D01*
Y53746D01*
X291643D01*
Y55520D01*
X292039D01*
Y62039D01*
D02*
G37*
G36*
X350845Y59457D02*
X343146D01*
Y54514D01*
X345070D01*
Y51148D01*
X344152D01*
Y46648D01*
X349352D01*
Y51148D01*
X348435D01*
Y54514D01*
X350845D01*
Y59457D01*
D02*
G37*
G36*
X343352Y48148D02*
X341202D01*
Y46348D01*
X343352D01*
Y48148D01*
D02*
G37*
G36*
X339702Y51448D02*
X336341D01*
Y48898D01*
Y46348D01*
X339702D01*
Y48898D01*
Y51448D01*
D02*
G37*
G36*
X334841Y48148D02*
X332691D01*
Y46348D01*
X334841D01*
Y48148D01*
D02*
G37*
G36*
X306487Y55503D02*
X300442D01*
Y51820D01*
X301822D01*
Y45585D01*
X301950Y44942D01*
X302314Y44396D01*
X302860Y44031D01*
X303504Y43903D01*
X304148Y44031D01*
X304694Y44396D01*
X305058Y44942D01*
X305186Y45585D01*
Y51820D01*
X306487D01*
Y55503D01*
D02*
G37*
G36*
X304425Y31709D02*
X304315D01*
Y31598D01*
X304425Y31709D01*
D02*
G37*
G36*
X359121Y40998D02*
X357847D01*
X356617Y40669D01*
X355514Y40032D01*
X354614Y39131D01*
X353977Y38028D01*
X353647Y36798D01*
Y35525D01*
X353977Y34294D01*
X354614Y33191D01*
X355514Y32291D01*
X356617Y31654D01*
X357847Y31324D01*
X359121D01*
X360351Y31654D01*
X361454Y32291D01*
X362355Y33191D01*
X362992Y34294D01*
X363321Y35525D01*
Y36798D01*
X362992Y38028D01*
X362355Y39131D01*
X361454Y40032D01*
X360351Y40669D01*
X359121Y40998D01*
D02*
G37*
G36*
X324031Y27850D02*
X323134Y26953D01*
X324031D01*
Y27850D01*
D02*
G37*
G36*
X329093Y17530D02*
X326943D01*
Y15730D01*
X329093D01*
Y17530D01*
D02*
G37*
G36*
X306789Y16591D02*
X303980D01*
Y14963D01*
X306789D01*
Y16591D01*
D02*
G37*
G36*
X341526Y12507D02*
X339726D01*
Y10357D01*
X341526D01*
Y12507D01*
D02*
G37*
G36*
Y8857D02*
X339726D01*
Y6707D01*
X341526D01*
Y8857D01*
D02*
G37*
G36*
X309130Y8266D02*
X307502D01*
Y5457D01*
X309130D01*
Y8266D01*
D02*
G37*
G36*
X306002D02*
X304374D01*
Y5457D01*
X306002D01*
Y8266D01*
D02*
G37*
%LPD*%
D21*
X91188Y15505D02*
X113973Y38291D01*
X72205Y15505D02*
X91188D01*
X84449Y146988D02*
X126240Y188779D01*
X47402Y146988D02*
X84449D01*
X44862Y144449D02*
X47402Y146988D01*
X44724Y150650D02*
X80866D01*
X123189Y192972D01*
X41083Y147008D02*
X44724Y150650D01*
X44862Y106219D02*
Y144449D01*
X126240Y188779D02*
X216398D01*
X123189Y192972D02*
X218976D01*
X161482Y73341D02*
X168248Y66575D01*
X214311D02*
X225768Y55118D01*
X168248Y66575D02*
X214311D01*
X169134Y73130D02*
X170748Y71516D01*
X216535D02*
X232461Y55590D01*
X170748Y71516D02*
X216535D01*
X180969Y148528D02*
X182658Y150216D01*
X176850Y147107D02*
Y151673D01*
X178316Y153139D02*
X179145D01*
X176713Y143091D02*
X178839D01*
X180969Y145221D01*
X176850Y151673D02*
X178316Y153139D01*
X179145D02*
X179173Y153110D01*
X180969Y145221D02*
Y148528D01*
X179173Y153110D02*
X209016D01*
X182658Y150216D02*
X205965D01*
X209016Y153110D02*
X211752Y150374D01*
X216398Y188779D02*
X224035Y181142D01*
X218976Y192972D02*
X229134Y182815D01*
X232461Y32461D02*
X245151Y45151D01*
X225768Y35453D02*
X228760Y32461D01*
X245151Y45151D02*
Y45913D01*
X228760Y32461D02*
X232461D01*
X245151Y45913D02*
X245412Y46173D01*
X225768Y35453D02*
Y55118D01*
X41083Y102972D02*
X45138Y98917D01*
X41083Y102972D02*
Y147008D01*
X44862Y106219D02*
X48207Y102874D01*
X151142Y96220D02*
X173445Y118524D01*
X154076Y78228D02*
X156890Y75413D01*
X154076Y93367D02*
X175787Y115079D01*
X151142Y75413D02*
Y96220D01*
X154076Y78228D02*
Y93367D01*
X202933Y88957D02*
Y103543D01*
Y88957D02*
X205821Y86068D01*
X215990D01*
X173445Y118524D02*
X193988D01*
X142913Y94311D02*
X170886Y122283D01*
X196772D02*
X210295Y108760D01*
X175787Y115079D02*
X191398D01*
X170886Y122283D02*
X196772D01*
X193988Y118524D02*
X206520Y105992D01*
X220905Y90984D02*
Y96142D01*
X215990Y86068D02*
X220905Y90984D01*
X217165Y91634D02*
Y95906D01*
X209528Y88642D02*
X214173D01*
X217165Y91634D01*
X206520Y91650D02*
Y105992D01*
Y91650D02*
X209528Y88642D01*
X232461Y46398D02*
Y55590D01*
X48207Y102874D02*
X54772D01*
X45138Y98917D02*
X54843D01*
X229134Y144370D02*
Y182815D01*
X224035Y146004D02*
Y181142D01*
X206870Y128839D02*
X224035Y146004D01*
X194193Y128839D02*
X206870D01*
X212776Y172598D02*
X214016Y171358D01*
Y150960D02*
Y171358D01*
X210240Y125476D02*
X229134Y144370D01*
X194193Y125476D02*
X210240D01*
X194370Y132264D02*
X202126D01*
X209055Y139193D01*
Y147126D01*
X213430Y150374D02*
X214016Y150960D01*
X211752Y150374D02*
X213430D01*
X186994Y99010D02*
X187000Y99004D01*
X186994Y99010D02*
Y105900D01*
X186988Y105905D02*
X186994Y105900D01*
X142913Y90118D02*
Y94311D01*
X205965Y150216D02*
X209055Y147126D01*
X191398Y115079D02*
X202933Y103543D01*
X210295Y95197D02*
Y108760D01*
D24*
X314232Y9016D02*
D03*
X306752D02*
D03*
X289961Y58780D02*
D03*
X297441D02*
D03*
X310413Y94902D02*
D03*
X302933D02*
D03*
D27*
X323543Y14980D02*
D03*
X329843D02*
D03*
X296890Y69016D02*
D03*
X290590D02*
D03*
X296319Y51496D02*
D03*
X290019D02*
D03*
X346752Y48898D02*
D03*
X340452D02*
D03*
X335591D02*
D03*
X329291D02*
D03*
X296851Y73622D02*
D03*
X290551D02*
D03*
X309843Y89370D02*
D03*
X303543D02*
D03*
D29*
X318366Y21044D02*
D03*
Y14744D02*
D03*
X313642Y21044D02*
D03*
Y14744D02*
D03*
X318307Y3287D02*
D03*
Y9587D02*
D03*
X338976Y3307D02*
D03*
Y9607D02*
D03*
X329867Y85040D02*
D03*
Y78740D02*
D03*
X335039D02*
D03*
Y85040D02*
D03*
X340158D02*
D03*
Y78740D02*
D03*
X340059Y55866D02*
D03*
Y62166D02*
D03*
X335216Y62087D02*
D03*
Y55787D02*
D03*
X335206Y67346D02*
D03*
Y73646D02*
D03*
X340058Y73708D02*
D03*
Y67408D02*
D03*
X292382Y84646D02*
D03*
Y78346D02*
D03*
X297028Y84626D02*
D03*
Y78326D02*
D03*
D39*
X307539Y21693D02*
D03*
Y14213D02*
D03*
X307874Y29331D02*
D03*
Y36811D02*
D03*
X314173Y29331D02*
D03*
Y36811D02*
D03*
X320472Y29331D02*
D03*
Y36811D02*
D03*
D101*
X148606Y7817D02*
D03*
X12992Y184252D02*
D03*
D111*
X266000Y69898D02*
X273307Y77205D01*
X266000Y24689D02*
X268757Y21932D01*
X266000Y24689D02*
Y69898D01*
X171460Y86788D02*
X182894Y75354D01*
X171460Y86788D02*
Y90614D01*
X268757Y21932D02*
X272720D01*
X161575Y92795D02*
X181181Y73189D01*
X214528D01*
X222618Y81279D01*
X189961Y110906D02*
X198819Y102047D01*
Y80650D02*
X201850Y77618D01*
X198819Y80650D02*
Y102047D01*
X267087Y81279D02*
X269094Y83287D01*
Y83487D01*
X273307Y77205D02*
Y85807D01*
X221142Y87835D02*
X271280D01*
X273307Y85807D01*
X221398Y84153D02*
X261043D01*
X210925Y77618D02*
X221142Y87835D01*
X201850Y77618D02*
X210925D01*
X222618Y81279D02*
X267087D01*
X212598Y75354D02*
X221398Y84153D01*
X182894Y75354D02*
X212598D01*
X180315Y110906D02*
X189961D01*
X171555Y102146D02*
X180315Y110906D01*
X171555Y94547D02*
Y102146D01*
D112*
X78755Y38846D02*
X81656Y35945D01*
X99468D01*
X260118Y225650D02*
Y228268D01*
X251929Y236457D02*
X260118Y228268D01*
X236201Y236457D02*
X251929D01*
X228720Y243937D02*
Y253346D01*
Y243937D02*
X236201Y236457D01*
D113*
X129496Y70842D02*
G03*
X127026Y70842I-1235J0D01*
G01*
X125556Y68993D02*
G03*
X127026Y70462I0J1470D01*
G01*
X129496D02*
G03*
X130965Y68993I1470J0D01*
G01*
X134170Y66523D02*
X162071D01*
X212585Y57598D02*
X213032Y57152D01*
X170995Y57598D02*
X212585D01*
X172018Y60068D02*
X212585D01*
X120859Y66523D02*
X134170D01*
X162071D02*
X170995Y57598D01*
X134170Y68993D02*
X163094D01*
X172018Y60068D01*
X212585D02*
X213032Y60514D01*
X117598Y69784D02*
X120859Y66523D01*
X124463Y92819D02*
X124705D01*
X116454Y93265D02*
X124017D01*
X114784Y76091D02*
Y91594D01*
Y76091D02*
X117569Y73306D01*
X112314Y75068D02*
X117598Y69784D01*
X124017Y93265D02*
X124463Y92819D01*
X114784Y91594D02*
X116454Y93265D01*
X124463Y96181D02*
X124705D01*
X124017Y95735D02*
X124463Y96181D01*
X115431Y95735D02*
X124017D01*
X112314Y75068D02*
Y92617D01*
X115431Y95735D01*
X129496Y70462D02*
Y70842D01*
X130965Y68993D02*
X134170D01*
X117569Y73306D02*
X118304Y72571D01*
X127026Y70462D02*
Y70842D01*
X121882Y68993D02*
X125556D01*
X118304Y72571D02*
X121882Y68993D01*
D114*
X160787Y120984D02*
X172146Y132343D01*
X158543Y125866D02*
X166297Y133620D01*
Y178703D01*
X172146Y132343D02*
Y178839D01*
D116*
X303504Y45585D02*
Y53622D01*
X303465Y53661D02*
X303504Y53622D01*
X320485Y58661D02*
X328150D01*
X319606Y59540D02*
X320485Y58661D01*
X319606Y59540D02*
Y92461D01*
X330236Y103091D01*
X352835Y62165D02*
X356555Y65886D01*
X332244Y62165D02*
X352835D01*
X356555Y65886D02*
Y90945D01*
X330236Y117264D02*
X356555Y90945D01*
X328150Y58661D02*
X329291Y57520D01*
Y48898D02*
Y57520D01*
X346752Y56742D02*
X346995Y56985D01*
X346752Y48898D02*
Y56742D01*
X324409Y63661D02*
X330748D01*
X332244Y62165D01*
X331417Y67303D02*
X339953D01*
X346001Y67408D02*
X346995Y68402D01*
X340058Y67408D02*
X346001D01*
X339953Y67303D02*
X340058Y67408D01*
X330059Y68661D02*
X331417Y67303D01*
X324409Y68661D02*
X330059D01*
X346984Y73646D02*
X347005Y73624D01*
X335206Y73646D02*
X346984D01*
X335190Y73661D02*
X335206Y73646D01*
X324409Y73661D02*
X335190D01*
X329867Y78740D02*
X335039D01*
X340158D01*
X329788Y78661D02*
X329867Y78740D01*
X324409Y78661D02*
X329788D01*
X340158Y85040D02*
X347003D01*
X347005Y85042D01*
X329867Y85040D02*
X335039D01*
X329513Y85394D02*
X329867Y85040D01*
X327323Y85394D02*
X329513D01*
X325590Y83661D02*
X327323Y85394D01*
X324409Y83661D02*
X325590D01*
X305506Y83270D02*
X311378Y77398D01*
Y47402D02*
X316439Y42341D01*
X311378Y47402D02*
Y77398D01*
X316439Y39077D02*
Y42341D01*
X315280Y36811D02*
X315908Y37439D01*
Y38546D01*
X316439Y39077D01*
X314173Y36811D02*
X315280D01*
X303856Y83270D02*
X305506D01*
X303465Y83661D02*
X303856Y83270D01*
X297008Y78346D02*
X297028Y78326D01*
X292382Y78346D02*
X297008D01*
X295236Y36850D02*
X295276Y36811D01*
X295236Y36850D02*
Y42598D01*
X296319Y43681D02*
Y51496D01*
X295236Y42598D02*
X296319Y43681D01*
X289961Y51555D02*
X290019Y51496D01*
X289961Y51555D02*
Y58780D01*
X297441D02*
X297539Y58681D01*
X303445D02*
X303465Y58661D01*
X297539Y58681D02*
X303445D01*
X298406Y63681D02*
X303445D01*
X303465Y63661D01*
X296890Y65197D02*
X298406Y63681D01*
X296890Y65197D02*
Y69016D01*
X297240D01*
X298040Y68216D01*
X296851Y73622D02*
X303425D01*
X303465Y73661D01*
X297363Y78661D02*
X303465D01*
X297028Y78326D02*
X297363Y78661D01*
X326701Y29933D02*
X329843Y26791D01*
X323847Y29933D02*
X326701D01*
X329843Y14980D02*
Y26791D01*
X323780Y30000D02*
X323847Y29933D01*
X329843Y14980D02*
X338275D01*
X329493D02*
X329843D01*
X323543Y10670D02*
Y14980D01*
Y10670D02*
X323622Y10590D01*
X338275Y14980D02*
X339154Y14102D01*
Y9784D02*
Y14102D01*
X328236Y6850D02*
X329114Y7729D01*
X323622Y6850D02*
X328236D01*
X328461Y3110D02*
X332510Y7159D01*
X332942Y10590D02*
X333858D01*
X329114Y14602D02*
X329493Y14980D01*
X329114Y7729D02*
Y14602D01*
X332510Y10159D02*
X332942Y10590D01*
X332510Y7159D02*
Y10159D01*
X323543Y3189D02*
X323622Y3110D01*
X318307Y3287D02*
X318405Y3189D01*
X323543D01*
X323622Y3110D02*
X328461D01*
X323406Y21142D02*
X323543Y21004D01*
Y14980D02*
Y21004D01*
X320472Y36811D02*
X324626D01*
X334823Y21142D02*
Y26614D01*
X324626Y36811D02*
X334823Y26614D01*
X335258Y21577D02*
X344978D01*
X334823Y21142D02*
X335258Y21577D01*
X344978D02*
X346850Y19705D01*
X307933Y3701D02*
X309567D01*
X306752Y4882D02*
X307933Y3701D01*
X306752Y4882D02*
Y9016D01*
Y13425D02*
X307539Y14213D01*
X306752Y9016D02*
Y13425D01*
X346850Y6831D02*
Y19705D01*
X343326Y3307D02*
X346850Y6831D01*
X338976Y3307D02*
X343326D01*
X338976Y9607D02*
X339154Y9784D01*
X333858Y3110D02*
X338780D01*
X338976Y3307D01*
X318307Y9587D02*
Y14685D01*
X318366Y14744D01*
X314232Y9016D02*
X314804Y9587D01*
X318307D01*
X313642Y14744D02*
X318366D01*
X317717Y21693D02*
X318366Y21044D01*
X307539Y21693D02*
X317717D01*
X307343Y21496D02*
X307539Y21693D01*
X303602Y21496D02*
X307343D01*
X301201Y19094D02*
X303602Y21496D01*
X295276Y19094D02*
X301201D01*
X125728Y123150D02*
X134370Y114508D01*
X70768Y123150D02*
X125728D01*
X185768Y78130D02*
X194508Y86870D01*
X190787Y99301D02*
X194508Y95580D01*
Y86870D02*
Y95580D01*
D117*
X66063Y111417D02*
X119685D01*
X54862Y122618D02*
X66063Y111417D01*
D118*
X237362Y324229D02*
X242362Y329229D01*
Y351181D01*
X237362Y323189D02*
Y324229D01*
X189724Y324503D02*
X194724Y329503D01*
X189724Y323463D02*
Y324503D01*
X194724Y329503D02*
Y351181D01*
D121*
X270892Y39459D02*
D03*
Y33554D02*
D03*
Y27648D02*
D03*
Y21743D02*
D03*
Y15837D02*
D03*
Y9932D02*
D03*
X295276Y7283D02*
D03*
Y13189D02*
D03*
Y19094D02*
D03*
Y25000D02*
D03*
Y30906D02*
D03*
Y36811D02*
D03*
D122*
X358484Y36161D02*
D03*
Y129724D02*
D03*
X293091Y128898D02*
D03*
X173721Y365295D02*
D03*
X56968Y137224D02*
D03*
X232480Y14370D02*
D03*
D123*
X316063Y117264D02*
D03*
X330236D02*
D03*
Y103091D02*
D03*
X247152Y146184D02*
D03*
X247349Y116361D02*
D03*
X228720Y253346D02*
D03*
X218789Y46663D02*
D03*
X54862Y122618D02*
D03*
D124*
X34646Y240551D02*
D03*
X14961D02*
D03*
X34646Y283465D02*
D03*
X14961D02*
D03*
X170079Y351181D02*
D03*
X51968D02*
D03*
X72492Y313158D02*
D03*
X151232D02*
D03*
X131547Y234418D02*
D03*
X92177D02*
D03*
X20728Y111476D02*
D03*
Y131161D02*
D03*
D125*
X148606Y25534D02*
D03*
X43307Y165354D02*
D03*
D126*
X167503Y38132D02*
D03*
X30709Y184252D02*
D03*
D127*
X144275Y50337D02*
D03*
D128*
X71161Y57943D02*
D03*
Y50718D02*
D03*
X67549Y61555D02*
D03*
Y54331D02*
D03*
Y47106D02*
D03*
X63937Y57943D02*
D03*
Y50718D02*
D03*
X60325Y61555D02*
D03*
Y54331D02*
D03*
Y47106D02*
D03*
X56713Y57943D02*
D03*
Y50718D02*
D03*
D129*
X237362Y323189D02*
D03*
X267362Y313189D02*
D03*
Y253189D02*
D03*
X237362Y293189D02*
D03*
Y253189D02*
D03*
X189724Y323463D02*
D03*
X219724Y313463D02*
D03*
Y253463D02*
D03*
X189724Y293463D02*
D03*
Y253463D02*
D03*
D130*
X242362Y351181D02*
D03*
X262362D02*
D03*
X194724D02*
D03*
X214724D02*
D03*
X25197Y331339D02*
D03*
Y351339D02*
D03*
D131*
X55512Y188583D02*
D03*
D132*
X244500Y6000D02*
D03*
X251100D02*
D03*
X257700D02*
D03*
X212776Y172598D02*
D03*
X187000Y99004D02*
D03*
X194193Y132264D02*
D03*
X220905Y96142D02*
D03*
X172146Y178839D02*
D03*
X176939Y147105D02*
D03*
X169130Y73066D02*
D03*
X158543Y125866D02*
D03*
X160759Y120978D02*
D03*
X186988Y105905D02*
D03*
X203364Y24714D02*
D03*
X171460Y90614D02*
D03*
X72205Y15505D02*
D03*
X160709Y62618D02*
D03*
X141319Y63602D02*
D03*
Y59606D02*
D03*
X156929Y71890D02*
D03*
X147658Y74154D02*
D03*
X207028Y208976D02*
D03*
X200335D02*
D03*
X303504Y45585D02*
D03*
X318563Y25374D02*
D03*
X308780Y25591D02*
D03*
X309567Y3701D02*
D03*
X260118Y225650D02*
D03*
X173839Y108740D02*
D03*
X199823Y68976D02*
D03*
X213032Y83425D02*
D03*
X44331Y153189D02*
D03*
X48150Y135197D02*
D03*
X77579Y161713D02*
D03*
X95925Y190630D02*
D03*
X114567Y190354D02*
D03*
X88346Y171063D02*
D03*
X127854Y180807D02*
D03*
X122106Y180591D02*
D03*
X133976Y176299D02*
D03*
X122028Y162343D02*
D03*
X65807Y144528D02*
D03*
X119193Y62697D02*
D03*
X124843D02*
D03*
X137165Y85295D02*
D03*
X118799Y79626D02*
D03*
X118661Y85295D02*
D03*
X109862Y98150D02*
D03*
X183642Y63504D02*
D03*
X175807Y94547D02*
D03*
X175768Y99390D02*
D03*
X154331Y109390D02*
D03*
X170098Y104744D02*
D03*
X166732Y99390D02*
D03*
X257874Y33504D02*
D03*
X251673D02*
D03*
X187697Y69114D02*
D03*
X138524Y79272D02*
D03*
X140689Y145846D02*
D03*
Y138839D02*
D03*
Y130709D02*
D03*
Y124784D02*
D03*
Y119468D02*
D03*
X210669Y175453D02*
D03*
Y179252D02*
D03*
X206437Y184961D02*
D03*
X188268Y169193D02*
D03*
X177646Y169198D02*
D03*
X158760Y155847D02*
D03*
X153986Y150157D02*
D03*
X162972Y152461D02*
D03*
X158760D02*
D03*
X162972Y155847D02*
D03*
X166297Y178703D02*
D03*
X176713Y143091D02*
D03*
X200335Y184961D02*
D03*
X245827Y39154D02*
D03*
X213032Y60514D02*
D03*
X24646Y25394D02*
D03*
X24473Y18316D02*
D03*
Y11993D02*
D03*
Y4173D02*
D03*
X64646Y16693D02*
D03*
X80335Y132421D02*
D03*
X76398D02*
D03*
X68465D02*
D03*
X72402D02*
D03*
X66535Y173228D02*
D03*
X70768Y123150D02*
D03*
X269094Y83487D02*
D03*
X261043Y84153D02*
D03*
X151142Y75413D02*
D03*
X156890D02*
D03*
X161890Y73130D02*
D03*
X185768Y78130D02*
D03*
X217165Y95906D02*
D03*
X171555Y94547D02*
D03*
X161575Y92795D02*
D03*
X194193Y125476D02*
D03*
X194193Y128839D02*
D03*
X142913Y90118D02*
D03*
X49646Y3898D02*
D03*
X45551D02*
D03*
Y6457D02*
D03*
X113973Y38291D02*
D03*
X54772Y102874D02*
D03*
X54843Y98917D02*
D03*
X58661Y198031D02*
D03*
X62598D02*
D03*
X66535D02*
D03*
X58661Y173228D02*
D03*
X62598D02*
D03*
X190787Y99301D02*
D03*
X114173Y107480D02*
D03*
X210295Y95197D02*
D03*
X134370Y114508D02*
D03*
X213032Y57152D02*
D03*
X124705Y96181D02*
D03*
Y92819D02*
D03*
X245412Y46173D02*
D03*
X232461Y46398D02*
D03*
X257800Y53000D02*
D03*
Y49000D02*
D03*
X232461Y39026D02*
D03*
X119685Y111417D02*
D03*
X114173Y115354D02*
D03*
D133*
X203263Y42327D02*
D03*
X165591Y72658D02*
D03*
D135*
X104646Y54110D02*
Y107437D01*
X107575Y51181D02*
X144275D01*
X104646Y54110D02*
X107575Y51181D01*
X104646Y107437D02*
X104689Y107480D01*
X114173D01*
X218721Y46732D02*
X218789Y46663D01*
X185288Y46732D02*
X218721D01*
X182197Y49823D02*
X185288Y46732D01*
X144674Y49937D02*
X149693D01*
X149808Y49823D02*
X182197D01*
X149693Y49937D02*
X149808Y49823D01*
X144275Y50337D02*
X144674Y49937D01*
X144275Y51181D02*
X145119Y50337D01*
D184*
X333858Y3110D02*
D03*
Y10590D02*
D03*
X323622D02*
D03*
Y6850D02*
D03*
Y3110D02*
D03*
D185*
X323406Y21142D02*
D03*
X334823D02*
D03*
D186*
X346995Y68402D02*
D03*
Y56985D02*
D03*
X347005Y73624D02*
D03*
Y85042D02*
D03*
D187*
X324409Y83661D02*
D03*
Y78661D02*
D03*
Y73661D02*
D03*
Y68661D02*
D03*
Y63661D02*
D03*
Y58661D02*
D03*
Y53661D02*
D03*
X303465Y83661D02*
D03*
Y78661D02*
D03*
Y73661D02*
D03*
Y68661D02*
D03*
Y63661D02*
D03*
Y58661D02*
D03*
Y53661D02*
D03*
D188*
X292382Y84646D02*
Y100177D01*
X309390Y117185D01*
X316102Y55126D02*
X317567Y53661D01*
X324409D01*
X316102Y55126D02*
Y108937D01*
X309985Y89370D02*
X310285Y89670D01*
X309843Y89370D02*
X309985D01*
X310285Y89670D02*
Y94774D01*
X310413Y94902D01*
X324409Y46378D02*
X328858Y41929D01*
X324409Y46378D02*
Y53661D01*
X328858Y41929D02*
X332362D01*
X335591Y45158D01*
Y48898D01*
X340359D02*
X340452D01*
X335591D02*
X340359D01*
X340059Y49198D02*
X340359Y48898D01*
X340059Y49198D02*
Y55866D01*
X335216Y55787D02*
X339980D01*
X340059Y55866D01*
X309390Y117185D02*
X316063D01*
X316102Y108937D02*
Y117185D01*
X310413Y103248D02*
X316102Y108937D01*
X290551Y73622D02*
X290570Y73602D01*
Y69035D02*
Y73602D01*
Y69035D02*
X290590Y69016D01*
X286063Y83474D02*
X287235Y84646D01*
X286063Y78110D02*
Y83474D01*
Y78110D02*
X290551Y73622D01*
X287235Y84646D02*
X292382D01*
X310413Y94902D02*
Y103248D01*
D189*
X25807Y29579D02*
D03*
M02*
