G04*
G04 #@! TF.GenerationSoftware,Altium Limited,Altium Designer,21.1.1 (26)*
G04*
G04 Layer_Physical_Order=1*
G04 Layer_Color=255*
%FSLAX25Y25*%
%MOIN*%
G70*
G04*
G04 #@! TF.SameCoordinates,6B619DD0-B0A8-45CE-B01B-E577E84972AB*
G04*
G04*
G04 #@! TF.FilePolarity,Positive*
G04*
G01*
G75*
%ADD21C,0.01000*%
%ADD23R,0.04134X0.02165*%
%ADD24R,0.02756X0.05118*%
%ADD25R,0.07874X0.04331*%
%ADD26R,0.01968X0.05906*%
%ADD27R,0.03800X0.03100*%
%ADD28R,0.04331X0.03150*%
%ADD29R,0.03100X0.03800*%
%ADD30R,0.04724X0.06299*%
%ADD31R,0.12992X0.06299*%
G04:AMPARAMS|DCode=32|XSize=31mil|YSize=38mil|CornerRadius=0mil|HoleSize=0mil|Usage=FLASHONLY|Rotation=135.000|XOffset=0mil|YOffset=0mil|HoleType=Round|Shape=Rectangle|*
%AMROTATEDRECTD32*
4,1,4,0.02439,0.00248,-0.00248,-0.02439,-0.02439,-0.00248,0.00248,0.02439,0.02439,0.00248,0.0*
%
%ADD32ROTATEDRECTD32*%

G04:AMPARAMS|DCode=33|XSize=31mil|YSize=38mil|CornerRadius=0mil|HoleSize=0mil|Usage=FLASHONLY|Rotation=45.000|XOffset=0mil|YOffset=0mil|HoleType=Round|Shape=Rectangle|*
%AMROTATEDRECTD33*
4,1,4,0.00248,-0.02439,-0.02439,0.00248,-0.00248,0.02439,0.02439,-0.00248,0.00248,-0.02439,0.0*
%
%ADD33ROTATEDRECTD33*%

G04:AMPARAMS|DCode=34|XSize=62.99mil|YSize=49.21mil|CornerRadius=0mil|HoleSize=0mil|Usage=FLASHONLY|Rotation=315.000|XOffset=0mil|YOffset=0mil|HoleType=Round|Shape=Rectangle|*
%AMROTATEDRECTD34*
4,1,4,-0.03967,0.00487,-0.00487,0.03967,0.03967,-0.00487,0.00487,-0.03967,-0.03967,0.00487,0.0*
%
%ADD34ROTATEDRECTD34*%

%ADD35R,0.01181X0.04724*%
%ADD36R,0.04724X0.01181*%
%ADD37R,0.02362X0.05354*%
%ADD38R,0.02165X0.04134*%
%ADD39R,0.05118X0.02756*%
%ADD40R,0.01968X0.03937*%
%ADD41R,0.10236X0.14567*%
%ADD42R,0.01575X0.05315*%
%ADD43R,0.08268X0.06299*%
%ADD44R,0.07480X0.07087*%
%ADD45R,0.12992X0.17323*%
%ADD46R,0.15354X0.24410*%
%ADD47R,0.02756X0.05906*%
%ADD48R,0.03937X0.03150*%
%ADD49R,0.05236X0.05236*%
%ADD50R,0.03543X0.07874*%
%ADD51R,0.07874X0.03543*%
%ADD52R,0.17323X0.12992*%
%ADD53R,0.24410X0.15354*%
%ADD54R,0.05118X0.13386*%
%ADD55R,0.05906X0.01968*%
%ADD56R,0.08858X0.08346*%
%ADD57R,0.11811X0.07874*%
%ADD58R,0.06299X0.06299*%
%ADD59R,0.06102X0.04724*%
%ADD101C,0.08268*%
%ADD111C,0.00800*%
%ADD112C,0.03000*%
%ADD113C,0.01470*%
%ADD114C,0.01100*%
%ADD115C,0.01200*%
%ADD116C,0.01500*%
%ADD117C,0.02000*%
%ADD118C,0.06000*%
%ADD119C,0.04500*%
%ADD120C,0.00100*%
%ADD121R,0.06437X0.04941*%
%ADD122O,0.06693X0.04724*%
%ADD123C,0.06000*%
%ADD124C,0.03937*%
%ADD125C,0.07874*%
%ADD126O,0.15748X0.07874*%
%ADD127O,0.07874X0.15748*%
%ADD128O,0.14173X0.07087*%
%ADD129C,0.01181*%
%ADD130C,0.09843*%
%ADD131C,0.11811*%
%ADD132O,0.07087X0.14173*%
%ADD133C,0.02362*%
%ADD134C,0.01772*%
G36*
X131886Y216145D02*
X146854Y216138D01*
X147638Y215354D01*
X147638Y206693D01*
X146851Y205906D01*
X126871Y205906D01*
X108685Y221654D01*
X90551Y221654D01*
X82677Y226378D01*
Y238189D01*
X90551Y244094D01*
X103937D01*
X131886Y216145D01*
D02*
G37*
G36*
X112205Y215354D02*
Y207087D01*
X110236Y205118D01*
X96063D01*
X94095Y207087D01*
Y214567D01*
X96063Y216535D01*
X111024D01*
X112205Y215354D01*
D02*
G37*
G36*
X41943Y290158D02*
X44882Y287218D01*
X44882Y235039D01*
X62205Y217717D01*
X88583Y217717D01*
X88583Y199606D01*
X79875Y199606D01*
X68851Y206299D01*
X57086Y206299D01*
X27559Y235827D01*
X27559Y287259D01*
X30458Y290158D01*
X32283Y290158D01*
X41943Y290158D01*
D02*
G37*
G36*
X169291Y244094D02*
X169291Y192822D01*
X164989Y188189D01*
X146177D01*
Y189531D01*
X142126D01*
X138075D01*
Y188189D01*
X135433D01*
Y194488D01*
X137402Y196850D01*
X153937D01*
Y220079D01*
X148031Y224016D01*
X129921D01*
X124803Y229134D01*
Y238976D01*
X129921Y244094D01*
X169291Y244094D01*
D02*
G37*
G36*
X19094Y290413D02*
X19095Y290413D01*
X22244Y287264D01*
X22244Y287264D01*
X22274Y287293D01*
X23248Y286319D01*
Y224035D01*
X27539Y219744D01*
X40571D01*
X57421Y202894D01*
X68858D01*
X73287Y199016D01*
X79472D01*
X79504Y198996D01*
X79556Y198977D01*
X79602Y198947D01*
X79686Y198930D01*
X79766Y198901D01*
X79821Y198903D01*
X79875Y198893D01*
X88583Y198893D01*
X88856Y198947D01*
X88959Y199016D01*
X110551D01*
X124370Y185197D01*
X162343D01*
X164823Y185197D01*
X171516Y191890D01*
Y230157D01*
X214184D01*
Y230137D01*
X219384D01*
Y230157D01*
X220484D01*
Y230137D01*
X221606D01*
Y227653D01*
X217478Y223526D01*
X186102D01*
X185537Y223413D01*
X185057Y223093D01*
X179329Y217364D01*
X179008Y216885D01*
X178896Y216319D01*
Y193392D01*
X165664Y180160D01*
X165397Y180050D01*
X164950Y179603D01*
X164708Y179019D01*
Y178387D01*
X164950Y177803D01*
X165397Y177356D01*
X165981Y177114D01*
X166613D01*
X167197Y177356D01*
X167644Y177803D01*
X167755Y178070D01*
X181419Y191734D01*
X181740Y192214D01*
X181852Y192779D01*
Y215706D01*
X186715Y220569D01*
X218091D01*
X218656Y220681D01*
X219136Y221002D01*
X224130Y225995D01*
X224450Y226475D01*
X224563Y227041D01*
Y230137D01*
X225684D01*
Y230157D01*
X231258D01*
Y230137D01*
X236458D01*
Y230157D01*
X237558D01*
Y230137D01*
X237885D01*
X238077Y229675D01*
X226474Y218073D01*
X190866D01*
X190300Y217960D01*
X189821Y217640D01*
X184899Y212719D01*
X184579Y212239D01*
X184467Y211673D01*
Y188624D01*
X176277Y180435D01*
X172146D01*
X172108Y180428D01*
X171830D01*
X171246Y180186D01*
X170799Y179739D01*
X170557Y179155D01*
Y178523D01*
X170799Y177938D01*
X171246Y177491D01*
X171830Y177250D01*
X172462D01*
X173014Y177478D01*
X176890D01*
X177455Y177591D01*
X177935Y177911D01*
X186990Y186966D01*
X187311Y187446D01*
X187423Y188012D01*
Y211061D01*
X191479Y215116D01*
X227087D01*
X227652Y215229D01*
X228132Y215549D01*
X241203Y228620D01*
X241524Y229100D01*
X241636Y229666D01*
Y230137D01*
X242758D01*
Y230157D01*
X260177D01*
X278073Y212262D01*
X278073Y138583D01*
X278181Y138036D01*
X278209Y137995D01*
Y13381D01*
X278208Y13381D01*
X277978Y13216D01*
X277709Y13136D01*
X277673Y13159D01*
X277673Y13159D01*
X277673Y13160D01*
X277532Y13187D01*
X277400Y13214D01*
X274731D01*
X274485Y13714D01*
X274813Y14141D01*
X274894Y14337D01*
X266890D01*
X266971Y14141D01*
X267299Y13714D01*
X267053Y13214D01*
X242191Y13214D01*
X242190Y13214D01*
X242190Y13214D01*
X242049Y13185D01*
X241917Y13159D01*
X241917Y13159D01*
X241917Y13159D01*
X241794Y13077D01*
X241686Y13005D01*
X241686Y13005D01*
X241686Y13004D01*
X240995Y12313D01*
X240910Y12185D01*
X240840Y12082D01*
X240840Y12082D01*
X240840Y12082D01*
X240812Y11941D01*
X240786Y11809D01*
X240786Y6300D01*
X240817Y6147D01*
X240841Y6027D01*
X240841Y6027D01*
X240841Y6027D01*
X240918Y5911D01*
X240995Y5796D01*
X243295Y3495D01*
X243295Y3495D01*
X243430Y3405D01*
X243527Y3341D01*
X243527Y3341D01*
X243527Y3341D01*
X243683Y3309D01*
X243800Y3286D01*
X243800Y3286D01*
X243800Y3286D01*
X275951Y3286D01*
X276142Y2824D01*
X273958Y640D01*
X119872D01*
X112947Y7565D01*
X112708Y7961D01*
X112708D01*
X112708Y7961D01*
Y12511D01*
X108268D01*
Y17812D01*
X108380Y18266D01*
X112880D01*
Y23466D01*
X108380D01*
X108268Y23919D01*
Y24112D01*
X108380Y24566D01*
X108768Y24566D01*
X112880D01*
Y29766D01*
X112057D01*
Y37457D01*
X112557Y37557D01*
X112626Y37390D01*
X113073Y36943D01*
X113657Y36702D01*
X114289D01*
X114873Y36943D01*
X115320Y37390D01*
X115562Y37974D01*
Y38607D01*
X115320Y39191D01*
X115279Y39232D01*
Y89617D01*
X115601Y89750D01*
X140474D01*
Y91986D01*
X141965D01*
X142064Y91486D01*
X142013Y91465D01*
X141566Y91018D01*
X141324Y90434D01*
Y89802D01*
X141566Y89218D01*
X142013Y88771D01*
X142064Y88750D01*
X141965Y88250D01*
X141549D01*
Y87128D01*
X137520D01*
X136954Y87016D01*
X136608Y86784D01*
X136265Y86642D01*
X135818Y86195D01*
X135576Y85611D01*
Y84979D01*
X135818Y84395D01*
X136265Y83948D01*
X136849Y83706D01*
X137481D01*
X138066Y83948D01*
X138289Y84172D01*
X141549D01*
Y83050D01*
X146049D01*
Y85820D01*
X148957D01*
X149429Y85914D01*
X152078D01*
Y87583D01*
X152378D01*
Y88423D01*
X152078D01*
Y88495D01*
X149191D01*
X149016Y88530D01*
Y89714D01*
X149562Y89823D01*
X149604Y89851D01*
X152078D01*
Y89923D01*
X152378D01*
Y90764D01*
X152078D01*
Y94401D01*
X152078D01*
Y99694D01*
X152078D01*
Y101662D01*
Y105599D01*
Y110149D01*
X149191D01*
X149016Y110184D01*
X143996D01*
X143489Y110083D01*
X143059Y109795D01*
X142935Y109672D01*
X140474D01*
Y110597D01*
X135274D01*
Y106349D01*
X134174D01*
Y110597D01*
X133441D01*
X133356Y111097D01*
X135560Y113300D01*
X135560Y113300D01*
X135924Y113846D01*
X136052Y114489D01*
X136052Y114489D01*
Y114508D01*
X135924Y115152D01*
X135560Y115698D01*
X135014Y116062D01*
X134370Y116190D01*
X133726Y116062D01*
X133180Y115698D01*
X133143Y115642D01*
X130425Y112923D01*
X130060Y112377D01*
X129932Y111733D01*
Y110597D01*
X128974D01*
Y106349D01*
X123209D01*
X123209Y106349D01*
X122662Y106240D01*
X122199Y105931D01*
X122199Y105931D01*
X109621Y93352D01*
X109311Y92889D01*
X109203Y92343D01*
X109203Y92343D01*
Y30119D01*
X108849Y29766D01*
X108380Y29766D01*
X108268Y30219D01*
Y32996D01*
X108283D01*
Y38539D01*
X108268D01*
Y92835D01*
X104646Y96457D01*
X56270D01*
Y98211D01*
X56432Y98601D01*
Y99233D01*
X56190Y99817D01*
X55743Y100264D01*
X55159Y100506D01*
X54526D01*
X53942Y100264D01*
X53496Y99817D01*
X53254Y99233D01*
Y98601D01*
X53415Y98211D01*
Y96457D01*
X50788D01*
Y98375D01*
X53715Y101303D01*
X54413D01*
X54455Y101285D01*
X55088D01*
X55672Y101527D01*
X56119Y101974D01*
X56360Y102558D01*
Y103190D01*
X56119Y103774D01*
X55672Y104221D01*
X55088Y104463D01*
X54455D01*
X53871Y104221D01*
X53808Y104157D01*
X53124D01*
X53124Y104157D01*
X52578Y104049D01*
X52114Y103739D01*
X52114Y103739D01*
X48351Y99976D01*
X48041Y99513D01*
X47933Y98966D01*
X47933Y98966D01*
Y96457D01*
X37181D01*
Y96669D01*
X31638D01*
Y96457D01*
X15492D01*
X3287Y108661D01*
Y287264D01*
X6437Y290413D01*
X18655D01*
X19094Y290413D01*
D02*
G37*
G36*
X81063Y65748D02*
Y39291D01*
X78701Y37677D01*
X44587D01*
X36650Y29740D01*
X35160D01*
Y24803D01*
X34410D01*
Y24053D01*
X31638D01*
Y20095D01*
X29709D01*
Y17285D01*
X32087D01*
X34465D01*
Y19866D01*
X36235D01*
X36235Y18105D01*
X35827Y17697D01*
X35827Y1969D01*
X34965Y1106D01*
X34465Y1314D01*
Y3069D01*
X32087D01*
X29709D01*
Y807D01*
X23445Y807D01*
X22638Y1614D01*
Y2271D01*
X23100Y2462D01*
X23238Y2324D01*
X23473Y2227D01*
Y4173D01*
Y6120D01*
X23238Y6022D01*
X23100Y5884D01*
X22638Y6076D01*
Y10091D01*
X23100Y10282D01*
X23238Y10144D01*
X23473Y10047D01*
Y11993D01*
Y13940D01*
X23238Y13842D01*
X23100Y13704D01*
X22638Y13896D01*
Y16414D01*
X23100Y16605D01*
X23238Y16467D01*
X23473Y16370D01*
Y18316D01*
Y20263D01*
X23238Y20165D01*
X23100Y20027D01*
X22638Y20219D01*
Y23610D01*
X23138Y23817D01*
X23410Y23545D01*
X23646Y23447D01*
Y25394D01*
Y27340D01*
X23410Y27243D01*
X23138Y26970D01*
X22638Y27178D01*
Y29112D01*
X22618Y29101D01*
Y44980D01*
X42598Y64961D01*
X47500D01*
X53465Y70728D01*
X73957D01*
X81063Y65748D01*
D02*
G37*
G36*
X46870Y28780D02*
X46870Y17913D01*
X48544Y16240D01*
X53425D01*
X54724Y15338D01*
Y11890D01*
X52894Y10059D01*
X49065D01*
X48493Y10631D01*
X48493Y11743D01*
X47244Y12992D01*
X44311Y12992D01*
X43366Y13937D01*
Y18386D01*
X42011Y19741D01*
Y28822D01*
X42244Y29055D01*
X46595D01*
X46870Y28780D01*
D02*
G37*
G36*
X278200Y11700D02*
X278200Y5100D01*
X277100Y4000D01*
X243800Y4000D01*
X241500Y6300D01*
X241500Y11809D01*
X242191Y12500D01*
X277400Y12500D01*
X278200Y11700D01*
D02*
G37*
G36*
X47461Y7205D02*
X48524Y6142D01*
X51102D01*
X52638Y4882D01*
Y2913D01*
X51102Y1260D01*
X45453D01*
X45453Y1260D01*
X45453Y1261D01*
Y7205D01*
X47461D01*
X47461Y7205D01*
Y7205D01*
D02*
G37*
G36*
X41260Y29055D02*
Y18976D01*
X41969Y18268D01*
X41969Y12697D01*
X42795Y11870D01*
X46949D01*
X47461Y11358D01*
Y7205D01*
X45453Y7205D01*
X45453Y1260D01*
X37874Y1260D01*
X36949Y2185D01*
X36949Y28484D01*
X37481Y29055D01*
X41260Y29055D01*
D02*
G37*
G36*
X364744Y136634D02*
X365649Y135728D01*
X365650Y2224D01*
X364331Y905D01*
X284646D01*
X283500Y2051D01*
X283500Y132996D01*
X287107Y136634D01*
X364744Y136634D01*
D02*
G37*
%LPC*%
G36*
X92927Y239328D02*
Y235168D01*
X97087D01*
X96778Y236324D01*
X96128Y237450D01*
X95209Y238369D01*
X94083Y239019D01*
X92927Y239328D01*
D02*
G37*
G36*
X91427Y239328D02*
X90272Y239019D01*
X89146Y238369D01*
X88227Y237450D01*
X87577Y236324D01*
X87267Y235168D01*
X91427D01*
Y239328D01*
D02*
G37*
G36*
X97087Y233668D02*
X92927D01*
Y229508D01*
X94083Y229818D01*
X95209Y230468D01*
X96128Y231387D01*
X96778Y232512D01*
X97087Y233668D01*
D02*
G37*
G36*
X91427D02*
X87267D01*
X87577Y232512D01*
X88227Y231387D01*
X89146Y230468D01*
X90272Y229818D01*
X91427Y229508D01*
Y233668D01*
D02*
G37*
G36*
X146177Y214405D02*
X142876D01*
Y211793D01*
X146177D01*
Y214405D01*
D02*
G37*
G36*
X141376D02*
X138075D01*
Y211793D01*
X141376D01*
Y214405D01*
D02*
G37*
G36*
X146177Y210293D02*
X142876D01*
Y207681D01*
X146177D01*
Y210293D01*
D02*
G37*
G36*
X141376D02*
X138075D01*
Y207681D01*
X141376D01*
Y210293D01*
D02*
G37*
G36*
X35396Y288375D02*
Y284215D01*
X39556D01*
X39246Y285370D01*
X38596Y286496D01*
X37677Y287415D01*
X36551Y288065D01*
X35396Y288375D01*
D02*
G37*
G36*
X33896Y288375D02*
X32740Y288065D01*
X31614Y287415D01*
X30695Y286496D01*
X30045Y285370D01*
X29735Y284215D01*
X33896D01*
Y288375D01*
D02*
G37*
G36*
X39556Y282715D02*
X35396D01*
Y278554D01*
X36551Y278864D01*
X37677Y279514D01*
X38596Y280433D01*
X39246Y281559D01*
X39556Y282715D01*
D02*
G37*
G36*
X33896D02*
X29735D01*
X30045Y281559D01*
X30695Y280433D01*
X31614Y279514D01*
X32740Y278864D01*
X33896Y278554D01*
Y282715D01*
D02*
G37*
G36*
X35396Y245461D02*
Y241301D01*
X39556D01*
X39246Y242457D01*
X38596Y243583D01*
X37677Y244502D01*
X36551Y245152D01*
X35396Y245461D01*
D02*
G37*
G36*
X33896Y245461D02*
X32740Y245152D01*
X31614Y244502D01*
X30695Y243583D01*
X30045Y242457D01*
X29735Y241301D01*
X33896D01*
Y245461D01*
D02*
G37*
G36*
X39556Y239801D02*
X35396D01*
Y235641D01*
X36551Y235951D01*
X37677Y236601D01*
X38596Y237520D01*
X39246Y238646D01*
X39556Y239801D01*
D02*
G37*
G36*
X33896D02*
X29735D01*
X30045Y238646D01*
X30695Y237520D01*
X31614Y236601D01*
X32740Y235951D01*
X33896Y235641D01*
Y239801D01*
D02*
G37*
G36*
X132297Y239328D02*
Y235168D01*
X136457D01*
X136148Y236324D01*
X135498Y237450D01*
X134579Y238369D01*
X133453Y239019D01*
X132297Y239328D01*
D02*
G37*
G36*
X130797Y239328D02*
X129642Y239019D01*
X128516Y238369D01*
X127597Y237450D01*
X126947Y236324D01*
X126637Y235168D01*
X130797D01*
Y239328D01*
D02*
G37*
G36*
Y233668D02*
X126637D01*
X126947Y232512D01*
X127597Y231387D01*
X128516Y230468D01*
X129642Y229818D01*
X130797Y229508D01*
Y233668D01*
D02*
G37*
G36*
X136458D02*
X132297D01*
Y229508D01*
X133453Y229818D01*
X134579Y230468D01*
X135498Y231387D01*
X136148Y232512D01*
X136458Y233668D01*
D02*
G37*
G36*
X146177Y193894D02*
X143126D01*
Y191531D01*
X146177D01*
Y193894D01*
D02*
G37*
G36*
X141126D02*
X138075D01*
Y191531D01*
X141126D01*
Y193894D01*
D02*
G37*
G36*
X15711Y288375D02*
Y284214D01*
X19871D01*
X19561Y285370D01*
X18911Y286496D01*
X17992Y287415D01*
X16866Y288065D01*
X15711Y288375D01*
D02*
G37*
G36*
X14211Y288375D02*
X13055Y288065D01*
X11929Y287415D01*
X11010Y286496D01*
X10360Y285370D01*
X10050Y284214D01*
X14211D01*
Y288375D01*
D02*
G37*
G36*
Y282715D02*
X10050D01*
X10360Y281559D01*
X11010Y280433D01*
X11929Y279514D01*
X13055Y278864D01*
X14211Y278554D01*
Y282715D01*
D02*
G37*
G36*
X19871D02*
X15711D01*
Y278554D01*
X16866Y278864D01*
X17992Y279514D01*
X18911Y280433D01*
X19561Y281559D01*
X19871Y282715D01*
D02*
G37*
G36*
X15711Y245461D02*
Y241301D01*
X19871D01*
X19561Y242457D01*
X18911Y243583D01*
X17992Y244502D01*
X16866Y245152D01*
X15711Y245461D01*
D02*
G37*
G36*
X14211Y245461D02*
X13055Y245152D01*
X11929Y244502D01*
X11010Y243583D01*
X10360Y242457D01*
X10050Y241301D01*
X14211D01*
Y245461D01*
D02*
G37*
G36*
Y239801D02*
X10050D01*
X10360Y238646D01*
X11010Y237520D01*
X11929Y236601D01*
X13055Y235951D01*
X14211Y235641D01*
Y239801D01*
D02*
G37*
G36*
X19871D02*
X15711D01*
Y235641D01*
X16866Y235951D01*
X17992Y236601D01*
X18911Y237520D01*
X19561Y238646D01*
X19871Y239801D01*
D02*
G37*
G36*
X249031Y225528D02*
X244844D01*
Y223112D01*
X249031D01*
Y225528D01*
D02*
G37*
G36*
X243344D02*
X239158D01*
Y223112D01*
X243344D01*
Y225528D01*
D02*
G37*
G36*
X249031Y221612D02*
X244844D01*
Y219197D01*
X249031D01*
Y221612D01*
D02*
G37*
G36*
X243344D02*
X239158D01*
Y219197D01*
X243344D01*
Y221612D01*
D02*
G37*
G36*
X41157Y218323D02*
X28703D01*
Y210396D01*
X41157D01*
Y218323D01*
D02*
G37*
G36*
X27203D02*
X14748D01*
Y210396D01*
X27203D01*
Y218323D01*
D02*
G37*
G36*
X207778Y211027D02*
Y209726D01*
X209078D01*
X208877Y210212D01*
X208263Y210825D01*
X207778Y211027D01*
D02*
G37*
G36*
X206278D02*
X205792Y210825D01*
X205178Y210212D01*
X204977Y209726D01*
X206278D01*
Y211027D01*
D02*
G37*
G36*
X201085D02*
Y209726D01*
X202385D01*
X202184Y210212D01*
X201570Y210825D01*
X201085Y211027D01*
D02*
G37*
G36*
X199585D02*
X199099Y210825D01*
X198486Y210212D01*
X198284Y209726D01*
X199585D01*
Y211027D01*
D02*
G37*
G36*
X209078Y208226D02*
X207778D01*
Y206926D01*
X208263Y207127D01*
X208877Y207741D01*
X209078Y208226D01*
D02*
G37*
G36*
X206278D02*
X204977D01*
X205178Y207741D01*
X205792Y207127D01*
X206278Y206926D01*
Y208226D01*
D02*
G37*
G36*
X202385D02*
X201085D01*
Y206926D01*
X201570Y207127D01*
X202184Y207741D01*
X202385Y208226D01*
D02*
G37*
G36*
X199585D02*
X198284D01*
X198486Y207741D01*
X199099Y207127D01*
X199585Y206926D01*
Y208226D01*
D02*
G37*
G36*
X41157Y208896D02*
X28703D01*
Y200969D01*
X41157D01*
Y208896D01*
D02*
G37*
G36*
X27203D02*
X14748D01*
Y200969D01*
X27203D01*
Y208896D01*
D02*
G37*
G36*
X55512Y200714D02*
X55469Y200705D01*
X55426Y200709D01*
X55406Y200702D01*
X55386Y200702D01*
X55314Y200674D01*
X55239Y200659D01*
X55203Y200635D01*
X55161Y200622D01*
X55146Y200608D01*
X55126Y200601D01*
X55071Y200547D01*
X55007Y200505D01*
X50283Y195780D01*
X50128Y195549D01*
X50074Y195276D01*
Y177559D01*
X50128Y177286D01*
X50283Y177054D01*
X56188Y171149D01*
X56420Y170994D01*
X56693Y170940D01*
X71260Y170940D01*
X71533Y170994D01*
X71533Y170994D01*
X71765Y171149D01*
X73733Y173117D01*
X81213Y180598D01*
X81368Y180829D01*
X81422Y181102D01*
Y186319D01*
X83760Y188656D01*
X86614D01*
X86887Y188711D01*
X87119Y188865D01*
X89087Y190834D01*
X89242Y191066D01*
X89296Y191339D01*
Y195276D01*
X89242Y195549D01*
X89087Y195780D01*
X88856Y195935D01*
X88583Y195989D01*
X77363D01*
X69658Y200612D01*
X69609Y200630D01*
X69564Y200659D01*
X69479Y200676D01*
X69396Y200706D01*
X69343Y200703D01*
X69291Y200714D01*
X55512D01*
X55512Y200714D01*
D02*
G37*
G36*
X96675Y192680D02*
Y191380D01*
X97975D01*
X97774Y191865D01*
X97161Y192479D01*
X96675Y192680D01*
D02*
G37*
G36*
X95175D02*
X94690Y192479D01*
X94076Y191865D01*
X93875Y191380D01*
X95175D01*
Y192680D01*
D02*
G37*
G36*
X111531Y193894D02*
X108230D01*
Y191281D01*
X111531D01*
Y193894D01*
D02*
G37*
G36*
X106730D02*
X103429D01*
Y191281D01*
X106730D01*
Y193894D01*
D02*
G37*
G36*
X115317Y192404D02*
Y191104D01*
X116617D01*
X116416Y191590D01*
X115802Y192203D01*
X115317Y192404D01*
D02*
G37*
G36*
X113817D02*
X113331Y192203D01*
X112718Y191590D01*
X112517Y191104D01*
X113817D01*
Y192404D01*
D02*
G37*
G36*
X97975Y189880D02*
X96675D01*
Y188580D01*
X97161Y188781D01*
X97774Y189394D01*
X97975Y189880D01*
D02*
G37*
G36*
X95175D02*
X93875D01*
X94076Y189394D01*
X94690Y188781D01*
X95175Y188580D01*
Y189880D01*
D02*
G37*
G36*
X116617Y189604D02*
X115317D01*
Y188304D01*
X115802Y188505D01*
X116416Y189119D01*
X116617Y189604D01*
D02*
G37*
G36*
X113817D02*
X112517D01*
X112718Y189119D01*
X113331Y188505D01*
X113817Y188304D01*
Y189604D01*
D02*
G37*
G36*
X111531Y189781D02*
X108230D01*
Y187169D01*
X111531D01*
Y189781D01*
D02*
G37*
G36*
X106730D02*
X103429D01*
Y187169D01*
X106730D01*
Y189781D01*
D02*
G37*
G36*
X31459Y193070D02*
Y185002D01*
X35688D01*
Y188189D01*
X35519Y189478D01*
X35021Y190679D01*
X34230Y191710D01*
X33198Y192501D01*
X31997Y192999D01*
X31459Y193070D01*
D02*
G37*
G36*
X29959Y193070D02*
X29420Y192999D01*
X28219Y192501D01*
X27187Y191710D01*
X26396Y190679D01*
X25899Y189478D01*
X25729Y188189D01*
Y185002D01*
X29959D01*
Y193070D01*
D02*
G37*
G36*
X128604Y182857D02*
Y181557D01*
X129904D01*
X129703Y182043D01*
X129090Y182656D01*
X128604Y182857D01*
D02*
G37*
G36*
X127104D02*
X126619Y182656D01*
X126005Y182043D01*
X125804Y181557D01*
X127104D01*
Y182857D01*
D02*
G37*
G36*
X152575Y183874D02*
X145829D01*
Y180474D01*
X152575D01*
Y183874D01*
D02*
G37*
G36*
X144329D02*
X137583D01*
Y180474D01*
X144329D01*
Y183874D01*
D02*
G37*
G36*
X208913Y182811D02*
X207535D01*
Y180252D01*
X208913D01*
Y182811D01*
D02*
G37*
G36*
X205535D02*
X204157D01*
Y180252D01*
X205535D01*
Y182811D01*
D02*
G37*
G36*
X13655Y189286D02*
X12329D01*
X11049Y188943D01*
X9901Y188280D01*
X8964Y187343D01*
X8301Y186195D01*
X7958Y184915D01*
Y183589D01*
X8301Y182309D01*
X8964Y181161D01*
X9901Y180224D01*
X11049Y179561D01*
X12329Y179218D01*
X13655D01*
X14935Y179561D01*
X16083Y180224D01*
X17020Y181161D01*
X17683Y182309D01*
X18026Y183589D01*
Y184915D01*
X17683Y186195D01*
X17020Y187343D01*
X16083Y188280D01*
X14935Y188943D01*
X13655Y189286D01*
D02*
G37*
G36*
X129904Y180057D02*
X128604D01*
Y178757D01*
X129090Y178958D01*
X129703Y179572D01*
X129904Y180057D01*
D02*
G37*
G36*
X127104D02*
X125804D01*
X126005Y179572D01*
X126619Y178958D01*
X127104Y178757D01*
Y180057D01*
D02*
G37*
G36*
X125547Y178933D02*
X122988D01*
Y177555D01*
X125547D01*
Y178933D01*
D02*
G37*
G36*
X120988D02*
X118429D01*
Y177555D01*
X120988D01*
Y178933D01*
D02*
G37*
G36*
X134726Y178349D02*
Y177049D01*
X136027D01*
X135825Y177535D01*
X135212Y178148D01*
X134726Y178349D01*
D02*
G37*
G36*
X133226D02*
X132741Y178148D01*
X132127Y177535D01*
X131926Y177049D01*
X133226D01*
Y178349D01*
D02*
G37*
G36*
X152575Y178974D02*
X145829D01*
Y175575D01*
X152575D01*
Y178974D01*
D02*
G37*
G36*
X144329D02*
X137583D01*
Y175575D01*
X144329D01*
Y178974D01*
D02*
G37*
G36*
X35688Y183502D02*
X31459D01*
Y175434D01*
X31997Y175505D01*
X33198Y176003D01*
X34230Y176794D01*
X35021Y177825D01*
X35519Y179026D01*
X35688Y180315D01*
Y183502D01*
D02*
G37*
G36*
X29959D02*
X25729D01*
Y180315D01*
X25899Y179026D01*
X26396Y177825D01*
X27187Y176794D01*
X28219Y176003D01*
X29420Y175505D01*
X29959Y175434D01*
Y183502D01*
D02*
G37*
G36*
X136027Y175549D02*
X134726D01*
Y174249D01*
X135212Y174450D01*
X135825Y175064D01*
X136027Y175549D01*
D02*
G37*
G36*
X133226D02*
X131926D01*
X132127Y175064D01*
X132741Y174450D01*
X133226Y174249D01*
Y175549D01*
D02*
G37*
G36*
X125547Y175555D02*
X122988D01*
Y174177D01*
X125547D01*
Y175555D01*
D02*
G37*
G36*
X120988D02*
X118429D01*
Y174177D01*
X120988D01*
Y175555D01*
D02*
G37*
G36*
X208913Y178252D02*
X206535D01*
X204157D01*
Y176689D01*
X204138D01*
Y174130D01*
X206516D01*
X208894D01*
Y175693D01*
X208913D01*
Y178252D01*
D02*
G37*
G36*
X89096Y173113D02*
Y171813D01*
X90397D01*
X90196Y172299D01*
X89582Y172912D01*
X89096Y173113D01*
D02*
G37*
G36*
X87596D02*
X87111Y172912D01*
X86497Y172299D01*
X86296Y171813D01*
X87596D01*
Y173113D01*
D02*
G37*
G36*
X178396Y171248D02*
Y169948D01*
X179696D01*
X179495Y170433D01*
X178882Y171047D01*
X178396Y171248D01*
D02*
G37*
G36*
X176896D02*
X176410Y171047D01*
X175797Y170433D01*
X175596Y169948D01*
X176896D01*
Y171248D01*
D02*
G37*
G36*
X189018Y171243D02*
Y169943D01*
X190318D01*
X190117Y170428D01*
X189503Y171042D01*
X189018Y171243D01*
D02*
G37*
G36*
X187518D02*
X187032Y171042D01*
X186419Y170428D01*
X186218Y169943D01*
X187518D01*
Y171243D01*
D02*
G37*
G36*
X90397Y170313D02*
X89096D01*
Y169013D01*
X89582Y169214D01*
X90196Y169827D01*
X90397Y170313D01*
D02*
G37*
G36*
X87596D02*
X86296D01*
X86497Y169827D01*
X87111Y169214D01*
X87596Y169013D01*
Y170313D01*
D02*
G37*
G36*
X179696Y168448D02*
X178396D01*
Y167148D01*
X178882Y167349D01*
X179495Y167963D01*
X179696Y168448D01*
D02*
G37*
G36*
X176896D02*
X175596D01*
X175797Y167963D01*
X176410Y167349D01*
X176896Y167148D01*
Y168448D01*
D02*
G37*
G36*
X190318Y168443D02*
X189018D01*
Y167143D01*
X189503Y167344D01*
X190117Y167957D01*
X190318Y168443D01*
D02*
G37*
G36*
X187518D02*
X186218D01*
X186419Y167957D01*
X187032Y167344D01*
X187518Y167143D01*
Y168443D01*
D02*
G37*
G36*
X253566Y174546D02*
X248198D01*
Y167013D01*
X253566D01*
Y174546D01*
D02*
G37*
G36*
X246698D02*
X241330D01*
Y167013D01*
X246698D01*
Y174546D01*
D02*
G37*
G36*
X47244Y170334D02*
X44307D01*
Y166354D01*
X52092D01*
X52054Y166643D01*
X51557Y167844D01*
X50765Y168876D01*
X49734Y169667D01*
X48533Y170164D01*
X47244Y170334D01*
D02*
G37*
G36*
X122778Y164393D02*
Y163093D01*
X124078D01*
X123877Y163578D01*
X123263Y164192D01*
X122778Y164393D01*
D02*
G37*
G36*
X121278D02*
X120792Y164192D01*
X120178Y163578D01*
X119977Y163093D01*
X121278D01*
Y164393D01*
D02*
G37*
G36*
X213092Y174187D02*
X212459D01*
X211876Y173945D01*
X211428Y173498D01*
X211187Y172915D01*
Y172282D01*
X211428Y171698D01*
X211484Y171643D01*
X211766Y171221D01*
X212264Y170723D01*
X212371Y170267D01*
X212371D01*
Y162961D01*
X215739D01*
Y170267D01*
X215482D01*
Y170950D01*
X215483Y170950D01*
X215374Y171496D01*
X215065Y171960D01*
X215064Y171960D01*
X214365Y172660D01*
Y172915D01*
X214123Y173498D01*
X213676Y173945D01*
X213092Y174187D01*
D02*
G37*
G36*
X208894Y172130D02*
X206516D01*
X204138D01*
Y170267D01*
X202371D01*
Y162961D01*
X205739D01*
Y169571D01*
X207371D01*
Y162961D01*
X210739D01*
Y170267D01*
X208894D01*
Y172130D01*
D02*
G37*
G36*
X200651Y186550D02*
X200019D01*
X199435Y186308D01*
X198988Y185861D01*
X198877Y185594D01*
X198010Y184727D01*
X197689Y184247D01*
X197577Y183681D01*
Y182511D01*
X196977D01*
Y176389D01*
X196958D01*
Y169871D01*
X197371D01*
Y162961D01*
X200739D01*
Y169871D01*
X201113D01*
Y175993D01*
X201133D01*
Y182511D01*
X200534D01*
Y183069D01*
X200968Y183503D01*
X201235Y183614D01*
X201682Y184061D01*
X201924Y184645D01*
Y185277D01*
X201682Y185861D01*
X201235Y186308D01*
X200651Y186550D01*
D02*
G37*
G36*
X78329Y163763D02*
Y162463D01*
X79629D01*
X79428Y162948D01*
X78814Y163562D01*
X78329Y163763D01*
D02*
G37*
G36*
X76829D02*
X76343Y163562D01*
X75730Y162948D01*
X75529Y162463D01*
X76829D01*
Y163763D01*
D02*
G37*
G36*
X95075Y166512D02*
X88919D01*
Y162325D01*
X95075D01*
Y166512D01*
D02*
G37*
G36*
X87419D02*
X81264D01*
Y162325D01*
X87419D01*
Y166512D01*
D02*
G37*
G36*
X52092Y164354D02*
X44307D01*
Y160375D01*
X47244D01*
X48533Y160544D01*
X49734Y161042D01*
X50765Y161833D01*
X51557Y162864D01*
X52054Y164066D01*
X52092Y164354D01*
D02*
G37*
G36*
X124078Y161592D02*
X122778D01*
Y160292D01*
X123263Y160494D01*
X123877Y161107D01*
X124078Y161592D01*
D02*
G37*
G36*
X121278D02*
X119977D01*
X120178Y161107D01*
X120792Y160494D01*
X121278Y160292D01*
Y161592D01*
D02*
G37*
G36*
X79629Y160963D02*
X78329D01*
Y159662D01*
X78814Y159864D01*
X79428Y160477D01*
X79629Y160963D01*
D02*
G37*
G36*
X76829D02*
X75529D01*
X75730Y160477D01*
X76343Y159864D01*
X76829Y159662D01*
Y160963D01*
D02*
G37*
G36*
X42307Y170334D02*
X39370D01*
X38081Y170164D01*
X36880Y169667D01*
X35849Y168876D01*
X35058Y167844D01*
X34930Y167535D01*
X28703D01*
Y159608D01*
X41157D01*
Y160375D01*
X42307D01*
Y165354D01*
Y170334D01*
D02*
G37*
G36*
X27203Y167535D02*
X14748D01*
Y159608D01*
X27203D01*
Y167535D01*
D02*
G37*
G36*
X253566Y165513D02*
X248198D01*
Y157980D01*
X253566D01*
Y165513D01*
D02*
G37*
G36*
X246698D02*
X241330D01*
Y157980D01*
X246698D01*
Y165513D01*
D02*
G37*
G36*
X95075Y160825D02*
X88919D01*
Y156638D01*
X95075D01*
Y160825D01*
D02*
G37*
G36*
X87419D02*
X81264D01*
Y156638D01*
X87419D01*
Y160825D01*
D02*
G37*
G36*
X148441Y158677D02*
X145829D01*
Y155278D01*
X148441D01*
Y158677D01*
D02*
G37*
G36*
X144329D02*
X141717D01*
Y155278D01*
X144329D01*
Y158677D01*
D02*
G37*
G36*
X148441Y153778D02*
X145829D01*
Y150378D01*
X148441D01*
Y153778D01*
D02*
G37*
G36*
X144329D02*
X141717D01*
Y150378D01*
X144329D01*
Y153778D01*
D02*
G37*
G36*
X41157Y158108D02*
X28703D01*
Y150181D01*
X41157D01*
Y158108D01*
D02*
G37*
G36*
X27203D02*
X14748D01*
Y150181D01*
X27203D01*
Y158108D01*
D02*
G37*
G36*
X117323Y172761D02*
X106929Y172761D01*
X106656Y172707D01*
X106424Y172552D01*
X102763Y168891D01*
X102608Y168659D01*
X102554Y168386D01*
X102554Y141732D01*
X102608Y141459D01*
X102763Y141228D01*
X102995Y141073D01*
X103268Y141019D01*
X105993Y141019D01*
Y137922D01*
X113298D01*
Y140418D01*
X113751Y140630D01*
X114641Y139889D01*
X114641Y123477D01*
X114275Y123014D01*
X114175Y123020D01*
X114174Y123020D01*
X113706Y123228D01*
X113706Y131102D01*
X113651Y131376D01*
X113497Y131607D01*
X113496Y131607D01*
X113265Y131762D01*
X112992Y131816D01*
X103937Y131816D01*
X103664Y131762D01*
X103432Y131607D01*
X100986Y129161D01*
X100521Y128989D01*
X100319Y129168D01*
X98273Y131213D01*
X98042Y131368D01*
X97769Y131422D01*
X91865D01*
X91673Y131884D01*
X93024Y133236D01*
X93179Y133467D01*
X93233Y133740D01*
Y136319D01*
X93179Y136592D01*
X93024Y136824D01*
X91945Y137903D01*
Y138856D01*
X84039D01*
Y138836D01*
X83539Y138691D01*
X82030Y140200D01*
X81798Y140355D01*
X81525Y140409D01*
X74764Y140409D01*
X69061Y140409D01*
X68042D01*
X67769Y140355D01*
X67537Y140200D01*
X65125Y137788D01*
X64971Y137557D01*
X64916Y137284D01*
Y135947D01*
X64916Y132106D01*
X64970Y131833D01*
X65125Y131602D01*
X65125Y131602D01*
X67110Y129616D01*
X67111Y129616D01*
X67112Y129615D01*
X67226Y129539D01*
X67342Y129462D01*
X67343Y129462D01*
X67344Y129461D01*
X67479Y129434D01*
X67615Y129407D01*
X67616Y129408D01*
X67617Y129407D01*
X81724Y129444D01*
X81909Y129186D01*
X81975Y128963D01*
X81734Y128671D01*
X81683Y128578D01*
X81624Y128489D01*
X81617Y128456D01*
X81601Y128426D01*
X81590Y128321D01*
X81570Y128216D01*
X81570Y103937D01*
X81624Y103664D01*
X81779Y103432D01*
X82010Y103278D01*
X82284Y103223D01*
X98819Y103223D01*
X99092Y103278D01*
X99323Y103432D01*
X100247Y104356D01*
X100591Y104562D01*
X100934Y104356D01*
X101857Y103432D01*
X102089Y103278D01*
X102362Y103223D01*
X118004Y103223D01*
X118082Y103239D01*
X118162Y103241D01*
X118218Y103266D01*
X118277Y103278D01*
X118343Y103322D01*
X118416Y103354D01*
X118916Y103708D01*
X118958Y103752D01*
X119009Y103786D01*
X119009Y103786D01*
X131214Y115991D01*
X131369Y116223D01*
X131423Y116496D01*
X131423Y138583D01*
X131417Y138612D01*
X131420Y138642D01*
X131390Y138748D01*
X131369Y138856D01*
X131352Y138881D01*
X131344Y138909D01*
X131275Y138996D01*
X131214Y139087D01*
X131189Y139104D01*
X131170Y139127D01*
X118864Y149543D01*
Y164705D01*
X120138Y165979D01*
X126134Y165979D01*
X130783Y160752D01*
Y149213D01*
X130837Y148940D01*
X130992Y148708D01*
X131223Y148553D01*
X131497Y148499D01*
X137795Y148499D01*
X138068Y148553D01*
X138300Y148708D01*
X139481Y149889D01*
X139636Y150120D01*
X139690Y150394D01*
X139690Y163385D01*
X139636Y163659D01*
X139481Y163890D01*
X131607Y171765D01*
X131376Y171919D01*
X131376Y171919D01*
X131103Y171974D01*
X118611D01*
X117751Y172618D01*
X117670Y172657D01*
X117596Y172707D01*
X117546Y172717D01*
X117500Y172739D01*
X117411Y172743D01*
X117323Y172761D01*
D02*
G37*
G36*
X148638Y149622D02*
X147260D01*
Y147063D01*
X148638D01*
Y149622D01*
D02*
G37*
G36*
X145260D02*
X143882D01*
Y147063D01*
X145260D01*
Y149622D01*
D02*
G37*
G36*
X141439Y147897D02*
Y146597D01*
X142739D01*
X142538Y147082D01*
X141925Y147696D01*
X141439Y147897D01*
D02*
G37*
G36*
X139939D02*
X139453Y147696D01*
X138840Y147082D01*
X138639Y146597D01*
X139939D01*
Y147897D01*
D02*
G37*
G36*
X216039Y148913D02*
X214805D01*
Y145711D01*
X216039D01*
Y148913D01*
D02*
G37*
G36*
X213305D02*
X212071D01*
Y145711D01*
X213305D01*
Y148913D01*
D02*
G37*
G36*
X82201Y146768D02*
X79392D01*
Y145140D01*
X82201D01*
Y146768D01*
D02*
G37*
G36*
X71592D02*
X68783D01*
Y145140D01*
X71592D01*
Y146768D01*
D02*
G37*
G36*
X142739Y145097D02*
X141439D01*
Y143796D01*
X141925Y143997D01*
X142538Y144611D01*
X142739Y145097D01*
D02*
G37*
G36*
X139939D02*
X138639D01*
X138840Y144611D01*
X139453Y143997D01*
X139939Y143796D01*
Y145097D01*
D02*
G37*
G36*
X45606Y145114D02*
X42797D01*
Y143486D01*
X45606D01*
Y145114D01*
D02*
G37*
G36*
X41297D02*
X38488D01*
Y143486D01*
X41297D01*
Y145114D01*
D02*
G37*
G36*
X247548Y149190D02*
X246757D01*
X245992Y148986D01*
X245306Y148590D01*
X244747Y148030D01*
X244351Y147345D01*
X244146Y146580D01*
Y145788D01*
X244351Y145024D01*
X244747Y144338D01*
X245306Y143779D01*
X245992Y143383D01*
X246757Y143178D01*
X247548D01*
X248313Y143383D01*
X248998Y143779D01*
X249558Y144338D01*
X249954Y145024D01*
X250159Y145788D01*
Y146580D01*
X249954Y147345D01*
X249558Y148030D01*
X248998Y148590D01*
X248313Y148986D01*
X247548Y149190D01*
D02*
G37*
G36*
X91645Y146291D02*
X84339D01*
Y142922D01*
X91645D01*
Y146291D01*
D02*
G37*
G36*
X82201Y143640D02*
X79392D01*
Y142012D01*
X82201D01*
Y143640D01*
D02*
G37*
G36*
X77892Y146768D02*
X73093D01*
Y144390D01*
Y142012D01*
X77892D01*
Y144390D01*
Y146768D01*
D02*
G37*
G36*
X71592Y143640D02*
X68783D01*
Y142012D01*
X71592D01*
Y143640D01*
D02*
G37*
G36*
X216039Y144211D02*
X214805D01*
Y141008D01*
X216039D01*
Y144211D01*
D02*
G37*
G36*
X213305D02*
X212071D01*
Y141008D01*
X213305D01*
Y144211D01*
D02*
G37*
G36*
X45606Y141986D02*
X42797D01*
Y140358D01*
X45606D01*
Y141986D01*
D02*
G37*
G36*
X41297D02*
X38488D01*
Y140358D01*
X41297D01*
Y141986D01*
D02*
G37*
G36*
X91945Y141591D02*
X88742D01*
Y140356D01*
X91945D01*
Y141591D01*
D02*
G37*
G36*
X87242D02*
X84039D01*
Y140356D01*
X87242D01*
Y141591D01*
D02*
G37*
G36*
X148638Y145063D02*
X146260D01*
X143882D01*
Y142504D01*
X143882D01*
Y140114D01*
X146260D01*
X148638D01*
Y142673D01*
X148638D01*
Y145063D01*
D02*
G37*
G36*
X141439Y140889D02*
Y139589D01*
X142739D01*
X142538Y140074D01*
X141925Y140688D01*
X141439Y140889D01*
D02*
G37*
G36*
X139939D02*
X139453Y140688D01*
X138840Y140074D01*
X138639Y139589D01*
X139939D01*
Y140889D01*
D02*
G37*
G36*
X142739Y138089D02*
X141439D01*
Y136788D01*
X141925Y136989D01*
X142538Y137603D01*
X142739Y138089D01*
D02*
G37*
G36*
X139939D02*
X138639D01*
X138840Y137603D01*
X139453Y136989D01*
X139939Y136788D01*
Y138089D01*
D02*
G37*
G36*
X45306Y137334D02*
X38788D01*
Y137232D01*
X25093D01*
X24351Y137085D01*
X23723Y136665D01*
X22679Y135621D01*
X22595Y135669D01*
X21365Y135998D01*
X20092D01*
X18861Y135669D01*
X17758Y135032D01*
X16858Y134131D01*
X16221Y133028D01*
X15891Y131798D01*
Y130525D01*
X16221Y129294D01*
X16858Y128191D01*
X17758Y127291D01*
X18861Y126654D01*
X20092Y126324D01*
X21365D01*
X22595Y126654D01*
X23698Y127291D01*
X24599Y128191D01*
X25236Y129294D01*
X25565Y130525D01*
Y131798D01*
X25305Y132768D01*
X25895Y133358D01*
X38788D01*
Y133178D01*
X39992D01*
Y131102D01*
X40139Y130361D01*
X40559Y129732D01*
X49043Y121248D01*
X49672Y120828D01*
X50413Y120681D01*
X53873D01*
X54431Y120450D01*
X55294D01*
X56090Y120780D01*
X56701Y121390D01*
X57031Y122187D01*
Y123049D01*
X56701Y123846D01*
X56090Y124457D01*
X55294Y124787D01*
X54431D01*
X53873Y124555D01*
X51215D01*
X43866Y131904D01*
Y133178D01*
X45306D01*
Y137334D01*
D02*
G37*
G36*
X148638Y138114D02*
X147260D01*
Y135555D01*
X148638D01*
Y138114D01*
D02*
G37*
G36*
X145260D02*
X143882D01*
Y135555D01*
X145260D01*
Y138114D01*
D02*
G37*
G36*
X177255Y148694D02*
X176623D01*
X176131Y148490D01*
X170705D01*
X170159Y148382D01*
X169695Y148072D01*
X169695Y148072D01*
X163312Y141689D01*
X163003Y141226D01*
X162970Y141061D01*
X162968Y141058D01*
X162867Y140551D01*
Y135002D01*
X161943D01*
Y129802D01*
X179652D01*
Y135002D01*
X180091Y135147D01*
X200905D01*
X200905Y135147D01*
X201452Y135256D01*
X201915Y135565D01*
X205084Y138735D01*
X205084Y138735D01*
X205394Y139198D01*
X205502Y139744D01*
X205502Y139744D01*
Y141308D01*
X205739D01*
Y148613D01*
X202371D01*
Y141308D01*
X202647D01*
Y140335D01*
X200314Y138002D01*
X198302D01*
X198252Y138502D01*
X198460Y138543D01*
X198923Y138853D01*
X200025Y139955D01*
X200025Y139955D01*
X200335Y140418D01*
X200443Y140965D01*
Y141308D01*
X200739D01*
Y148613D01*
X197371D01*
Y141338D01*
X197322Y141290D01*
X177812D01*
X177687Y141575D01*
X177659Y141790D01*
X178060Y142191D01*
X178302Y142774D01*
Y143407D01*
X178060Y143991D01*
X177613Y144438D01*
X177029Y144679D01*
X176397D01*
X175848Y144452D01*
X172887D01*
X172341Y144343D01*
X171878Y144034D01*
X171878Y144034D01*
X167583Y139740D01*
X167274Y139277D01*
X167165Y138730D01*
X167175Y138681D01*
Y135002D01*
X165518D01*
Y139858D01*
X171296Y145636D01*
X176334D01*
X176623Y145516D01*
X177255D01*
X177839Y145758D01*
X178286Y146205D01*
X178528Y146789D01*
Y147421D01*
X178286Y148005D01*
X177839Y148452D01*
X177255Y148694D01*
D02*
G37*
G36*
X113298Y136291D02*
X105993D01*
Y132922D01*
X113298D01*
Y136291D01*
D02*
G37*
G36*
X57605Y142061D02*
X56332D01*
X55102Y141732D01*
X53999Y141095D01*
X53098Y140194D01*
X52461Y139091D01*
X52131Y137861D01*
Y136588D01*
X52461Y135357D01*
X53098Y134254D01*
X53999Y133354D01*
X55102Y132717D01*
X56332Y132387D01*
X57605D01*
X58836Y132717D01*
X59939Y133354D01*
X60839Y134254D01*
X61476Y135357D01*
X61805Y136588D01*
Y137861D01*
X61476Y139091D01*
X60839Y140194D01*
X59939Y141095D01*
X58836Y141732D01*
X57605Y142061D01*
D02*
G37*
G36*
X148638Y134661D02*
X147260D01*
Y132102D01*
X148638D01*
Y134661D01*
D02*
G37*
G36*
X145260D02*
X143882D01*
Y132102D01*
X145260D01*
Y134661D01*
D02*
G37*
G36*
X141439Y132759D02*
Y131459D01*
X142739D01*
X142538Y131944D01*
X141925Y132558D01*
X141439Y132759D01*
D02*
G37*
G36*
X139939D02*
X139453Y132558D01*
X138840Y131944D01*
X138639Y131459D01*
X139939D01*
Y132759D01*
D02*
G37*
G36*
X248731Y205228D02*
X239458D01*
Y199497D01*
X248731D01*
Y200935D01*
X259980D01*
X264478Y196436D01*
Y137323D01*
X256397Y129242D01*
X255340D01*
X255189Y129742D01*
X255419Y129896D01*
X262072Y136550D01*
X262072Y136550D01*
X262382Y137013D01*
X262490Y137559D01*
X262490Y137559D01*
Y189429D01*
X262490Y189429D01*
X262382Y189975D01*
X262072Y190438D01*
X258627Y193883D01*
X258164Y194193D01*
X257618Y194301D01*
X257618Y194301D01*
X248731D01*
Y195228D01*
X239458D01*
Y189497D01*
X248731D01*
Y191447D01*
X257027D01*
X259636Y188838D01*
Y138150D01*
X253818Y132333D01*
X251600D01*
X251448Y132833D01*
X251501Y132869D01*
X257131Y138498D01*
X257131Y138498D01*
X257441Y138962D01*
X257550Y139508D01*
X257550Y139508D01*
Y179744D01*
X257550Y179744D01*
X257441Y180290D01*
X257131Y180753D01*
X257131Y180754D01*
X254376Y183509D01*
X253912Y183819D01*
X253366Y183927D01*
X253366Y183927D01*
X248731D01*
Y185228D01*
X239458D01*
Y179497D01*
X248731D01*
Y181073D01*
X252775D01*
X254695Y179153D01*
Y140099D01*
X249901Y135305D01*
X237756D01*
X237756Y135305D01*
X237210Y135197D01*
X236747Y134887D01*
X236747Y134887D01*
X202519Y100660D01*
X199987D01*
Y102242D01*
X197087D01*
X194187D01*
Y100995D01*
X193887Y100811D01*
X193387Y101062D01*
Y105242D01*
X193387D01*
X193387Y105243D01*
X193350Y105727D01*
Y110134D01*
X192261D01*
Y110850D01*
X193350D01*
Y115350D01*
X188150D01*
Y110850D01*
X189406D01*
Y110134D01*
X188150D01*
Y109679D01*
X188017Y109423D01*
X187551Y109315D01*
X187162Y109642D01*
Y118851D01*
X192577Y124265D01*
X193157D01*
X193293Y124129D01*
X193877Y123887D01*
X194509D01*
X195093Y124129D01*
X195540Y124576D01*
X195782Y125160D01*
Y125793D01*
X195540Y126376D01*
X195093Y126823D01*
X194940Y126887D01*
Y127428D01*
X195093Y127491D01*
X195540Y127938D01*
X195782Y128523D01*
Y129155D01*
X195540Y129739D01*
X195250Y130029D01*
X195180Y130586D01*
X195201Y130682D01*
X195358Y130836D01*
X201949D01*
X201949Y130836D01*
X202495Y130945D01*
X202958Y131254D01*
X210064Y138361D01*
X210065Y138361D01*
X210374Y138824D01*
X210483Y139370D01*
X210483Y139370D01*
Y141308D01*
X210739D01*
Y148613D01*
X207371D01*
Y141308D01*
X207628D01*
Y139961D01*
X201358Y133691D01*
X194899D01*
X194509Y133853D01*
X193877D01*
X193293Y133611D01*
X192846Y133164D01*
X192604Y132580D01*
Y131948D01*
X192846Y131364D01*
X193253Y130957D01*
X193295Y130832D01*
X193305Y130370D01*
X193070Y130164D01*
X190768D01*
X190261Y130063D01*
X189831Y129776D01*
X179923Y119869D01*
X178270D01*
X177860Y120369D01*
X177881Y120472D01*
Y123502D01*
X179652D01*
Y128702D01*
X161943D01*
Y123502D01*
X163478D01*
Y120728D01*
X163579Y120221D01*
X163866Y119791D01*
X165331Y118326D01*
X165168Y117826D01*
X162133D01*
Y120142D01*
X162348Y120662D01*
Y121294D01*
X162106Y121879D01*
X161659Y122326D01*
X161075Y122567D01*
X160443D01*
X159859Y122326D01*
X159412Y121879D01*
X159170Y121294D01*
X158707Y121385D01*
Y122770D01*
X158707Y122770D01*
Y124052D01*
X158985Y124329D01*
X159443Y124519D01*
X159890Y124966D01*
X160132Y125550D01*
Y126182D01*
X159890Y126766D01*
X159443Y127213D01*
X158859Y127455D01*
X158227D01*
X157643Y127213D01*
X157196Y126766D01*
X156961Y126198D01*
X156942Y126174D01*
X156704Y126002D01*
X156206Y126234D01*
Y148641D01*
X157599Y150034D01*
X166831Y150034D01*
X167104Y150089D01*
X167335Y150243D01*
X167335Y150243D01*
X167490Y150475D01*
X167544Y150748D01*
X167544Y155867D01*
X167544Y155867D01*
X167544Y155867D01*
X167517Y156002D01*
X167490Y156140D01*
X167490Y156140D01*
X167490Y156140D01*
X167409Y156261D01*
X167335Y156371D01*
X167335Y156371D01*
X167335Y156371D01*
X164908Y158798D01*
X164907Y158799D01*
X164907Y158799D01*
X164793Y158875D01*
X164676Y158953D01*
X164675Y158953D01*
X164675Y158953D01*
X164539Y158980D01*
X164403Y159007D01*
X164402Y159007D01*
X164402Y159007D01*
X157291Y158994D01*
X157237Y159048D01*
X157230Y159053D01*
X157225Y159060D01*
X155840Y160379D01*
X155729Y160449D01*
X155621Y160522D01*
X155612Y160523D01*
X155604Y160528D01*
X155476Y160550D01*
X155347Y160576D01*
X151850D01*
X151577Y160522D01*
X151346Y160367D01*
X149968Y158989D01*
X149813Y158757D01*
X149759Y158484D01*
Y150945D01*
X149764Y150918D01*
X149761Y150890D01*
X149791Y150782D01*
X149813Y150672D01*
X149828Y150649D01*
X149836Y150622D01*
X149905Y150534D01*
X149968Y150440D01*
X151570Y148838D01*
X151570Y122894D01*
X150630Y121955D01*
X150530D01*
Y121868D01*
X150220Y121568D01*
X149730Y121667D01*
Y122255D01*
X148618D01*
Y123980D01*
X146240D01*
X143862D01*
Y121421D01*
X143930D01*
Y121205D01*
X146830D01*
Y119705D01*
X148330D01*
Y117155D01*
X149730D01*
Y117868D01*
X150203Y118010D01*
X150530Y117687D01*
Y117455D01*
X150951D01*
X153460Y115551D01*
Y112500D01*
X153514Y112227D01*
X153631Y112052D01*
Y111702D01*
X153962D01*
X154003Y111661D01*
X154235Y111506D01*
X154508Y111452D01*
X155299D01*
Y111402D01*
X156140D01*
Y111701D01*
X156212D01*
Y114764D01*
X157533D01*
X157568Y114588D01*
Y111701D01*
X157640D01*
Y111402D01*
X158480D01*
Y111702D01*
X159536D01*
Y111702D01*
X162117D01*
Y111702D01*
X169379D01*
Y111702D01*
X173928D01*
Y111702D01*
X177865D01*
Y114136D01*
X177972Y114296D01*
X178081Y114842D01*
X177993Y115286D01*
Y117172D01*
X178039Y117218D01*
X180473D01*
X180980Y117319D01*
X181410Y117606D01*
X191317Y127513D01*
X193023D01*
X193106Y127416D01*
X192877Y126916D01*
X192027D01*
X191520Y126815D01*
X191090Y126528D01*
X184900Y120337D01*
X184612Y119907D01*
X184511Y119400D01*
Y110374D01*
X182671D01*
X182164Y110273D01*
X181977Y110149D01*
X179418D01*
Y107568D01*
Y104243D01*
X179418D01*
Y102575D01*
X179118D01*
Y101734D01*
X179418D01*
Y101662D01*
X181892D01*
X181934Y101634D01*
X182480Y101525D01*
X182480D01*
Y100443D01*
X181934Y100335D01*
X181892Y100306D01*
X179418D01*
Y100234D01*
X179118D01*
Y99394D01*
X179418D01*
Y94401D01*
X179418D01*
Y89851D01*
X179418D01*
Y85914D01*
X185543D01*
Y88938D01*
X186004Y89129D01*
X187470Y87663D01*
X186122Y86315D01*
X188454Y83983D01*
X187735Y83265D01*
X187448Y82835D01*
X187436Y82772D01*
X185721Y81058D01*
X186826Y79953D01*
X186543Y79529D01*
X186084Y79719D01*
X185452D01*
X184868Y79477D01*
X184736Y79346D01*
X181906D01*
X181399Y79245D01*
X180969Y78957D01*
X180947Y78935D01*
X179725Y80157D01*
X178558Y78989D01*
X178058Y79197D01*
Y81142D01*
X177957Y81649D01*
X177865Y81786D01*
Y84361D01*
X176197D01*
Y84661D01*
X175356D01*
Y84362D01*
X175284D01*
Y81475D01*
X175249Y81299D01*
X173928D01*
Y84362D01*
X173856D01*
Y84661D01*
X173016D01*
Y84361D01*
X169379D01*
Y84361D01*
X165394D01*
X165202Y84823D01*
X169628Y89249D01*
X170602D01*
X171144Y89025D01*
X171776D01*
X172360Y89267D01*
X172807Y89714D01*
X173049Y90298D01*
Y90930D01*
X172807Y91514D01*
X172360Y91961D01*
X171776Y92203D01*
X171144D01*
X170560Y91961D01*
X170499Y91900D01*
X169079D01*
X168572Y91799D01*
X168142Y91512D01*
X162853Y86223D01*
X162324Y86401D01*
X162292Y86638D01*
X168876Y93222D01*
X170633D01*
X170655Y93200D01*
X171239Y92958D01*
X171871D01*
X172455Y93200D01*
X172902Y93647D01*
X173144Y94231D01*
Y94863D01*
X172902Y95447D01*
X172455Y95894D01*
X171871Y96136D01*
X171239D01*
X170655Y95894D01*
X170633Y95873D01*
X168327D01*
X167819Y95772D01*
X167390Y95485D01*
X160646Y88741D01*
X160184Y88932D01*
Y90947D01*
X160408Y91171D01*
X161276D01*
X161454Y91206D01*
X161891D01*
X162475Y91448D01*
X162922Y91895D01*
X163164Y92479D01*
Y93111D01*
X162922Y93695D01*
X162475Y94142D01*
X161891Y94384D01*
X161259D01*
X160675Y94142D01*
X160354Y93822D01*
X159859D01*
X159351Y93721D01*
X158921Y93434D01*
X157921Y92433D01*
X157634Y92003D01*
X157533Y91496D01*
Y84361D01*
X153631D01*
Y81888D01*
X153603Y81845D01*
X153494Y81299D01*
Y78013D01*
X152583Y77101D01*
X151402D01*
X151402Y77101D01*
X150904Y77002D01*
X150826D01*
X150242Y76761D01*
X149795Y76314D01*
X149553Y75730D01*
Y75097D01*
X149795Y74513D01*
X150242Y74066D01*
X150826Y73824D01*
X151458D01*
X152042Y74066D01*
X152222Y74247D01*
X153174D01*
X153174Y74247D01*
X153720Y74355D01*
X154183Y74665D01*
X154801Y75282D01*
X155301Y75097D01*
X155543Y74513D01*
X155990Y74066D01*
X156574Y73824D01*
X157206D01*
X157790Y74066D01*
X158237Y74513D01*
X158479Y75097D01*
Y75730D01*
X158317Y76119D01*
Y78237D01*
X160149D01*
Y78237D01*
X161505D01*
Y78237D01*
X163336D01*
Y76595D01*
X161380Y74639D01*
X160990Y74477D01*
X160543Y74030D01*
X160301Y73446D01*
Y72814D01*
X160543Y72230D01*
X160990Y71783D01*
X161574Y71541D01*
X162206D01*
X162790Y71783D01*
X163237Y72230D01*
X163398Y72620D01*
X165322Y74544D01*
X165743Y74502D01*
X167574Y72671D01*
X167783Y72166D01*
X168230Y71719D01*
X168814Y71477D01*
X169446D01*
X170030Y71719D01*
X170477Y72166D01*
X170719Y72750D01*
Y73382D01*
X170477Y73966D01*
X170030Y74413D01*
X169792Y74511D01*
X169677Y74685D01*
X169934Y75003D01*
X170022Y75070D01*
X170500Y74975D01*
X172620D01*
X173729Y73865D01*
X173243Y73380D01*
X176425Y70198D01*
X179873Y73645D01*
X180220Y73298D01*
X183402Y76480D01*
X183402Y76480D01*
X183402Y76480D01*
X183826Y76695D01*
X185081D01*
X185452Y76541D01*
X186084D01*
X186668Y76783D01*
X187115Y77230D01*
X187357Y77814D01*
Y78446D01*
X187167Y78905D01*
X187591Y79188D01*
X189398Y77381D01*
X192580Y80563D01*
X191919Y81224D01*
X196036Y85341D01*
X190592Y90785D01*
X189345Y89538D01*
X187163Y91720D01*
X186941Y92173D01*
X190462Y95694D01*
X194423D01*
X194615Y95232D01*
X191822Y92440D01*
X194226Y90036D01*
X196673Y92483D01*
X199120Y94930D01*
X198818Y95232D01*
X199009Y95694D01*
X202392D01*
X208773Y89313D01*
Y85506D01*
X208311Y85315D01*
X207017Y86609D01*
X202547Y82139D01*
X207991Y76695D01*
X208090Y76794D01*
X211159Y73726D01*
X214836Y77403D01*
X211767Y80471D01*
X212461Y81165D01*
X210676Y82950D01*
X211036Y83310D01*
X211323Y83740D01*
X211424Y84247D01*
Y89862D01*
X211323Y90369D01*
X211036Y90799D01*
X204176Y97659D01*
X204120Y98217D01*
X204201Y98305D01*
X238347Y132450D01*
X239325D01*
X239477Y131950D01*
X239424Y131915D01*
X239424Y131915D01*
X209286Y101777D01*
X208977Y101314D01*
X208868Y100768D01*
X208868Y100768D01*
Y95903D01*
X208706Y95513D01*
Y94881D01*
X208948Y94297D01*
X209395Y93850D01*
X209979Y93608D01*
X210611D01*
X211195Y93850D01*
X211642Y94297D01*
X211884Y94881D01*
Y95513D01*
X211723Y95903D01*
Y100176D01*
X215238Y103692D01*
X215738Y103484D01*
Y96612D01*
X215576Y96222D01*
Y95589D01*
X215818Y95005D01*
X216265Y94558D01*
X216849Y94317D01*
X217481D01*
X218066Y94558D01*
X218512Y95005D01*
X218754Y95589D01*
Y96222D01*
X218593Y96612D01*
Y103110D01*
X241871Y126388D01*
X256988D01*
X256988Y126388D01*
X257534Y126496D01*
X257997Y126806D01*
X266915Y135723D01*
X266915Y135723D01*
X267224Y136186D01*
X267333Y136732D01*
Y197028D01*
X267333Y197028D01*
X267224Y197574D01*
X266915Y198037D01*
X261580Y203372D01*
X261117Y203681D01*
X260571Y203790D01*
X260571Y203790D01*
X248731D01*
Y205228D01*
D02*
G37*
G36*
X142739Y129959D02*
X141439D01*
Y128658D01*
X141925Y128860D01*
X142538Y129473D01*
X142739Y129959D01*
D02*
G37*
G36*
X139939D02*
X138639D01*
X138840Y129473D01*
X139453Y128860D01*
X139939Y128658D01*
Y129959D01*
D02*
G37*
G36*
X146260Y131102D02*
D01*
Y130102D01*
X143882D01*
Y128539D01*
X143862D01*
Y125980D01*
X146240D01*
X148618D01*
Y127543D01*
X148638D01*
Y130102D01*
X146260D01*
Y131102D01*
D02*
G37*
G36*
X248731Y215228D02*
X239458D01*
Y209497D01*
X248731D01*
Y210935D01*
X259350D01*
X268271Y202014D01*
Y136156D01*
X257696Y125581D01*
X242854D01*
X242854Y125581D01*
X242308Y125472D01*
X241845Y125163D01*
X241845Y125163D01*
X219896Y103214D01*
X219587Y102751D01*
X219478Y102205D01*
X219478Y102205D01*
Y96848D01*
X219317Y96458D01*
Y95826D01*
X219558Y95242D01*
X220005Y94795D01*
X220589Y94553D01*
X221222D01*
X221806Y94795D01*
X222253Y95242D01*
X222495Y95826D01*
Y96458D01*
X222333Y96848D01*
Y101613D01*
X243446Y122726D01*
X258287D01*
X258287Y122726D01*
X258834Y122835D01*
X259297Y123144D01*
X270708Y134555D01*
X270708Y134555D01*
X271017Y135018D01*
X271126Y135564D01*
X271126Y135564D01*
Y202605D01*
X271017Y203151D01*
X270708Y203614D01*
X270708Y203614D01*
X260950Y213371D01*
X260487Y213681D01*
X259941Y213790D01*
X259941Y213790D01*
X248731D01*
Y215228D01*
D02*
G37*
G36*
X141439Y126834D02*
Y125533D01*
X142739D01*
X142538Y126019D01*
X141925Y126632D01*
X141439Y126834D01*
D02*
G37*
G36*
X139939D02*
X139453Y126632D01*
X138840Y126019D01*
X138639Y125533D01*
X139939D01*
Y126834D01*
D02*
G37*
G36*
X142739Y124033D02*
X141439D01*
Y122733D01*
X141925Y122934D01*
X142538Y123548D01*
X142739Y124033D01*
D02*
G37*
G36*
X139939D02*
X138639D01*
X138840Y123548D01*
X139453Y122934D01*
X139939Y122733D01*
Y124033D01*
D02*
G37*
G36*
X141439Y121519D02*
Y120219D01*
X142739D01*
X142538Y120704D01*
X141925Y121318D01*
X141439Y121519D01*
D02*
G37*
G36*
X139939D02*
X139453Y121318D01*
X138840Y120704D01*
X138639Y120219D01*
X139939D01*
Y121519D01*
D02*
G37*
G36*
X70768Y124832D02*
X62800D01*
X62156Y124704D01*
X61611Y124339D01*
X59047Y121775D01*
X58682Y121229D01*
X58554Y120586D01*
Y119096D01*
X58406Y118947D01*
X57794Y118969D01*
X57673Y119113D01*
Y119307D01*
X55258D01*
Y116732D01*
Y114157D01*
X57486D01*
X57673Y114157D01*
X57986Y113787D01*
Y113542D01*
X62486D01*
Y118742D01*
X61919D01*
Y119889D01*
X63497Y121467D01*
X70768D01*
X71412Y121595D01*
X71957Y121960D01*
X72322Y122506D01*
X72450Y123150D01*
X72322Y123793D01*
X71957Y124339D01*
X71412Y124704D01*
X70768Y124832D01*
D02*
G37*
G36*
X53758Y119307D02*
X51342D01*
Y117482D01*
X53758D01*
Y119307D01*
D02*
G37*
G36*
X142739Y118719D02*
X141439D01*
Y117418D01*
X141925Y117620D01*
X142538Y118233D01*
X142739Y118719D01*
D02*
G37*
G36*
X139939D02*
X138639D01*
X138840Y118233D01*
X139453Y117620D01*
X139939Y117418D01*
Y118719D01*
D02*
G37*
G36*
X145330Y118205D02*
X143930D01*
Y117155D01*
X145330D01*
Y118205D01*
D02*
G37*
G36*
X53758Y115982D02*
X51342D01*
Y114157D01*
X53758D01*
Y115982D01*
D02*
G37*
G36*
X199950Y115650D02*
X197800D01*
Y113850D01*
X199950D01*
Y115650D01*
D02*
G37*
G36*
X196300D02*
X194150D01*
Y113850D01*
X196300D01*
Y115650D01*
D02*
G37*
G36*
X75567Y117378D02*
X70888D01*
Y112955D01*
X75567D01*
Y117378D01*
D02*
G37*
G36*
X69388D02*
X64709D01*
Y112955D01*
X69388D01*
Y117378D01*
D02*
G37*
G36*
X247831Y120017D02*
X246868D01*
X245938Y119768D01*
X245104Y119287D01*
X244424Y118606D01*
X243942Y117772D01*
X243693Y116843D01*
Y115880D01*
X243942Y114950D01*
X244424Y114117D01*
X245104Y113436D01*
X245938Y112955D01*
X246868Y112706D01*
X247831D01*
X248760Y112955D01*
X249594Y113436D01*
X250275Y114117D01*
X250756Y114950D01*
X251005Y115880D01*
Y116843D01*
X250756Y117772D01*
X250275Y118606D01*
X249594Y119287D01*
X248760Y119768D01*
X247831Y120017D01*
D02*
G37*
G36*
X62486Y112442D02*
X57986D01*
Y111189D01*
X57373D01*
Y111527D01*
X51643D01*
Y106977D01*
X57373D01*
Y107315D01*
X57986D01*
Y107242D01*
X62486D01*
Y112442D01*
D02*
G37*
G36*
X21365Y116313D02*
X20092D01*
X18861Y115984D01*
X17758Y115347D01*
X16858Y114446D01*
X16221Y113343D01*
X15891Y112113D01*
Y110840D01*
X16221Y109609D01*
X16858Y108506D01*
X17758Y107606D01*
X18861Y106969D01*
X20092Y106639D01*
X21365D01*
X22595Y106969D01*
X23698Y107606D01*
X24599Y108506D01*
X25161Y109480D01*
X35827D01*
X36568Y109628D01*
X37197Y110047D01*
X38204Y111055D01*
X44202D01*
Y110717D01*
X49932D01*
Y115267D01*
X44202D01*
Y114929D01*
X37402D01*
X36660Y114782D01*
X36032Y114362D01*
X35024Y113355D01*
X25229D01*
X24599Y114446D01*
X23698Y115347D01*
X22595Y115984D01*
X21365Y116313D01*
D02*
G37*
G36*
X174589Y110790D02*
Y109490D01*
X175889D01*
X175688Y109976D01*
X175074Y110589D01*
X174589Y110790D01*
D02*
G37*
G36*
X173089D02*
X172603Y110589D01*
X171990Y109976D01*
X171788Y109490D01*
X173089D01*
Y110790D01*
D02*
G37*
G36*
X199950Y112350D02*
X197050D01*
X194150D01*
Y110933D01*
X194150Y110550D01*
X194150Y110050D01*
Y108634D01*
X197050D01*
X199950D01*
Y110050D01*
X199950Y110433D01*
X199950Y110933D01*
Y112350D01*
D02*
G37*
G36*
X75567Y111455D02*
X70888D01*
Y107032D01*
X75567D01*
Y111455D01*
D02*
G37*
G36*
X69388D02*
X64709D01*
Y107032D01*
X69388D01*
Y111455D01*
D02*
G37*
G36*
X175889Y107990D02*
X174589D01*
Y106690D01*
X175074Y106891D01*
X175688Y107505D01*
X175889Y107990D01*
D02*
G37*
G36*
X173089D02*
X171788D01*
X171990Y107505D01*
X172603Y106891D01*
X173089Y106690D01*
Y107990D01*
D02*
G37*
G36*
X170848Y106794D02*
Y105494D01*
X172149D01*
X171948Y105980D01*
X171334Y106593D01*
X170848Y106794D01*
D02*
G37*
G36*
X169348D02*
X168863Y106593D01*
X168249Y105980D01*
X168048Y105494D01*
X169348D01*
Y106794D01*
D02*
G37*
G36*
X199950Y107134D02*
X197050D01*
X194150D01*
Y105333D01*
X194187D01*
Y103742D01*
X197087D01*
X199987D01*
Y105542D01*
X199950D01*
Y107134D01*
D02*
G37*
G36*
X172149Y103994D02*
X170848D01*
Y102694D01*
X171334Y102895D01*
X171948Y103509D01*
X172149Y103994D01*
D02*
G37*
G36*
X169348D02*
X168048D01*
X168249Y103509D01*
X168863Y102895D01*
X169348Y102694D01*
Y103994D01*
D02*
G37*
G36*
X176518Y101440D02*
Y100140D01*
X177818D01*
X177617Y100625D01*
X177003Y101239D01*
X176518Y101440D01*
D02*
G37*
G36*
X175018D02*
X174532Y101239D01*
X173919Y100625D01*
X173718Y100140D01*
X175018D01*
Y101440D01*
D02*
G37*
G36*
X167482D02*
Y100140D01*
X168782D01*
X168581Y100625D01*
X167968Y101239D01*
X167482Y101440D01*
D02*
G37*
G36*
X165982D02*
X165497Y101239D01*
X164883Y100625D01*
X164682Y100140D01*
X165982D01*
Y101440D01*
D02*
G37*
G36*
X177818Y98640D02*
X176518D01*
Y97340D01*
X177003Y97541D01*
X177617Y98154D01*
X177818Y98640D01*
D02*
G37*
G36*
X175018D02*
X173718D01*
X173919Y98154D01*
X174532Y97541D01*
X175018Y97340D01*
Y98640D01*
D02*
G37*
G36*
X168782D02*
X167482D01*
Y97340D01*
X167968Y97541D01*
X168581Y98154D01*
X168782Y98640D01*
D02*
G37*
G36*
X165982D02*
X164682D01*
X164883Y98154D01*
X165497Y97541D01*
X165982Y97340D01*
Y98640D01*
D02*
G37*
G36*
X200181Y93869D02*
X198264Y91953D01*
X200668Y89549D01*
X202585Y91465D01*
X200181Y93869D01*
D02*
G37*
G36*
X197203Y90892D02*
X195287Y88975D01*
X197691Y86571D01*
X199607Y88488D01*
X197203Y90892D01*
D02*
G37*
G36*
X146349Y82250D02*
X144549D01*
Y80100D01*
X146349D01*
Y82250D01*
D02*
G37*
G36*
X143049D02*
X141249D01*
Y80100D01*
X143049D01*
Y82250D01*
D02*
G37*
G36*
X139274Y81322D02*
Y80022D01*
X140574D01*
X140373Y80507D01*
X139759Y81121D01*
X139274Y81322D01*
D02*
G37*
G36*
X137774D02*
X137288Y81121D01*
X136675Y80507D01*
X136474Y80022D01*
X137774D01*
Y81322D01*
D02*
G37*
G36*
X193358Y80209D02*
X192085Y78936D01*
X193605Y77416D01*
X194878Y78689D01*
X193358Y80209D01*
D02*
G37*
G36*
X140574Y78522D02*
X139274D01*
Y77222D01*
X139759Y77423D01*
X140373Y78036D01*
X140574Y78522D01*
D02*
G37*
G36*
X137774D02*
X136474D01*
X136675Y78036D01*
X137288Y77423D01*
X137774Y77222D01*
Y78522D01*
D02*
G37*
G36*
X197915Y77931D02*
X196775Y76792D01*
X195939Y77628D01*
X194666Y76355D01*
X196186Y74835D01*
X196682Y75331D01*
X198402Y73611D01*
X200319Y75528D01*
X197915Y77931D01*
D02*
G37*
G36*
X200892Y80909D02*
X198975Y78992D01*
X201379Y76588D01*
X203296Y78505D01*
X200892Y80909D01*
D02*
G37*
G36*
X146349Y78600D02*
X144549D01*
Y76450D01*
X146349D01*
Y78600D01*
D02*
G37*
G36*
X143049D02*
X141249D01*
Y76450D01*
X143049D01*
Y78600D01*
D02*
G37*
G36*
X191024Y77876D02*
X189752Y76603D01*
X191272Y75082D01*
X192545Y76355D01*
X191024Y77876D01*
D02*
G37*
G36*
X238684Y77579D02*
X237450D01*
Y74377D01*
X238684D01*
Y77579D01*
D02*
G37*
G36*
X235950D02*
X234716D01*
Y74377D01*
X235950D01*
Y77579D01*
D02*
G37*
G36*
X184180Y76126D02*
X182907Y74853D01*
X184427Y73333D01*
X185700Y74606D01*
X184180Y76126D01*
D02*
G37*
G36*
X193605Y75295D02*
X192333Y74022D01*
X193853Y72502D01*
X195126Y73774D01*
X193605Y75295D01*
D02*
G37*
G36*
X209532Y74221D02*
X208012Y72701D01*
X209285Y71428D01*
X210805Y72948D01*
X209532Y74221D01*
D02*
G37*
G36*
X204357Y77444D02*
X201909Y74997D01*
X199463Y72550D01*
X201866Y70147D01*
X203636Y71916D01*
X204370Y71181D01*
X206421Y73231D01*
X208472Y75282D01*
X207199Y76554D01*
X206223Y75578D01*
X204357Y77444D01*
D02*
G37*
G36*
X186761Y73545D02*
X185488Y72273D01*
X187008Y70752D01*
X188281Y72025D01*
X186761Y73545D01*
D02*
G37*
G36*
X253180Y82629D02*
X249812D01*
Y77292D01*
X249856D01*
Y74146D01*
X249956Y73638D01*
X250016Y73550D01*
Y69974D01*
X253384D01*
Y77280D01*
X253180Y77292D01*
Y82629D01*
D02*
G37*
G36*
X248850D02*
X245481D01*
Y77292D01*
X245016Y77280D01*
Y69974D01*
X248384D01*
Y73557D01*
X248429Y73624D01*
X248530Y74132D01*
Y77292D01*
X248850D01*
Y82629D01*
D02*
G37*
G36*
X252971Y107121D02*
X241334D01*
Y91154D01*
X245698D01*
Y88268D01*
X240691Y83261D01*
X240381Y82797D01*
X240273Y82251D01*
X240273Y82251D01*
Y77280D01*
X240016D01*
Y69974D01*
X243384D01*
Y77280D01*
X243127D01*
Y81660D01*
X248135Y86668D01*
X248135Y86668D01*
X248445Y87131D01*
X248553Y87677D01*
Y91154D01*
X252971D01*
Y107121D01*
D02*
G37*
G36*
X238684Y72877D02*
X237450D01*
Y69674D01*
X238684D01*
Y72877D01*
D02*
G37*
G36*
X235950D02*
X234716D01*
Y69674D01*
X235950D01*
Y72877D01*
D02*
G37*
G36*
X206951Y71640D02*
X205431Y70120D01*
X206704Y68847D01*
X208224Y70367D01*
X206951Y71640D01*
D02*
G37*
G36*
X181846Y73793D02*
X180574Y72520D01*
X180721Y72373D01*
X179855Y71506D01*
X181658Y69703D01*
X183461Y67900D01*
X184327Y68766D01*
X184675Y68419D01*
X185948Y69692D01*
X183897Y71742D01*
X181846Y73793D01*
D02*
G37*
G36*
X178794Y70445D02*
X177274Y68925D01*
X178546Y67652D01*
X180067Y69173D01*
X178794Y70445D01*
D02*
G37*
G36*
X181127Y68112D02*
X179607Y66592D01*
X180880Y65319D01*
X182400Y66839D01*
X181127Y68112D01*
D02*
G37*
G36*
X250500Y56514D02*
X250500Y56514D01*
X250500Y56514D01*
X250371Y56488D01*
X250227Y56459D01*
X250226Y56459D01*
X250226Y56459D01*
X250115Y56385D01*
X249995Y56305D01*
X249995Y56305D01*
X249995Y56305D01*
X249195Y55504D01*
X249118Y55389D01*
X249041Y55273D01*
X249041Y55273D01*
X249041Y55273D01*
X249015Y55144D01*
X248986Y55000D01*
X248986Y49900D01*
X249041Y49627D01*
X249195Y49395D01*
X249231Y49360D01*
X249245Y49308D01*
X249163Y48867D01*
X248876Y48679D01*
X248384Y48916D01*
Y55626D01*
X245016D01*
Y48320D01*
X248005D01*
X248212Y47820D01*
X247348Y46956D01*
X247158Y46948D01*
X246779Y47024D01*
X246759Y47073D01*
X246312Y47520D01*
X245728Y47762D01*
X245096D01*
X244512Y47520D01*
X244510Y47518D01*
X244039Y47656D01*
X243963Y47736D01*
Y48053D01*
X243774D01*
X243384Y48320D01*
Y55626D01*
X240016D01*
Y48320D01*
X239627Y48053D01*
X239463Y48053D01*
X239061D01*
X238963Y48053D01*
X238773D01*
X238384Y48320D01*
Y55626D01*
X235016D01*
Y48320D01*
X234627Y48053D01*
X234561D01*
Y47392D01*
X234061Y47185D01*
X233839Y47407D01*
X233416Y47689D01*
X233361Y47745D01*
X232777Y47987D01*
X232145D01*
X231561Y47745D01*
X231114Y47298D01*
X230872Y46714D01*
Y46082D01*
X231114Y45498D01*
X231561Y45051D01*
X232145Y44809D01*
X232400D01*
X232942Y44266D01*
X232942Y44266D01*
X233405Y43957D01*
X233951Y43848D01*
X233951Y43848D01*
X234561D01*
Y42853D01*
X238963D01*
X239061Y42853D01*
X239463D01*
X239561Y42853D01*
X243963D01*
Y43776D01*
X244362Y44065D01*
X244908Y44174D01*
X245098Y44301D01*
X245210Y44273D01*
X245363Y43718D01*
X244817Y43173D01*
X244508Y42709D01*
X244399Y42163D01*
X244399Y42163D01*
Y41906D01*
X243963Y41753D01*
Y41753D01*
X239561D01*
X239463Y41753D01*
X239061D01*
X238963Y41753D01*
X234561D01*
Y40683D01*
X232889D01*
X232544Y40615D01*
X232145D01*
X231561Y40373D01*
X231114Y39926D01*
X230872Y39342D01*
Y38710D01*
X231114Y38126D01*
X231561Y37679D01*
X232145Y37437D01*
X232296D01*
X232889Y37319D01*
X234561D01*
Y36553D01*
X238963D01*
X239061Y36553D01*
X239463D01*
X239561Y36553D01*
X243963D01*
Y37726D01*
X245121D01*
X245511Y37565D01*
X246143D01*
X246727Y37806D01*
X247174Y38254D01*
X247416Y38838D01*
Y39470D01*
X247254Y39860D01*
Y41572D01*
X249120Y43437D01*
X252091D01*
X252091Y43437D01*
X252365Y43492D01*
X252596Y43646D01*
X252612Y43662D01*
X254844D01*
X254854Y43646D01*
X255086Y43492D01*
X255359Y43437D01*
X260251Y43437D01*
X260251Y43437D01*
X260251Y43437D01*
X260380Y43463D01*
X260524Y43492D01*
X260524Y43492D01*
X260524Y43492D01*
X260636Y43566D01*
X260756Y43646D01*
X260756Y43647D01*
X260756Y43647D01*
X260799Y43690D01*
X261428D01*
Y44381D01*
X261459Y44427D01*
X261459Y44427D01*
X261460Y44427D01*
X261487Y44565D01*
X261514Y44701D01*
X261514Y53800D01*
X261459Y54073D01*
X261305Y54305D01*
X259305Y56305D01*
X259073Y56459D01*
X258800Y56514D01*
X250500Y56514D01*
D02*
G37*
G36*
X213032Y62181D02*
X212790D01*
X212152Y62054D01*
X211674Y61735D01*
X204360D01*
X203722Y61608D01*
X203182Y61247D01*
X200874Y58939D01*
X200513Y58398D01*
X200386Y57761D01*
Y45089D01*
X198369Y43072D01*
X198007Y42532D01*
X197880Y41894D01*
Y41271D01*
X197666D01*
Y34517D01*
X197880D01*
Y32019D01*
X197666D01*
Y25265D01*
X197880D01*
Y23568D01*
X198007Y22930D01*
X198369Y22390D01*
X198688Y22071D01*
X198480Y21571D01*
X197935D01*
Y17913D01*
Y14256D01*
X198972D01*
Y14556D01*
X208909D01*
Y18072D01*
X209022Y18241D01*
X209138Y18827D01*
Y20141D01*
X209174Y20165D01*
X209674Y19898D01*
Y13581D01*
X219342D01*
Y21281D01*
X210494D01*
X210303Y21743D01*
X211143Y22582D01*
X212388D01*
X212973Y22699D01*
X213469Y23030D01*
X214172Y23733D01*
X214504Y24229D01*
X214620Y24814D01*
Y24989D01*
X214913D01*
Y30523D01*
X211347D01*
Y25641D01*
X210509D01*
X209924Y25525D01*
X209428Y25193D01*
X209426Y25192D01*
X209327Y25185D01*
X208909Y25532D01*
X208909Y25716D01*
Y32019D01*
X208695D01*
Y34517D01*
X208909D01*
Y41271D01*
X208695D01*
Y41894D01*
X208568Y42532D01*
X208206Y43072D01*
X206189Y45089D01*
Y55932D01*
X211674D01*
X212152Y55612D01*
X212790Y55485D01*
X213032D01*
X213669Y55612D01*
X214210Y55974D01*
X214571Y56514D01*
X214698Y57152D01*
X214571Y57790D01*
X214210Y58331D01*
X213887Y58547D01*
Y59120D01*
X214210Y59336D01*
X214571Y59877D01*
X214698Y60514D01*
X214571Y61152D01*
X214210Y61693D01*
X213669Y62054D01*
X213032Y62181D01*
D02*
G37*
G36*
X158361Y67375D02*
X143969D01*
Y54818D01*
X140732D01*
X139572Y54666D01*
X138491Y54218D01*
X137563Y53506D01*
X136851Y52578D01*
X136403Y51497D01*
X136250Y50337D01*
X136403Y49177D01*
X136851Y48096D01*
X137563Y47168D01*
X138491Y46455D01*
X139572Y46008D01*
X140732Y45855D01*
X147818D01*
X148978Y46008D01*
X150059Y46455D01*
X150987Y47168D01*
X151699Y48096D01*
X151930Y48652D01*
X158361D01*
Y67375D01*
D02*
G37*
G36*
X219221Y48832D02*
X218358D01*
X217561Y48502D01*
X216951Y47892D01*
X216621Y47095D01*
Y46232D01*
X216951Y45435D01*
X217023Y45363D01*
X217420Y44769D01*
X217886Y44303D01*
Y41448D01*
X216564D01*
Y41307D01*
X214913D01*
Y41546D01*
X211347D01*
Y40039D01*
X211340Y40029D01*
X211193Y39287D01*
Y38780D01*
X211340Y38038D01*
X211347Y38028D01*
Y36013D01*
X214913D01*
Y37433D01*
X216564D01*
Y37292D01*
X223082D01*
Y41448D01*
X221760D01*
Y45106D01*
X221613Y45847D01*
X221193Y46476D01*
X220958Y46710D01*
Y47095D01*
X220628Y47892D01*
X220018Y48502D01*
X219221Y48832D01*
D02*
G37*
G36*
X168503Y46917D02*
Y39132D01*
X172483D01*
Y42069D01*
X172313Y43358D01*
X171816Y44559D01*
X171025Y45590D01*
X169993Y46382D01*
X168792Y46879D01*
X168503Y46917D01*
D02*
G37*
G36*
X166503Y46917D02*
X166215Y46879D01*
X165014Y46382D01*
X163982Y45590D01*
X163191Y44559D01*
X162693Y43358D01*
X162524Y42069D01*
Y39132D01*
X166503D01*
Y46917D01*
D02*
G37*
G36*
X261728Y40665D02*
X258919D01*
Y39037D01*
X261728D01*
Y40665D01*
D02*
G37*
G36*
X251050Y40638D02*
X248241D01*
Y39010D01*
X251050D01*
Y40638D01*
D02*
G37*
G36*
X261728Y37537D02*
X258919D01*
Y35910D01*
X261728D01*
Y37537D01*
D02*
G37*
G36*
X257419Y40665D02*
X254610D01*
Y40638D01*
X252550D01*
Y38260D01*
Y35882D01*
X255359D01*
Y35910D01*
X257419D01*
Y38287D01*
Y40665D01*
D02*
G37*
G36*
X251050Y37510D02*
X248241D01*
Y35882D01*
X251050D01*
Y37510D01*
D02*
G37*
G36*
X223382Y34268D02*
X220573D01*
Y32640D01*
X223382D01*
Y34268D01*
D02*
G37*
G36*
X219073D02*
X216264D01*
Y32640D01*
X219073D01*
Y34268D01*
D02*
G37*
G36*
X223382Y31140D02*
X220573D01*
Y29512D01*
X223382D01*
Y31140D01*
D02*
G37*
G36*
X219073D02*
X216264D01*
Y29512D01*
X219073D01*
Y31140D01*
D02*
G37*
G36*
X152543Y30513D02*
X149356D01*
Y26284D01*
X157424D01*
X157353Y26822D01*
X156855Y28023D01*
X156064Y29055D01*
X155033Y29846D01*
X153832Y30343D01*
X152543Y30513D01*
D02*
G37*
G36*
X147856D02*
X144669D01*
X143380Y30343D01*
X142179Y29846D01*
X141148Y29055D01*
X140356Y28023D01*
X139859Y26822D01*
X139788Y26284D01*
X147856D01*
Y30513D01*
D02*
G37*
G36*
X131889Y35982D02*
X123962D01*
Y23528D01*
X131889D01*
Y35982D01*
D02*
G37*
G36*
X122462D02*
X114535D01*
Y23528D01*
X122462D01*
Y35982D01*
D02*
G37*
G36*
X182677D02*
X174749D01*
Y23528D01*
X182677D01*
Y35982D01*
D02*
G37*
G36*
X172483Y37132D02*
X167503D01*
X162524D01*
Y34195D01*
X162693Y32906D01*
X163191Y31705D01*
X163982Y30674D01*
X165014Y29882D01*
X165322Y29755D01*
Y23528D01*
X173249D01*
Y35982D01*
X172483D01*
Y37132D01*
D02*
G37*
G36*
X157424Y24784D02*
X149356D01*
Y20554D01*
X152543D01*
X153832Y20724D01*
X155033Y21221D01*
X156064Y22012D01*
X156855Y23044D01*
X157353Y24245D01*
X157424Y24784D01*
D02*
G37*
G36*
X147856D02*
X139788D01*
X139859Y24245D01*
X140356Y23044D01*
X141148Y22012D01*
X142179Y21221D01*
X143380Y20724D01*
X144669Y20554D01*
X147856D01*
Y24784D01*
D02*
G37*
G36*
X261459Y19987D02*
X258900D01*
Y18609D01*
X261459D01*
Y19987D01*
D02*
G37*
G36*
X243514D02*
X240955D01*
Y18609D01*
X243514D01*
Y19987D01*
D02*
G37*
G36*
X261359Y85742D02*
X260727D01*
X260143Y85501D01*
X259696Y85054D01*
X259454Y84470D01*
Y83837D01*
X259696Y83254D01*
X260143Y82806D01*
X260727Y82565D01*
X260758D01*
X262848Y80475D01*
Y31827D01*
X262949Y31320D01*
X263236Y30890D01*
X266638Y27487D01*
X266729Y26796D01*
X267058Y26003D01*
X267581Y25321D01*
X268000Y25000D01*
Y24391D01*
X267581Y24069D01*
X267058Y23388D01*
X266729Y22594D01*
X266617Y21743D01*
X266729Y20891D01*
X267058Y20097D01*
X267581Y19416D01*
X267904Y19168D01*
Y18538D01*
X267510Y18235D01*
X266971Y17533D01*
X266890Y17337D01*
X274894D01*
X274813Y17533D01*
X274274Y18235D01*
X273880Y18538D01*
Y19168D01*
X274203Y19416D01*
X274726Y20097D01*
X275054Y20891D01*
X275167Y21743D01*
X275054Y22594D01*
X274726Y23388D01*
X274203Y24069D01*
X273784Y24391D01*
Y25000D01*
X274203Y25321D01*
X274726Y26003D01*
X275054Y26796D01*
X275167Y27648D01*
X275054Y28500D01*
X274726Y29293D01*
X274203Y29975D01*
X273784Y30296D01*
Y30906D01*
X274203Y31227D01*
X274726Y31908D01*
X275054Y32702D01*
X275167Y33554D01*
X275054Y34405D01*
X274726Y35199D01*
X274203Y35880D01*
X273784Y36202D01*
Y36811D01*
X274203Y37132D01*
X274726Y37814D01*
X275054Y38607D01*
X275167Y39459D01*
X275054Y40311D01*
X274726Y41104D01*
X274203Y41786D01*
X273521Y42309D01*
X272728Y42637D01*
X271876Y42750D01*
X269908D01*
X269056Y42637D01*
X268263Y42309D01*
X267971Y42085D01*
X267471Y42331D01*
Y79989D01*
X269380Y81898D01*
X269411D01*
X269995Y82140D01*
X270442Y82587D01*
X270684Y83171D01*
Y83803D01*
X270442Y84387D01*
X269995Y84834D01*
X269411Y85076D01*
X268778D01*
X268194Y84834D01*
X267747Y84387D01*
X267506Y83803D01*
Y83772D01*
X265623Y81890D01*
X265125Y81939D01*
X265110Y81961D01*
X262632Y84439D01*
Y84470D01*
X262390Y85054D01*
X261943Y85501D01*
X261359Y85742D01*
D02*
G37*
G36*
X261459Y16609D02*
X258900D01*
Y15231D01*
X261459D01*
Y16609D01*
D02*
G37*
G36*
X256900Y19987D02*
X252207D01*
Y17609D01*
Y15231D01*
X256900D01*
Y17609D01*
Y19987D01*
D02*
G37*
G36*
X250207D02*
X245514D01*
Y17609D01*
Y15231D01*
X250207D01*
Y17609D01*
Y19987D01*
D02*
G37*
G36*
X243514Y16609D02*
X240955D01*
Y15231D01*
X243514D01*
Y16609D01*
D02*
G37*
G36*
X196435Y21571D02*
X195398D01*
Y21364D01*
X194932Y21281D01*
X194898Y21281D01*
X185265D01*
Y13581D01*
X194932D01*
Y14172D01*
X195398Y14256D01*
X195432Y14256D01*
X196435D01*
Y17913D01*
Y21571D01*
D02*
G37*
G36*
X131889Y22028D02*
X123962D01*
Y9573D01*
X131889D01*
Y22028D01*
D02*
G37*
G36*
X122462D02*
X114535D01*
Y9573D01*
X122462D01*
Y22028D01*
D02*
G37*
G36*
X173249Y22028D02*
X165322D01*
Y9573D01*
X173249D01*
Y22028D01*
D02*
G37*
G36*
X233117Y19207D02*
X231843D01*
X230613Y18878D01*
X229510Y18241D01*
X228610Y17340D01*
X227973Y16237D01*
X227643Y15007D01*
Y13733D01*
X227973Y12503D01*
X228610Y11400D01*
X229510Y10499D01*
X230613Y9863D01*
X231843Y9533D01*
X233117D01*
X234347Y9863D01*
X235450Y10499D01*
X236351Y11400D01*
X236988Y12503D01*
X237317Y13733D01*
Y15007D01*
X236988Y16237D01*
X236351Y17340D01*
X235450Y18241D01*
X234347Y18878D01*
X233117Y19207D01*
D02*
G37*
G36*
X149268Y12851D02*
X147943D01*
X146663Y12508D01*
X145515Y11845D01*
X144578Y10908D01*
X143915Y9760D01*
X143572Y8480D01*
Y7154D01*
X143915Y5874D01*
X144578Y4726D01*
X145515Y3789D01*
X146663Y3126D01*
X147943Y2783D01*
X149268D01*
X150549Y3126D01*
X151697Y3789D01*
X152634Y4726D01*
X153296Y5874D01*
X153640Y7154D01*
Y8480D01*
X153296Y9760D01*
X152634Y10908D01*
X151697Y11845D01*
X150549Y12508D01*
X149268Y12851D01*
D02*
G37*
G36*
X221704Y10936D02*
X212824D01*
Y2450D01*
X221704D01*
Y10936D01*
D02*
G37*
G36*
X182677Y22028D02*
X174749D01*
Y9573D01*
X182402D01*
X182677Y9573D01*
X182902Y9166D01*
Y2450D01*
X191783D01*
Y10936D01*
X183177D01*
X182902Y10936D01*
X182677Y11343D01*
Y22028D01*
D02*
G37*
%LPD*%
G36*
X55512Y200000D02*
X69291D01*
X77165Y195276D01*
X88583D01*
Y191339D01*
X86614Y189370D01*
X83465D01*
X80709Y186614D01*
Y181102D01*
X73228Y173622D01*
X71260Y171653D01*
X56693Y171653D01*
X50787Y177559D01*
Y195276D01*
X55512Y200000D01*
X55512Y200000D01*
D02*
G37*
G36*
X118373Y171260D02*
X131103D01*
X138976Y163385D01*
X138976Y150394D01*
X137795Y149213D01*
X131497Y149213D01*
Y161024D01*
X126454Y166693D01*
X119843Y166693D01*
X118151Y165001D01*
Y149212D01*
X130709Y138583D01*
X130709Y116496D01*
X118504Y104291D01*
Y104290D01*
X118004Y103937D01*
X102362Y103937D01*
X101181Y105118D01*
X101181Y118504D01*
X111614Y118504D01*
X115355Y123228D01*
X115355Y140223D01*
X113543Y141732D01*
X103268Y141732D01*
X103268Y168386D01*
X106929Y172047D01*
X117323Y172047D01*
X118373Y171260D01*
D02*
G37*
G36*
X81525Y139695D02*
X83347Y137874D01*
X90965Y137874D01*
X92520Y136319D01*
Y133740D01*
X90433Y131653D01*
X83327Y131653D01*
X81832Y130158D01*
X67615Y130121D01*
X65630Y132106D01*
X65630Y135947D01*
Y137284D01*
X68042Y139695D01*
X69061D01*
X74764Y139695D01*
X81525Y139695D01*
D02*
G37*
G36*
X112992Y131102D02*
X112992Y123228D01*
X110236Y120079D01*
X101181D01*
Y128347D01*
X103937Y131102D01*
X112992Y131102D01*
D02*
G37*
G36*
X100000Y128478D02*
X100000Y105118D01*
X98819Y103937D01*
X82284Y103937D01*
X82283Y128216D01*
X84346Y130709D01*
X97769D01*
X100000Y128478D01*
D02*
G37*
%LPC*%
G36*
X113598Y146591D02*
X110396D01*
Y145356D01*
X113598D01*
Y146591D01*
D02*
G37*
G36*
X108896D02*
X105693D01*
Y145356D01*
X108896D01*
Y146591D01*
D02*
G37*
G36*
X113598Y143856D02*
X110396D01*
Y142622D01*
X113598D01*
Y143856D01*
D02*
G37*
G36*
X108896D02*
X105693D01*
Y142622D01*
X108896D01*
Y143856D01*
D02*
G37*
G36*
X114923Y117429D02*
Y116104D01*
X116248D01*
X116228Y116205D01*
X115746Y116927D01*
X115024Y117409D01*
X114923Y117429D01*
D02*
G37*
G36*
X113423D02*
X113322Y117409D01*
X112601Y116927D01*
X112119Y116205D01*
X112099Y116104D01*
X113423D01*
Y117429D01*
D02*
G37*
G36*
X116248Y114604D02*
X114923D01*
Y113280D01*
X115024Y113300D01*
X115746Y113782D01*
X116228Y114503D01*
X116248Y114604D01*
D02*
G37*
G36*
X113423D02*
X112099D01*
X112119Y114503D01*
X112601Y113782D01*
X113322Y113300D01*
X113423Y113280D01*
Y114604D01*
D02*
G37*
G36*
X120435Y113492D02*
Y112167D01*
X121760D01*
X121740Y112268D01*
X121257Y112990D01*
X120536Y113472D01*
X120435Y113492D01*
D02*
G37*
G36*
X118935D02*
X118834Y113472D01*
X118113Y112990D01*
X117631Y112268D01*
X117610Y112167D01*
X118935D01*
Y113492D01*
D02*
G37*
G36*
X121760Y110667D02*
X120435D01*
Y109343D01*
X120536Y109363D01*
X121257Y109845D01*
X121740Y110566D01*
X121760Y110667D01*
D02*
G37*
G36*
X118935D02*
X117610D01*
X117631Y110566D01*
X118113Y109845D01*
X118834Y109363D01*
X118935Y109343D01*
Y110667D01*
D02*
G37*
G36*
X114923Y109555D02*
Y108230D01*
X116248D01*
X116228Y108331D01*
X115746Y109053D01*
X115024Y109535D01*
X114923Y109555D01*
D02*
G37*
G36*
X113423D02*
X113322Y109535D01*
X112601Y109053D01*
X112119Y108331D01*
X112099Y108230D01*
X113423D01*
Y109555D01*
D02*
G37*
G36*
X116248Y106730D02*
X114923D01*
Y105406D01*
X115024Y105426D01*
X115746Y105908D01*
X116228Y106629D01*
X116248Y106730D01*
D02*
G37*
G36*
X113423D02*
X112099D01*
X112119Y106629D01*
X112601Y105908D01*
X113322Y105426D01*
X113423Y105406D01*
Y106730D01*
D02*
G37*
%LPD*%
G36*
X156732Y158543D02*
X156996Y158280D01*
X164403Y158293D01*
X166831Y155867D01*
X166831Y150748D01*
X157303Y150748D01*
X156713Y150157D01*
X155768Y149213D01*
X155492Y148937D01*
Y112165D01*
X154508D01*
X154173Y112500D01*
Y115905D01*
X150827Y118445D01*
X150827Y121142D01*
X152284Y122598D01*
X152284Y149134D01*
X151722Y149696D01*
X151260Y150157D01*
X150472Y150945D01*
Y158484D01*
X151850Y159862D01*
X155347D01*
X156732Y158543D01*
D02*
G37*
G36*
X258800Y55800D02*
X260800Y53800D01*
X260800Y44701D01*
X260251Y44151D01*
X255359Y44151D01*
Y44990D01*
X252930D01*
X252091Y44151D01*
X252091Y44151D01*
X247815D01*
Y46413D01*
X249632Y48231D01*
X250500D01*
X253720Y48189D01*
Y46490D01*
X255359D01*
Y48118D01*
X254434D01*
Y48189D01*
X254408Y48321D01*
X254383Y48454D01*
X254381Y48458D01*
X254380Y48462D01*
X254305Y48574D01*
X254232Y48687D01*
X254228Y48690D01*
X254225Y48694D01*
X254113Y48768D01*
X254002Y48845D01*
X253998Y48846D01*
X253994Y48848D01*
X253861Y48875D01*
X253730Y48903D01*
X250509Y48945D01*
X250500Y49100D01*
X249700Y49900D01*
X249700Y55000D01*
X250500Y55800D01*
X258800Y55800D01*
D02*
G37*
%LPC*%
G36*
X55963Y65173D02*
X53095D01*
Y62305D01*
X55963D01*
Y65173D01*
D02*
G37*
G36*
X74779D02*
X71912D01*
Y62305D01*
X74779D01*
Y65173D01*
D02*
G37*
G36*
X70411D02*
X64687D01*
Y61555D01*
X63187D01*
Y65173D01*
X57463D01*
Y61555D01*
X56713D01*
Y60805D01*
X53095D01*
Y57937D01*
Y55081D01*
X56713D01*
Y53581D01*
X53095D01*
Y50713D01*
Y47856D01*
X56713D01*
Y47106D01*
X57463D01*
Y43488D01*
X63187D01*
Y47106D01*
X64687D01*
Y43488D01*
X70411D01*
Y47106D01*
X71162D01*
Y47856D01*
X74779D01*
Y50713D01*
Y53581D01*
X71162D01*
Y55081D01*
X74779D01*
Y57937D01*
Y60805D01*
X71162D01*
Y61555D01*
X70411D01*
Y65173D01*
D02*
G37*
G36*
X74779Y46356D02*
X71912D01*
Y43488D01*
X74779D01*
Y46356D01*
D02*
G37*
G36*
X55963Y46356D02*
X53095D01*
Y43488D01*
X55963D01*
Y46356D01*
D02*
G37*
G36*
X28110Y32310D02*
X23113Y29390D01*
X28110D01*
X28110Y32310D01*
D02*
G37*
G36*
X25646Y27340D02*
Y26394D01*
X26592D01*
X26495Y26629D01*
X25881Y27243D01*
X25646Y27340D01*
D02*
G37*
G36*
X33660Y29740D02*
X31638D01*
Y25553D01*
X33660D01*
Y29740D01*
D02*
G37*
G36*
X26592Y24394D02*
X25646D01*
Y23447D01*
X25881Y23545D01*
X26495Y24158D01*
X26592Y24394D01*
D02*
G37*
G36*
X25473Y20263D02*
Y19316D01*
X26420D01*
X26322Y19552D01*
X25709Y20165D01*
X25473Y20263D01*
D02*
G37*
G36*
X26420Y17316D02*
X25473D01*
Y16370D01*
X25709Y16467D01*
X26322Y17081D01*
X26420Y17316D01*
D02*
G37*
G36*
X25473Y13940D02*
Y12993D01*
X26420D01*
X26322Y13229D01*
X25709Y13842D01*
X25473Y13940D01*
D02*
G37*
G36*
X34465Y15785D02*
X32087D01*
X29709D01*
Y12976D01*
Y10583D01*
X32087D01*
X34465D01*
Y12976D01*
Y15785D01*
D02*
G37*
G36*
X26420Y10993D02*
X25473D01*
Y10047D01*
X25709Y10144D01*
X26322Y10758D01*
X26420Y10993D01*
D02*
G37*
G36*
X25473Y6120D02*
Y5173D01*
X26420D01*
X26322Y5409D01*
X25709Y6022D01*
X25473Y6120D01*
D02*
G37*
G36*
X34465Y9083D02*
X32087D01*
X29709D01*
Y6274D01*
Y4569D01*
X32087D01*
X34465D01*
Y6274D01*
Y9083D01*
D02*
G37*
G36*
X26420Y3173D02*
X25473D01*
Y2227D01*
X25709Y2324D01*
X26322Y2938D01*
X26420Y3173D01*
D02*
G37*
G36*
X359121Y134561D02*
X357847D01*
X356617Y134232D01*
X355514Y133595D01*
X354614Y132694D01*
X353977Y131591D01*
X353647Y130361D01*
Y129088D01*
X353977Y127857D01*
X354614Y126754D01*
X355514Y125854D01*
X356617Y125217D01*
X357847Y124887D01*
X359121D01*
X360351Y125217D01*
X361454Y125854D01*
X362355Y126754D01*
X362992Y127857D01*
X363321Y129088D01*
Y130361D01*
X362992Y131591D01*
X362355Y132694D01*
X361454Y133595D01*
X360351Y134232D01*
X359121Y134561D01*
D02*
G37*
G36*
X293727Y133735D02*
X292454D01*
X291224Y133405D01*
X290121Y132768D01*
X289220Y131868D01*
X288583Y130765D01*
X288253Y129534D01*
Y128261D01*
X288583Y127031D01*
X289220Y125928D01*
X290121Y125027D01*
X291224Y124390D01*
X292454Y124061D01*
X293727D01*
X294958Y124390D01*
X296060Y125027D01*
X296961Y125928D01*
X297598Y127031D01*
X297928Y128261D01*
Y129534D01*
X297598Y130765D01*
X296961Y131868D01*
X296060Y132768D01*
X294958Y133405D01*
X293727Y133735D01*
D02*
G37*
G36*
X316813Y120136D02*
Y118014D01*
X318935D01*
X318829Y118410D01*
X318438Y119087D01*
X317886Y119639D01*
X317209Y120030D01*
X316813Y120136D01*
D02*
G37*
G36*
X315313D02*
X314917Y120030D01*
X314240Y119639D01*
X313688Y119087D01*
X313297Y118410D01*
X313191Y118014D01*
X315313D01*
Y120136D01*
D02*
G37*
G36*
X330614Y120132D02*
X329859D01*
X329129Y119937D01*
X328475Y119559D01*
X327941Y119025D01*
X327563Y118371D01*
X327368Y117641D01*
Y116886D01*
X327563Y116157D01*
X327941Y115503D01*
X328475Y114968D01*
X329129Y114591D01*
X329859Y114395D01*
X330614D01*
X331343Y114591D01*
X331997Y114968D01*
X332532Y115503D01*
X332909Y116157D01*
X333105Y116886D01*
Y117641D01*
X332909Y118371D01*
X332532Y119025D01*
X331997Y119559D01*
X331343Y119937D01*
X330614Y120132D01*
D02*
G37*
G36*
X318935Y116514D02*
X316813D01*
Y114392D01*
X317209Y114498D01*
X317886Y114888D01*
X318438Y115441D01*
X318829Y116118D01*
X318935Y116514D01*
D02*
G37*
G36*
X315313D02*
X313191D01*
X313297Y116118D01*
X313688Y115441D01*
X314240Y114888D01*
X314917Y114498D01*
X315313Y114392D01*
Y116514D01*
D02*
G37*
G36*
X330614Y105959D02*
X329859D01*
X329129Y105764D01*
X328475Y105386D01*
X327941Y104852D01*
X327563Y104198D01*
X327368Y103468D01*
Y102713D01*
X327563Y101983D01*
X327941Y101329D01*
X328475Y100795D01*
X329129Y100417D01*
X329859Y100222D01*
X330614D01*
X331343Y100417D01*
X331997Y100795D01*
X332532Y101329D01*
X332909Y101983D01*
X333105Y102713D01*
Y103468D01*
X332909Y104198D01*
X332532Y104852D01*
X331997Y105386D01*
X331343Y105764D01*
X330614Y105959D01*
D02*
G37*
G36*
X329917Y73244D02*
X327502D01*
Y71419D01*
X329917D01*
Y73244D01*
D02*
G37*
G36*
X321674Y90385D02*
X317518D01*
Y83867D01*
X317648D01*
Y79435D01*
X316908D01*
Y75541D01*
X314271D01*
X313627Y75412D01*
X313081Y75048D01*
X306699Y68665D01*
X306334Y68120D01*
X306206Y67476D01*
Y44217D01*
X300482Y38493D01*
X299494D01*
X297759Y40229D01*
X297527Y40384D01*
X297254Y40438D01*
X292244D01*
X291971Y40384D01*
X291739Y40229D01*
X289948Y38438D01*
X289793Y38206D01*
X289739Y37933D01*
Y35846D01*
X289793Y35573D01*
X289948Y35342D01*
X291562Y33728D01*
X291794Y33573D01*
X292067Y33519D01*
X297589D01*
X297862Y33573D01*
X298093Y33728D01*
X299494Y35129D01*
X301179D01*
X301823Y35257D01*
X302369Y35621D01*
X309078Y42331D01*
X309078Y42331D01*
X309443Y42876D01*
X309571Y43520D01*
Y66779D01*
X314968Y72176D01*
X322481D01*
X323087Y72297D01*
X323202Y72288D01*
X323587Y72082D01*
Y71419D01*
X326002D01*
Y73244D01*
X324899D01*
X324708Y73706D01*
X325847Y74845D01*
X325907Y74935D01*
X328408D01*
Y79435D01*
X323207D01*
Y77185D01*
X323103Y77029D01*
X323061Y76818D01*
X322569Y76326D01*
X322108Y76517D01*
Y79435D01*
X321013D01*
Y83867D01*
X321674D01*
Y90385D01*
D02*
G37*
G36*
X329154D02*
X324998D01*
Y83867D01*
X329154D01*
Y84743D01*
X329616Y84934D01*
X333357Y81193D01*
Y70933D01*
X331035Y68612D01*
X329917D01*
Y69919D01*
X326752D01*
X323587D01*
Y68612D01*
X322176D01*
Y69204D01*
X316446D01*
Y64654D01*
X322176D01*
Y65247D01*
X323887D01*
Y60914D01*
X323637Y60518D01*
X323582D01*
Y56018D01*
X328782D01*
Y60518D01*
X329031Y60914D01*
X329617D01*
Y65247D01*
X331732D01*
X332376Y65375D01*
X332922Y65740D01*
X336229Y69047D01*
X336229Y69047D01*
X336594Y69592D01*
X336722Y70236D01*
Y81890D01*
X336594Y82534D01*
X336229Y83079D01*
X330809Y88499D01*
X330263Y88864D01*
X329619Y88992D01*
X329154D01*
Y90385D01*
D02*
G37*
G36*
X359121Y40998D02*
X357847D01*
X356617Y40669D01*
X355514Y40032D01*
X354614Y39131D01*
X353977Y38028D01*
X353647Y36798D01*
Y35525D01*
X353977Y34294D01*
X354614Y33191D01*
X355514Y32291D01*
X356617Y31654D01*
X357847Y31324D01*
X359121D01*
X360351Y31654D01*
X361454Y32291D01*
X362355Y33191D01*
X362992Y34294D01*
X363321Y35525D01*
Y36798D01*
X362992Y38028D01*
X362355Y39131D01*
X361454Y40032D01*
X360351Y40669D01*
X359121Y40998D01*
D02*
G37*
G36*
X322481Y60518D02*
X317282D01*
Y56018D01*
X317944D01*
Y43295D01*
X301331Y26682D01*
X299494D01*
X298152Y28024D01*
X297921Y28179D01*
X297648Y28233D01*
X296692D01*
X296260Y28290D01*
X294291D01*
X293859Y28233D01*
X291850D01*
X291577Y28179D01*
X291346Y28024D01*
X289889Y26568D01*
X289734Y26336D01*
X289680Y26063D01*
Y24094D01*
X289734Y23821D01*
X289889Y23590D01*
X291621Y21858D01*
X291670Y21825D01*
X291710Y21771D01*
X291809Y21306D01*
X291798Y21204D01*
X291442Y20740D01*
X291113Y19946D01*
X291001Y19094D01*
X291113Y18243D01*
X291442Y17449D01*
X291847Y16921D01*
X291848Y16823D01*
X291720Y16465D01*
X291653Y16383D01*
X291577Y16368D01*
X291346Y16213D01*
X290161Y15029D01*
X288846D01*
X288533Y15342D01*
Y41606D01*
X290829Y43903D01*
X303504D01*
X304148Y44031D01*
X304694Y44396D01*
X305058Y44942D01*
X305186Y45585D01*
X305058Y46229D01*
X304694Y46775D01*
X304148Y47140D01*
X303504Y47268D01*
X290133D01*
X289489Y47140D01*
X288943Y46775D01*
X285661Y43493D01*
X285296Y42947D01*
X285168Y42303D01*
Y14646D01*
X285296Y14002D01*
X285661Y13456D01*
X286960Y12157D01*
X286960Y12157D01*
X287506Y11792D01*
X288150Y11664D01*
X290004D01*
X291621Y10046D01*
X291670Y10014D01*
X291710Y9960D01*
X291809Y9495D01*
X291798Y9393D01*
X291442Y8929D01*
X291113Y8135D01*
X291001Y7283D01*
X291113Y6432D01*
X291442Y5638D01*
X291965Y4957D01*
X292646Y4434D01*
X293440Y4105D01*
X294291Y3993D01*
X296260D01*
X297112Y4105D01*
X297905Y4434D01*
X298587Y4957D01*
X299109Y5638D01*
X299438Y6432D01*
X299550Y7283D01*
X299438Y8135D01*
X299109Y8929D01*
X298587Y9610D01*
X298427Y9732D01*
X298384Y10396D01*
X299934Y11946D01*
X300089Y12178D01*
X300143Y12451D01*
Y13927D01*
X300089Y14200D01*
X299934Y14432D01*
X298384Y15982D01*
X298388Y16616D01*
X298587Y16768D01*
X299109Y17449D01*
X299438Y18243D01*
X299550Y19094D01*
X299438Y19946D01*
X299109Y20740D01*
X298587Y21421D01*
X298427Y21543D01*
X298384Y22207D01*
X299494Y23318D01*
X302028D01*
X302671Y23446D01*
X303217Y23810D01*
X306570Y27163D01*
X306930Y26826D01*
X306729Y26341D01*
X308030D01*
Y27641D01*
X307544Y27440D01*
X307207Y27800D01*
X320815Y41409D01*
X320816Y41409D01*
X321180Y41955D01*
X321308Y42598D01*
Y56018D01*
X322481D01*
Y60518D01*
D02*
G37*
G36*
X309529Y27641D02*
Y26341D01*
X310830D01*
X310629Y26826D01*
X310015Y27440D01*
X309529Y27641D01*
D02*
G37*
G36*
X319313Y27424D02*
Y26124D01*
X320613D01*
X320412Y26610D01*
X319798Y27223D01*
X319313Y27424D01*
D02*
G37*
G36*
X317813D02*
X317327Y27223D01*
X316714Y26610D01*
X316513Y26124D01*
X317813D01*
Y27424D01*
D02*
G37*
G36*
X310830Y24840D02*
X309529D01*
Y23540D01*
X310015Y23742D01*
X310629Y24355D01*
X310830Y24840D01*
D02*
G37*
G36*
X308030D02*
X306729D01*
X306930Y24355D01*
X307544Y23742D01*
X308030Y23540D01*
Y24840D01*
D02*
G37*
G36*
X320613Y24624D02*
X319313D01*
Y23324D01*
X319798Y23525D01*
X320412Y24138D01*
X320613Y24624D01*
D02*
G37*
G36*
X317813D02*
X316513D01*
X316714Y24138D01*
X317327Y23525D01*
X317813Y23324D01*
Y24624D01*
D02*
G37*
%LPD*%
G36*
X299429Y37549D02*
Y36073D01*
X297589Y34232D01*
X292067D01*
X290453Y35846D01*
Y37933D01*
X292244Y39724D01*
X297254D01*
X299429Y37549D01*
D02*
G37*
G36*
Y25738D02*
Y24262D01*
X297530Y22362D01*
X292126D01*
X290394Y24094D01*
Y26063D01*
X291850Y27520D01*
X297648D01*
X299429Y25738D01*
D02*
G37*
G36*
Y13927D02*
Y12451D01*
X297530Y10551D01*
X292126D01*
X289793Y12884D01*
Y13652D01*
X291850Y15709D01*
X297648D01*
X299429Y13927D01*
D02*
G37*
D21*
X203263Y42327D02*
X203275Y42315D01*
Y37906D02*
Y42315D01*
Y37906D02*
X203287Y37894D01*
X244094Y182362D02*
X244232Y182500D01*
X253366D02*
X256122Y179744D01*
X190787Y98898D02*
Y99301D01*
X244232Y182500D02*
X253366D01*
X250492Y133878D02*
X256122Y139508D01*
Y179744D01*
X237756Y133878D02*
X250492D01*
X203110Y99232D02*
X237756Y133878D01*
X190856Y99232D02*
X203110D01*
X125394Y102205D02*
X131417D01*
X113852Y90663D02*
X125394Y102205D01*
X131417D02*
X131535Y102087D01*
X144528D02*
X145394Y102953D01*
X137835Y102087D02*
X144528D01*
X145394Y102953D02*
X149016D01*
X70799Y9154D02*
Y13730D01*
X58445Y9252D02*
X64389D01*
X64488Y9154D01*
X172887Y143025D02*
X176647D01*
X170705Y147063D02*
X176806D01*
X176647Y143025D02*
X176713Y143091D01*
X176806Y147063D02*
X176850Y147107D01*
X245827Y39154D02*
Y42163D01*
X248573Y44909D01*
X242067Y39153D02*
X242067Y39154D01*
X245827D01*
X190787Y99301D02*
Y102558D01*
X190570Y102775D02*
X190787Y102558D01*
X58445Y16732D02*
X64606D01*
X64646Y16693D01*
X72205Y15136D02*
Y15505D01*
X70799Y13730D02*
X72205Y15136D01*
X71161Y50718D02*
Y54331D01*
X63937D02*
Y57943D01*
Y50718D02*
Y54331D01*
X67549D02*
X71161D01*
X67549Y47106D02*
X71161D01*
Y50718D01*
X63937Y47106D02*
X67549D01*
X63937D02*
Y50718D01*
X60325Y47106D02*
X63937D01*
X56713D02*
X60325D01*
X56713D02*
Y50718D01*
Y54331D02*
Y57943D01*
Y61555D01*
Y54331D02*
X60325D01*
X63937Y57943D02*
Y61555D01*
X71161Y57943D02*
Y61555D01*
X67549D02*
X71161D01*
X63937D02*
X67549D01*
X60325D02*
X63937D01*
X56713D02*
X60325D01*
X156890Y75413D02*
Y81299D01*
X151142Y75413D02*
X151402Y75674D01*
X154921Y77421D02*
Y81299D01*
X153174Y75674D02*
X154921Y77421D01*
X151402Y75674D02*
X153174D01*
X161890Y73130D02*
X164764Y76004D01*
X161890Y73130D02*
X161890D01*
X220905Y102205D02*
X242854Y124153D01*
X220905Y96142D02*
Y102205D01*
X217165Y95906D02*
Y103701D01*
X241280Y127815D01*
X166752Y75512D02*
X169134Y73130D01*
X166752Y75512D02*
Y81279D01*
X166732Y81299D02*
X166752Y81279D01*
X164764Y76004D02*
Y81299D01*
X241700Y45820D02*
X242067Y45453D01*
X143937Y91142D02*
X149016D01*
X176575Y114764D02*
X176654Y114842D01*
X142913Y90118D02*
X143937Y91142D01*
X182480Y99016D02*
X182496Y99000D01*
X186996D01*
X187000Y99004D01*
X113852Y38412D02*
X113973Y38291D01*
X113852Y38412D02*
Y90663D01*
X54628Y102730D02*
X54772Y102874D01*
X49360Y98966D02*
X53124Y102730D01*
X54628D01*
X49360Y91782D02*
Y98966D01*
X54409Y91732D02*
X54843Y92165D01*
Y98917D01*
X110630Y92343D02*
X123209Y104921D01*
X149016D01*
X110630Y27166D02*
Y92343D01*
X212776Y172230D02*
Y172598D01*
X190787Y99301D02*
X190856Y99232D01*
X186988Y105905D02*
Y106892D01*
X187936Y107840D01*
X190833Y107967D02*
Y113017D01*
X190750Y113100D02*
X190833Y113017D01*
X190706Y107840D02*
X190833Y107967D01*
X187936Y107840D02*
X190706D01*
X168593Y138730D02*
X168602Y138721D01*
Y132402D02*
Y138721D01*
X173031Y132402D02*
Y136378D01*
X177402Y132402D02*
Y134961D01*
X179016Y136575D02*
X200905D01*
X177402Y134961D02*
X179016Y136575D01*
X200905D02*
X204075Y139744D01*
X173031Y136378D02*
X176516Y139862D01*
X164322Y140680D02*
X170705Y147063D01*
X168593Y138730D02*
X172887Y143025D01*
X176516Y139862D02*
X197913D01*
X199016Y140965D01*
X204075Y139744D02*
Y144941D01*
X242854Y124153D02*
X258287D01*
X269698Y135564D01*
Y202605D01*
X244094Y212362D02*
X259941D01*
X269698Y202605D01*
X256988Y127815D02*
X265905Y136732D01*
Y197028D01*
X260571Y202362D02*
X265905Y197028D01*
X241280Y127815D02*
X256988D01*
X240433Y130905D02*
X254410D01*
X210295Y95197D02*
Y100768D01*
X240433Y130905D01*
X244094Y202362D02*
X260571D01*
X244606Y192874D02*
X257618D01*
X254410Y130905D02*
X261063Y137559D01*
X257618Y192874D02*
X261063Y189429D01*
Y137559D02*
Y189429D01*
X244094Y192362D02*
X244606Y192874D01*
X212776Y172230D02*
X214055Y170950D01*
Y166614D02*
Y170950D01*
X204055Y144961D02*
X204075Y144941D01*
X199016Y144921D02*
X199055Y144961D01*
X199016Y140965D02*
Y144921D01*
X201949Y132264D02*
X209055Y139370D01*
X194193Y132264D02*
X201949D01*
X209055Y139370D02*
Y144961D01*
X104449Y18465D02*
X106850Y20866D01*
X110630D01*
X99783Y18465D02*
X104449D01*
X98622Y17303D02*
X99783Y18465D01*
X98622Y13189D02*
Y17303D01*
X249830Y45740D02*
X251800D01*
X248999Y44909D02*
X249830Y45740D01*
X248573Y44909D02*
X248999D01*
X244362Y45492D02*
X245043Y46173D01*
X245412D01*
X242106Y45492D02*
X244362D01*
X242067Y45453D02*
X242106Y45492D01*
X247126Y99111D02*
X247152Y99137D01*
X247126Y87677D02*
Y99111D01*
X241700Y82251D02*
X247126Y87677D01*
X241700Y73627D02*
Y82251D01*
X241713Y45453D02*
X242067D01*
X236700Y51973D02*
X236772Y51902D01*
X232829Y46398D02*
X233951Y45276D01*
X236588D01*
X232461Y46398D02*
X232829D01*
X236700Y45387D02*
Y51973D01*
X236588Y45276D02*
X236700Y45387D01*
X241700Y45820D02*
Y51973D01*
X187598Y103347D02*
X190433D01*
X190787Y102992D01*
X187205Y102953D02*
X187598Y103347D01*
X182480Y102953D02*
X187205D01*
X-191950Y1085549D02*
Y1079551D01*
X-187951D01*
X-184952Y1083550D02*
X-182953D01*
X-181953Y1082550D01*
Y1079551D01*
X-184952D01*
X-185952Y1080551D01*
X-184952Y1081551D01*
X-181953D01*
X-179954Y1083550D02*
Y1080551D01*
X-178954Y1079551D01*
X-175955D01*
Y1078551D01*
X-176955Y1077552D01*
X-177954D01*
X-175955Y1079551D02*
Y1083550D01*
X-170957Y1079551D02*
X-172956D01*
X-173956Y1080551D01*
Y1082550D01*
X-172956Y1083550D01*
X-170957D01*
X-169957Y1082550D01*
Y1081551D01*
X-173956D01*
X-167958Y1083550D02*
Y1079551D01*
Y1081551D01*
X-166958Y1082550D01*
X-165958Y1083550D01*
X-164959D01*
X-188951Y935551D02*
Y941549D01*
X-191950Y938550D01*
X-187951D01*
X-191950Y976550D02*
X-190950Y977549D01*
X-188951D01*
X-187951Y976550D01*
Y975550D01*
X-188951Y974550D01*
X-189951D01*
X-188951D01*
X-187951Y973551D01*
Y972551D01*
X-188951Y971551D01*
X-190950D01*
X-191950Y972551D01*
X-187951Y995551D02*
X-191950D01*
X-187951Y999550D01*
Y1000550D01*
X-188951Y1001549D01*
X-190950D01*
X-191950Y1000550D01*
Y1031551D02*
X-189951D01*
X-190950D01*
Y1037549D01*
X-191950Y1036550D01*
X-150959Y1079551D02*
Y1085549D01*
X-146960Y1079551D01*
Y1085549D01*
X-143961Y1083550D02*
X-141962D01*
X-140962Y1082550D01*
Y1079551D01*
X-143961D01*
X-144961Y1080551D01*
X-143961Y1081551D01*
X-140962D01*
X-138963Y1079551D02*
Y1083550D01*
X-137963D01*
X-136963Y1082550D01*
Y1079551D01*
Y1082550D01*
X-135963Y1083550D01*
X-134964Y1082550D01*
Y1079551D01*
X-129965D02*
X-131965D01*
X-132965Y1080551D01*
Y1082550D01*
X-131965Y1083550D01*
X-129965D01*
X-128966Y1082550D01*
Y1081551D01*
X-132965D01*
X-150959Y905549D02*
Y899551D01*
X-147960D01*
X-146960Y900551D01*
Y901551D01*
X-147960Y902550D01*
X-150959D01*
X-147960D01*
X-146960Y903550D01*
Y904550D01*
X-147960Y905549D01*
X-150959D01*
X-143961Y899551D02*
X-141962D01*
X-140962Y900551D01*
Y902550D01*
X-141962Y903550D01*
X-143961D01*
X-144961Y902550D01*
Y900551D01*
X-143961Y899551D01*
X-137963Y904550D02*
Y903550D01*
X-138963D01*
X-136963D01*
X-137963D01*
Y900551D01*
X-136963Y899551D01*
X-132965Y904550D02*
Y903550D01*
X-133964D01*
X-131965D01*
X-132965D01*
Y900551D01*
X-131965Y899551D01*
X-127966D02*
X-125967D01*
X-124967Y900551D01*
Y902550D01*
X-125967Y903550D01*
X-127966D01*
X-128966Y902550D01*
Y900551D01*
X-127966Y899551D01*
X-122968D02*
Y903550D01*
X-121968D01*
X-120968Y902550D01*
Y899551D01*
Y902550D01*
X-119969Y903550D01*
X-118969Y902550D01*
Y899551D01*
X-107973Y905549D02*
X-109972D01*
X-110972Y904550D01*
Y900551D01*
X-109972Y899551D01*
X-107973D01*
X-106973Y900551D01*
Y904550D01*
X-107973Y905549D01*
X-104974Y903550D02*
X-102974Y899551D01*
X-100975Y903550D01*
X-95977Y899551D02*
X-97976D01*
X-98975Y900551D01*
Y902550D01*
X-97976Y903550D01*
X-95977D01*
X-94977Y902550D01*
Y901551D01*
X-98975D01*
X-92977Y903550D02*
Y899551D01*
Y901551D01*
X-91978Y902550D01*
X-90978Y903550D01*
X-89978D01*
X-86979Y899551D02*
X-84980D01*
X-85980D01*
Y905549D01*
X-86979D01*
X-80981Y903550D02*
X-78982D01*
X-77982Y902550D01*
Y899551D01*
X-80981D01*
X-81981Y900551D01*
X-80981Y901551D01*
X-77982D01*
X-75983Y903550D02*
Y900551D01*
X-74983Y899551D01*
X-71984D01*
Y898551D01*
X-72984Y897552D01*
X-73984D01*
X-71984Y899551D02*
Y903550D01*
X-150959Y917549D02*
Y911551D01*
X-147960D01*
X-146960Y912551D01*
Y913551D01*
X-147960Y914550D01*
X-150959D01*
X-147960D01*
X-146960Y915550D01*
Y916550D01*
X-147960Y917549D01*
X-150959D01*
X-143961Y911551D02*
X-141962D01*
X-140962Y912551D01*
Y914550D01*
X-141962Y915550D01*
X-143961D01*
X-144961Y914550D01*
Y912551D01*
X-143961Y911551D01*
X-137963Y916550D02*
Y915550D01*
X-138963D01*
X-136963D01*
X-137963D01*
Y912551D01*
X-136963Y911551D01*
X-132965Y916550D02*
Y915550D01*
X-133964D01*
X-131965D01*
X-132965D01*
Y912551D01*
X-131965Y911551D01*
X-127966D02*
X-125967D01*
X-124967Y912551D01*
Y914550D01*
X-125967Y915550D01*
X-127966D01*
X-128966Y914550D01*
Y912551D01*
X-127966Y911551D01*
X-122968D02*
Y915550D01*
X-121968D01*
X-120968Y914550D01*
Y911551D01*
Y914550D01*
X-119969Y915550D01*
X-118969Y914550D01*
Y911551D01*
X-106973Y916550D02*
X-107973Y917549D01*
X-109972D01*
X-110972Y916550D01*
Y915550D01*
X-109972Y914550D01*
X-107973D01*
X-106973Y913551D01*
Y912551D01*
X-107973Y911551D01*
X-109972D01*
X-110972Y912551D01*
X-103974Y911551D02*
X-101974D01*
X-100975Y912551D01*
Y914550D01*
X-101974Y915550D01*
X-103974D01*
X-104974Y914550D01*
Y912551D01*
X-103974Y911551D01*
X-98975D02*
X-96976D01*
X-97976D01*
Y917549D01*
X-98975D01*
X-89978D02*
Y911551D01*
X-92977D01*
X-93977Y912551D01*
Y914550D01*
X-92977Y915550D01*
X-89978D01*
X-84980Y911551D02*
X-86979D01*
X-87979Y912551D01*
Y914550D01*
X-86979Y915550D01*
X-84980D01*
X-83980Y914550D01*
Y913551D01*
X-87979D01*
X-81981Y915550D02*
Y911551D01*
Y913551D01*
X-80981Y914550D01*
X-79982Y915550D01*
X-78982D01*
X-150959Y929549D02*
Y923551D01*
X-147960D01*
X-146960Y924551D01*
Y925551D01*
X-147960Y926550D01*
X-150959D01*
X-147960D01*
X-146960Y927550D01*
Y928550D01*
X-147960Y929549D01*
X-150959D01*
X-143961Y923551D02*
X-141962D01*
X-140962Y924551D01*
Y926550D01*
X-141962Y927550D01*
X-143961D01*
X-144961Y926550D01*
Y924551D01*
X-143961Y923551D01*
X-137963Y928550D02*
Y927550D01*
X-138963D01*
X-136963D01*
X-137963D01*
Y924551D01*
X-136963Y923551D01*
X-132965Y928550D02*
Y927550D01*
X-133964D01*
X-131965D01*
X-132965D01*
Y924551D01*
X-131965Y923551D01*
X-127966D02*
X-125967D01*
X-124967Y924551D01*
Y926550D01*
X-125967Y927550D01*
X-127966D01*
X-128966Y926550D01*
Y924551D01*
X-127966Y923551D01*
X-122968D02*
Y927550D01*
X-121968D01*
X-120968Y926550D01*
Y923551D01*
Y926550D01*
X-119969Y927550D01*
X-118969Y926550D01*
Y923551D01*
X-106973Y928550D02*
X-107973Y929549D01*
X-109972D01*
X-110972Y928550D01*
Y927550D01*
X-109972Y926550D01*
X-107973D01*
X-106973Y925551D01*
Y924551D01*
X-107973Y923551D01*
X-109972D01*
X-110972Y924551D01*
X-104974Y927550D02*
Y924551D01*
X-103974Y923551D01*
X-100975D01*
Y927550D01*
X-98975D02*
Y923551D01*
Y925551D01*
X-97976Y926550D01*
X-96976Y927550D01*
X-95977D01*
X-91978Y923551D02*
Y928550D01*
Y926550D01*
X-92977D01*
X-90978D01*
X-91978D01*
Y928550D01*
X-90978Y929549D01*
X-86979Y927550D02*
X-84980D01*
X-83980Y926550D01*
Y923551D01*
X-86979D01*
X-87979Y924551D01*
X-86979Y925551D01*
X-83980D01*
X-77982Y927550D02*
X-80981D01*
X-81981Y926550D01*
Y924551D01*
X-80981Y923551D01*
X-77982D01*
X-72984D02*
X-74983D01*
X-75983Y924551D01*
Y926550D01*
X-74983Y927550D01*
X-72984D01*
X-71984Y926550D01*
Y925551D01*
X-75983D01*
X-59988Y929549D02*
X-63987D01*
Y926550D01*
X-61988D01*
X-63987D01*
Y923551D01*
X-57989D02*
X-55989D01*
X-56989D01*
Y927550D01*
X-57989D01*
X-52990Y923551D02*
Y927550D01*
X-49991D01*
X-48992Y926550D01*
Y923551D01*
X-46992D02*
X-44993D01*
X-45993D01*
Y927550D01*
X-46992D01*
X-41994Y923551D02*
X-38995D01*
X-37995Y924551D01*
X-38995Y925551D01*
X-40994D01*
X-41994Y926550D01*
X-40994Y927550D01*
X-37995D01*
X-35996Y929549D02*
Y923551D01*
Y926550D01*
X-34996Y927550D01*
X-32997D01*
X-31997Y926550D01*
Y923551D01*
X-150959Y941549D02*
Y935551D01*
X-147960D01*
X-146960Y936551D01*
Y937551D01*
X-147960Y938550D01*
X-150959D01*
X-147960D01*
X-146960Y939550D01*
Y940550D01*
X-147960Y941549D01*
X-150959D01*
X-143961Y935551D02*
X-141962D01*
X-140962Y936551D01*
Y938550D01*
X-141962Y939550D01*
X-143961D01*
X-144961Y938550D01*
Y936551D01*
X-143961Y935551D01*
X-137963Y940550D02*
Y939550D01*
X-138963D01*
X-136963D01*
X-137963D01*
Y936551D01*
X-136963Y935551D01*
X-132965Y940550D02*
Y939550D01*
X-133964D01*
X-131965D01*
X-132965D01*
Y936551D01*
X-131965Y935551D01*
X-127966D02*
X-125967D01*
X-124967Y936551D01*
Y938550D01*
X-125967Y939550D01*
X-127966D01*
X-128966Y938550D01*
Y936551D01*
X-127966Y935551D01*
X-122968D02*
Y939550D01*
X-121968D01*
X-120968Y938550D01*
Y935551D01*
Y938550D01*
X-119969Y939550D01*
X-118969Y938550D01*
Y935551D01*
X-110972Y941549D02*
Y935551D01*
X-106973D01*
X-103974Y939550D02*
X-101974D01*
X-100975Y938550D01*
Y935551D01*
X-103974D01*
X-104974Y936551D01*
X-103974Y937551D01*
X-100975D01*
X-98975Y939550D02*
Y936551D01*
X-97976Y935551D01*
X-94977D01*
Y934552D01*
X-95977Y933552D01*
X-96976D01*
X-94977Y935551D02*
Y939550D01*
X-89978Y935551D02*
X-91978D01*
X-92977Y936551D01*
Y938550D01*
X-91978Y939550D01*
X-89978D01*
X-88979Y938550D01*
Y937551D01*
X-92977D01*
X-86979Y939550D02*
Y935551D01*
Y937551D01*
X-85980Y938550D01*
X-84980Y939550D01*
X-83980D01*
X-150959Y953549D02*
Y947551D01*
X-147960D01*
X-146960Y948551D01*
Y952550D01*
X-147960Y953549D01*
X-150959D01*
X-144961Y947551D02*
X-142961D01*
X-143961D01*
Y951550D01*
X-144961D01*
X-136963Y947551D02*
X-138963D01*
X-139962Y948551D01*
Y950550D01*
X-138963Y951550D01*
X-136963D01*
X-135963Y950550D01*
Y949551D01*
X-139962D01*
X-133964Y947551D02*
X-131965D01*
X-132965D01*
Y953549D01*
X-133964D01*
X-125967Y947551D02*
X-127966D01*
X-128966Y948551D01*
Y950550D01*
X-127966Y951550D01*
X-125967D01*
X-124967Y950550D01*
Y949551D01*
X-128966D01*
X-118969Y951550D02*
X-121968D01*
X-122968Y950550D01*
Y948551D01*
X-121968Y947551D01*
X-118969D01*
X-115970Y952550D02*
Y951550D01*
X-116970D01*
X-114970D01*
X-115970D01*
Y948551D01*
X-114970Y947551D01*
X-111971Y951550D02*
Y947551D01*
Y949551D01*
X-110972Y950550D01*
X-109972Y951550D01*
X-108972D01*
X-105973Y947551D02*
X-103974D01*
X-104974D01*
Y951550D01*
X-105973D01*
X-96976D02*
X-99975D01*
X-100975Y950550D01*
Y948551D01*
X-99975Y947551D01*
X-96976D01*
X-84980Y953549D02*
X-88979D01*
Y950550D01*
X-86979Y951550D01*
X-85980D01*
X-84980Y950550D01*
Y948551D01*
X-85980Y947551D01*
X-87979D01*
X-88979Y948551D01*
X-150959Y965549D02*
Y959551D01*
X-147960D01*
X-146960Y960551D01*
Y964550D01*
X-147960Y965549D01*
X-150959D01*
X-144961Y959551D02*
X-142961D01*
X-143961D01*
Y963550D01*
X-144961D01*
X-136963Y959551D02*
X-138963D01*
X-139962Y960551D01*
Y962550D01*
X-138963Y963550D01*
X-136963D01*
X-135963Y962550D01*
Y961551D01*
X-139962D01*
X-133964Y959551D02*
X-131965D01*
X-132965D01*
Y965549D01*
X-133964D01*
X-125967Y959551D02*
X-127966D01*
X-128966Y960551D01*
Y962550D01*
X-127966Y963550D01*
X-125967D01*
X-124967Y962550D01*
Y961551D01*
X-128966D01*
X-118969Y963550D02*
X-121968D01*
X-122968Y962550D01*
Y960551D01*
X-121968Y959551D01*
X-118969D01*
X-115970Y964550D02*
Y963550D01*
X-116970D01*
X-114970D01*
X-115970D01*
Y960551D01*
X-114970Y959551D01*
X-111971Y963550D02*
Y959551D01*
Y961551D01*
X-110972Y962550D01*
X-109972Y963550D01*
X-108972D01*
X-105973Y959551D02*
X-103974D01*
X-104974D01*
Y963550D01*
X-105973D01*
X-96976D02*
X-99975D01*
X-100975Y962550D01*
Y960551D01*
X-99975Y959551D01*
X-96976D01*
X-85980D02*
Y965549D01*
X-88979Y962550D01*
X-84980D01*
X-150959Y977549D02*
X-148959D01*
X-149959D01*
Y971551D01*
X-150959D01*
X-148959D01*
X-145960D02*
Y975550D01*
X-142961D01*
X-141962Y974550D01*
Y971551D01*
X-138963Y976550D02*
Y975550D01*
X-139962D01*
X-137963D01*
X-138963D01*
Y972551D01*
X-137963Y971551D01*
X-130965D02*
X-134964D01*
X-130965Y975550D01*
Y976550D01*
X-131965Y977549D01*
X-133964D01*
X-134964Y976550D01*
X-120968Y971551D02*
X-122968Y973551D01*
Y975550D01*
X-120968Y977549D01*
X-117969Y971551D02*
Y977549D01*
X-114970D01*
X-113971Y976550D01*
Y974550D01*
X-114970Y973551D01*
X-117969D01*
X-111971Y977549D02*
Y971551D01*
X-109972Y973551D01*
X-107973Y971551D01*
Y977549D01*
X-105973Y971551D02*
Y977549D01*
X-102974D01*
X-101974Y976550D01*
Y974550D01*
X-102974Y973551D01*
X-105973D01*
X-103974D02*
X-101974Y971551D01*
X-99975D02*
X-97976Y973551D01*
Y975550D01*
X-99975Y977549D01*
X-150959Y989549D02*
Y983551D01*
X-147960D01*
X-146960Y984551D01*
Y988550D01*
X-147960Y989549D01*
X-150959D01*
X-144961Y983551D02*
X-142961D01*
X-143961D01*
Y987550D01*
X-144961D01*
X-136963Y983551D02*
X-138963D01*
X-139962Y984551D01*
Y986550D01*
X-138963Y987550D01*
X-136963D01*
X-135963Y986550D01*
Y985551D01*
X-139962D01*
X-133964Y983551D02*
X-131965D01*
X-132965D01*
Y989549D01*
X-133964D01*
X-125967Y983551D02*
X-127966D01*
X-128966Y984551D01*
Y986550D01*
X-127966Y987550D01*
X-125967D01*
X-124967Y986550D01*
Y985551D01*
X-128966D01*
X-118969Y987550D02*
X-121968D01*
X-122968Y986550D01*
Y984551D01*
X-121968Y983551D01*
X-118969D01*
X-115970Y988550D02*
Y987550D01*
X-116970D01*
X-114970D01*
X-115970D01*
Y984551D01*
X-114970Y983551D01*
X-111971Y987550D02*
Y983551D01*
Y985551D01*
X-110972Y986550D01*
X-109972Y987550D01*
X-108972D01*
X-105973Y983551D02*
X-103974D01*
X-104974D01*
Y987550D01*
X-105973D01*
X-96976D02*
X-99975D01*
X-100975Y986550D01*
Y984551D01*
X-99975Y983551D01*
X-96976D01*
X-88979Y988550D02*
X-87979Y989549D01*
X-85980D01*
X-84980Y988550D01*
Y987550D01*
X-85980Y986550D01*
X-86979D01*
X-85980D01*
X-84980Y985551D01*
Y984551D01*
X-85980Y983551D01*
X-87979D01*
X-88979Y984551D01*
X-150959Y1001549D02*
X-148959D01*
X-149959D01*
Y995551D01*
X-150959D01*
X-148959D01*
X-145960D02*
Y999550D01*
X-142961D01*
X-141962Y998550D01*
Y995551D01*
X-138963Y1000550D02*
Y999550D01*
X-139962D01*
X-137963D01*
X-138963D01*
Y996551D01*
X-137963Y995551D01*
X-134964D02*
X-132965D01*
X-133964D01*
Y1001549D01*
X-134964Y1000550D01*
X-121968Y995551D02*
X-123967Y997551D01*
Y999550D01*
X-121968Y1001549D01*
X-114970Y1000550D02*
X-115970Y1001549D01*
X-117969D01*
X-118969Y1000550D01*
Y996551D01*
X-117969Y995551D01*
X-115970D01*
X-114970Y996551D01*
Y998550D01*
X-116970D01*
X-112971Y995551D02*
Y1001549D01*
X-108972Y995551D01*
Y1001549D01*
X-106973D02*
Y995551D01*
X-103974D01*
X-102974Y996551D01*
Y1000550D01*
X-103974Y1001549D01*
X-106973D01*
X-100975Y995551D02*
X-98975Y997551D01*
Y999550D01*
X-100975Y1001549D01*
X-150959Y1013549D02*
Y1007551D01*
X-147960D01*
X-146960Y1008551D01*
Y1012550D01*
X-147960Y1013549D01*
X-150959D01*
X-144961Y1007551D02*
X-142961D01*
X-143961D01*
Y1011550D01*
X-144961D01*
X-136963Y1007551D02*
X-138963D01*
X-139962Y1008551D01*
Y1010550D01*
X-138963Y1011550D01*
X-136963D01*
X-135963Y1010550D01*
Y1009551D01*
X-139962D01*
X-133964Y1007551D02*
X-131965D01*
X-132965D01*
Y1013549D01*
X-133964D01*
X-125967Y1007551D02*
X-127966D01*
X-128966Y1008551D01*
Y1010550D01*
X-127966Y1011550D01*
X-125967D01*
X-124967Y1010550D01*
Y1009551D01*
X-128966D01*
X-118969Y1011550D02*
X-121968D01*
X-122968Y1010550D01*
Y1008551D01*
X-121968Y1007551D01*
X-118969D01*
X-115970Y1012550D02*
Y1011550D01*
X-116970D01*
X-114970D01*
X-115970D01*
Y1008551D01*
X-114970Y1007551D01*
X-111971Y1011550D02*
Y1007551D01*
Y1009551D01*
X-110972Y1010550D01*
X-109972Y1011550D01*
X-108972D01*
X-105973Y1007551D02*
X-103974D01*
X-104974D01*
Y1011550D01*
X-105973D01*
X-96976D02*
X-99975D01*
X-100975Y1010550D01*
Y1008551D01*
X-99975Y1007551D01*
X-96976D01*
X-84980D02*
X-88979D01*
X-84980Y1011550D01*
Y1012550D01*
X-85980Y1013549D01*
X-87979D01*
X-88979Y1012550D01*
X-150959Y1025549D02*
Y1019551D01*
X-147960D01*
X-146960Y1020551D01*
Y1024550D01*
X-147960Y1025549D01*
X-150959D01*
X-144961Y1019551D02*
X-142961D01*
X-143961D01*
Y1023550D01*
X-144961D01*
X-136963Y1019551D02*
X-138963D01*
X-139962Y1020551D01*
Y1022550D01*
X-138963Y1023550D01*
X-136963D01*
X-135963Y1022550D01*
Y1021551D01*
X-139962D01*
X-133964Y1019551D02*
X-131965D01*
X-132965D01*
Y1025549D01*
X-133964D01*
X-125967Y1019551D02*
X-127966D01*
X-128966Y1020551D01*
Y1022550D01*
X-127966Y1023550D01*
X-125967D01*
X-124967Y1022550D01*
Y1021551D01*
X-128966D01*
X-118969Y1023550D02*
X-121968D01*
X-122968Y1022550D01*
Y1020551D01*
X-121968Y1019551D01*
X-118969D01*
X-115970Y1024550D02*
Y1023550D01*
X-116970D01*
X-114970D01*
X-115970D01*
Y1020551D01*
X-114970Y1019551D01*
X-111971Y1023550D02*
Y1019551D01*
Y1021551D01*
X-110972Y1022550D01*
X-109972Y1023550D01*
X-108972D01*
X-105973Y1019551D02*
X-103974D01*
X-104974D01*
Y1023550D01*
X-105973D01*
X-96976D02*
X-99975D01*
X-100975Y1022550D01*
Y1020551D01*
X-99975Y1019551D01*
X-96976D01*
X-88979D02*
X-86979D01*
X-87979D01*
Y1025549D01*
X-88979Y1024550D01*
X-150959Y1037549D02*
X-146960D01*
X-148959D01*
Y1031551D01*
X-143961D02*
X-141962D01*
X-140962Y1032551D01*
Y1034550D01*
X-141962Y1035550D01*
X-143961D01*
X-144961Y1034550D01*
Y1032551D01*
X-143961Y1031551D01*
X-138963Y1029552D02*
Y1035550D01*
X-135963D01*
X-134964Y1034550D01*
Y1032551D01*
X-135963Y1031551D01*
X-138963D01*
X-126966Y1037549D02*
Y1031551D01*
X-122968D01*
X-119969Y1035550D02*
X-117969D01*
X-116970Y1034550D01*
Y1031551D01*
X-119969D01*
X-120968Y1032551D01*
X-119969Y1033551D01*
X-116970D01*
X-114970Y1035550D02*
Y1032551D01*
X-113971Y1031551D01*
X-110972D01*
Y1030552D01*
X-111971Y1029552D01*
X-112971D01*
X-110972Y1031551D02*
Y1035550D01*
X-105973Y1031551D02*
X-107973D01*
X-108972Y1032551D01*
Y1034550D01*
X-107973Y1035550D01*
X-105973D01*
X-104973Y1034550D01*
Y1033551D01*
X-108972D01*
X-102974Y1035550D02*
Y1031551D01*
Y1033551D01*
X-101974Y1034550D01*
X-100975Y1035550D01*
X-99975D01*
X-150959Y1049549D02*
X-146960D01*
X-148959D01*
Y1043551D01*
X-143961D02*
X-141962D01*
X-140962Y1044551D01*
Y1046550D01*
X-141962Y1047550D01*
X-143961D01*
X-144961Y1046550D01*
Y1044551D01*
X-143961Y1043551D01*
X-138963Y1041552D02*
Y1047550D01*
X-135963D01*
X-134964Y1046550D01*
Y1044551D01*
X-135963Y1043551D01*
X-138963D01*
X-122968Y1048550D02*
X-123967Y1049549D01*
X-125967D01*
X-126966Y1048550D01*
Y1047550D01*
X-125967Y1046550D01*
X-123967D01*
X-122968Y1045551D01*
Y1044551D01*
X-123967Y1043551D01*
X-125967D01*
X-126966Y1044551D01*
X-120968Y1047550D02*
Y1044551D01*
X-119969Y1043551D01*
X-116970D01*
Y1047550D01*
X-114970D02*
Y1043551D01*
Y1045551D01*
X-113971Y1046550D01*
X-112971Y1047550D01*
X-111971D01*
X-107973Y1043551D02*
Y1048550D01*
Y1046550D01*
X-108972D01*
X-106973D01*
X-107973D01*
Y1048550D01*
X-106973Y1049549D01*
X-102974Y1047550D02*
X-100975D01*
X-99975Y1046550D01*
Y1043551D01*
X-102974D01*
X-103974Y1044551D01*
X-102974Y1045551D01*
X-99975D01*
X-93977Y1047550D02*
X-96976D01*
X-97976Y1046550D01*
Y1044551D01*
X-96976Y1043551D01*
X-93977D01*
X-88979D02*
X-90978D01*
X-91978Y1044551D01*
Y1046550D01*
X-90978Y1047550D01*
X-88979D01*
X-87979Y1046550D01*
Y1045551D01*
X-91978D01*
X-75983Y1049549D02*
X-79982D01*
Y1046550D01*
X-77982D01*
X-79982D01*
Y1043551D01*
X-73984D02*
X-71984D01*
X-72984D01*
Y1047550D01*
X-73984D01*
X-68985Y1043551D02*
Y1047550D01*
X-65986D01*
X-64986Y1046550D01*
Y1043551D01*
X-62987D02*
X-60988D01*
X-61988D01*
Y1047550D01*
X-62987D01*
X-57989Y1043551D02*
X-54990D01*
X-53990Y1044551D01*
X-54990Y1045551D01*
X-56989D01*
X-57989Y1046550D01*
X-56989Y1047550D01*
X-53990D01*
X-51991Y1049549D02*
Y1043551D01*
Y1046550D01*
X-50991Y1047550D01*
X-48992D01*
X-47992Y1046550D01*
Y1043551D01*
X-150959Y1061549D02*
X-146960D01*
X-148959D01*
Y1055551D01*
X-143961D02*
X-141962D01*
X-140962Y1056551D01*
Y1058550D01*
X-141962Y1059550D01*
X-143961D01*
X-144961Y1058550D01*
Y1056551D01*
X-143961Y1055551D01*
X-138963Y1053552D02*
Y1059550D01*
X-135963D01*
X-134964Y1058550D01*
Y1056551D01*
X-135963Y1055551D01*
X-138963D01*
X-122968Y1060550D02*
X-123967Y1061549D01*
X-125967D01*
X-126966Y1060550D01*
Y1059550D01*
X-125967Y1058550D01*
X-123967D01*
X-122968Y1057551D01*
Y1056551D01*
X-123967Y1055551D01*
X-125967D01*
X-126966Y1056551D01*
X-119969Y1055551D02*
X-117969D01*
X-116970Y1056551D01*
Y1058550D01*
X-117969Y1059550D01*
X-119969D01*
X-120968Y1058550D01*
Y1056551D01*
X-119969Y1055551D01*
X-114970D02*
X-112971D01*
X-113971D01*
Y1061549D01*
X-114970D01*
X-105973D02*
Y1055551D01*
X-108972D01*
X-109972Y1056551D01*
Y1058550D01*
X-108972Y1059550D01*
X-105973D01*
X-100975Y1055551D02*
X-102974D01*
X-103974Y1056551D01*
Y1058550D01*
X-102974Y1059550D01*
X-100975D01*
X-99975Y1058550D01*
Y1057551D01*
X-103974D01*
X-97976Y1059550D02*
Y1055551D01*
Y1057551D01*
X-96976Y1058550D01*
X-95977Y1059550D01*
X-94977D01*
X-150959Y1073549D02*
X-146960D01*
X-148959D01*
Y1067551D01*
X-143961D02*
X-141962D01*
X-140962Y1068551D01*
Y1070550D01*
X-141962Y1071550D01*
X-143961D01*
X-144961Y1070550D01*
Y1068551D01*
X-143961Y1067551D01*
X-138963Y1065552D02*
Y1071550D01*
X-135963D01*
X-134964Y1070550D01*
Y1068551D01*
X-135963Y1067551D01*
X-138963D01*
X-123967Y1073549D02*
X-125967D01*
X-126966Y1072550D01*
Y1068551D01*
X-125967Y1067551D01*
X-123967D01*
X-122968Y1068551D01*
Y1072550D01*
X-123967Y1073549D01*
X-120968Y1071550D02*
X-118969Y1067551D01*
X-116970Y1071550D01*
X-111971Y1067551D02*
X-113971D01*
X-114970Y1068551D01*
Y1070550D01*
X-113971Y1071550D01*
X-111971D01*
X-110972Y1070550D01*
Y1069551D01*
X-114970D01*
X-108972Y1071550D02*
Y1067551D01*
Y1069551D01*
X-107973Y1070550D01*
X-106973Y1071550D01*
X-105973D01*
X-102974Y1067551D02*
X-100975D01*
X-101974D01*
Y1073549D01*
X-102974D01*
X-96976Y1071550D02*
X-94977D01*
X-93977Y1070550D01*
Y1067551D01*
X-96976D01*
X-97976Y1068551D01*
X-96976Y1069551D01*
X-93977D01*
X-91978Y1071550D02*
Y1068551D01*
X-90978Y1067551D01*
X-87979D01*
Y1066551D01*
X-88979Y1065552D01*
X-89978D01*
X-87979Y1067551D02*
Y1071550D01*
X-17997Y1079551D02*
Y1085549D01*
X-15998Y1083550D01*
X-13998Y1085549D01*
Y1079551D01*
X-10999Y1083550D02*
X-9000D01*
X-8000Y1082550D01*
Y1079551D01*
X-10999D01*
X-11999Y1080551D01*
X-10999Y1081551D01*
X-8000D01*
X-5001Y1084550D02*
Y1083550D01*
X-6001D01*
X-4002D01*
X-5001D01*
Y1080551D01*
X-4002Y1079551D01*
X1996D02*
X-3D01*
X-1003Y1080551D01*
Y1082550D01*
X-3Y1083550D01*
X1996D01*
X2996Y1082550D01*
Y1081551D01*
X-1003D01*
X4995Y1083550D02*
Y1079551D01*
Y1081551D01*
X5995Y1082550D01*
X6995Y1083550D01*
X7994D01*
X10994Y1079551D02*
X12993D01*
X11993D01*
Y1083550D01*
X10994D01*
X16992D02*
X18991D01*
X19990Y1082550D01*
Y1079551D01*
X16992D01*
X15992Y1080551D01*
X16992Y1081551D01*
X19990D01*
X21990Y1079551D02*
X23989D01*
X22990D01*
Y1085549D01*
X21990D01*
X-13998Y916550D02*
X-14998Y917549D01*
X-16997D01*
X-17997Y916550D01*
Y915550D01*
X-16997Y914550D01*
X-14998D01*
X-13998Y913551D01*
Y912551D01*
X-14998Y911551D01*
X-16997D01*
X-17997Y912551D01*
X-11999Y911551D02*
Y917549D01*
X-10000Y915550D01*
X-8000Y917549D01*
Y911551D01*
X-6001Y914550D02*
X-2002D01*
X-3Y916550D02*
X997Y917549D01*
X2996D01*
X3996Y916550D01*
Y912551D01*
X2996Y911551D01*
X997D01*
X-3Y912551D01*
Y916550D01*
X5995D02*
X6995Y917549D01*
X8994D01*
X9994Y916550D01*
Y912551D01*
X8994Y911551D01*
X6995D01*
X5995Y912551D01*
Y916550D01*
X11993Y911551D02*
X13993D01*
X12993D01*
Y917549D01*
X11993Y916550D01*
X-17997Y923551D02*
Y929549D01*
X-14998D01*
X-13998Y928550D01*
Y926550D01*
X-14998Y925551D01*
X-17997D01*
X-11999Y929549D02*
Y923551D01*
X-9000D01*
X-8000Y924551D01*
Y925551D01*
Y926550D01*
X-9000Y927550D01*
X-11999D01*
X-2002Y928550D02*
X-3002Y929549D01*
X-5001D01*
X-6001Y928550D01*
Y927550D01*
X-5001Y926550D01*
X-3002D01*
X-2002Y925551D01*
Y924551D01*
X-3002Y923551D01*
X-5001D01*
X-6001Y924551D01*
X-3Y923551D02*
Y927550D01*
X2996D01*
X3996Y926550D01*
Y923551D01*
X-13998Y940550D02*
X-14998Y941549D01*
X-16997D01*
X-17997Y940550D01*
Y936551D01*
X-16997Y935551D01*
X-14998D01*
X-13998Y936551D01*
X-8000Y941549D02*
X-11999D01*
Y938550D01*
X-10000D01*
X-11999D01*
Y935551D01*
X-6001Y938550D02*
X-2002D01*
X-3Y940550D02*
X997Y941549D01*
X2996D01*
X3996Y940550D01*
Y936551D01*
X2996Y935551D01*
X997D01*
X-3Y936551D01*
Y940550D01*
X5995D02*
X6995Y941549D01*
X8994D01*
X9994Y940550D01*
Y936551D01*
X8994Y935551D01*
X6995D01*
X5995Y936551D01*
Y940550D01*
X14992Y935551D02*
Y941549D01*
X11993Y938550D01*
X15992D01*
X-17997Y947551D02*
Y953549D01*
X-14998D01*
X-13998Y952550D01*
Y950550D01*
X-14998Y949551D01*
X-17997D01*
X-11999Y947551D02*
Y953549D01*
X-9000D01*
X-8000Y952550D01*
Y950550D01*
X-9000Y949551D01*
X-11999D01*
X-6001Y950550D02*
X-2002D01*
X-3Y952550D02*
X997Y953549D01*
X2996D01*
X3996Y952550D01*
Y948551D01*
X2996Y947551D01*
X997D01*
X-3Y948551D01*
Y952550D01*
X5995Y947551D02*
X7994D01*
X6995D01*
Y953549D01*
X5995Y952550D01*
X10994Y953549D02*
X14992D01*
Y952550D01*
X10994Y948551D01*
Y947551D01*
X-17997Y959551D02*
Y965549D01*
X-14998D01*
X-13998Y964550D01*
Y962550D01*
X-14998Y961551D01*
X-17997D01*
X-11999Y959551D02*
Y965549D01*
X-9000D01*
X-8000Y964550D01*
Y962550D01*
X-9000Y961551D01*
X-11999D01*
X-6001Y962550D02*
X-2002D01*
X-3Y964550D02*
X997Y965549D01*
X2996D01*
X3996Y964550D01*
Y960551D01*
X2996Y959551D01*
X997D01*
X-3Y960551D01*
Y964550D01*
X5995Y959551D02*
X7994D01*
X6995D01*
Y965549D01*
X5995Y964550D01*
X10994Y965549D02*
X14992D01*
Y964550D01*
X10994Y960551D01*
Y959551D01*
X-13998Y976550D02*
X-14998Y977549D01*
X-16997D01*
X-17997Y976550D01*
Y972551D01*
X-16997Y971551D01*
X-14998D01*
X-13998Y972551D01*
X-8000Y977549D02*
X-11999D01*
Y974550D01*
X-10000D01*
X-11999D01*
Y971551D01*
X-6001Y974550D02*
X-2002D01*
X-3Y976550D02*
X997Y977549D01*
X2996D01*
X3996Y976550D01*
Y972551D01*
X2996Y971551D01*
X997D01*
X-3Y972551D01*
Y976550D01*
X5995D02*
X6995Y977549D01*
X8994D01*
X9994Y976550D01*
Y972551D01*
X8994Y971551D01*
X6995D01*
X5995Y972551D01*
Y976550D01*
X14992Y971551D02*
Y977549D01*
X11993Y974550D01*
X15992D01*
X-13998Y988550D02*
X-14998Y989549D01*
X-16997D01*
X-17997Y988550D01*
Y984551D01*
X-16997Y983551D01*
X-14998D01*
X-13998Y984551D01*
X-10999Y983551D02*
X-9000D01*
X-8000Y984551D01*
Y986550D01*
X-9000Y987550D01*
X-10999D01*
X-11999Y986550D01*
Y984551D01*
X-10999Y983551D01*
X-6001Y987550D02*
Y983551D01*
Y985551D01*
X-5001Y986550D01*
X-4002Y987550D01*
X-3002D01*
X2996Y983551D02*
X997D01*
X-3Y984551D01*
Y986550D01*
X997Y987550D01*
X2996D01*
X3996Y986550D01*
Y985551D01*
X-3D01*
X5995Y986550D02*
X9994D01*
X11993Y988550D02*
X12993Y989549D01*
X14992D01*
X15992Y988550D01*
Y984551D01*
X14992Y983551D01*
X12993D01*
X11993Y984551D01*
Y988550D01*
X17991D02*
X18991Y989549D01*
X20990D01*
X21990Y988550D01*
Y987550D01*
X20990Y986550D01*
X19990D01*
X20990D01*
X21990Y985551D01*
Y984551D01*
X20990Y983551D01*
X18991D01*
X17991Y984551D01*
X23989D02*
X24989Y983551D01*
X26988D01*
X27988Y984551D01*
Y988550D01*
X26988Y989549D01*
X24989D01*
X23989Y988550D01*
Y987550D01*
X24989Y986550D01*
X27988D01*
X-13998Y1000550D02*
X-14998Y1001549D01*
X-16997D01*
X-17997Y1000550D01*
Y996551D01*
X-16997Y995551D01*
X-14998D01*
X-13998Y996551D01*
X-8000Y1001549D02*
X-11999D01*
Y998550D01*
X-10000D01*
X-11999D01*
Y995551D01*
X-6001Y998550D02*
X-2002D01*
X-3Y1000550D02*
X997Y1001549D01*
X2996D01*
X3996Y1000550D01*
Y996551D01*
X2996Y995551D01*
X997D01*
X-3Y996551D01*
Y1000550D01*
X5995D02*
X6995Y1001549D01*
X8994D01*
X9994Y1000550D01*
Y996551D01*
X8994Y995551D01*
X6995D01*
X5995Y996551D01*
Y1000550D01*
X14992Y995551D02*
Y1001549D01*
X11993Y998550D01*
X15992D01*
X-17997Y1007551D02*
Y1013549D01*
X-14998D01*
X-13998Y1012550D01*
Y1010550D01*
X-14998Y1009551D01*
X-17997D01*
X-11999Y1007551D02*
Y1013549D01*
X-9000D01*
X-8000Y1012550D01*
Y1010550D01*
X-9000Y1009551D01*
X-11999D01*
X-6001Y1010550D02*
X-2002D01*
X-3Y1012550D02*
X997Y1013549D01*
X2996D01*
X3996Y1012550D01*
Y1008551D01*
X2996Y1007551D01*
X997D01*
X-3Y1008551D01*
Y1012550D01*
X5995Y1007551D02*
X7994D01*
X6995D01*
Y1013549D01*
X5995Y1012550D01*
X10994Y1013549D02*
X14992D01*
Y1012550D01*
X10994Y1008551D01*
Y1007551D01*
X-17997Y1019551D02*
Y1025549D01*
X-14998D01*
X-13998Y1024550D01*
Y1022550D01*
X-14998Y1021551D01*
X-17997D01*
X-11999Y1019551D02*
Y1025549D01*
X-9000D01*
X-8000Y1024550D01*
Y1022550D01*
X-9000Y1021551D01*
X-11999D01*
X-6001Y1022550D02*
X-2002D01*
X-3Y1024550D02*
X997Y1025549D01*
X2996D01*
X3996Y1024550D01*
Y1020551D01*
X2996Y1019551D01*
X997D01*
X-3Y1020551D01*
Y1024550D01*
X5995Y1019551D02*
X7994D01*
X6995D01*
Y1025549D01*
X5995Y1024550D01*
X10994Y1025549D02*
X14992D01*
Y1024550D01*
X10994Y1020551D01*
Y1019551D01*
X-13998Y1036550D02*
X-14998Y1037549D01*
X-16997D01*
X-17997Y1036550D01*
Y1032551D01*
X-16997Y1031551D01*
X-14998D01*
X-13998Y1032551D01*
X-8000Y1037549D02*
X-11999D01*
Y1034550D01*
X-10000D01*
X-11999D01*
Y1031551D01*
X-6001Y1034550D02*
X-2002D01*
X-3Y1036550D02*
X997Y1037549D01*
X2996D01*
X3996Y1036550D01*
Y1032551D01*
X2996Y1031551D01*
X997D01*
X-3Y1032551D01*
Y1036550D01*
X5995D02*
X6995Y1037549D01*
X8994D01*
X9994Y1036550D01*
Y1032551D01*
X8994Y1031551D01*
X6995D01*
X5995Y1032551D01*
Y1036550D01*
X14992Y1031551D02*
Y1037549D01*
X11993Y1034550D01*
X15992D01*
X-17997Y1043551D02*
Y1049549D01*
X-14998D01*
X-13998Y1048550D01*
Y1046550D01*
X-14998Y1045551D01*
X-17997D01*
X-11999Y1049549D02*
Y1043551D01*
X-9000D01*
X-8000Y1044551D01*
Y1045551D01*
Y1046550D01*
X-9000Y1047550D01*
X-11999D01*
X-2002Y1048550D02*
X-3002Y1049549D01*
X-5001D01*
X-6001Y1048550D01*
Y1047550D01*
X-5001Y1046550D01*
X-3002D01*
X-2002Y1045551D01*
Y1044551D01*
X-3002Y1043551D01*
X-5001D01*
X-6001Y1044551D01*
X-3Y1043551D02*
Y1047550D01*
X2996D01*
X3996Y1046550D01*
Y1043551D01*
X-13998Y1060550D02*
X-14998Y1061549D01*
X-16997D01*
X-17997Y1060550D01*
Y1059550D01*
X-16997Y1058550D01*
X-14998D01*
X-13998Y1057551D01*
Y1056551D01*
X-14998Y1055551D01*
X-16997D01*
X-17997Y1056551D01*
X-11999Y1055551D02*
Y1061549D01*
X-10000Y1059550D01*
X-8000Y1061549D01*
Y1055551D01*
X-6001Y1058550D02*
X-2002D01*
X-3Y1060550D02*
X997Y1061549D01*
X2996D01*
X3996Y1060550D01*
Y1056551D01*
X2996Y1055551D01*
X997D01*
X-3Y1056551D01*
Y1060550D01*
X5995D02*
X6995Y1061549D01*
X8994D01*
X9994Y1060550D01*
Y1056551D01*
X8994Y1055551D01*
X6995D01*
X5995Y1056551D01*
Y1060550D01*
X11993Y1055551D02*
X13993D01*
X12993D01*
Y1061549D01*
X11993Y1060550D01*
X41988Y1085549D02*
X45987D01*
X43987D01*
Y1079551D01*
X47986Y1085549D02*
Y1079551D01*
Y1082550D01*
X48986Y1083550D01*
X50985D01*
X51985Y1082550D01*
Y1079551D01*
X53984D02*
X55983D01*
X54984D01*
Y1083550D01*
X53984D01*
X62981D02*
X59982D01*
X58982Y1082550D01*
Y1080551D01*
X59982Y1079551D01*
X62981D01*
X64981D02*
Y1085549D01*
Y1081551D02*
X67980Y1083550D01*
X64981Y1081551D02*
X67980Y1079551D01*
X70979D02*
Y1083550D01*
X73978D01*
X74977Y1082550D01*
Y1079551D01*
X79976D02*
X77976D01*
X76977Y1080551D01*
Y1082550D01*
X77976Y1083550D01*
X79976D01*
X80975Y1082550D01*
Y1081551D01*
X76977D01*
X82975Y1079551D02*
X85974D01*
X86973Y1080551D01*
X85974Y1081551D01*
X83974D01*
X82975Y1082550D01*
X83974Y1083550D01*
X86973D01*
X88973Y1079551D02*
X91972D01*
X92971Y1080551D01*
X91972Y1081551D01*
X89973D01*
X88973Y1082550D01*
X89973Y1083550D01*
X92971D01*
X41988Y911551D02*
X43987D01*
X42988D01*
Y917549D01*
X41988Y916550D01*
X46986Y911551D02*
Y912551D01*
X47986D01*
Y911551D01*
X46986D01*
X51985Y916550D02*
X52984Y917549D01*
X54984D01*
X55983Y916550D01*
Y912551D01*
X54984Y911551D01*
X52984D01*
X51985Y912551D01*
Y916550D01*
X57983D02*
X58982Y917549D01*
X60982D01*
X61981Y916550D01*
Y912551D01*
X60982Y911551D01*
X58982D01*
X57983Y912551D01*
Y916550D01*
X63981Y911551D02*
Y915550D01*
X64981D01*
X65980Y914550D01*
Y911551D01*
Y914550D01*
X66980Y915550D01*
X67980Y914550D01*
Y911551D01*
X69979D02*
X71978D01*
X70979D01*
Y915550D01*
X69979D01*
X74977Y911551D02*
X76977D01*
X75977D01*
Y917549D01*
X74977D01*
X41988Y928550D02*
X42988Y929549D01*
X44987D01*
X45987Y928550D01*
Y924551D01*
X44987Y923551D01*
X42988D01*
X41988Y924551D01*
Y928550D01*
X47986Y923551D02*
Y924551D01*
X48986D01*
Y923551D01*
X47986D01*
X52984Y929549D02*
X56983D01*
Y928550D01*
X52984Y924551D01*
Y923551D01*
X58982Y924551D02*
X59982Y923551D01*
X61981D01*
X62981Y924551D01*
Y928550D01*
X61981Y929549D01*
X59982D01*
X58982Y928550D01*
Y927550D01*
X59982Y926550D01*
X62981D01*
X64981Y923551D02*
Y927550D01*
X65980D01*
X66980Y926550D01*
Y923551D01*
Y926550D01*
X67980Y927550D01*
X68979Y926550D01*
Y923551D01*
X70979D02*
X72978D01*
X71978D01*
Y927550D01*
X70979D01*
X75977Y923551D02*
X77976D01*
X76977D01*
Y929549D01*
X75977D01*
X41988Y935551D02*
X43987D01*
X42988D01*
Y941549D01*
X41988Y940550D01*
X46986Y935551D02*
Y936551D01*
X47986D01*
Y935551D01*
X46986D01*
X51985Y940550D02*
X52984Y941549D01*
X54984D01*
X55983Y940550D01*
Y939550D01*
X54984Y938550D01*
X53984D01*
X54984D01*
X55983Y937551D01*
Y936551D01*
X54984Y935551D01*
X52984D01*
X51985Y936551D01*
X57983Y940550D02*
X58982Y941549D01*
X60982D01*
X61981Y940550D01*
Y939550D01*
X60982Y938550D01*
X61981Y937551D01*
Y936551D01*
X60982Y935551D01*
X58982D01*
X57983Y936551D01*
Y937551D01*
X58982Y938550D01*
X57983Y939550D01*
Y940550D01*
X58982Y938550D02*
X60982D01*
X63981Y935551D02*
Y939550D01*
X64981D01*
X65980Y938550D01*
Y935551D01*
Y938550D01*
X66980Y939550D01*
X67980Y938550D01*
Y935551D01*
X69979D02*
X71978D01*
X70979D01*
Y939550D01*
X69979D01*
X74977Y935551D02*
X76977D01*
X75977D01*
Y941549D01*
X74977D01*
X45987Y953549D02*
X41988D01*
Y950550D01*
X43987Y951550D01*
X44987D01*
X45987Y950550D01*
Y948551D01*
X44987Y947551D01*
X42988D01*
X41988Y948551D01*
X47986Y947551D02*
Y948551D01*
X48986D01*
Y947551D01*
X47986D01*
X52984D02*
X54984D01*
X53984D01*
Y953549D01*
X52984Y952550D01*
X57983D02*
X58982Y953549D01*
X60982D01*
X61981Y952550D01*
Y948551D01*
X60982Y947551D01*
X58982D01*
X57983Y948551D01*
Y952550D01*
X63981Y947551D02*
Y951550D01*
X64981D01*
X65980Y950550D01*
Y947551D01*
Y950550D01*
X66980Y951550D01*
X67980Y950550D01*
Y947551D01*
X69979D02*
X71978D01*
X70979D01*
Y951550D01*
X69979D01*
X74977Y947551D02*
X76977D01*
X75977D01*
Y953549D01*
X74977D01*
X45987Y965549D02*
X41988D01*
Y962550D01*
X43987Y963550D01*
X44987D01*
X45987Y962550D01*
Y960551D01*
X44987Y959551D01*
X42988D01*
X41988Y960551D01*
X47986Y959551D02*
Y960551D01*
X48986D01*
Y959551D01*
X47986D01*
X52984D02*
X54984D01*
X53984D01*
Y965549D01*
X52984Y964550D01*
X57983D02*
X58982Y965549D01*
X60982D01*
X61981Y964550D01*
Y960551D01*
X60982Y959551D01*
X58982D01*
X57983Y960551D01*
Y964550D01*
X63981Y959551D02*
Y963550D01*
X64981D01*
X65980Y962550D01*
Y959551D01*
Y962550D01*
X66980Y963550D01*
X67980Y962550D01*
Y959551D01*
X69979D02*
X71978D01*
X70979D01*
Y963550D01*
X69979D01*
X74977Y959551D02*
X76977D01*
X75977D01*
Y965549D01*
X74977D01*
X41988Y971551D02*
X43987D01*
X42988D01*
Y977549D01*
X41988Y976550D01*
X46986Y971551D02*
Y972551D01*
X47986D01*
Y971551D01*
X46986D01*
X51985Y976550D02*
X52984Y977549D01*
X54984D01*
X55983Y976550D01*
Y975550D01*
X54984Y974550D01*
X53984D01*
X54984D01*
X55983Y973551D01*
Y972551D01*
X54984Y971551D01*
X52984D01*
X51985Y972551D01*
X57983Y976550D02*
X58982Y977549D01*
X60982D01*
X61981Y976550D01*
Y975550D01*
X60982Y974550D01*
X61981Y973551D01*
Y972551D01*
X60982Y971551D01*
X58982D01*
X57983Y972551D01*
Y973551D01*
X58982Y974550D01*
X57983Y975550D01*
Y976550D01*
X58982Y974550D02*
X60982D01*
X63981Y971551D02*
Y975550D01*
X64981D01*
X65980Y974550D01*
Y971551D01*
Y974550D01*
X66980Y975550D01*
X67980Y974550D01*
Y971551D01*
X69979D02*
X71978D01*
X70979D01*
Y975550D01*
X69979D01*
X74977Y971551D02*
X76977D01*
X75977D01*
Y977549D01*
X74977D01*
X45987Y983551D02*
X41988D01*
X45987Y987550D01*
Y988550D01*
X44987Y989549D01*
X42988D01*
X41988Y988550D01*
X47986D02*
X48986Y989549D01*
X50985D01*
X51985Y988550D01*
Y987550D01*
X50985Y986550D01*
X51985Y985551D01*
Y984551D01*
X50985Y983551D01*
X48986D01*
X47986Y984551D01*
Y985551D01*
X48986Y986550D01*
X47986Y987550D01*
Y988550D01*
X48986Y986550D02*
X50985D01*
X53984Y983551D02*
Y984551D01*
X54984D01*
Y983551D01*
X53984D01*
X58982Y988550D02*
X59982Y989549D01*
X61981D01*
X62981Y988550D01*
Y984551D01*
X61981Y983551D01*
X59982D01*
X58982Y984551D01*
Y988550D01*
X64981D02*
X65980Y989549D01*
X67980D01*
X68979Y988550D01*
Y984551D01*
X67980Y983551D01*
X65980D01*
X64981Y984551D01*
Y988550D01*
X70979Y983551D02*
Y987550D01*
X71978D01*
X72978Y986550D01*
Y983551D01*
Y986550D01*
X73978Y987550D01*
X74977Y986550D01*
Y983551D01*
X76977D02*
X78976D01*
X77976D01*
Y987550D01*
X76977D01*
X81975Y983551D02*
X83974D01*
X82975D01*
Y989549D01*
X81975D01*
X41988Y995551D02*
X43987D01*
X42988D01*
Y1001549D01*
X41988Y1000550D01*
X46986Y995551D02*
Y996551D01*
X47986D01*
Y995551D01*
X46986D01*
X51985Y1000550D02*
X52984Y1001549D01*
X54984D01*
X55983Y1000550D01*
Y999550D01*
X54984Y998550D01*
X53984D01*
X54984D01*
X55983Y997551D01*
Y996551D01*
X54984Y995551D01*
X52984D01*
X51985Y996551D01*
X57983Y1000550D02*
X58982Y1001549D01*
X60982D01*
X61981Y1000550D01*
Y999550D01*
X60982Y998550D01*
X61981Y997551D01*
Y996551D01*
X60982Y995551D01*
X58982D01*
X57983Y996551D01*
Y997551D01*
X58982Y998550D01*
X57983Y999550D01*
Y1000550D01*
X58982Y998550D02*
X60982D01*
X63981Y995551D02*
Y999550D01*
X64981D01*
X65980Y998550D01*
Y995551D01*
Y998550D01*
X66980Y999550D01*
X67980Y998550D01*
Y995551D01*
X69979D02*
X71978D01*
X70979D01*
Y999550D01*
X69979D01*
X74977Y995551D02*
X76977D01*
X75977D01*
Y1001549D01*
X74977D01*
X45987Y1013549D02*
X41988D01*
Y1010550D01*
X43987Y1011550D01*
X44987D01*
X45987Y1010550D01*
Y1008551D01*
X44987Y1007551D01*
X42988D01*
X41988Y1008551D01*
X47986Y1007551D02*
Y1008551D01*
X48986D01*
Y1007551D01*
X47986D01*
X52984D02*
X54984D01*
X53984D01*
Y1013549D01*
X52984Y1012550D01*
X57983D02*
X58982Y1013549D01*
X60982D01*
X61981Y1012550D01*
Y1008551D01*
X60982Y1007551D01*
X58982D01*
X57983Y1008551D01*
Y1012550D01*
X63981Y1007551D02*
Y1011550D01*
X64981D01*
X65980Y1010550D01*
Y1007551D01*
Y1010550D01*
X66980Y1011550D01*
X67980Y1010550D01*
Y1007551D01*
X69979D02*
X71978D01*
X70979D01*
Y1011550D01*
X69979D01*
X74977Y1007551D02*
X76977D01*
X75977D01*
Y1013549D01*
X74977D01*
X45987Y1025549D02*
X41988D01*
Y1022550D01*
X43987Y1023550D01*
X44987D01*
X45987Y1022550D01*
Y1020551D01*
X44987Y1019551D01*
X42988D01*
X41988Y1020551D01*
X47986Y1019551D02*
Y1020551D01*
X48986D01*
Y1019551D01*
X47986D01*
X52984D02*
X54984D01*
X53984D01*
Y1025549D01*
X52984Y1024550D01*
X57983D02*
X58982Y1025549D01*
X60982D01*
X61981Y1024550D01*
Y1020551D01*
X60982Y1019551D01*
X58982D01*
X57983Y1020551D01*
Y1024550D01*
X63981Y1019551D02*
Y1023550D01*
X64981D01*
X65980Y1022550D01*
Y1019551D01*
Y1022550D01*
X66980Y1023550D01*
X67980Y1022550D01*
Y1019551D01*
X69979D02*
X71978D01*
X70979D01*
Y1023550D01*
X69979D01*
X74977Y1019551D02*
X76977D01*
X75977D01*
Y1025549D01*
X74977D01*
X41988Y1031551D02*
X43987D01*
X42988D01*
Y1037549D01*
X41988Y1036550D01*
X46986Y1031551D02*
Y1032551D01*
X47986D01*
Y1031551D01*
X46986D01*
X51985Y1036550D02*
X52984Y1037549D01*
X54984D01*
X55983Y1036550D01*
Y1035550D01*
X54984Y1034550D01*
X53984D01*
X54984D01*
X55983Y1033551D01*
Y1032551D01*
X54984Y1031551D01*
X52984D01*
X51985Y1032551D01*
X57983Y1036550D02*
X58982Y1037549D01*
X60982D01*
X61981Y1036550D01*
Y1035550D01*
X60982Y1034550D01*
X61981Y1033551D01*
Y1032551D01*
X60982Y1031551D01*
X58982D01*
X57983Y1032551D01*
Y1033551D01*
X58982Y1034550D01*
X57983Y1035550D01*
Y1036550D01*
X58982Y1034550D02*
X60982D01*
X63981Y1031551D02*
Y1035550D01*
X64981D01*
X65980Y1034550D01*
Y1031551D01*
Y1034550D01*
X66980Y1035550D01*
X67980Y1034550D01*
Y1031551D01*
X69979D02*
X71978D01*
X70979D01*
Y1035550D01*
X69979D01*
X74977Y1031551D02*
X76977D01*
X75977D01*
Y1037549D01*
X74977D01*
X41988Y1048550D02*
X42988Y1049549D01*
X44987D01*
X45987Y1048550D01*
Y1044551D01*
X44987Y1043551D01*
X42988D01*
X41988Y1044551D01*
Y1048550D01*
X47986Y1043551D02*
Y1044551D01*
X48986D01*
Y1043551D01*
X47986D01*
X52984Y1049549D02*
X56983D01*
Y1048550D01*
X52984Y1044551D01*
Y1043551D01*
X58982Y1044551D02*
X59982Y1043551D01*
X61981D01*
X62981Y1044551D01*
Y1048550D01*
X61981Y1049549D01*
X59982D01*
X58982Y1048550D01*
Y1047550D01*
X59982Y1046550D01*
X62981D01*
X64981Y1043551D02*
Y1047550D01*
X65980D01*
X66980Y1046550D01*
Y1043551D01*
Y1046550D01*
X67980Y1047550D01*
X68979Y1046550D01*
Y1043551D01*
X70979D02*
X72978D01*
X71978D01*
Y1047550D01*
X70979D01*
X75977Y1043551D02*
X77976D01*
X76977D01*
Y1049549D01*
X75977D01*
X41988Y1055551D02*
X43987D01*
X42988D01*
Y1061549D01*
X41988Y1060550D01*
X46986Y1055551D02*
Y1056551D01*
X47986D01*
Y1055551D01*
X46986D01*
X51985Y1060550D02*
X52984Y1061549D01*
X54984D01*
X55983Y1060550D01*
Y1056551D01*
X54984Y1055551D01*
X52984D01*
X51985Y1056551D01*
Y1060550D01*
X57983D02*
X58982Y1061549D01*
X60982D01*
X61981Y1060550D01*
Y1056551D01*
X60982Y1055551D01*
X58982D01*
X57983Y1056551D01*
Y1060550D01*
X63981Y1055551D02*
Y1059550D01*
X64981D01*
X65980Y1058550D01*
Y1055551D01*
Y1058550D01*
X66980Y1059550D01*
X67980Y1058550D01*
Y1055551D01*
X69979D02*
X71978D01*
X70979D01*
Y1059550D01*
X69979D01*
X74977Y1055551D02*
X76977D01*
X75977D01*
Y1061549D01*
X74977D01*
X110970Y1084550D02*
X109970Y1085549D01*
X107971D01*
X106972Y1084550D01*
Y1080551D01*
X107971Y1079551D01*
X109970D01*
X110970Y1080551D01*
X113969Y1079551D02*
X115969D01*
X116968Y1080551D01*
Y1082550D01*
X115969Y1083550D01*
X113969D01*
X112970Y1082550D01*
Y1080551D01*
X113969Y1079551D01*
X118968D02*
Y1083550D01*
X121967D01*
X122966Y1082550D01*
Y1079551D01*
X124966D02*
X127965D01*
X128964Y1080551D01*
X127965Y1081551D01*
X125965D01*
X124966Y1082550D01*
X125965Y1083550D01*
X128964D01*
X131963Y1084550D02*
Y1083550D01*
X130964D01*
X132963D01*
X131963D01*
Y1080551D01*
X132963Y1079551D01*
X136962Y1083550D02*
X138961D01*
X139961Y1082550D01*
Y1079551D01*
X136962D01*
X135962Y1080551D01*
X136962Y1081551D01*
X139961D01*
X141960Y1079551D02*
Y1083550D01*
X144959D01*
X145959Y1082550D01*
Y1079551D01*
X148958Y1084550D02*
Y1083550D01*
X147958D01*
X149958D01*
X148958D01*
Y1080551D01*
X149958Y1079551D01*
X109970Y911551D02*
Y917549D01*
X106972Y914550D01*
X110970D01*
X109970Y947551D02*
Y953549D01*
X106972Y950550D01*
X110970D01*
X112970Y947551D02*
Y948551D01*
X113969D01*
Y947551D01*
X112970D01*
X117968Y952550D02*
X118968Y953549D01*
X120967D01*
X121967Y952550D01*
Y951550D01*
X120967Y950550D01*
X119967D01*
X120967D01*
X121967Y949551D01*
Y948551D01*
X120967Y947551D01*
X118968D01*
X117968Y948551D01*
X109970Y959551D02*
Y965549D01*
X106972Y962550D01*
X110970D01*
X112970Y959551D02*
Y960551D01*
X113969D01*
Y959551D01*
X112970D01*
X117968Y964550D02*
X118968Y965549D01*
X120967D01*
X121967Y964550D01*
Y963550D01*
X120967Y962550D01*
X119967D01*
X120967D01*
X121967Y961551D01*
Y960551D01*
X120967Y959551D01*
X118968D01*
X117968Y960551D01*
X109970Y983551D02*
Y989549D01*
X106972Y986550D01*
X110970D01*
X112970Y983551D02*
Y984551D01*
X113969D01*
Y983551D01*
X112970D01*
X117968Y988550D02*
X118968Y989549D01*
X120967D01*
X121967Y988550D01*
Y987550D01*
X120967Y986550D01*
X121967Y985551D01*
Y984551D01*
X120967Y983551D01*
X118968D01*
X117968Y984551D01*
Y985551D01*
X118968Y986550D01*
X117968Y987550D01*
Y988550D01*
X118968Y986550D02*
X120967D01*
X109970Y1007551D02*
Y1013549D01*
X106972Y1010550D01*
X110970D01*
X112970Y1007551D02*
Y1008551D01*
X113969D01*
Y1007551D01*
X112970D01*
X117968Y1012550D02*
X118968Y1013549D01*
X120967D01*
X121967Y1012550D01*
Y1011550D01*
X120967Y1010550D01*
X119967D01*
X120967D01*
X121967Y1009551D01*
Y1008551D01*
X120967Y1007551D01*
X118968D01*
X117968Y1008551D01*
X109970Y1019551D02*
Y1025549D01*
X106972Y1022550D01*
X110970D01*
X112970Y1019551D02*
Y1020551D01*
X113969D01*
Y1019551D01*
X112970D01*
X117968Y1024550D02*
X118968Y1025549D01*
X120967D01*
X121967Y1024550D01*
Y1023550D01*
X120967Y1022550D01*
X119967D01*
X120967D01*
X121967Y1021551D01*
Y1020551D01*
X120967Y1019551D01*
X118968D01*
X117968Y1020551D01*
X109970Y1055551D02*
Y1061549D01*
X106972Y1058550D01*
X110970D01*
X163958Y1085549D02*
Y1079551D01*
X166957D01*
X167956Y1080551D01*
Y1081551D01*
X166957Y1082550D01*
X163958D01*
X166957D01*
X167956Y1083550D01*
Y1084550D01*
X166957Y1085549D01*
X163958D01*
X170955Y1079551D02*
X172955D01*
X173954Y1080551D01*
Y1082550D01*
X172955Y1083550D01*
X170955D01*
X169956Y1082550D01*
Y1080551D01*
X170955Y1079551D01*
X176953Y1083550D02*
X178953D01*
X179952Y1082550D01*
Y1079551D01*
X176953D01*
X175954Y1080551D01*
X176953Y1081551D01*
X179952D01*
X181952Y1083550D02*
Y1079551D01*
Y1081551D01*
X182951Y1082550D01*
X183951Y1083550D01*
X184951D01*
X191948Y1085549D02*
Y1079551D01*
X188950D01*
X187950Y1080551D01*
Y1082550D01*
X188950Y1083550D01*
X191948D01*
X199946Y1085549D02*
Y1079551D01*
X203945D01*
X206944Y1083550D02*
X208943D01*
X209943Y1082550D01*
Y1079551D01*
X206944D01*
X205944Y1080551D01*
X206944Y1081551D01*
X209943D01*
X211942Y1083550D02*
Y1080551D01*
X212942Y1079551D01*
X215941D01*
Y1078551D01*
X214941Y1077552D01*
X213941D01*
X215941Y1079551D02*
Y1083550D01*
X220939Y1079551D02*
X218940D01*
X217940Y1080551D01*
Y1082550D01*
X218940Y1083550D01*
X220939D01*
X221939Y1082550D01*
Y1081551D01*
X217940D01*
X223938Y1083550D02*
Y1079551D01*
Y1081551D01*
X224938Y1082550D01*
X225938Y1083550D01*
X226937D01*
X239933Y1084550D02*
X238933Y1085549D01*
X236934D01*
X235934Y1084550D01*
Y1083550D01*
X236934Y1082550D01*
X238933D01*
X239933Y1081551D01*
Y1080551D01*
X238933Y1079551D01*
X236934D01*
X235934Y1080551D01*
X242932Y1084550D02*
Y1083550D01*
X241932D01*
X243932D01*
X242932D01*
Y1080551D01*
X243932Y1079551D01*
X247930Y1083550D02*
X249930D01*
X250929Y1082550D01*
Y1079551D01*
X247930D01*
X246931Y1080551D01*
X247930Y1081551D01*
X250929D01*
X256927Y1083550D02*
X253928D01*
X252929Y1082550D01*
Y1080551D01*
X253928Y1079551D01*
X256927D01*
X258927D02*
Y1085549D01*
Y1081551D02*
X261926Y1083550D01*
X258927Y1081551D02*
X261926Y1079551D01*
D23*
X252244Y241024D02*
D03*
X263268D02*
D03*
X205512Y241041D02*
D03*
X194488D02*
D03*
D24*
X146260Y131102D02*
D03*
X153740D02*
D03*
Y146063D02*
D03*
X146260D02*
D03*
X153720Y124980D02*
D03*
X146240D02*
D03*
X32087Y9833D02*
D03*
X39567D02*
D03*
X32087Y3819D02*
D03*
X39567D02*
D03*
X319596Y87126D02*
D03*
X327076D02*
D03*
X32087Y16535D02*
D03*
X39567D02*
D03*
X95617Y122937D02*
D03*
X103097D02*
D03*
X199035Y173130D02*
D03*
X206516D02*
D03*
X199055Y179252D02*
D03*
X206535D02*
D03*
X146260Y139114D02*
D03*
X153740D02*
D03*
D25*
X244094Y182362D02*
D03*
Y192362D02*
D03*
Y202362D02*
D03*
Y212362D02*
D03*
Y222362D02*
D03*
D26*
X199055Y144961D02*
D03*
X204055D02*
D03*
X209055D02*
D03*
X214055D02*
D03*
Y166614D02*
D03*
X209055D02*
D03*
X204055D02*
D03*
X199055D02*
D03*
X251700Y73627D02*
D03*
X246700D02*
D03*
X241700D02*
D03*
X236700D02*
D03*
Y51973D02*
D03*
X241700D02*
D03*
X246700D02*
D03*
X251700D02*
D03*
D27*
X326182Y58268D02*
D03*
X319882D02*
D03*
X319508Y77185D02*
D03*
X325807D02*
D03*
X153130Y119705D02*
D03*
X146830D02*
D03*
X190787Y102992D02*
D03*
X197087D02*
D03*
X190750Y107884D02*
D03*
X197050D02*
D03*
Y113100D02*
D03*
X190750D02*
D03*
X64488Y9154D02*
D03*
X70788D02*
D03*
X137874Y108346D02*
D03*
X131574D02*
D03*
X240158Y232387D02*
D03*
X233858D02*
D03*
X223084D02*
D03*
X216784D02*
D03*
X137835Y102087D02*
D03*
X131535D02*
D03*
X131574Y97000D02*
D03*
X137874D02*
D03*
Y92000D02*
D03*
X131574D02*
D03*
D28*
X319311Y66929D02*
D03*
X326752Y70669D02*
D03*
Y63189D02*
D03*
X239330Y244618D02*
D03*
Y237137D02*
D03*
X246771Y240877D02*
D03*
X47067Y112992D02*
D03*
X54508Y116732D02*
D03*
Y109252D02*
D03*
X210836Y240877D02*
D03*
X218277Y244618D02*
D03*
Y237137D02*
D03*
X58445Y9252D02*
D03*
Y16732D02*
D03*
X51004Y12992D02*
D03*
D29*
X110630Y27166D02*
D03*
Y20866D02*
D03*
X177402Y132402D02*
D03*
Y126102D02*
D03*
X173031Y132402D02*
D03*
Y126102D02*
D03*
X168602Y132402D02*
D03*
Y126102D02*
D03*
X164193D02*
D03*
Y132402D02*
D03*
X236811Y45453D02*
D03*
Y39153D02*
D03*
X241713Y45453D02*
D03*
Y39153D02*
D03*
X76555Y15808D02*
D03*
Y9507D02*
D03*
X45276Y16142D02*
D03*
Y9842D02*
D03*
X233597Y244366D02*
D03*
Y238066D02*
D03*
X223376D02*
D03*
Y244366D02*
D03*
X143799Y85650D02*
D03*
Y79350D02*
D03*
X60236Y116142D02*
D03*
Y109842D02*
D03*
D30*
X136024Y154528D02*
D03*
X154134D02*
D03*
X145079D02*
D03*
D31*
Y179724D02*
D03*
D32*
X176673Y73627D02*
D03*
X181127Y69173D02*
D03*
X211406Y77156D02*
D03*
X206951Y72701D02*
D03*
D33*
X179973Y76727D02*
D03*
X184427Y72273D02*
D03*
X193605Y76355D02*
D03*
X189151Y80810D02*
D03*
D34*
X191079Y85828D02*
D03*
X201379Y75528D02*
D03*
X197203Y91953D02*
D03*
X207504Y81652D02*
D03*
D35*
X176575Y81299D02*
D03*
X174606D02*
D03*
X172638Y81299D02*
D03*
X170669D02*
D03*
X168701Y81299D02*
D03*
X166732D02*
D03*
X164764D02*
D03*
X162795D02*
D03*
X160827Y81299D02*
D03*
X158858Y81299D02*
D03*
X156890D02*
D03*
X154921D02*
D03*
Y114764D02*
D03*
X156890D02*
D03*
X158858D02*
D03*
X160827Y114764D02*
D03*
X162795Y114764D02*
D03*
X164764D02*
D03*
X166732D02*
D03*
X168701D02*
D03*
X170669Y114764D02*
D03*
X172638D02*
D03*
X174606Y114764D02*
D03*
X176575D02*
D03*
D36*
X149016Y87205D02*
D03*
Y89173D02*
D03*
Y91142D02*
D03*
Y93110D02*
D03*
X149016Y95079D02*
D03*
Y97047D02*
D03*
Y99016D02*
D03*
X149016Y100984D02*
D03*
Y102953D02*
D03*
Y104921D02*
D03*
Y106890D02*
D03*
Y108858D02*
D03*
X182480D02*
D03*
Y106890D02*
D03*
Y104921D02*
D03*
X182480Y102953D02*
D03*
X182480Y100984D02*
D03*
Y99016D02*
D03*
Y97047D02*
D03*
Y95079D02*
D03*
X182480Y93110D02*
D03*
Y91142D02*
D03*
X182480Y89173D02*
D03*
Y87205D02*
D03*
D37*
X207028Y28642D02*
D03*
X203287D02*
D03*
X199547D02*
D03*
Y37894D02*
D03*
X203287D02*
D03*
X207028D02*
D03*
D38*
X213130Y38780D02*
D03*
Y27756D02*
D03*
X84252Y192126D02*
D03*
Y203150D02*
D03*
D39*
X219823Y39370D02*
D03*
Y31890D02*
D03*
X258169Y45768D02*
D03*
Y38287D02*
D03*
X251800Y45740D02*
D03*
Y38260D02*
D03*
X257900Y17609D02*
D03*
Y10128D02*
D03*
X251207Y17609D02*
D03*
Y10128D02*
D03*
X244514Y17609D02*
D03*
Y10128D02*
D03*
X42047Y135256D02*
D03*
Y142736D02*
D03*
X78642Y136909D02*
D03*
Y144390D02*
D03*
X72342D02*
D03*
Y136909D02*
D03*
X128248Y176594D02*
D03*
Y169114D02*
D03*
X121988Y176555D02*
D03*
Y169075D02*
D03*
D40*
X251496Y79961D02*
D03*
X247165D02*
D03*
D41*
X247152Y99137D02*
D03*
X247448Y166263D02*
D03*
D42*
X207421Y17913D02*
D03*
X204862D02*
D03*
X202303D02*
D03*
X199744D02*
D03*
X197185D02*
D03*
D43*
X190098Y17431D02*
D03*
X214508D02*
D03*
D44*
X187343Y6693D02*
D03*
X217264D02*
D03*
D45*
X151165Y58014D02*
D03*
D46*
X173999Y22778D02*
D03*
X123212D02*
D03*
D47*
X86811Y13189D02*
D03*
X98622D02*
D03*
X104528D02*
D03*
D48*
X110039Y10236D02*
D03*
X81299D02*
D03*
X110039Y2362D02*
D03*
X81299D02*
D03*
D49*
X71161Y61555D02*
D03*
Y54331D02*
D03*
Y47106D02*
D03*
X63937Y61555D02*
D03*
Y54331D02*
D03*
Y47106D02*
D03*
X56713Y61555D02*
D03*
Y54331D02*
D03*
Y47106D02*
D03*
D50*
X34409Y91732D02*
D03*
X39409D02*
D03*
X44409D02*
D03*
X49409D02*
D03*
X54409D02*
D03*
X59409D02*
D03*
X64410D02*
D03*
X69410D02*
D03*
X74410D02*
D03*
X79409D02*
D03*
X84409D02*
D03*
X89410D02*
D03*
X94410D02*
D03*
X99410D02*
D03*
Y24803D02*
D03*
X94410D02*
D03*
X89410D02*
D03*
X84409D02*
D03*
X79409D02*
D03*
X74410D02*
D03*
X69410D02*
D03*
X64410D02*
D03*
X59409D02*
D03*
X54409D02*
D03*
X49409D02*
D03*
X44409D02*
D03*
X39409D02*
D03*
X34409D02*
D03*
D51*
X103347Y80768D02*
D03*
Y75768D02*
D03*
Y70768D02*
D03*
Y65768D02*
D03*
Y60768D02*
D03*
Y55768D02*
D03*
Y50768D02*
D03*
Y45768D02*
D03*
Y40768D02*
D03*
Y35768D02*
D03*
D52*
X63189Y181693D02*
D03*
D53*
X27953Y158858D02*
D03*
Y209646D02*
D03*
D54*
X96260Y111417D02*
D03*
X104528D02*
D03*
D55*
X87992Y129606D02*
D03*
Y134606D02*
D03*
Y139606D02*
D03*
Y144606D02*
D03*
X109646D02*
D03*
Y139606D02*
D03*
Y134606D02*
D03*
Y129606D02*
D03*
D56*
X70138Y112205D02*
D03*
X87343D02*
D03*
D57*
X88169Y161575D02*
D03*
X111791D02*
D03*
D58*
X84252Y211024D02*
D03*
X98425D02*
D03*
D59*
X142126Y190532D02*
D03*
Y211043D02*
D03*
X107480Y190532D02*
D03*
Y211043D02*
D03*
D101*
X148606Y7817D02*
D03*
X12992Y184252D02*
D03*
D111*
X138042Y108346D02*
X143484D01*
X143996Y108858D02*
X149016D01*
X143484Y108346D02*
X143996Y108858D01*
X267601Y28399D02*
X270141D01*
X264173Y31827D02*
Y81024D01*
Y31827D02*
X267601Y28399D01*
X270141D02*
X270892Y27648D01*
X266145Y80538D02*
X269094Y83487D01*
X266145Y37901D02*
Y80538D01*
Y37901D02*
X270493Y33554D01*
X270892D01*
X169079Y90575D02*
X171421D01*
X162824Y84320D02*
X169079Y90575D01*
X171421D02*
X171460Y90614D01*
X158858Y114764D02*
Y117854D01*
X157382Y119331D02*
X158858Y117854D01*
X157382Y119331D02*
Y122770D01*
X158543Y125762D02*
Y125866D01*
X157382Y122770D02*
X157382Y122770D01*
Y124601D01*
X158543Y125762D01*
X160807Y114783D02*
X160827Y114764D01*
X160807Y114783D02*
Y120965D01*
X160787Y120984D02*
X160807Y120965D01*
X261043Y84153D02*
X264173Y81024D01*
X181906Y78020D02*
X185658D01*
X185768Y78130D01*
X160827Y87047D02*
X168327Y94547D01*
X171063D01*
X160827Y81299D02*
Y87047D01*
X161276Y92496D02*
X161575Y92795D01*
X159859Y92496D02*
X161276D01*
X158858Y91496D02*
X159859Y92496D01*
X158858Y81299D02*
Y91496D01*
X162795Y81299D02*
X162824Y81328D01*
Y84320D01*
X168701Y78099D02*
X170500Y76300D01*
X173169D01*
X176654Y114842D02*
X176667Y114856D01*
X190768Y128839D02*
X194193D01*
X177489Y118543D02*
X180473D01*
X176667Y117721D02*
X177489Y118543D01*
X185368Y109049D02*
X185837Y109518D01*
X176667Y114856D02*
Y117721D01*
X194079Y125591D02*
X194193Y125476D01*
X192027Y125591D02*
X194079D01*
X180473Y118543D02*
X190768Y128839D01*
X182480Y108858D02*
X182671Y109049D01*
X185368D01*
X185837Y109518D02*
Y119400D01*
X192027Y125591D01*
X188673Y82327D02*
X190673Y84328D01*
Y86234D01*
X49360Y91782D02*
X49409Y91732D01*
X202941Y97020D02*
X210098Y89862D01*
X189913Y97020D02*
X202941D01*
X210098Y84247D02*
Y89862D01*
X207504Y81652D02*
X210098Y84247D01*
X207504Y81652D02*
X211406Y77750D01*
Y77156D02*
Y77750D01*
X182480Y93110D02*
X186004D01*
X189913Y97020D01*
X182499Y91123D02*
X185885D01*
X190587Y86421D01*
X190673Y86234D02*
X191079Y85828D01*
X182480Y91142D02*
X182499Y91123D01*
X180366Y76480D02*
X181906Y78020D01*
X180207Y76480D02*
X180366D01*
X164803Y120728D02*
X166772Y118760D01*
Y114803D02*
Y118760D01*
X166732Y114764D02*
X166772Y114803D01*
X168602Y126043D02*
X168701Y125945D01*
Y114764D02*
Y125945D01*
X172638Y125709D02*
X173031Y126102D01*
X172638Y114764D02*
Y125709D01*
X164803Y120728D02*
Y125492D01*
X176555Y120472D02*
Y125256D01*
X174606Y118524D02*
X176555Y120472D01*
X174606Y114764D02*
Y118524D01*
X164193Y126102D02*
X164803Y125492D01*
X164193Y132402D02*
Y140551D01*
X164322Y140680D01*
X176555Y125256D02*
X177402Y126102D01*
X176575Y81299D02*
X176732Y81142D01*
Y78347D02*
X178351Y76727D01*
X176732Y78347D02*
Y81142D01*
X178351Y76727D02*
X179973D01*
X143799Y85996D02*
X144949Y87146D01*
X148957D02*
X149016Y87205D01*
X143799Y85650D02*
Y85996D01*
X144949Y87146D02*
X148957D01*
X251181Y74146D02*
X251700Y73627D01*
X251181Y79646D02*
X251496Y79961D01*
X251181Y74146D02*
Y79646D01*
X246700Y73627D02*
X247205Y74132D01*
X247165Y79961D02*
X247205Y79921D01*
Y74132D02*
Y79921D01*
X175841Y73627D02*
X176673D01*
X173169Y76300D02*
X175841Y73627D01*
X168701Y78099D02*
Y81299D01*
D112*
X248556Y241043D02*
X251850D01*
X260118Y225650D02*
Y228130D01*
X251146Y237103D02*
X260118Y228130D01*
X243694Y237103D02*
X251146D01*
X239330Y237137D02*
X243659D01*
X243694Y237103D01*
X223376Y244366D02*
X228720Y249710D01*
Y253346D01*
X218351Y244543D02*
X223326D01*
X218277Y244618D02*
X218351Y244543D01*
X223326D02*
X223376Y244493D01*
Y244366D02*
Y244493D01*
X72280Y45988D02*
X72280D01*
X82500Y35768D02*
X103347D01*
X72280Y45988D02*
X82500Y35768D01*
X71161Y47106D02*
X72280Y45988D01*
X34409Y73150D02*
X45779Y61781D01*
X34409Y73150D02*
Y91732D01*
X246771Y240877D02*
Y251536D01*
X245059Y253248D02*
X246771Y251536D01*
X237421Y253248D02*
X245059D01*
X237362Y253189D02*
X237421Y253248D01*
X248464Y240952D02*
X248556Y241043D01*
X246771Y240877D02*
X246846Y240952D01*
X248464D01*
X267402Y242215D02*
Y253150D01*
X262874Y241043D02*
X266230D01*
X267402Y242215D01*
X267362Y253189D02*
X267402Y253150D01*
X210836Y240877D02*
Y251899D01*
X210672Y241041D02*
X210836Y240877D01*
Y251899D02*
X212441Y253504D01*
X205512Y241041D02*
X210672D01*
X212441Y253504D02*
X219684D01*
X219724Y253463D01*
X189724Y242228D02*
X190896Y241057D01*
X194473D02*
X194488Y241041D01*
X189724Y242228D02*
Y253463D01*
X190896Y241057D02*
X194473D01*
D113*
X199547Y23568D02*
Y37894D01*
X206581Y24003D02*
Y28196D01*
X204522Y44399D02*
Y56738D01*
Y44399D02*
X207028Y41894D01*
X199547D02*
X202052Y44399D01*
X207028Y37894D02*
Y41894D01*
X202052Y44399D02*
Y57761D01*
X199547Y37894D02*
Y41894D01*
X204915Y22336D02*
X206581Y24016D01*
X205383Y57598D02*
X212344D01*
X207028Y28642D02*
Y37894D01*
X204360Y60068D02*
X212344D01*
X202052Y57761D02*
X204360Y60068D01*
X204522Y56738D02*
X205383Y57598D01*
X204915Y17966D02*
Y22336D01*
X204862Y17913D02*
X204915Y17966D01*
X206581Y28196D02*
X207028Y28642D01*
X199547Y23568D02*
X201322Y21793D01*
X202251Y17966D02*
Y20881D01*
X201338Y21793D02*
X202251Y20881D01*
X201322Y21793D02*
X201338D01*
X202251Y17966D02*
X202303Y17913D01*
X212790Y57152D02*
X213032D01*
X212344Y57598D02*
X212790Y57152D01*
X129959Y95735D02*
X131224Y97000D01*
X131574D01*
X125392Y95735D02*
X129959D01*
X124705Y96181D02*
X124946D01*
X125392Y95735D01*
X212344Y60068D02*
X212790Y60514D01*
X213032D01*
X125392Y93265D02*
X129959D01*
X131224Y92000D02*
X131574D01*
X129959Y93265D02*
X131224Y92000D01*
X124705Y92819D02*
X124946D01*
X125392Y93265D01*
D114*
X203326Y24752D02*
X203364Y24714D01*
X203287Y28642D02*
X203326Y28603D01*
Y24752D02*
Y28603D01*
X180374Y192779D02*
Y216319D01*
X166297Y178703D02*
X180374Y192779D01*
X176890Y178957D02*
X185945Y188012D01*
X172146Y178957D02*
X176890D01*
X172146Y178839D02*
X172146D01*
X166297Y178703D02*
Y178703D01*
X185945Y188012D02*
Y211673D01*
X199055Y183681D02*
X200335Y184961D01*
X199055Y179252D02*
Y183681D01*
X199035Y179232D02*
X199055Y179252D01*
X199035Y173130D02*
Y179232D01*
X199055Y166614D02*
Y173110D01*
X199035Y173130D02*
X199055Y173110D01*
X137165Y85295D02*
X137520Y85650D01*
X143799D01*
X185945Y211673D02*
X190866Y216595D01*
X227087D01*
X240158Y229666D01*
X223084Y227041D02*
Y232387D01*
X186102Y222047D02*
X218091D01*
X223084Y227041D01*
X180374Y216319D02*
X186102Y222047D01*
X240158Y229666D02*
Y232387D01*
D115*
X207382Y18600D02*
X207609Y18827D01*
X213090Y24814D02*
Y28442D01*
X207609Y21211D02*
X210509Y24112D01*
X207609Y18827D02*
Y21211D01*
X210509Y24112D02*
X212388D01*
X213090Y24814D01*
X137874Y92000D02*
X138224D01*
X144238Y93110D02*
X149016D01*
X143833Y93516D02*
X144238Y93110D01*
X139740Y93516D02*
X143833D01*
X138224Y92000D02*
X139740Y93516D01*
X145054Y95079D02*
X149016D01*
X144648Y95484D02*
X145054Y95079D01*
X138224Y97000D02*
X139740Y95484D01*
X144648D01*
X137874Y97000D02*
X138224D01*
D116*
X286850Y14646D02*
X288150Y13347D01*
X291437D01*
X286850Y14646D02*
Y42303D01*
X290133Y45585D02*
X303504D01*
X286850Y42303D02*
X290133Y45585D01*
X319331Y77185D02*
Y87126D01*
X326870D02*
X327054Y87310D01*
X329619D02*
X335039Y81890D01*
X327054Y87310D02*
X329619D01*
X322481Y73858D02*
X324658Y76035D01*
X307888Y67476D02*
X314271Y73858D01*
X322481D01*
X307888Y43520D02*
Y67476D01*
X301179Y36811D02*
X307888Y43520D01*
X295276Y36811D02*
X301179D01*
X295276Y25000D02*
X302028D01*
X319626Y42598D02*
Y58012D01*
X302028Y25000D02*
X319626Y42598D01*
X335039Y70236D02*
Y81890D01*
X319311Y66929D02*
X331732D01*
X335039Y70236D01*
X324658Y76385D02*
X325458Y77185D01*
X324658Y76035D02*
Y76385D01*
X325458Y77185D02*
X325807D01*
X319626Y58012D02*
X319882Y58268D01*
X326182D02*
X326752Y58838D01*
Y63189D01*
X232889Y39001D02*
X236712D01*
X236811Y39100D01*
X62800Y123150D02*
X70768D01*
X60236Y120586D02*
X62800Y123150D01*
X60236Y116142D02*
Y120586D01*
X131574Y108346D02*
X131614Y108386D01*
Y111733D02*
X134370Y114489D01*
X131614Y108386D02*
Y111733D01*
X134370Y114489D02*
Y114508D01*
X-198950Y1076551D02*
X268926D01*
X-198950Y1088551D02*
X268926D01*
X-198950Y896551D02*
Y1088551D01*
Y896551D02*
X-157959D01*
X-198950Y908551D02*
X-157959D01*
X-198950Y920551D02*
X-157959D01*
X-198950Y932551D02*
X-157959D01*
X-198950Y944551D02*
X-157959D01*
X-198950Y956551D02*
X-157959D01*
X-198950Y968551D02*
X-157959D01*
X-198950Y980551D02*
X-157959D01*
X-198950Y992551D02*
X-157959D01*
X-198950Y1004551D02*
X-157959D01*
X-198950Y1016551D02*
X-157959D01*
X-198950Y1028551D02*
X-157959D01*
X-198950Y1040551D02*
X-157959D01*
X-198950Y1052551D02*
X-157959D01*
X-198950Y1064551D02*
X-157959D01*
Y896551D02*
Y1088551D01*
Y896551D02*
X-24997D01*
X-157959Y908551D02*
X-24997D01*
X-157959Y920551D02*
X-24997D01*
X-157959Y932551D02*
X-24997D01*
X-157959Y944551D02*
X-24997D01*
X-157959Y956551D02*
X-24997D01*
X-157959Y968551D02*
X-24997D01*
X-157959Y980551D02*
X-24997D01*
X-157959Y992551D02*
X-24997D01*
X-157959Y1004551D02*
X-24997D01*
X-157959Y1016551D02*
X-24997D01*
X-157959Y1028551D02*
X-24997D01*
X-157959Y1040551D02*
X-24997D01*
X-157959Y1052551D02*
X-24997D01*
X-157959Y1064551D02*
X-24997D01*
Y896551D02*
Y1088551D01*
Y896551D02*
X34988D01*
X-24997Y908551D02*
X34988D01*
X-24997Y920551D02*
X34988D01*
X-24997Y932551D02*
X34988D01*
X-24997Y944551D02*
X34988D01*
X-24997Y956551D02*
X34988D01*
X-24997Y968551D02*
X34988D01*
X-24997Y980551D02*
X34988D01*
X-24997Y992551D02*
X34988D01*
X-24997Y1004551D02*
X34988D01*
X-24997Y1016551D02*
X34988D01*
X-24997Y1028551D02*
X34988D01*
X-24997Y1040551D02*
X34988D01*
X-24997Y1052551D02*
X34988D01*
X-24997Y1064551D02*
X34988D01*
Y896551D02*
Y1088551D01*
Y896551D02*
X99971D01*
X34988Y908551D02*
X99971D01*
X34988Y920551D02*
X99971D01*
X34988Y932551D02*
X99971D01*
X34988Y944551D02*
X99971D01*
X34988Y956551D02*
X99971D01*
X34988Y968551D02*
X99971D01*
X34988Y980551D02*
X99971D01*
X34988Y992551D02*
X99971D01*
X34988Y1004551D02*
X99971D01*
X34988Y1016551D02*
X99971D01*
X34988Y1028551D02*
X99971D01*
X34988Y1040551D02*
X99971D01*
X34988Y1052551D02*
X99971D01*
X34988Y1064551D02*
X99971D01*
Y896551D02*
Y1088551D01*
Y896551D02*
X156958D01*
X99971Y908551D02*
X156958D01*
X99971Y920551D02*
X156958D01*
X99971Y932551D02*
X156958D01*
X99971Y944551D02*
X156958D01*
X99971Y956551D02*
X156958D01*
X99971Y968551D02*
X156958D01*
X99971Y980551D02*
X156958D01*
X99971Y992551D02*
X156958D01*
X99971Y1004551D02*
X156958D01*
X99971Y1016551D02*
X156958D01*
X99971Y1028551D02*
X156958D01*
X99971Y1040551D02*
X156958D01*
X99971Y1052551D02*
X156958D01*
X99971Y1064551D02*
X156958D01*
Y896551D02*
Y1088551D01*
Y896551D02*
X268926D01*
X156958Y908551D02*
X268926D01*
X156958Y920551D02*
X268926D01*
X156958Y932551D02*
X268926D01*
X156958Y944551D02*
X268926D01*
X156958Y956551D02*
X268926D01*
X156958Y968551D02*
X268926D01*
X156958Y980551D02*
X268926D01*
X156958Y992551D02*
X268926D01*
X156958Y1004551D02*
X268926D01*
X156958Y1016551D02*
X268926D01*
X156958Y1028551D02*
X268926D01*
X156958Y1040551D02*
X268926D01*
X156958Y1052551D02*
X268926D01*
X156958Y1064551D02*
X268926D01*
Y896551D02*
Y1088551D01*
X-198950Y412150D02*
X268926D01*
Y589482D01*
X155409D02*
X268926D01*
X155408Y893551D02*
X155409Y589482D01*
X-198950Y893551D02*
X155408D01*
X-198950Y412150D02*
Y893551D01*
D117*
X316236Y117615D02*
X316745Y117106D01*
X320177D01*
X323336Y113948D01*
Y83965D02*
Y113948D01*
Y83965D02*
X325786Y81515D01*
X328662D01*
X330906Y79272D01*
Y74823D02*
Y79272D01*
X326752Y70669D02*
X330906Y74823D01*
X314900Y70669D02*
X326752D01*
X313436Y69205D02*
X314900Y70669D01*
X295701Y30480D02*
X298258D01*
X298286Y30453D02*
X301408D01*
X313436Y42480D02*
Y69205D01*
X298258Y30480D02*
X298286Y30453D01*
X295276Y30906D02*
X295701Y30480D01*
X301408Y30453D02*
X313436Y42480D01*
X238770Y237697D02*
X239330Y237137D01*
X233966Y237697D02*
X238770D01*
X233597Y238066D02*
X233966Y237697D01*
X219823Y39370D02*
Y45106D01*
X218789Y46139D02*
Y46663D01*
Y46139D02*
X219823Y45106D01*
X222448Y237137D02*
X223376Y238066D01*
X216784Y232387D02*
X217126Y232729D01*
X217951Y237137D02*
X222448D01*
X217126Y232729D02*
Y236312D01*
X217951Y237137D01*
X41929Y131102D02*
X50413Y122618D01*
X54862D01*
X41929Y131102D02*
Y134878D01*
X42047Y134996D01*
Y135256D01*
X42008Y135295D02*
X42047Y135256D01*
X20959Y131161D02*
X25093Y135295D01*
X42008D01*
X20728Y111476D02*
X20787Y111417D01*
X35827D02*
X37402Y112992D01*
X20787Y111417D02*
X35827D01*
X76313Y9265D02*
X76555Y9507D01*
X74154Y3898D02*
X76313Y6057D01*
Y9265D01*
X49646Y3898D02*
X74154D01*
X76555Y15808D02*
X76595Y15768D01*
X81968D01*
X84547Y13189D02*
X86811D01*
X81968Y15768D02*
X84547Y13189D01*
X37402Y112992D02*
X47067D01*
X20728Y131161D02*
X20959D01*
X213213Y39370D02*
X219823D01*
X213130Y38780D02*
Y39287D01*
X213213Y39370D01*
X233495Y244468D02*
X233597Y244366D01*
X229646Y244468D02*
X233495D01*
X228740Y232973D02*
X229326Y232387D01*
X228740Y232973D02*
Y243563D01*
X229646Y244468D01*
X229326Y232387D02*
X233858D01*
X239078Y244366D02*
X239330Y244618D01*
X233597Y244366D02*
X239078D01*
X59646Y109252D02*
X60236Y109842D01*
X54508Y109252D02*
X59646D01*
D118*
X252362Y320079D02*
X262205Y329921D01*
Y351024D01*
X262362Y351181D01*
X237362Y293189D02*
X252362Y308189D01*
Y320079D01*
X205512Y309251D02*
Y321654D01*
X214724Y330866D02*
Y351181D01*
X205512Y321654D02*
X214724Y330866D01*
X189724Y293463D02*
X205512Y309251D01*
X151232Y332335D02*
X170079Y351181D01*
X151232Y313158D02*
Y332335D01*
X25197Y331339D02*
X43377Y313158D01*
X72492D01*
X51890Y351260D02*
X51968Y351181D01*
X25197Y351339D02*
X25276Y351260D01*
X51890D01*
D119*
X98425Y211024D02*
X98435Y211034D01*
X107471D02*
X107480Y211043D01*
D120*
X262926Y896551D02*
X268926Y902551D01*
X256926Y896551D02*
X268926Y908551D01*
X250926Y896551D02*
X262926Y908551D01*
X244926Y896551D02*
X256926Y908551D01*
X238926Y896551D02*
X250926Y908551D01*
X232926Y896551D02*
X244926Y908551D01*
X226926Y896551D02*
X238926Y908551D01*
X220926Y896551D02*
X232926Y908551D01*
X214926Y896551D02*
X226926Y908551D01*
X208926Y896551D02*
X220926Y908551D01*
X202926Y896551D02*
X214926Y908551D01*
X196926Y896551D02*
X208926Y908551D01*
X190926Y896551D02*
X202926Y908551D01*
X184926Y896551D02*
X196926Y908551D01*
X178926Y896551D02*
X190926Y908551D01*
X172926Y896551D02*
X184926Y908551D01*
X166926Y896551D02*
X178926Y908551D01*
X160926Y896551D02*
X172926Y908551D01*
X156958Y898583D02*
X166926Y908551D01*
X156958Y904583D02*
X160926Y908551D01*
X262926D02*
X268926Y914551D01*
X256926Y908551D02*
X268926Y920551D01*
X250926Y908551D02*
X262926Y920551D01*
X244926Y908551D02*
X256926Y920551D01*
X238926Y908551D02*
X250926Y920551D01*
X232926Y908551D02*
X244926Y920551D01*
X226926Y908551D02*
X238926Y920551D01*
X220926Y908551D02*
X232926Y920551D01*
X214926Y908551D02*
X226926Y920551D01*
X208926Y908551D02*
X220926Y920551D01*
X202926Y908551D02*
X214926Y920551D01*
X196926Y908551D02*
X208926Y920551D01*
X190926Y908551D02*
X202926Y920551D01*
X184926Y908551D02*
X196926Y920551D01*
X178926Y908551D02*
X190926Y920551D01*
X172926Y908551D02*
X184926Y920551D01*
X166926Y908551D02*
X178926Y920551D01*
X160926Y908551D02*
X172926Y920551D01*
X156958Y910583D02*
X166926Y920551D01*
X156958Y916583D02*
X160926Y920551D01*
X262926D02*
X268926Y926551D01*
X256926Y920551D02*
X268926Y932551D01*
X250926Y920551D02*
X262926Y932551D01*
X244926Y920551D02*
X256926Y932551D01*
X238926Y920551D02*
X250926Y932551D01*
X232926Y920551D02*
X244926Y932551D01*
X226926Y920551D02*
X238926Y932551D01*
X220926Y920551D02*
X232926Y932551D01*
X214926Y920551D02*
X226926Y932551D01*
X208926Y920551D02*
X220926Y932551D01*
X202926Y920551D02*
X214926Y932551D01*
X196926Y920551D02*
X208926Y932551D01*
X190926Y920551D02*
X202926Y932551D01*
X184926Y920551D02*
X196926Y932551D01*
X178926Y920551D02*
X190926Y932551D01*
X172926Y920551D02*
X184926Y932551D01*
X166926Y920551D02*
X178926Y932551D01*
X160926Y920551D02*
X172926Y932551D01*
X156958Y922583D02*
X166926Y932551D01*
X156958Y928583D02*
X160926Y932551D01*
X262926D02*
X268926Y938551D01*
X256926Y932551D02*
X268926Y944551D01*
X250926Y932551D02*
X262926Y944551D01*
X244926Y932551D02*
X256926Y944551D01*
X238926Y932551D02*
X250926Y944551D01*
X232926Y932551D02*
X244926Y944551D01*
X226926Y932551D02*
X238926Y944551D01*
X220926Y932551D02*
X232926Y944551D01*
X214926Y932551D02*
X226926Y944551D01*
X208926Y932551D02*
X220926Y944551D01*
X202926Y932551D02*
X214926Y944551D01*
X196926Y932551D02*
X208926Y944551D01*
X190926Y932551D02*
X202926Y944551D01*
X184926Y932551D02*
X196926Y944551D01*
X178926Y932551D02*
X190926Y944551D01*
X172926Y932551D02*
X184926Y944551D01*
X166926Y932551D02*
X178926Y944551D01*
X160926Y932551D02*
X172926Y944551D01*
X156958Y934583D02*
X166926Y944551D01*
X156958Y940583D02*
X160926Y944551D01*
X262926D02*
X268926Y950551D01*
X256926Y944551D02*
X268926Y956551D01*
X250926Y944551D02*
X262926Y956551D01*
X244926Y944551D02*
X256926Y956551D01*
X238926Y944551D02*
X250926Y956551D01*
X232926Y944551D02*
X244926Y956551D01*
X226926Y944551D02*
X238926Y956551D01*
X220926Y944551D02*
X232926Y956551D01*
X214926Y944551D02*
X226926Y956551D01*
X208926Y944551D02*
X220926Y956551D01*
X202926Y944551D02*
X214926Y956551D01*
X196926Y944551D02*
X208926Y956551D01*
X190926Y944551D02*
X202926Y956551D01*
X184926Y944551D02*
X196926Y956551D01*
X178926Y944551D02*
X190926Y956551D01*
X172926Y944551D02*
X184926Y956551D01*
X166926Y944551D02*
X178926Y956551D01*
X160926Y944551D02*
X172926Y956551D01*
X156958Y946583D02*
X166926Y956551D01*
X156958Y952583D02*
X160926Y956551D01*
X262926D02*
X268926Y962551D01*
X256926Y956551D02*
X268926Y968551D01*
X250926Y956551D02*
X262926Y968551D01*
X244926Y956551D02*
X256926Y968551D01*
X238926Y956551D02*
X250926Y968551D01*
X232926Y956551D02*
X244926Y968551D01*
X226926Y956551D02*
X238926Y968551D01*
X220926Y956551D02*
X232926Y968551D01*
X214926Y956551D02*
X226926Y968551D01*
X208926Y956551D02*
X220926Y968551D01*
X202926Y956551D02*
X214926Y968551D01*
X196926Y956551D02*
X208926Y968551D01*
X190926Y956551D02*
X202926Y968551D01*
X184926Y956551D02*
X196926Y968551D01*
X178926Y956551D02*
X190926Y968551D01*
X172926Y956551D02*
X184926Y968551D01*
X166926Y956551D02*
X178926Y968551D01*
X160926Y956551D02*
X172926Y968551D01*
X156958Y958583D02*
X166926Y968551D01*
X156958Y964583D02*
X160926Y968551D01*
X262926D02*
X268926Y974551D01*
X256926Y968551D02*
X268926Y980551D01*
X250926Y968551D02*
X262926Y980551D01*
X244926Y968551D02*
X256926Y980551D01*
X238926Y968551D02*
X250926Y980551D01*
X232926Y968551D02*
X244926Y980551D01*
X226926Y968551D02*
X238926Y980551D01*
X220926Y968551D02*
X232926Y980551D01*
X214926Y968551D02*
X226926Y980551D01*
X208926Y968551D02*
X220926Y980551D01*
X202926Y968551D02*
X214926Y980551D01*
X196926Y968551D02*
X208926Y980551D01*
X190926Y968551D02*
X202926Y980551D01*
X184926Y968551D02*
X196926Y980551D01*
X178926Y968551D02*
X190926Y980551D01*
X172926Y968551D02*
X184926Y980551D01*
X166926Y968551D02*
X178926Y980551D01*
X160926Y968551D02*
X172926Y980551D01*
X156958Y970583D02*
X166926Y980551D01*
X156958Y976583D02*
X160926Y980551D01*
X262926D02*
X268926Y986551D01*
X256926Y980551D02*
X268926Y992551D01*
X250926Y980551D02*
X262926Y992551D01*
X244926Y980551D02*
X256926Y992551D01*
X238926Y980551D02*
X250926Y992551D01*
X232926Y980551D02*
X244926Y992551D01*
X226926Y980551D02*
X238926Y992551D01*
X220926Y980551D02*
X232926Y992551D01*
X214926Y980551D02*
X226926Y992551D01*
X208926Y980551D02*
X220926Y992551D01*
X202926Y980551D02*
X214926Y992551D01*
X196926Y980551D02*
X208926Y992551D01*
X190926Y980551D02*
X202926Y992551D01*
X184926Y980551D02*
X196926Y992551D01*
X178926Y980551D02*
X190926Y992551D01*
X172926Y980551D02*
X184926Y992551D01*
X166926Y980551D02*
X178926Y992551D01*
X160926Y980551D02*
X172926Y992551D01*
X156958Y982583D02*
X166926Y992551D01*
X156958Y988583D02*
X160926Y992551D01*
X262926D02*
X268926Y998551D01*
X256926Y992551D02*
X268926Y1004551D01*
X250926Y992551D02*
X262926Y1004551D01*
X244926Y992551D02*
X256926Y1004551D01*
X238926Y992551D02*
X250926Y1004551D01*
X232926Y992551D02*
X244926Y1004551D01*
X226926Y992551D02*
X238926Y1004551D01*
X220926Y992551D02*
X232926Y1004551D01*
X214926Y992551D02*
X226926Y1004551D01*
X208926Y992551D02*
X220926Y1004551D01*
X202926Y992551D02*
X214926Y1004551D01*
X196926Y992551D02*
X208926Y1004551D01*
X190926Y992551D02*
X202926Y1004551D01*
X184926Y992551D02*
X196926Y1004551D01*
X178926Y992551D02*
X190926Y1004551D01*
X172926Y992551D02*
X184926Y1004551D01*
X166926Y992551D02*
X178926Y1004551D01*
X160926Y992551D02*
X172926Y1004551D01*
X156958Y994583D02*
X166926Y1004551D01*
X156958Y1000583D02*
X160926Y1004551D01*
X262926D02*
X268926Y1010551D01*
X256926Y1004551D02*
X268926Y1016551D01*
X250926Y1004551D02*
X262926Y1016551D01*
X244926Y1004551D02*
X256926Y1016551D01*
X238926Y1004551D02*
X250926Y1016551D01*
X232926Y1004551D02*
X244926Y1016551D01*
X226926Y1004551D02*
X238926Y1016551D01*
X220926Y1004551D02*
X232926Y1016551D01*
X214926Y1004551D02*
X226926Y1016551D01*
X208926Y1004551D02*
X220926Y1016551D01*
X202926Y1004551D02*
X214926Y1016551D01*
X196926Y1004551D02*
X208926Y1016551D01*
X190926Y1004551D02*
X202926Y1016551D01*
X184926Y1004551D02*
X196926Y1016551D01*
X178926Y1004551D02*
X190926Y1016551D01*
X172926Y1004551D02*
X184926Y1016551D01*
X166926Y1004551D02*
X178926Y1016551D01*
X160926Y1004551D02*
X172926Y1016551D01*
X156958Y1006583D02*
X166926Y1016551D01*
X156958Y1012583D02*
X160926Y1016551D01*
X262926D02*
X268926Y1022551D01*
X256926Y1016551D02*
X268926Y1028551D01*
X250926Y1016551D02*
X262926Y1028551D01*
X244926Y1016551D02*
X256926Y1028551D01*
X238926Y1016551D02*
X250926Y1028551D01*
X232926Y1016551D02*
X244926Y1028551D01*
X226926Y1016551D02*
X238926Y1028551D01*
X220926Y1016551D02*
X232926Y1028551D01*
X214926Y1016551D02*
X226926Y1028551D01*
X208926Y1016551D02*
X220926Y1028551D01*
X202926Y1016551D02*
X214926Y1028551D01*
X196926Y1016551D02*
X208926Y1028551D01*
X190926Y1016551D02*
X202926Y1028551D01*
X184926Y1016551D02*
X196926Y1028551D01*
X178926Y1016551D02*
X190926Y1028551D01*
X172926Y1016551D02*
X184926Y1028551D01*
X166926Y1016551D02*
X178926Y1028551D01*
X160926Y1016551D02*
X172926Y1028551D01*
X156958Y1018583D02*
X166926Y1028551D01*
X156958Y1024583D02*
X160926Y1028551D01*
X262926D02*
X268926Y1034551D01*
X256926Y1028551D02*
X268926Y1040551D01*
X250926Y1028551D02*
X262926Y1040551D01*
X244926Y1028551D02*
X256926Y1040551D01*
X238926Y1028551D02*
X250926Y1040551D01*
X232926Y1028551D02*
X244926Y1040551D01*
X226926Y1028551D02*
X238926Y1040551D01*
X220926Y1028551D02*
X232926Y1040551D01*
X214926Y1028551D02*
X226926Y1040551D01*
X208926Y1028551D02*
X220926Y1040551D01*
X202926Y1028551D02*
X214926Y1040551D01*
X196926Y1028551D02*
X208926Y1040551D01*
X190926Y1028551D02*
X202926Y1040551D01*
X184926Y1028551D02*
X196926Y1040551D01*
X178926Y1028551D02*
X190926Y1040551D01*
X172926Y1028551D02*
X184926Y1040551D01*
X166926Y1028551D02*
X178926Y1040551D01*
X160926Y1028551D02*
X172926Y1040551D01*
X156958Y1030583D02*
X166926Y1040551D01*
X156958Y1036583D02*
X160926Y1040551D01*
X262926D02*
X268926Y1046551D01*
X256926Y1040551D02*
X268926Y1052551D01*
X250926Y1040551D02*
X262926Y1052551D01*
X244926Y1040551D02*
X256926Y1052551D01*
X238926Y1040551D02*
X250926Y1052551D01*
X232926Y1040551D02*
X244926Y1052551D01*
X226926Y1040551D02*
X238926Y1052551D01*
X220926Y1040551D02*
X232926Y1052551D01*
X214926Y1040551D02*
X226926Y1052551D01*
X208926Y1040551D02*
X220926Y1052551D01*
X202926Y1040551D02*
X214926Y1052551D01*
X196926Y1040551D02*
X208926Y1052551D01*
X190926Y1040551D02*
X202926Y1052551D01*
X184926Y1040551D02*
X196926Y1052551D01*
X178926Y1040551D02*
X190926Y1052551D01*
X172926Y1040551D02*
X184926Y1052551D01*
X166926Y1040551D02*
X178926Y1052551D01*
X160926Y1040551D02*
X172926Y1052551D01*
X156958Y1042583D02*
X166926Y1052551D01*
X156958Y1048583D02*
X160926Y1052551D01*
X262926D02*
X268926Y1058551D01*
X256926Y1052551D02*
X268926Y1064551D01*
X250926Y1052551D02*
X262926Y1064551D01*
X244926Y1052551D02*
X256926Y1064551D01*
X238926Y1052551D02*
X250926Y1064551D01*
X232926Y1052551D02*
X244926Y1064551D01*
X226926Y1052551D02*
X238926Y1064551D01*
X220926Y1052551D02*
X232926Y1064551D01*
X214926Y1052551D02*
X226926Y1064551D01*
X208926Y1052551D02*
X220926Y1064551D01*
X202926Y1052551D02*
X214926Y1064551D01*
X196926Y1052551D02*
X208926Y1064551D01*
X190926Y1052551D02*
X202926Y1064551D01*
X184926Y1052551D02*
X196926Y1064551D01*
X178926Y1052551D02*
X190926Y1064551D01*
X172926Y1052551D02*
X184926Y1064551D01*
X166926Y1052551D02*
X178926Y1064551D01*
X160926Y1052551D02*
X172926Y1064551D01*
X156958Y1054583D02*
X166926Y1064551D01*
X156958Y1060583D02*
X160926Y1064551D01*
X262926D02*
X268926Y1070551D01*
X256926Y1064551D02*
X268926Y1076551D01*
X250926Y1064551D02*
X262926Y1076551D01*
X244926Y1064551D02*
X256926Y1076551D01*
X238926Y1064551D02*
X250926Y1076551D01*
X232926Y1064551D02*
X244926Y1076551D01*
X226926Y1064551D02*
X238926Y1076551D01*
X220926Y1064551D02*
X232926Y1076551D01*
X214926Y1064551D02*
X226926Y1076551D01*
X208926Y1064551D02*
X220926Y1076551D01*
X202926Y1064551D02*
X214926Y1076551D01*
X196926Y1064551D02*
X208926Y1076551D01*
X190926Y1064551D02*
X202926Y1076551D01*
X184926Y1064551D02*
X196926Y1076551D01*
X178926Y1064551D02*
X190926Y1076551D01*
X172926Y1064551D02*
X184926Y1076551D01*
X166926Y1064551D02*
X178926Y1076551D01*
X160926Y1064551D02*
X172926Y1076551D01*
X156958Y1066583D02*
X166926Y1076551D01*
X156958Y1072583D02*
X160926Y1076551D01*
X262872Y412096D02*
X268926Y418150D01*
X256872Y412096D02*
X268926Y424150D01*
X250872Y412096D02*
X268926Y430150D01*
X244872Y412096D02*
X268926Y436150D01*
X238872Y412096D02*
X268926Y442150D01*
X232872Y412096D02*
X268926Y448150D01*
X226872Y412096D02*
X268926Y454150D01*
X220872Y412096D02*
X268926Y460150D01*
X214872Y412096D02*
X268926Y466150D01*
X208872Y412096D02*
X268926Y472150D01*
X202872Y412096D02*
X268926Y478150D01*
X196872Y412096D02*
X268926Y484150D01*
X190872Y412096D02*
X268926Y490150D01*
X184872Y412096D02*
X268926Y496150D01*
X178872Y412096D02*
X268926Y502150D01*
X172872Y412096D02*
X268926Y508150D01*
X166872Y412096D02*
X268926Y514150D01*
X160872Y412096D02*
X268926Y520150D01*
X154872Y412096D02*
X268926Y526150D01*
X148872Y412096D02*
X268926Y532150D01*
X142872Y412096D02*
X268926Y538150D01*
X136872Y412096D02*
X268926Y544150D01*
X130872Y412096D02*
X268926Y550150D01*
X124872Y412096D02*
X268926Y556150D01*
X118872Y412096D02*
X268926Y562150D01*
X112872Y412096D02*
X268926Y568150D01*
X106872Y412096D02*
X268926Y574150D01*
X100872Y412096D02*
X268926Y580150D01*
X94872Y412096D02*
X268926Y586150D01*
X88872Y412096D02*
X266335Y589559D01*
X82872Y412096D02*
X260335Y589559D01*
X76872Y412096D02*
X254335Y589559D01*
X70872Y412096D02*
X248335Y589559D01*
X64872Y412096D02*
X242335Y589559D01*
X58872Y412096D02*
X236335Y589559D01*
X52872Y412096D02*
X230335Y589559D01*
X46872Y412096D02*
X224335Y589559D01*
X40872Y412096D02*
X218335Y589559D01*
X34872Y412096D02*
X212335Y589559D01*
X28872Y412096D02*
X206335Y589559D01*
X22872Y412096D02*
X200335Y589559D01*
X16872Y412096D02*
X194335Y589559D01*
X10872Y412096D02*
X188335Y589559D01*
X4872Y412096D02*
X182335Y589559D01*
X-1128Y412096D02*
X176335Y589559D01*
X-7128Y412096D02*
X170335Y589559D01*
X-13128Y412096D02*
X164335Y589559D01*
X-19128Y412096D02*
X158335Y589559D01*
X-25128Y412096D02*
X155409Y592632D01*
X-31128Y412096D02*
X155409Y598632D01*
X-37128Y412096D02*
X155409Y604633D01*
X-43128Y412096D02*
X155409Y610633D01*
X-49128Y412096D02*
X155409Y616633D01*
X-55128Y412096D02*
X155409Y622633D01*
X-61128Y412096D02*
X155409Y628632D01*
X-67128Y412096D02*
X155409Y634632D01*
X-73128Y412096D02*
X155409Y640632D01*
X-79128Y412096D02*
X155409Y646632D01*
X-85128Y412096D02*
X155409Y652633D01*
X-91128Y412096D02*
X155409Y658633D01*
X-97128Y412096D02*
X155409Y664633D01*
X-103128Y412096D02*
X155409Y670633D01*
X-109128Y412096D02*
X155409Y676632D01*
X-115128Y412096D02*
X155409Y682632D01*
X-121128Y412096D02*
X155409Y688632D01*
X-127128Y412096D02*
X155409Y694632D01*
X-133128Y412096D02*
X155409Y700632D01*
X-139128Y412096D02*
X155409Y706633D01*
X-145128Y412096D02*
X155409Y712633D01*
X-151128Y412096D02*
X155409Y718633D01*
X-157128Y412096D02*
X155409Y724633D01*
X-163128Y412096D02*
X155409Y730632D01*
X-169128Y412096D02*
X155409Y736632D01*
X-175128Y412096D02*
X155408Y742632D01*
X-181128Y412096D02*
X155408Y748632D01*
X-187128Y412096D02*
X155408Y754633D01*
X-193128Y412096D02*
X155408Y760633D01*
X-198950Y412274D02*
X155408Y766633D01*
X-198950Y418274D02*
X155408Y772633D01*
X-198950Y424274D02*
X155408Y778632D01*
X-198950Y430274D02*
X155408Y784632D01*
X-198950Y436274D02*
X155408Y790632D01*
X-198950Y442274D02*
X155408Y796632D01*
X-198950Y448274D02*
X155408Y802633D01*
X-198950Y454274D02*
X155408Y808632D01*
X-198950Y460274D02*
X155408Y814633D01*
X-198950Y466274D02*
X155408Y820632D01*
X-198950Y472274D02*
X155408Y826632D01*
X-198950Y478274D02*
X155408Y832633D01*
X-198950Y484274D02*
X155408Y838632D01*
X-198950Y490274D02*
X155408Y844633D01*
X-198950Y496274D02*
X155408Y850632D01*
X-198950Y502274D02*
X155408Y856633D01*
X-198950Y508274D02*
X155408Y862632D01*
X-198950Y514274D02*
X155408Y868633D01*
X-198950Y520274D02*
X155408Y874632D01*
X-198950Y526274D02*
X155408Y880632D01*
X-198950Y532274D02*
X155408Y886633D01*
X-198950Y538274D02*
X155408Y892632D01*
X-198950Y544274D02*
X150381Y893605D01*
X-198950Y550274D02*
X144381Y893605D01*
X-198950Y556274D02*
X138381Y893605D01*
X-198950Y562274D02*
X132381Y893605D01*
X-198950Y568274D02*
X126381Y893605D01*
X-198950Y574274D02*
X120381Y893605D01*
X-198950Y580274D02*
X114381Y893605D01*
X-198950Y586274D02*
X108381Y893605D01*
X-198950Y592274D02*
X102381Y893605D01*
X-198950Y598274D02*
X96381Y893605D01*
X-198950Y604274D02*
X90381Y893605D01*
X-198950Y610274D02*
X84381Y893605D01*
X-198950Y616274D02*
X78381Y893605D01*
X-198950Y622274D02*
X72381Y893605D01*
X-198950Y628274D02*
X66381Y893605D01*
X-198950Y634274D02*
X60381Y893605D01*
X-198950Y640274D02*
X54381Y893605D01*
X-198950Y646274D02*
X48381Y893605D01*
X-198950Y652274D02*
X42381Y893605D01*
X-198950Y658274D02*
X36381Y893605D01*
X-198950Y664274D02*
X30381Y893605D01*
X-198950Y670274D02*
X24381Y893605D01*
X-198950Y676274D02*
X18381Y893605D01*
X-198950Y682274D02*
X12381Y893605D01*
X-198950Y688274D02*
X6381Y893605D01*
X-198950Y694274D02*
X381Y893605D01*
X-198950Y700274D02*
X-5619Y893605D01*
X-198950Y706274D02*
X-11619Y893605D01*
X-198950Y712274D02*
X-17619Y893605D01*
X-198950Y718274D02*
X-23619Y893605D01*
X-198950Y724274D02*
X-29619Y893605D01*
X-198950Y730274D02*
X-35619Y893605D01*
X-198950Y736274D02*
X-41619Y893605D01*
X-198950Y742274D02*
X-47619Y893605D01*
X-198950Y748274D02*
X-53619Y893605D01*
X-198950Y754274D02*
X-59619Y893605D01*
X-198950Y760274D02*
X-65619Y893605D01*
X-198950Y766274D02*
X-71619Y893605D01*
X-198950Y772274D02*
X-77619Y893605D01*
X-198950Y778274D02*
X-83619Y893605D01*
X-198950Y784274D02*
X-89619Y893605D01*
X-198950Y790274D02*
X-95619Y893605D01*
X-198950Y796274D02*
X-101619Y893605D01*
X-198950Y802274D02*
X-107619Y893605D01*
X-198950Y808274D02*
X-113619Y893605D01*
X-198950Y814274D02*
X-119619Y893605D01*
X-198950Y820274D02*
X-125619Y893605D01*
X-198950Y826274D02*
X-131619Y893605D01*
X-198950Y832274D02*
X-137619Y893605D01*
X-198950Y838274D02*
X-143619Y893605D01*
X-198950Y844274D02*
X-149619Y893605D01*
X-198950Y850274D02*
X-155619Y893605D01*
X-198950Y856274D02*
X-161619Y893605D01*
X-198950Y862274D02*
X-167619Y893605D01*
X-198950Y868274D02*
X-173619Y893605D01*
X-198950Y874274D02*
X-179619Y893605D01*
X-198950Y880274D02*
X-185619Y893605D01*
X-198950Y886274D02*
X-191619Y893605D01*
X-198950Y892274D02*
X-197619Y893605D01*
D121*
X25856Y29892D02*
D03*
D122*
X270892Y39459D02*
D03*
Y33554D02*
D03*
Y27648D02*
D03*
Y21743D02*
D03*
Y15837D02*
D03*
Y9932D02*
D03*
X295276Y7283D02*
D03*
Y13189D02*
D03*
Y19094D02*
D03*
Y25000D02*
D03*
Y30906D02*
D03*
Y36811D02*
D03*
D123*
X358484Y36161D02*
D03*
Y129724D02*
D03*
X293091Y128898D02*
D03*
X173721Y365295D02*
D03*
X56968Y137224D02*
D03*
X232480Y14370D02*
D03*
D124*
X316063Y117264D02*
D03*
X330236D02*
D03*
Y103091D02*
D03*
X247152Y146184D02*
D03*
X247349Y116361D02*
D03*
X228720Y253346D02*
D03*
X218789Y46663D02*
D03*
X54862Y122618D02*
D03*
D125*
X34646Y240551D02*
D03*
X14961D02*
D03*
X34646Y283465D02*
D03*
X14961D02*
D03*
X170079Y351181D02*
D03*
X51968D02*
D03*
X72492Y313158D02*
D03*
X151232D02*
D03*
X131547Y234418D02*
D03*
X92177D02*
D03*
X20728Y111476D02*
D03*
Y131161D02*
D03*
D126*
X148606Y25534D02*
D03*
X43307Y165354D02*
D03*
D127*
X167503Y38132D02*
D03*
X30709Y184252D02*
D03*
D128*
X144275Y50337D02*
D03*
D129*
X71161Y57943D02*
D03*
Y50718D02*
D03*
X67549Y61555D02*
D03*
Y54331D02*
D03*
Y47106D02*
D03*
X63937Y57943D02*
D03*
Y50718D02*
D03*
X60325Y61555D02*
D03*
Y54331D02*
D03*
Y47106D02*
D03*
X56713Y57943D02*
D03*
Y50718D02*
D03*
D130*
X237362Y323189D02*
D03*
X267362Y313189D02*
D03*
Y253189D02*
D03*
X237362Y293189D02*
D03*
Y253189D02*
D03*
X189724Y323463D02*
D03*
X219724Y313463D02*
D03*
Y253463D02*
D03*
X189724Y293463D02*
D03*
Y253463D02*
D03*
D131*
X242362Y351181D02*
D03*
X262362D02*
D03*
X194724D02*
D03*
X214724D02*
D03*
X25197Y331339D02*
D03*
Y351339D02*
D03*
D132*
X55512Y188583D02*
D03*
D133*
X244500Y6000D02*
D03*
X251100D02*
D03*
X257700D02*
D03*
X212776Y172598D02*
D03*
X187000Y99004D02*
D03*
X194193Y132264D02*
D03*
X220905Y96142D02*
D03*
X172146Y178839D02*
D03*
X176939Y147105D02*
D03*
X169130Y73066D02*
D03*
X158543Y125866D02*
D03*
X160759Y120978D02*
D03*
X186988Y105905D02*
D03*
X203364Y24714D02*
D03*
X171460Y90614D02*
D03*
X72205Y15505D02*
D03*
X160709Y62618D02*
D03*
X141319Y63602D02*
D03*
Y59606D02*
D03*
X156929Y71890D02*
D03*
X147658Y74154D02*
D03*
X207028Y208976D02*
D03*
X200335D02*
D03*
X303504Y45585D02*
D03*
X318563Y25374D02*
D03*
X308780Y25591D02*
D03*
X309567Y3701D02*
D03*
X260118Y225650D02*
D03*
X173839Y108740D02*
D03*
X199823Y68976D02*
D03*
X213032Y83425D02*
D03*
X44331Y153189D02*
D03*
X48150Y135197D02*
D03*
X77579Y161713D02*
D03*
X95925Y190630D02*
D03*
X114567Y190354D02*
D03*
X88346Y171063D02*
D03*
X127854Y180807D02*
D03*
X122106Y180591D02*
D03*
X133976Y176299D02*
D03*
X122028Y162343D02*
D03*
X65807Y144528D02*
D03*
X119193Y62697D02*
D03*
X124843D02*
D03*
X137165Y85295D02*
D03*
X118799Y79626D02*
D03*
X118661Y85295D02*
D03*
X109862Y98150D02*
D03*
X183642Y63504D02*
D03*
X175807Y94547D02*
D03*
X175768Y99390D02*
D03*
X154331Y109390D02*
D03*
X170098Y104744D02*
D03*
X166732Y99390D02*
D03*
X257874Y33504D02*
D03*
X251673D02*
D03*
X187697Y69114D02*
D03*
X138524Y79272D02*
D03*
X140689Y145846D02*
D03*
Y138839D02*
D03*
Y130709D02*
D03*
Y124784D02*
D03*
Y119468D02*
D03*
X210669Y175453D02*
D03*
Y179252D02*
D03*
X206437Y184961D02*
D03*
X188268Y169193D02*
D03*
X177646Y169198D02*
D03*
X158760Y155847D02*
D03*
X153986Y150157D02*
D03*
X162972Y152461D02*
D03*
X158760D02*
D03*
X162972Y155847D02*
D03*
X166297Y178703D02*
D03*
X176713Y143091D02*
D03*
X200335Y184961D02*
D03*
X245827Y39154D02*
D03*
X213032Y60514D02*
D03*
X24646Y25394D02*
D03*
X24473Y18316D02*
D03*
Y11993D02*
D03*
Y4173D02*
D03*
X64646Y16693D02*
D03*
X80335Y132421D02*
D03*
X76398D02*
D03*
X68465D02*
D03*
X72402D02*
D03*
X66535Y173228D02*
D03*
X70768Y123150D02*
D03*
X269094Y83487D02*
D03*
X261043Y84153D02*
D03*
X151142Y75413D02*
D03*
X156890D02*
D03*
X161890Y73130D02*
D03*
X185768Y78130D02*
D03*
X217165Y95906D02*
D03*
X171555Y94547D02*
D03*
X161575Y92795D02*
D03*
X194193Y125476D02*
D03*
X194193Y128839D02*
D03*
X142913Y90118D02*
D03*
X49646Y3898D02*
D03*
X45551D02*
D03*
Y6457D02*
D03*
X113973Y38291D02*
D03*
X54772Y102874D02*
D03*
X54843Y98917D02*
D03*
X58661Y198031D02*
D03*
X62598D02*
D03*
X66535D02*
D03*
X58661Y173228D02*
D03*
X62598D02*
D03*
X190787Y99301D02*
D03*
X114173Y107480D02*
D03*
X210295Y95197D02*
D03*
X134370Y114508D02*
D03*
X213032Y57152D02*
D03*
X124705Y96181D02*
D03*
Y92819D02*
D03*
X245412Y46173D02*
D03*
X232461Y46398D02*
D03*
X257800Y53000D02*
D03*
Y49000D02*
D03*
X232461Y39026D02*
D03*
X119685Y111417D02*
D03*
X114173Y115354D02*
D03*
D134*
X203263Y42327D02*
D03*
X165591Y72658D02*
D03*
M02*
